<svg height="auto" viewBox="0 0 2000 1000" xmlns="http://www.w3.org/2000/svg"><path d="M0 996.115c9.66-1.959 49.68-6.492 69-13.994s49.68-30.142 69-39.591c19.32-9.45 49.68-25.847 69-27.905 19.32-2.059 49.68 17.35 69 13.201 19.32-4.149 49.68-26.026 69-42.837 19.32-16.81 49.68-60.023 69-77.237 19.32-17.214 49.68-47.835 69-45.72 19.32 2.116 49.68 50.663 69 60.832 19.32 10.17 49.68 19.144 69 11.808 19.32-7.336 49.68-49.955 69-64.205s49.68-29.66 69-37.58c19.32-7.92 49.68-16.771 69-18.99 19.32-2.217 49.68 8.502 69 3.147 19.32-5.356 49.68-29.902 69-41.4 19.32-11.5 49.68-32.135 69-40.734 19.32-8.598 49.68 5.21 69-20.686s49.68-149.218 69-164.283c19.32-15.064 49.68 59.957 69 56.68 19.32-3.279 49.68-67.944 69-80.093 19.32-12.15 49.68-21.223 69-6.689 19.32 14.534 49.68 85.23 69 110.503 19.32 25.274 49.68 91.97 69 70.025 19.32-21.946 49.68-181.616 69-226.779 19.32-45.163 49.68-68.555 69-95.815 19.32-27.26 49.68-137.624 69-98.902 19.32 38.722 49.68 326.225 69 375.489 19.32 49.264 49.68-1.95 69-23.605s49.68-123.111 69-131.073c19.32-7.963 59.34 63.813 69 74.2L2000 1000H0Z" fill="#444cf71a"/><path d="M0 996.115c9.66-1.959 49.68-6.492 69-13.994s49.68-30.142 69-39.591c19.32-9.45 49.68-25.847 69-27.905 19.32-2.059 49.68 17.35 69 13.201 19.32-4.149 49.68-26.026 69-42.837 19.32-16.81 49.68-60.023 69-77.237 19.32-17.214 49.68-47.835 69-45.72 19.32 2.116 49.68 50.663 69 60.832 19.32 10.17 49.68 19.144 69 11.808 19.32-7.336 49.68-49.955 69-64.205s49.68-29.66 69-37.58c19.32-7.92 49.68-16.771 69-18.99 19.32-2.217 49.68 8.502 69 3.147 19.32-5.356 49.68-29.902 69-41.4 19.32-11.5 49.68-32.135 69-40.734 19.32-8.598 49.68 5.21 69-20.686s49.68-149.218 69-164.283c19.32-15.064 49.68 59.957 69 56.68 19.32-3.279 49.68-67.944 69-80.093 19.32-12.15 49.68-21.223 69-6.689 19.32 14.534 49.68 85.23 69 110.503 19.32 25.274 49.68 91.97 69 70.025 19.32-21.946 49.68-181.616 69-226.779 19.32-45.163 49.68-68.555 69-95.815 19.32-27.26 49.68-137.624 69-98.902 19.32 38.722 49.68 326.225 69 375.489 19.32 49.264 49.68-1.95 69-23.605s49.68-123.111 69-131.073c19.32-7.963 59.34 63.813 69 74.2" fill="none" stroke="#444cf7" stroke-width="4"/><g fill="#444cf7"><circle cy="996.115" r="8"/><circle cx="69" cy="982.121" r="8"/><circle cx="138" cy="942.53" r="8"/><circle cx="207" cy="914.625" r="8"/><circle cx="276" cy="927.826" r="8"/><circle cx="345" cy="884.989" r="8"/><circle cx="414" cy="807.752" r="8"/><circle cx="483" cy="762.033" r="8"/><circle cx="552" cy="822.864" r="8"/><circle cx="621" cy="834.672" r="8"/><circle cx="690" cy="770.467" r="8"/><circle cx="759" cy="732.887" r="8"/><circle cx="828" cy="713.898" r="8"/><circle cx="897" cy="717.044" r="8"/><circle cx="966" cy="675.643" r="8"/><circle cx="1035" cy="634.91" r="8"/><circle cx="1104" cy="614.224" r="8"/><circle cx="1173" cy="449.941" r="8"/><circle cx="1242" cy="506.62" r="8"/><circle cx="1311" cy="426.528" r="8"/><circle cx="1380" cy="419.839" r="8"/><circle cx="1449" cy="530.342" r="8"/><circle cx="1518" cy="600.367" r="8"/><circle cx="1587" cy="373.588" r="8"/><circle cx="1656" cy="277.773" r="8"/><circle cx="1725" cy="178.871" r="8"/><circle cx="1794" cy="554.36" r="8"/><circle cx="1863" cy="530.755" r="8"/><circle cx="1932" cy="399.682" r="8"/><circle cx="2001" cy="473.883" r="8"/></g></svg>