<svg height="auto" viewBox="0 0 2000 1000" xmlns="http://www.w3.org/2000/svg"><path d="M0 1.86c1.82.298 9.36 1 13 2.136 3.64 1.136 9.36 4.287 13 5.978 3.64 1.691 9.36 4.537 13 6.102 3.64 1.566 9.36 3.755 13 5.08 3.64 1.326 9.36 3.003 13 4.387 3.64 1.383 9.36 4.848 13 5.496 3.64.648 9.36-2.432 13-.868 3.64 1.564 9.36 11.104 13 12.037 3.64.934 9.36-5.254 13-5.37 3.64-.114 9.36 3.81 13 4.547 3.64.737 9.36-.928 13 .717 3.64 1.645 9.36 6.711 13 11.033 3.64 4.322 9.36 17.525 13 19.837 3.64 2.311 9.36-1.413 13-3.328 3.64-1.915 9.36-10.602 13-10.35 3.64.25 9.36 12.528 13 12.145 3.64-.384 9.36-14.258 13-14.883 3.64-.625 9.36 10.238 13 10.42 3.64.18 9.36-13.82 13-9.127 3.64 4.693 9.36 35.441 13 42.647 3.64 7.205 9.36 8.735 13 8.819 3.64.083 9.36-3.505 13-8.221 3.64-4.716 9.36-31.097 13-25.466 3.64 5.631 9.36 63.606 13 65.688 3.64 2.081 9.36-46.348 13-50.817 3.64-4.47 9.36 19.393 13 18.893 3.64-.5 9.36-24.136 13-22.466 3.64 1.67 9.36 29.232 13 34.395 3.64 5.163 9.36 1.403 13 2.486 3.64 1.083 9.36.716 13 5.252 3.64 4.536 9.36 19.215 13 27.15 3.64 7.935 9.36 29.073 13 29.528 3.64.455 9.36-27.179 13-26.275 3.64.903 9.36 25.965 13 32.728 3.64 6.764 9.36 25.042 13 15.585 3.64-9.457 9.36-82.162 13-83.134 3.64-.971 9.36 63.41 13 76.194 3.64 12.783 9.36 16.886 13 15.113 3.64-1.772 9.36-27.929 13-27.772 3.64.157 9.36 27.181 13 28.893 3.64 1.71 9.36-7.702 13-16.67 3.64-8.97 9.36-44.893 13-47.393 3.64-2.5 9.36 30.98 13 29.537 3.64-1.443 9.36-43.73 13-39.842 3.64 3.888 9.36 51.647 13 67.611 3.64 15.965 9.36 41.123 13 46.42 3.64 5.296 9.36-7.623 13-8.586 3.64-.964 9.36 2.248 13 1.704 3.64-.544 9.36 1.055 13-5.592 3.64-6.648 9.36-33.89 13-41.89 3.64-8.001 9.36-11.998 13-15.256 3.64-3.257 9.36-16.215 13-8.013 3.64 8.202 9.36 56.086 13 66.6 3.64 10.513 9.36 11.44 13 8.495 3.64-2.946 9.36-37.386 13-29.533 3.64 7.853 9.36 77.474 13 85.626 3.64 8.153 9.36-29.262 13-27.394 3.64 1.867 9.36 37.985 13 40.735 3.64 2.75 9.36-13.152 13-21.092 3.64-7.94 9.36-23.037 13-35.624 3.64-12.586 9.36-47.306 13-54.28 3.64-6.974 9.36-8.406 13 4.468 3.64 12.874 9.36 83.36 13 87.489 3.64 4.128 9.36-47.889 13-58 3.64-10.11 9.36-8.12 13-14.216 3.64-6.095 9.36-47.445 13-29.318 3.64 18.128 9.36 149.061 13 158.8 3.64 9.74 9.36-91.682 13-89.234 3.64 2.447 9.36 105.865 13 106.715 3.64.85 9.36-94.866 13-100.646 3.64-5.78 9.36 55.078 13 59.36 3.64 4.283 9.36-29.867 13-28.77 3.64 1.096 9.36 47.395 13 36.601 3.64-10.793 9.36-102.45 13-113.698 3.64-11.248 9.36 2.05 13 33.36 3.64 31.31 9.36 183.242 13 190.289 3.64 7.047 9.36-111.673 13-139.952 3.64-28.278 9.36-61.513 13-62.036 3.64-.522 9.36 29.97 13 58.303 3.64 28.333 9.36 120.052 13 144.076 3.64 24.023 9.36 38.176 13 27.521 3.64-10.654 9.36-92.686 13-103.625 3.64-10.94 9.36 17.803 13 25.489 3.64 7.685 9.36 36.936 13 29.41 3.64-7.527 9.36-82.645 13-83.172 3.64-.527 9.36 73.064 13 79.405 3.64 6.34 9.36-18.193 13-34.114 3.64-15.922 9.36-82.828 13-79.61 3.64 3.219 9.36 93.47 13 102.597 3.64 9.126 9.36-40.427 13-37.406 3.64 3.02 9.36 40.726 13 58.98 3.64 18.255 9.36 78.527 13 71.406 3.64-7.12 9.36-98.037 13-122.27 3.64-24.232 9.36-60.099 13-50.816 3.64 9.282 9.36 116.588 13 117.122 3.64.533 9.36-102.536 13-113.313 3.64-10.776 9.36 20.961 13 36.339 3.64 15.377 9.36 68.84 13 73.502 3.64 4.662 9.36-57.07 13-40.203 3.64 16.868 9.36 145.31 13 160.684 3.64 15.373 9.36-52.657 13-50.874 3.64 1.782 9.36 70.914 13 63.605 3.64-7.31 9.36-90.478 13-115.815 3.64-25.336 9.36-82.663 13-65.161 3.64 17.502 9.36 174.49 13 190.176 3.64 15.685 9.36-81.661 13-78.14 3.64 3.52 9.36 87.423 13 103.286 3.64 15.863 9.36 5.49 13 10.017 3.64 4.527 9.36 32.95 13 22.319 3.64-10.632 9.36-97.46 13-98.259 3.64-.8 9.36 108.427 13 92.546 3.64-15.881 9.36-207.32 13-205.983 3.64 1.337 9.36 188.764 13 215.536 3.64 26.772 9.36 13.811 13-24.307 3.64-38.118 9.36-244.392 13-247.964 3.64-3.573 9.36 198.036 13 222.445 3.64 24.409 9.36-31.331 13-48.097 3.64-16.766 9.36-76.455 13-71.657 3.64 4.798 9.36 121.864 13 105.928 3.64-15.937 9.36-193.397 13-219.759 3.64-26.362 9.36 22.093 13 31.462 3.64 9.368 9.36-7.984 13 35.455 3.64 43.44 9.36 240.904 13 274.83 3.64 33.925 9.36-30.07 13-32.503 3.64-2.432 9.36 7.652 13 15.13 3.64 7.479 9.36 66.204 13 38.287 3.64-27.917 9.36-194.06 13-237.693 3.64-43.632 9.36-67.68 13-73.967 3.64-6.287 9.36-7.395 13 29.063 3.64 36.458 9.36 195.84 13 231.35 3.64 35.51 9.36 36.47 13 22.293 3.64-14.177 9.36-133.338 13-123.553 3.64 9.785 9.36 191.515 13 193.444 3.64 1.93 9.36-159.539 13-179.663 3.64-20.124 9.36 7.721 13 35.92 3.64 28.2 9.36 178.696 13 165.503 3.64-13.193 9.36-229.961 13-259.741 3.64-29.78 9.36 11.054 13 47.026 3.64 35.972 9.36 185.813 13 209.918 3.64 24.104 9.36-17.604 13-37.741 3.64-20.138 9.36-71.014 13-106.099 3.64-35.084 9.36-141.673 13-144.507 3.64-2.834 9.36 112.494 13 124.264 3.64 11.77 9.36-20.934 13-40.188 3.64-19.254 9.36-87.262 13-97.341 3.64-10.08 9.36-17.584 13 25.346 3.64 42.93 9.36 235.954 13 281.295 3.64 45.34 9.36 82.455 13 42.567 3.64-39.889 9.36-302.902 13-327.482 3.64-24.581 9.36 125.422 13 151.905 3.64 26.483 9.36 22.41 13 37.258 3.64 14.848 9.36 51.664 13 68.8 3.64 17.136 9.36 32.798 13 53.598 3.64 20.8 9.36 137.164 13 94.974 3.64-42.19 9.36-366.269 13-396.329 3.64-30.06 11.18 156.19 13 181.615L2000 1000H0Z" fill="#444cf71a"/><path d="M0 1.86c1.82.298 9.36 1 13 2.136 3.64 1.136 9.36 4.287 13 5.978 3.64 1.691 9.36 4.537 13 6.102 3.64 1.566 9.36 3.755 13 5.08 3.64 1.326 9.36 3.003 13 4.387 3.64 1.383 9.36 4.848 13 5.496 3.64.648 9.36-2.432 13-.868 3.64 1.564 9.36 11.104 13 12.037 3.64.934 9.36-5.254 13-5.37 3.64-.114 9.36 3.81 13 4.547 3.64.737 9.36-.928 13 .717 3.64 1.645 9.36 6.711 13 11.033 3.64 4.322 9.36 17.525 13 19.837 3.64 2.311 9.36-1.413 13-3.328 3.64-1.915 9.36-10.602 13-10.35 3.64.25 9.36 12.528 13 12.145 3.64-.384 9.36-14.258 13-14.883 3.64-.625 9.36 10.238 13 10.42 3.64.18 9.36-13.82 13-9.127 3.64 4.693 9.36 35.441 13 42.647 3.64 7.205 9.36 8.735 13 8.819 3.64.083 9.36-3.505 13-8.221 3.64-4.716 9.36-31.097 13-25.466 3.64 5.631 9.36 63.606 13 65.688 3.64 2.081 9.36-46.348 13-50.817 3.64-4.47 9.36 19.393 13 18.893 3.64-.5 9.36-24.136 13-22.466 3.64 1.67 9.36 29.232 13 34.395 3.64 5.163 9.36 1.403 13 2.486 3.64 1.083 9.36.716 13 5.252 3.64 4.536 9.36 19.215 13 27.15 3.64 7.935 9.36 29.073 13 29.528 3.64.455 9.36-27.179 13-26.275 3.64.903 9.36 25.965 13 32.728 3.64 6.764 9.36 25.042 13 15.585 3.64-9.457 9.36-82.162 13-83.134 3.64-.971 9.36 63.41 13 76.194 3.64 12.783 9.36 16.886 13 15.113 3.64-1.772 9.36-27.929 13-27.772 3.64.157 9.36 27.181 13 28.893 3.64 1.71 9.36-7.702 13-16.67 3.64-8.97 9.36-44.893 13-47.393 3.64-2.5 9.36 30.98 13 29.537 3.64-1.443 9.36-43.73 13-39.842 3.64 3.888 9.36 51.647 13 67.611 3.64 15.965 9.36 41.123 13 46.42 3.64 5.296 9.36-7.623 13-8.586 3.64-.964 9.36 2.248 13 1.704 3.64-.544 9.36 1.055 13-5.592 3.64-6.648 9.36-33.89 13-41.89 3.64-8.001 9.36-11.998 13-15.256 3.64-3.257 9.36-16.215 13-8.013 3.64 8.202 9.36 56.086 13 66.6 3.64 10.513 9.36 11.44 13 8.495 3.64-2.946 9.36-37.386 13-29.533 3.64 7.853 9.36 77.474 13 85.626 3.64 8.153 9.36-29.262 13-27.394 3.64 1.867 9.36 37.985 13 40.735 3.64 2.75 9.36-13.152 13-21.092 3.64-7.94 9.36-23.037 13-35.624 3.64-12.586 9.36-47.306 13-54.28 3.64-6.974 9.36-8.406 13 4.468 3.64 12.874 9.36 83.36 13 87.489 3.64 4.128 9.36-47.889 13-58 3.64-10.11 9.36-8.12 13-14.216 3.64-6.095 9.36-47.445 13-29.318 3.64 18.128 9.36 149.061 13 158.8 3.64 9.74 9.36-91.682 13-89.234 3.64 2.447 9.36 105.865 13 106.715 3.64.85 9.36-94.866 13-100.646 3.64-5.78 9.36 55.078 13 59.36 3.64 4.283 9.36-29.867 13-28.77 3.64 1.096 9.36 47.395 13 36.601 3.64-10.793 9.36-102.45 13-113.698 3.64-11.248 9.36 2.05 13 33.36 3.64 31.31 9.36 183.242 13 190.289 3.64 7.047 9.36-111.673 13-139.952 3.64-28.278 9.36-61.513 13-62.036 3.64-.522 9.36 29.97 13 58.303 3.64 28.333 9.36 120.052 13 144.076 3.64 24.023 9.36 38.176 13 27.521 3.64-10.654 9.36-92.686 13-103.625 3.64-10.94 9.36 17.803 13 25.489 3.64 7.685 9.36 36.936 13 29.41 3.64-7.527 9.36-82.645 13-83.172 3.64-.527 9.36 73.064 13 79.405 3.64 6.34 9.36-18.193 13-34.114 3.64-15.922 9.36-82.828 13-79.61 3.64 3.219 9.36 93.47 13 102.597 3.64 9.126 9.36-40.427 13-37.406 3.64 3.02 9.36 40.726 13 58.98 3.64 18.255 9.36 78.527 13 71.406 3.64-7.12 9.36-98.037 13-122.27 3.64-24.232 9.36-60.099 13-50.816 3.64 9.282 9.36 116.588 13 117.122 3.64.533 9.36-102.536 13-113.313 3.64-10.776 9.36 20.961 13 36.339 3.64 15.377 9.36 68.84 13 73.502 3.64 4.662 9.36-57.07 13-40.203 3.64 16.868 9.36 145.31 13 160.684 3.64 15.373 9.36-52.657 13-50.874 3.64 1.782 9.36 70.914 13 63.605 3.64-7.31 9.36-90.478 13-115.815 3.64-25.336 9.36-82.663 13-65.161 3.64 17.502 9.36 174.49 13 190.176 3.64 15.685 9.36-81.661 13-78.14 3.64 3.52 9.36 87.423 13 103.286 3.64 15.863 9.36 5.49 13 10.017 3.64 4.527 9.36 32.95 13 22.319 3.64-10.632 9.36-97.46 13-98.259 3.64-.8 9.36 108.427 13 92.546 3.64-15.881 9.36-207.32 13-205.983 3.64 1.337 9.36 188.764 13 215.536 3.64 26.772 9.36 13.811 13-24.307 3.64-38.118 9.36-244.392 13-247.964 3.64-3.573 9.36 198.036 13 222.445 3.64 24.409 9.36-31.331 13-48.097 3.64-16.766 9.36-76.455 13-71.657 3.64 4.798 9.36 121.864 13 105.928 3.64-15.937 9.36-193.397 13-219.759 3.64-26.362 9.36 22.093 13 31.462 3.64 9.368 9.36-7.984 13 35.455 3.64 43.44 9.36 240.904 13 274.83 3.64 33.925 9.36-30.07 13-32.503 3.64-2.432 9.36 7.652 13 15.13 3.64 7.479 9.36 66.204 13 38.287 3.64-27.917 9.36-194.06 13-237.693 3.64-43.632 9.36-67.68 13-73.967 3.64-6.287 9.36-7.395 13 29.063 3.64 36.458 9.36 195.84 13 231.35 3.64 35.51 9.36 36.47 13 22.293 3.64-14.177 9.36-133.338 13-123.553 3.64 9.785 9.36 191.515 13 193.444 3.64 1.93 9.36-159.539 13-179.663 3.64-20.124 9.36 7.721 13 35.92 3.64 28.2 9.36 178.696 13 165.503 3.64-13.193 9.36-229.961 13-259.741 3.64-29.78 9.36 11.054 13 47.026 3.64 35.972 9.36 185.813 13 209.918 3.64 24.104 9.36-17.604 13-37.741 3.64-20.138 9.36-71.014 13-106.099 3.64-35.084 9.36-141.673 13-144.507 3.64-2.834 9.36 112.494 13 124.264 3.64 11.77 9.36-20.934 13-40.188 3.64-19.254 9.36-87.262 13-97.341 3.64-10.08 9.36-17.584 13 25.346 3.64 42.93 9.36 235.954 13 281.295 3.64 45.34 9.36 82.455 13 42.567 3.64-39.889 9.36-302.902 13-327.482 3.64-24.581 9.36 125.422 13 151.905 3.64 26.483 9.36 22.41 13 37.258 3.64 14.848 9.36 51.664 13 68.8 3.64 17.136 9.36 32.798 13 53.598 3.64 20.8 9.36 137.164 13 94.974 3.64-42.19 9.36-366.269 13-396.329 3.64-30.06 11.18 156.19 13 181.615" fill="none" stroke="#444cf7" stroke-width="4"/><g fill="#444cf7"><circle cy="1.859" r="8"/><circle cx="13" cy="3.996" r="8"/><circle cx="26" cy="9.974" r="8"/><circle cx="39" cy="16.076" r="8"/><circle cx="52" cy="21.156" r="8"/><circle cx="65" cy="25.543" r="8"/><circle cx="78" cy="31.039" r="8"/><circle cx="91" cy="30.171" r="8"/><circle cx="104" cy="42.208" r="8"/><circle cx="117" cy="36.839" r="8"/><circle cx="130" cy="41.385" r="8"/><circle cx="143" cy="42.102" r="8"/><circle cx="156" cy="53.135" r="8"/><circle cx="169" cy="72.972" r="8"/><circle cx="182" cy="69.644" r="8"/><circle cx="195" cy="59.293" r="8"/><circle cx="208" cy="71.439" r="8"/><circle cx="221" cy="56.556" r="8"/><circle cx="234" cy="66.975" r="8"/><circle cx="247" cy="57.849" r="8"/><circle cx="260" cy="100.496" r="8"/><circle cx="273" cy="109.315" r="8"/><circle cx="286" cy="101.094" r="8"/><circle cx="299" cy="75.628" r="8"/><circle cx="312" cy="141.316" r="8"/><circle cx="325" cy="90.499" r="8"/><circle cx="338" cy="109.392" r="8"/><circle cx="351" cy="86.926" r="8"/><circle cx="364" cy="121.321" r="8"/><circle cx="377" cy="123.807" r="8"/><circle cx="390" cy="129.059" r="8"/><circle cx="403" cy="156.209" r="8"/><circle cx="416" cy="185.737" r="8"/><circle cx="429" cy="159.462" r="8"/><circle cx="442" cy="192.19" r="8"/><circle cx="455" cy="207.775" r="8"/><circle cx="468" cy="124.641" r="8"/><circle cx="481" cy="200.835" r="8"/><circle cx="494" cy="215.948" r="8"/><circle cx="507" cy="188.176" r="8"/><circle cx="520" cy="217.069" r="8"/><circle cx="533" cy="200.399" r="8"/><circle cx="546" cy="153.006" r="8"/><circle cx="559" cy="182.543" r="8"/><circle cx="572" cy="142.701" r="8"/><circle cx="585" cy="210.312" r="8"/><circle cx="598" cy="256.731" r="8"/><circle cx="611" cy="248.146" r="8"/><circle cx="624" cy="249.85" r="8"/><circle cx="637" cy="244.258" r="8"/><circle cx="650" cy="202.367" r="8"/><circle cx="663" cy="187.112" r="8"/><circle cx="676" cy="179.099" r="8"/><circle cx="689" cy="245.699" r="8"/><circle cx="702" cy="254.194" r="8"/><circle cx="715" cy="224.661" r="8"/><circle cx="728" cy="310.287" r="8"/><circle cx="741" cy="282.893" r="8"/><circle cx="754" cy="323.628" r="8"/><circle cx="767" cy="302.536" r="8"/><circle cx="780" cy="266.912" r="8"/><circle cx="793" cy="212.632" r="8"/><circle cx="806" cy="217.1" r="8"/><circle cx="819" cy="304.589" r="8"/><circle cx="832" cy="246.59" r="8"/><circle cx="845" cy="232.373" r="8"/><circle cx="858" cy="203.055" r="8"/><circle cx="871" cy="361.855" r="8"/><circle cx="884" cy="272.621" r="8"/><circle cx="897" cy="379.336" r="8"/><circle cx="910" cy="278.69" r="8"/><circle cx="923" cy="338.051" r="8"/><circle cx="936" cy="309.28" r="8"/><circle cx="949" cy="345.881" r="8"/><circle cx="962" cy="232.183" r="8"/><circle cx="975" cy="265.543" r="8"/><circle cx="988" cy="455.832" r="8"/><circle cx="1001" cy="315.88" r="8"/><circle cx="1014" cy="253.844" r="8"/><circle cx="1027" cy="312.147" r="8"/><circle cx="1040" cy="456.223" r="8"/><circle cx="1053" cy="483.744" r="8"/><circle cx="1066" cy="380.119" r="8"/><circle cx="1079" cy="405.608" r="8"/><circle cx="1092" cy="435.018" r="8"/><circle cx="1105" cy="351.846" r="8"/><circle cx="1118" cy="431.251" r="8"/><circle cx="1131" cy="397.137" r="8"/><circle cx="1144" cy="317.528" r="8"/><circle cx="1157" cy="420.124" r="8"/><circle cx="1170" cy="382.718" r="8"/><circle cx="1183" cy="441.699" r="8"/><circle cx="1196" cy="513.104" r="8"/><circle cx="1209" cy="390.835" r="8"/><circle cx="1222" cy="340.018" r="8"/><circle cx="1235" cy="457.14" r="8"/><circle cx="1248" cy="343.827" r="8"/><circle cx="1261" cy="380.166" r="8"/><circle cx="1274" cy="453.668" r="8"/><circle cx="1287" cy="413.465" r="8"/><circle cx="1300" cy="574.149" r="8"/><circle cx="1313" cy="523.275" r="8"/><circle cx="1326" cy="586.88" r="8"/><circle cx="1339" cy="471.065" r="8"/><circle cx="1352" cy="405.904" r="8"/><circle cx="1365" cy="596.08" r="8"/><circle cx="1378" cy="517.939" r="8"/><circle cx="1391" cy="621.226" r="8"/><circle cx="1404" cy="631.243" r="8"/><circle cx="1417" cy="653.562" r="8"/><circle cx="1430" cy="555.303" r="8"/><circle cx="1443" cy="647.849" r="8"/><circle cx="1456" cy="441.866" r="8"/><circle cx="1469" cy="657.402" r="8"/><circle cx="1482" cy="633.095" r="8"/><circle cx="1495" cy="385.131" r="8"/><circle cx="1508" cy="607.576" r="8"/><circle cx="1521" cy="559.479" r="8"/><circle cx="1534" cy="487.822" r="8"/><circle cx="1547" cy="593.75" r="8"/><circle cx="1560" cy="373.991" r="8"/><circle cx="1573" cy="405.453" r="8"/><circle cx="1586" cy="440.908" r="8"/><circle cx="1599" cy="715.738" r="8"/><circle cx="1612" cy="683.235" r="8"/><circle cx="1625" cy="698.366" r="8"/><circle cx="1638" cy="736.652" r="8"/><circle cx="1651" cy="498.959" r="8"/><circle cx="1664" cy="424.992" r="8"/><circle cx="1677" cy="454.055" r="8"/><circle cx="1690" cy="685.406" r="8"/><circle cx="1703" cy="707.698" r="8"/><circle cx="1716" cy="584.145" r="8"/><circle cx="1729" cy="777.589" r="8"/><circle cx="1742" cy="597.926" r="8"/><circle cx="1755" cy="633.847" r="8"/><circle cx="1768" cy="799.349" r="8"/><circle cx="1781" cy="539.608" r="8"/><circle cx="1794" cy="586.634" r="8"/><circle cx="1807" cy="796.552" r="8"/><circle cx="1820" cy="758.811" r="8"/><circle cx="1833" cy="652.712" r="8"/><circle cx="1846" cy="508.205" r="8"/><circle cx="1859" cy="632.469" r="8"/><circle cx="1872" cy="592.281" r="8"/><circle cx="1885" cy="494.94" r="8"/><circle cx="1898" cy="520.286" r="8"/><circle cx="1911" cy="801.581" r="8"/><circle cx="1924" cy="844.148" r="8"/><circle cx="1937" cy="516.666" r="8"/><circle cx="1950" cy="668.571" r="8"/><circle cx="1963" cy="705.829" r="8"/><circle cx="1976" cy="774.629" r="8"/><circle cx="1989" cy="828.227" r="8"/><circle cx="2002" cy="923.201" r="8"/><circle cx="2015" cy="526.872" r="8"/><circle cx="2028" cy="708.487" r="8"/></g></svg>