<svg height="auto" viewBox="0 0 2000 1000" xmlns="http://www.w3.org/2000/svg"><path d="M0 258.1c6.02 18.43 30.96 132.21 43 131.648 12.04-.563 30.96-96.29 43-135.67 12.04-39.38 30.96-179.855 43-145.613 12.04 34.242 30.96 345.004 43 390.2 12.04 45.197 30.96-27.73 43-67.37 12.04-39.638 30.96-175.54 43-215.762 12.04-40.223 30.96-139.818 43-71.538 12.04 68.28 30.96 527.98 43 559.255 12.04 31.275 30.96-273.797 43-335.865 12.04-62.067 30.96-142.007 43-107.477 12.04 34.531 30.96 331.331 43 354.127 12.04 22.796 30.96-215.876 43-191.299 12.04 24.577 30.96 402.593 43 366.85 12.04-35.743 30.96-615.8 43-622.158 12.04-6.36 30.96 583.657 43 576.736 12.04-6.92 30.96-588.97 43-626.168 12.04-37.197 30.96 298.2 43 360.475 12.04 62.275 30.96 114.73 43 84.346 12.04-30.385 30.96-268.857 43-301.376 12.04-32.518 30.96 41.459 43 69.098 12.04 27.64 30.96 154.148 43 128.327 12.04-25.821 30.96-289.875 43-312.764 12.04-22.89 30.96 117.72 43 149.266 12.04 31.546 30.96 73.55 43 76.067 12.04 2.516 30.96-76.099 43-58.093 12.04 18.005 30.96 182.734 43 186.702 12.04 3.97 30.96-118.797 43-158.354 12.04-39.558 30.96-109.822 43-124.197s30.96 4.009 43 21.518c12.04 17.51 30.96 79.87 43 103.548 12.04 23.68 30.96 24.453 43 65.588 12.04 41.135 30.96 232.613 43 228.233 12.04-4.38 30.96-233.09 43-259.517 12.04-26.427 30.96 17.734 43 70.753 12.04 53.018 30.96 328.97 43 307.95 12.04-21.02 30.96-417.132 43-458.095 12.04-40.964 30.96 184.966 43 165.496s30.96-276.997 43-304.57c12.04-27.572 30.96 77.695 43 107.627 12.04 29.932 30.96 72.638 43 106.175 12.04 33.538 30.96 163.628 43 133.378s30.96-378.097 43-349.45c12.04 28.649 30.96 548.901 43 554.078 12.04 5.177 30.96-505.775 43-517.1 12.04-11.324 30.96 370.159 43 436.211 12.04 66.053 30.96 85.685 43 35.593s36.98-338.318 43-393.393L2000 1000H0Z" fill="#444cf71a"/><path d="M0 258.1c6.02 18.43 30.96 132.21 43 131.648 12.04-.563 30.96-96.29 43-135.67 12.04-39.38 30.96-179.855 43-145.613 12.04 34.242 30.96 345.004 43 390.2 12.04 45.197 30.96-27.73 43-67.37 12.04-39.638 30.96-175.54 43-215.762 12.04-40.223 30.96-139.818 43-71.538 12.04 68.28 30.96 527.98 43 559.255 12.04 31.275 30.96-273.797 43-335.865 12.04-62.067 30.96-142.007 43-107.477 12.04 34.531 30.96 331.331 43 354.127 12.04 22.796 30.96-215.876 43-191.299 12.04 24.577 30.96 402.593 43 366.85 12.04-35.743 30.96-615.8 43-622.158 12.04-6.36 30.96 583.657 43 576.736 12.04-6.92 30.96-588.97 43-626.168 12.04-37.197 30.96 298.2 43 360.475 12.04 62.275 30.96 114.73 43 84.346 12.04-30.385 30.96-268.857 43-301.376 12.04-32.518 30.96 41.459 43 69.098 12.04 27.64 30.96 154.148 43 128.327 12.04-25.821 30.96-289.875 43-312.764 12.04-22.89 30.96 117.72 43 149.266 12.04 31.546 30.96 73.55 43 76.067 12.04 2.516 30.96-76.099 43-58.093 12.04 18.005 30.96 182.734 43 186.702 12.04 3.97 30.96-118.797 43-158.354 12.04-39.558 30.96-109.822 43-124.197s30.96 4.009 43 21.518c12.04 17.51 30.96 79.87 43 103.548 12.04 23.68 30.96 24.453 43 65.588 12.04 41.135 30.96 232.613 43 228.233 12.04-4.38 30.96-233.09 43-259.517 12.04-26.427 30.96 17.734 43 70.753 12.04 53.018 30.96 328.97 43 307.95 12.04-21.02 30.96-417.132 43-458.095 12.04-40.964 30.96 184.966 43 165.496s30.96-276.997 43-304.57c12.04-27.572 30.96 77.695 43 107.627 12.04 29.932 30.96 72.638 43 106.175 12.04 33.538 30.96 163.628 43 133.378s30.96-378.097 43-349.45c12.04 28.649 30.96 548.901 43 554.078 12.04 5.177 30.96-505.775 43-517.1 12.04-11.324 30.96 370.159 43 436.211 12.04 66.053 30.96 85.685 43 35.593s36.98-338.318 43-393.393" fill="none" stroke="#444cf7" stroke-width="5"/><g fill="#444cf7"><circle cy="258.1" r="10"/><circle cx="43" cy="389.748" r="10"/><circle cx="86" cy="254.078" r="10"/><circle cx="129" cy="108.465" r="10"/><circle cx="172" cy="498.665" r="10"/><circle cx="215" cy="431.296" r="10"/><circle cx="258" cy="215.533" r="10"/><circle cx="301" cy="143.995" r="10"/><circle cx="344" cy="703.25" r="10"/><circle cx="387" cy="367.385" r="10"/><circle cx="430" cy="259.908" r="10"/><circle cx="473" cy="614.035" r="10"/><circle cx="516" cy="422.736" r="10"/><circle cx="559" cy="789.586" r="10"/><circle cx="602" cy="167.428" r="10"/><circle cx="645" cy="744.164" r="10"/><circle cx="688" cy="117.996" r="10"/><circle cx="731" cy="478.471" r="10"/><circle cx="774" cy="562.817" r="10"/><circle cx="817" cy="261.441" r="10"/><circle cx="860" cy="330.539" r="10"/><circle cx="903" cy="458.866" r="10"/><circle cx="946" cy="146.102" r="10"/><circle cx="989" cy="295.368" r="10"/><circle cx="1032" cy="371.435" r="10"/><circle cx="1075" cy="313.342" r="10"/><circle cx="1118" cy="500.044" r="10"/><circle cx="1161" cy="341.69" r="10"/><circle cx="1204" cy="217.493" r="10"/><circle cx="1247" cy="239.011" r="10"/><circle cx="1290" cy="342.559" r="10"/><circle cx="1333" cy="408.147" r="10"/><circle cx="1376" cy="636.38" r="10"/><circle cx="1419" cy="376.863" r="10"/><circle cx="1462" cy="447.616" r="10"/><circle cx="1505" cy="755.566" r="10"/><circle cx="1548" cy="297.471" r="10"/><circle cx="1591" cy="462.967" r="10"/><circle cx="1634" cy="158.398" r="10"/><circle cx="1677" cy="266.024" r="10"/><circle cx="1720" cy="372.199" r="10"/><circle cx="1763" cy="505.577" r="10"/><circle cx="1806" cy="156.128" r="10"/><circle cx="1849" cy="710.205" r="10"/><circle cx="1892" cy="193.106" r="10"/><circle cx="1935" cy="629.316" r="10"/><circle cx="1978" cy="664.909" r="10"/><circle cx="2021" cy="271.516" r="10"/></g></svg>