<svg height="auto" viewBox="0 0 2000 1000" xmlns="http://www.w3.org/2000/svg"><path d="M0 5.747c6.02 1.02 30.96 2.388 43 7.278 12.04 4.891 30.96 24.878 43 27.656 12.04 2.778 30.96-9.842 43-7.814 12.04 2.027 30.96 17.84 43 22.294 12.04 4.455 30.96 2.292 43 9.523 12.04 7.23 30.96 30.93 43 42.125 12.04 11.194 30.96 40.3 43 37.836 12.04-2.465 30.96-49.105 43-55.44 12.04-6.335 30.96-4.12 43 10.192 12.04 14.313 30.96 79.788 43 92.043 12.04 12.255 30.96-4.56 43-4.507 12.04.053 30.96 1.207 43 4.884 12.04 3.677 30.96 22.14 43 21.38 12.04-.759 30.96-31.32 43-26.803 12.04 4.516 30.96 48.954 43 59.06 12.04 10.107 30.96 17.21 43 13.131 12.04-4.08 30.96-41.884 43-42.272 12.04-.387 30.96 36.232 43 39.504 12.04 3.273 30.96-29.094 43-16.13 12.04 12.964 30.96 90.691 43 108.73 12.04 18.04 30.96 27.304 43 20.122 12.04-7.182 30.96-77.086 43-71.419 12.04 5.667 30.96 116.239 43 111.9 12.04-4.339 30.96-157.477 43-142.892 12.04 14.584 30.96 221.27 43 247.065 12.04 25.795 30.96-69.038 43-62.817 12.04 6.22 30.96 96.545 43 107.247 12.04 10.703 30.96-33.852 43-30.802 12.04 3.05 30.96 55.124 43 52.584 12.04-2.539 30.96-62.405 43-70.722 12.04-8.317 30.96 7.975 43 11.315s30.96-3.691 43 12.543c12.04 16.233 30.96 100.96 43 103.414 12.04 2.453 30.96-60.83 43-85.888 12.04-25.058 30.96-84.29 43-93.098 12.04-8.808 30.96 2.249 43 30.182 12.04 27.934 30.96 171.567 43 169.344 12.04-2.223 30.96-151.325 43-185.223 12.04-33.897 30.96-81.735 43-56.902 12.04 24.832 30.96 178.58 43 234.275 12.04 55.696 30.96 178.675 43 163.55 12.04-15.126 30.96-256.3 43-271.59 12.04-15.29 30.96 170.475 43 162.377 12.04-8.098 30.96-244.816 43-220.219 12.04 24.598 30.96 354.79 43 395.915 12.04 41.126 30.96-71.989 43-102.16 12.04-30.172 36.98-97.483 43-113.352L2000 1000H0Z" fill="#444cf71a"/><path d="M0 5.747c6.02 1.02 30.96 2.388 43 7.278 12.04 4.891 30.96 24.878 43 27.656 12.04 2.778 30.96-9.842 43-7.814 12.04 2.027 30.96 17.84 43 22.294 12.04 4.455 30.96 2.292 43 9.523 12.04 7.23 30.96 30.93 43 42.125 12.04 11.194 30.96 40.3 43 37.836 12.04-2.465 30.96-49.105 43-55.44 12.04-6.335 30.96-4.12 43 10.192 12.04 14.313 30.96 79.788 43 92.043 12.04 12.255 30.96-4.56 43-4.507 12.04.053 30.96 1.207 43 4.884 12.04 3.677 30.96 22.14 43 21.38 12.04-.759 30.96-31.32 43-26.803 12.04 4.516 30.96 48.954 43 59.06 12.04 10.107 30.96 17.21 43 13.131 12.04-4.08 30.96-41.884 43-42.272 12.04-.387 30.96 36.232 43 39.504 12.04 3.273 30.96-29.094 43-16.13 12.04 12.964 30.96 90.691 43 108.73 12.04 18.04 30.96 27.304 43 20.122 12.04-7.182 30.96-77.086 43-71.419 12.04 5.667 30.96 116.239 43 111.9 12.04-4.339 30.96-157.477 43-142.892 12.04 14.584 30.96 221.27 43 247.065 12.04 25.795 30.96-69.038 43-62.817 12.04 6.22 30.96 96.545 43 107.247 12.04 10.703 30.96-33.852 43-30.802 12.04 3.05 30.96 55.124 43 52.584 12.04-2.539 30.96-62.405 43-70.722 12.04-8.317 30.96 7.975 43 11.315s30.96-3.691 43 12.543c12.04 16.233 30.96 100.96 43 103.414 12.04 2.453 30.96-60.83 43-85.888 12.04-25.058 30.96-84.29 43-93.098 12.04-8.808 30.96 2.249 43 30.182 12.04 27.934 30.96 171.567 43 169.344 12.04-2.223 30.96-151.325 43-185.223 12.04-33.897 30.96-81.735 43-56.902 12.04 24.832 30.96 178.58 43 234.275 12.04 55.696 30.96 178.675 43 163.55 12.04-15.126 30.96-256.3 43-271.59 12.04-15.29 30.96 170.475 43 162.377 12.04-8.098 30.96-244.816 43-220.219 12.04 24.598 30.96 354.79 43 395.915 12.04 41.126 30.96-71.989 43-102.16 12.04-30.172 36.98-97.483 43-113.352" fill="none" stroke="#444cf7" stroke-width="5"/><g fill="#444cf7"><circle cy="5.747" r="10"/><circle cx="43" cy="13.025" r="10"/><circle cx="86" cy="40.681" r="10"/><circle cx="129" cy="32.867" r="10"/><circle cx="172" cy="55.161" r="10"/><circle cx="215" cy="64.684" r="10"/><circle cx="258" cy="106.809" r="10"/><circle cx="301" cy="144.645" r="10"/><circle cx="344" cy="89.205" r="10"/><circle cx="387" cy="99.397" r="10"/><circle cx="430" cy="191.44" r="10"/><circle cx="473" cy="186.933" r="10"/><circle cx="516" cy="191.817" r="10"/><circle cx="559" cy="213.197" r="10"/><circle cx="602" cy="186.394" r="10"/><circle cx="645" cy="245.454" r="10"/><circle cx="688" cy="258.585" r="10"/><circle cx="731" cy="216.313" r="10"/><circle cx="774" cy="255.817" r="10"/><circle cx="817" cy="239.687" r="10"/><circle cx="860" cy="348.417" r="10"/><circle cx="903" cy="368.539" r="10"/><circle cx="946" cy="297.12" r="10"/><circle cx="989" cy="409.02" r="10"/><circle cx="1032" cy="266.128" r="10"/><circle cx="1075" cy="513.193" r="10"/><circle cx="1118" cy="450.376" r="10"/><circle cx="1161" cy="557.623" r="10"/><circle cx="1204" cy="526.821" r="10"/><circle cx="1247" cy="579.405" r="10"/><circle cx="1290" cy="508.683" r="10"/><circle cx="1333" cy="519.998" r="10"/><circle cx="1376" cy="532.541" r="10"/><circle cx="1419" cy="635.955" r="10"/><circle cx="1462" cy="550.067" r="10"/><circle cx="1505" cy="456.969" r="10"/><circle cx="1548" cy="487.151" r="10"/><circle cx="1591" cy="656.495" r="10"/><circle cx="1634" cy="471.272" r="10"/><circle cx="1677" cy="414.37" r="10"/><circle cx="1720" cy="648.645" r="10"/><circle cx="1763" cy="812.194" r="10"/><circle cx="1806" cy="540.606" r="10"/><circle cx="1849" cy="702.982" r="10"/><circle cx="1892" cy="482.763" r="10"/><circle cx="1935" cy="878.678" r="10"/><circle cx="1978" cy="776.517" r="10"/><circle cx="2021" cy="663.166" r="10"/></g></svg>