<svg height="auto" viewBox="0 0 2000 1000" xmlns="http://www.w3.org/2000/svg"><path d="M0 998.002c5.2-1.49 15.6-5.041 26-7.448s15.6-.798 26-4.586c10.4-3.788 15.6-10 26-14.354 10.4-4.354 15.6-4.26 26-7.413 10.4-3.154 15.6-7.376 26-8.356 10.4-.979 15.6 4.286 26 3.459 10.4-.828 15.6.07 26-7.595 10.4-7.666 15.6-18.458 26-30.732 10.4-12.274 15.6-25.586 26-30.638 10.4-5.052 15.6 6.212 26 5.38 10.4-.832 15.6-.484 26-9.54 10.4-9.057 15.6-38.188 26-35.743 10.4 2.444 15.6 52.436 26 47.966 10.4-4.47 15.6-58.802 26-70.318 10.4-11.515 15.6 3.473 26 12.74 10.4 9.268 15.6 25.316 26 33.596 10.4 8.28 15.6 14.329 26 7.806 10.4-6.522 15.6-15.554 26-40.416 10.4-24.863 15.6-70.531 26-83.898 10.4-13.366 15.6 1.662 26 17.066 10.4 15.405 15.6 70.639 26 59.955 10.4-10.683 15.6-107.74 26-113.372 10.4-5.632 15.6 70.405 26 85.212 10.4 14.808 15.6-10.037 26-11.174 10.4-1.137 15.6 14.562 26 5.487 10.4-9.074 15.6-21.82 26-50.86 10.4-29.039 15.6-100.484 26-94.334 10.4 6.15 15.6 98.058 26 125.086 10.4 27.028 15.6 16.869 26 10.056 10.4-6.814 15.6-43.157 26-44.124 10.4-.966 15.6 61.81 26 39.29 10.4-22.522 15.6-120.935 26-151.896 10.4-30.96 15.6-9.839 26-2.907 10.4 6.931 15.6 53.357 26 37.565 10.4-15.793 15.6-135.538 26-116.528 10.4 19.009 15.6 198.536 26 211.575 10.4 13.04 15.6-128.453 26-146.381 10.4-17.929 15.6 56.572 26 56.74 10.4.167 15.6-62.796 26-55.901 10.4 6.894 15.6 91.61 26 90.373 10.4-1.238 15.6-64.627 26-96.56 10.4-31.934 15.6-55.956 26-63.108 10.4-7.152 15.6 5.599 26 27.348 10.4 21.748 15.6 81.819 26 81.396 10.4-.424 15.6-83.872 26-83.513 10.4.359 15.6 88.026 26 85.306 10.4-2.72 15.6-63.75 26-98.905s15.6-59.46 26-76.871c10.4-17.411 15.6-10.344 26-10.184 10.4.16 15.6 6.076 26 10.984 10.4 4.909 15.6 22.407 26 13.558s15.6-57.035 26-57.801c10.4-.766 15.6 39.597 26 53.97 10.4 14.372 15.6 28.007 26 17.892 10.4-10.114 15.6-50.32 26-68.465 10.4-18.144 15.6-9.455 26-22.254 10.4-12.8 15.6-41.399 26-41.742 10.4-.343 15.6 24.271 26 40.027s15.6 9.285 26 38.753 15.6 88.396 26 108.587c10.4 20.192 15.6-4.615 26-7.63 10.4-3.015 15.6 54.49 26-7.446s15.6-269.637 26-302.234c10.4-32.598 15.6 151.271 26 139.247 10.4-12.025 15.6-184.776 26-199.37 10.4-14.593 15.6 100.06 26 126.403 10.4 26.343 15.6 36.524 26 5.31 10.4-31.213 15.6-154.712 26-161.378 10.4-6.666 15.6 96.21 26 128.048 10.4 31.838 15.6-16.264 26 31.145 10.4 47.408 15.6 220.037 26 205.898 10.4-14.139 15.6-181.875 26-276.592 10.4-94.717 15.6-204.102 26-196.992 10.4 7.11 15.6 181.558 26 232.544 10.4 50.987 15.6 7.736 26 22.389 10.4 14.653 15.6 66.133 26 50.877 10.4-15.255 15.6-105.408 26-127.156 10.4-21.748 20.8 14.735 26 18.418L2000 1000H0Z" fill="#444cf71a"/><path d="M0 998.002c5.2-1.49 15.6-5.041 26-7.448s15.6-.798 26-4.586c10.4-3.788 15.6-10 26-14.354 10.4-4.354 15.6-4.26 26-7.413 10.4-3.154 15.6-7.376 26-8.356 10.4-.979 15.6 4.286 26 3.459 10.4-.828 15.6.07 26-7.595 10.4-7.666 15.6-18.458 26-30.732 10.4-12.274 15.6-25.586 26-30.638 10.4-5.052 15.6 6.212 26 5.38 10.4-.832 15.6-.484 26-9.54 10.4-9.057 15.6-38.188 26-35.743 10.4 2.444 15.6 52.436 26 47.966 10.4-4.47 15.6-58.802 26-70.318 10.4-11.515 15.6 3.473 26 12.74 10.4 9.268 15.6 25.316 26 33.596 10.4 8.28 15.6 14.329 26 7.806 10.4-6.522 15.6-15.554 26-40.416 10.4-24.863 15.6-70.531 26-83.898 10.4-13.366 15.6 1.662 26 17.066 10.4 15.405 15.6 70.639 26 59.955 10.4-10.683 15.6-107.74 26-113.372 10.4-5.632 15.6 70.405 26 85.212 10.4 14.808 15.6-10.037 26-11.174 10.4-1.137 15.6 14.562 26 5.487 10.4-9.074 15.6-21.82 26-50.86 10.4-29.039 15.6-100.484 26-94.334 10.4 6.15 15.6 98.058 26 125.086 10.4 27.028 15.6 16.869 26 10.056 10.4-6.814 15.6-43.157 26-44.124 10.4-.966 15.6 61.81 26 39.29 10.4-22.522 15.6-120.935 26-151.896 10.4-30.96 15.6-9.839 26-2.907 10.4 6.931 15.6 53.357 26 37.565 10.4-15.793 15.6-135.538 26-116.528 10.4 19.009 15.6 198.536 26 211.575 10.4 13.04 15.6-128.453 26-146.381 10.4-17.929 15.6 56.572 26 56.74 10.4.167 15.6-62.796 26-55.901 10.4 6.894 15.6 91.61 26 90.373 10.4-1.238 15.6-64.627 26-96.56 10.4-31.934 15.6-55.956 26-63.108 10.4-7.152 15.6 5.599 26 27.348 10.4 21.748 15.6 81.819 26 81.396 10.4-.424 15.6-83.872 26-83.513 10.4.359 15.6 88.026 26 85.306 10.4-2.72 15.6-63.75 26-98.905s15.6-59.46 26-76.871c10.4-17.411 15.6-10.344 26-10.184 10.4.16 15.6 6.076 26 10.984 10.4 4.909 15.6 22.407 26 13.558s15.6-57.035 26-57.801c10.4-.766 15.6 39.597 26 53.97 10.4 14.372 15.6 28.007 26 17.892 10.4-10.114 15.6-50.32 26-68.465 10.4-18.144 15.6-9.455 26-22.254 10.4-12.8 15.6-41.399 26-41.742 10.4-.343 15.6 24.271 26 40.027s15.6 9.285 26 38.753 15.6 88.396 26 108.587c10.4 20.192 15.6-4.615 26-7.63 10.4-3.015 15.6 54.49 26-7.446s15.6-269.637 26-302.234c10.4-32.598 15.6 151.271 26 139.247 10.4-12.025 15.6-184.776 26-199.37 10.4-14.593 15.6 100.06 26 126.403 10.4 26.343 15.6 36.524 26 5.31 10.4-31.213 15.6-154.712 26-161.378 10.4-6.666 15.6 96.21 26 128.048 10.4 31.838 15.6-16.264 26 31.145 10.4 47.408 15.6 220.037 26 205.898 10.4-14.139 15.6-181.875 26-276.592 10.4-94.717 15.6-204.102 26-196.992 10.4 7.11 15.6 181.558 26 232.544 10.4 50.987 15.6 7.736 26 22.389 10.4 14.653 15.6 66.133 26 50.877 10.4-15.255 15.6-105.408 26-127.156 10.4-21.748 20.8 14.735 26 18.418" fill="none" stroke="#444cf7" stroke-width="4"/><g fill="#444cf7"><circle cy="998.002" r="8"/><circle cx="26" cy="990.554" r="8"/><circle cx="52" cy="985.968" r="8"/><circle cx="78" cy="971.614" r="8"/><circle cx="104" cy="964.201" r="8"/><circle cx="130" cy="955.845" r="8"/><circle cx="156" cy="959.304" r="8"/><circle cx="182" cy="951.709" r="8"/><circle cx="208" cy="920.977" r="8"/><circle cx="234" cy="890.339" r="8"/><circle cx="260" cy="895.719" r="8"/><circle cx="286" cy="886.178" r="8"/><circle cx="312" cy="850.436" r="8"/><circle cx="338" cy="898.402" r="8"/><circle cx="364" cy="828.084" r="8"/><circle cx="390" cy="840.825" r="8"/><circle cx="416" cy="874.42" r="8"/><circle cx="442" cy="882.226" r="8"/><circle cx="468" cy="841.81" r="8"/><circle cx="494" cy="757.912" r="8"/><circle cx="520" cy="774.978" r="8"/><circle cx="546" cy="834.933" r="8"/><circle cx="572" cy="721.561" r="8"/><circle cx="598" cy="806.773" r="8"/><circle cx="624" cy="795.599" r="8"/><circle cx="650" cy="801.086" r="8"/><circle cx="676" cy="750.226" r="8"/><circle cx="702" cy="655.892" r="8"/><circle cx="728" cy="780.978" r="8"/><circle cx="754" cy="791.034" r="8"/><circle cx="780" cy="746.91" r="8"/><circle cx="806" cy="786.199" r="8"/><circle cx="832" cy="634.304" r="8"/><circle cx="858" cy="631.397" r="8"/><circle cx="884" cy="668.962" r="8"/><circle cx="910" cy="552.434" r="8"/><circle cx="936" cy="764.009" r="8"/><circle cx="962" cy="617.628" r="8"/><circle cx="988" cy="674.367" r="8"/><circle cx="1014" cy="618.467" r="8"/><circle cx="1040" cy="708.84" r="8"/><circle cx="1066" cy="612.279" r="8"/><circle cx="1092" cy="549.172" r="8"/><circle cx="1118" cy="576.52" r="8"/><circle cx="1144" cy="657.916" r="8"/><circle cx="1170" cy="574.403" r="8"/><circle cx="1196" cy="659.709" r="8"/><circle cx="1222" cy="560.804" r="8"/><circle cx="1248" cy="483.933" r="8"/><circle cx="1274" cy="473.749" r="8"/><circle cx="1300" cy="484.733" r="8"/><circle cx="1326" cy="498.291" r="8"/><circle cx="1352" cy="440.49" r="8"/><circle cx="1378" cy="494.46" r="8"/><circle cx="1404" cy="512.352" r="8"/><circle cx="1430" cy="443.887" r="8"/><circle cx="1456" cy="421.633" r="8"/><circle cx="1482" cy="379.891" r="8"/><circle cx="1508" cy="419.918" r="8"/><circle cx="1534" cy="458.671" r="8"/><circle cx="1560" cy="567.258" r="8"/><circle cx="1586" cy="559.628" r="8"/><circle cx="1612" cy="552.182" r="8"/><circle cx="1638" cy="249.948" r="8"/><circle cx="1664" cy="389.195" r="8"/><circle cx="1690" cy="189.826" r="8"/><circle cx="1716" cy="316.228" r="8"/><circle cx="1742" cy="321.539" r="8"/><circle cx="1768" cy="160.16" r="8"/><circle cx="1794" cy="288.208" r="8"/><circle cx="1820" cy="319.353" r="8"/><circle cx="1846" cy="525.251" r="8"/><circle cx="1872" cy="248.659" r="8"/><circle cx="1898" cy="51.667" r="8"/><circle cx="1924" cy="284.211" r="8"/><circle cx="1950" cy="306.6" r="8"/><circle cx="1976" cy="357.477" r="8"/><circle cx="2002" cy="230.321" r="8"/><circle cx="2028" cy="248.739" r="8"/></g></svg>