<svg height="auto" viewBox="0 0 2000 1000" xmlns="http://www.w3.org/2000/svg"><path d="M0 999.362c3.5-1.34 18-7.503 25-9.569 7-2.065 18-3.963 25-5.182 7-1.22 18-1.102 25-3.525s18-9.57 25-13.783c7-4.212 18-15.143 25-16.303 7-1.16 18 10.862 25 8.016s18-22.358 25-28.344c7-5.985 18-16.44 25-14.407 7 2.032 18 27.431 25 28.924 7 1.494 18-15.346 25-18.26 7-2.913 18 .973 25-2.55 7-3.524 18-21.525 25-22.62 7-1.096 18 21.424 25 14.794 7-6.63 18-56.482 25-62.154 7-5.67 18 19.665 25 21.645 7 1.98 18 3.556 25-7.497s18-72.215 25-71.454c7 .76 18 78.154 25 76.887 7-1.267 18-80.71 25-85.937 7-5.227 18 48.621 25 48.6 7-.023 18-51.799 25-48.757 7 3.041 18 74.193 25 70.48 7-3.714 18-86.65 25-97.006 7-10.356 18 30.122 25 23.035s18-77.312 25-73.656c7 3.656 18 88.863 25 99.77 7 10.908 18-6.592 25-21.857s18-71.386 25-87.176c7-15.79 18-37.879 25-25.613 7 12.266 18 105.947 25 113.228 7 7.282 18-59.732 25-61.216 7-1.484 18 40.432 25 50.616 7 10.184 18 27.206 25 22.124 7-5.082 18-54.913 25-58.422 7-3.508 18 41.694 25 33.362 7-8.333 18-64.509 25-92.879 7-28.37 18-96.686 25-109.764 7-13.077 18 6.696 25 16.354s18 53.77 25 52.63c7-1.139 18-63.45 25-60.767s18 76.978 25 79.93c7 2.953 18-57.21 25-58.841 7-1.631 18 36.821 25 47.19 7 10.37 18 27.814 25 26.88 7-.936 18-31.214 25-33.558 7-2.343 18 45.045 25 16.82s18-197.685 25-218.426c7-20.74 18 42.737 25 70.279 7 27.54 18 114.51 25 126.445 7 11.936 18-12.11 25-41.193s18-160.38 25-166.542c7-6.163 18 124.186 25 122.521 7-1.665 18-124.571 25-134.415 7-9.845 18 39.511 25 64.099 7 24.587 18 102.161 25 111.525 7 9.363 18-20.623 25-44.643s18-115.493 25-126.93c7-11.437 18 19.982 25 45.24 7 25.258 18 120.087 25 135.173 7 15.086 18-20.125 25-27.417 7-7.293 18-24.025 25-24.67 7-.645 18 15.928 25 20.063 7 4.134 18 27.912 25 9.47 7-18.441 18-128.228 25-141.196 7-12.969 18 58.806 25 48.566 7-10.24 18-86.695 25-121.71s18-143.808 25-128.397c7 15.41 18 218.562 25 238.474 7 19.912 18-87.848 25-96.247 7-8.399 18 59.48 25 36.255 7-23.225 18-220.312 25-202.148 7 18.164 18 304.892 25 331.891 7 27 18-135.645 25-139.036 7-3.391 18 113.746 25 114.813 7 1.067 18-51.16 25-107.192s18-310.34 25-293.035c7 17.304 18 405.226 25 416.637 7 11.41 18-276.61 25-335.132 7-58.521 18-84.864 25-82.88 7 1.985 18 58.03 25 97.054 7 39.026 21.5 156.26 25 181.698L2000 1000H0Z" fill="#444cf71a"/><path d="M0 999.362c3.5-1.34 18-7.503 25-9.569 7-2.065 18-3.963 25-5.182 7-1.22 18-1.102 25-3.525s18-9.57 25-13.783c7-4.212 18-15.143 25-16.303 7-1.16 18 10.862 25 8.016s18-22.358 25-28.344c7-5.985 18-16.44 25-14.407 7 2.032 18 27.431 25 28.924 7 1.494 18-15.346 25-18.26 7-2.913 18 .973 25-2.55 7-3.524 18-21.525 25-22.62 7-1.096 18 21.424 25 14.794 7-6.63 18-56.482 25-62.154 7-5.67 18 19.665 25 21.645 7 1.98 18 3.556 25-7.497s18-72.215 25-71.454c7 .76 18 78.154 25 76.887 7-1.267 18-80.71 25-85.937 7-5.227 18 48.621 25 48.6 7-.023 18-51.799 25-48.757 7 3.041 18 74.193 25 70.48 7-3.714 18-86.65 25-97.006 7-10.356 18 30.122 25 23.035s18-77.312 25-73.656c7 3.656 18 88.863 25 99.77 7 10.908 18-6.592 25-21.857s18-71.386 25-87.176c7-15.79 18-37.879 25-25.613 7 12.266 18 105.947 25 113.228 7 7.282 18-59.732 25-61.216 7-1.484 18 40.432 25 50.616 7 10.184 18 27.206 25 22.124 7-5.082 18-54.913 25-58.422 7-3.508 18 41.694 25 33.362 7-8.333 18-64.509 25-92.879 7-28.37 18-96.686 25-109.764 7-13.077 18 6.696 25 16.354s18 53.77 25 52.63c7-1.139 18-63.45 25-60.767s18 76.978 25 79.93c7 2.953 18-57.21 25-58.841 7-1.631 18 36.821 25 47.19 7 10.37 18 27.814 25 26.88 7-.936 18-31.214 25-33.558 7-2.343 18 45.045 25 16.82s18-197.685 25-218.426c7-20.74 18 42.737 25 70.279 7 27.54 18 114.51 25 126.445 7 11.936 18-12.11 25-41.193s18-160.38 25-166.542c7-6.163 18 124.186 25 122.521 7-1.665 18-124.571 25-134.415 7-9.845 18 39.511 25 64.099 7 24.587 18 102.161 25 111.525 7 9.363 18-20.623 25-44.643s18-115.493 25-126.93c7-11.437 18 19.982 25 45.24 7 25.258 18 120.087 25 135.173 7 15.086 18-20.125 25-27.417 7-7.293 18-24.025 25-24.67 7-.645 18 15.928 25 20.063 7 4.134 18 27.912 25 9.47 7-18.441 18-128.228 25-141.196 7-12.969 18 58.806 25 48.566 7-10.24 18-86.695 25-121.71s18-143.808 25-128.397c7 15.41 18 218.562 25 238.474 7 19.912 18-87.848 25-96.247 7-8.399 18 59.48 25 36.255 7-23.225 18-220.312 25-202.148 7 18.164 18 304.892 25 331.891 7 27 18-135.645 25-139.036 7-3.391 18 113.746 25 114.813 7 1.067 18-51.16 25-107.192s18-310.34 25-293.035c7 17.304 18 405.226 25 416.637 7 11.41 18-276.61 25-335.132 7-58.521 18-84.864 25-82.88 7 1.985 18 58.03 25 97.054 7 39.026 21.5 156.26 25 181.698" fill="none" stroke="#444cf7" stroke-width="4"/><g fill="#444cf7"><circle cy="999.362" r="8"/><circle cx="25" cy="989.793" r="8"/><circle cx="50" cy="984.611" r="8"/><circle cx="75" cy="981.086" r="8"/><circle cx="100" cy="967.303" r="8"/><circle cx="125" cy="951" r="8"/><circle cx="150" cy="959.016" r="8"/><circle cx="175" cy="930.672" r="8"/><circle cx="200" cy="916.265" r="8"/><circle cx="225" cy="945.189" r="8"/><circle cx="250" cy="926.929" r="8"/><circle cx="275" cy="924.379" r="8"/><circle cx="300" cy="901.759" r="8"/><circle cx="325" cy="916.553" r="8"/><circle cx="350" cy="854.399" r="8"/><circle cx="375" cy="876.044" r="8"/><circle cx="400" cy="868.547" r="8"/><circle cx="425" cy="797.093" r="8"/><circle cx="450" cy="873.98" r="8"/><circle cx="475" cy="788.043" r="8"/><circle cx="500" cy="836.642" r="8"/><circle cx="525" cy="787.886" r="8"/><circle cx="550" cy="858.366" r="8"/><circle cx="575" cy="761.36" r="8"/><circle cx="600" cy="784.395" r="8"/><circle cx="625" cy="710.739" r="8"/><circle cx="650" cy="810.509" r="8"/><circle cx="675" cy="788.652" r="8"/><circle cx="700" cy="701.476" r="8"/><circle cx="725" cy="675.863" r="8"/><circle cx="750" cy="789.091" r="8"/><circle cx="775" cy="727.875" r="8"/><circle cx="800" cy="778.491" r="8"/><circle cx="825" cy="800.615" r="8"/><circle cx="850" cy="742.193" r="8"/><circle cx="875" cy="775.555" r="8"/><circle cx="900" cy="682.676" r="8"/><circle cx="925" cy="572.912" r="8"/><circle cx="950" cy="589.266" r="8"/><circle cx="975" cy="641.897" r="8"/><circle cx="1000" cy="581.129" r="8"/><circle cx="1025" cy="661.06" r="8"/><circle cx="1050" cy="602.218" r="8"/><circle cx="1075" cy="649.409" r="8"/><circle cx="1100" cy="676.287" r="8"/><circle cx="1125" cy="642.73" r="8"/><circle cx="1150" cy="659.55" r="8"/><circle cx="1175" cy="441.124" r="8"/><circle cx="1200" cy="511.403" r="8"/><circle cx="1225" cy="637.848" r="8"/><circle cx="1250" cy="596.655" r="8"/><circle cx="1275" cy="430.113" r="8"/><circle cx="1300" cy="552.634" r="8"/><circle cx="1325" cy="418.219" r="8"/><circle cx="1350" cy="482.318" r="8"/><circle cx="1375" cy="593.843" r="8"/><circle cx="1400" cy="549.2" r="8"/><circle cx="1425" cy="422.27" r="8"/><circle cx="1450" cy="467.51" r="8"/><circle cx="1475" cy="602.683" r="8"/><circle cx="1500" cy="575.266" r="8"/><circle cx="1525" cy="550.596" r="8"/><circle cx="1550" cy="570.659" r="8"/><circle cx="1575" cy="580.13" r="8"/><circle cx="1600" cy="438.933" r="8"/><circle cx="1625" cy="487.499" r="8"/><circle cx="1650" cy="365.789" r="8"/><circle cx="1675" cy="237.392" r="8"/><circle cx="1700" cy="475.866" r="8"/><circle cx="1725" cy="379.619" r="8"/><circle cx="1750" cy="415.874" r="8"/><circle cx="1775" cy="213.726" r="8"/><circle cx="1800" cy="545.617" r="8"/><circle cx="1825" cy="406.581" r="8"/><circle cx="1850" cy="521.394" r="8"/><circle cx="1875" cy="414.202" r="8"/><circle cx="1900" cy="121.167" r="8"/><circle cx="1925" cy="537.804" r="8"/><circle cx="1950" cy="202.672" r="8"/><circle cx="1975" cy="119.792" r="8"/><circle cx="2000" cy="216.846" r="8"/><circle cx="2025" cy="398.544" r="8"/></g></svg>