<svg width="193" height="14" viewBox="0 0 193 14" fill="none" xmlns="http://www.w3.org/2000/svg">
<path id="Underline_3" d="M186.111 8.66305C186.415 8.69647 186.707 8.73693 187.016 8.7598C187.375 8.78618 187.745 8.79497 188.148 8.78266C187.889 8.74572 187.624 8.70878 187.304 8.66305C187.85 8.66305 188.353 8.66305 188.75 8.66305C188.85 8.59445 188.916 8.54872 188.999 8.49067C188.491 8.45197 187.994 8.41503 187.497 8.37809C187.513 8.35346 187.524 8.32708 187.541 8.30245C187.905 8.3218 188.264 8.34291 188.734 8.36754C188.562 8.33236 188.474 8.31301 188.364 8.2919C189.203 8.14766 188.767 8.02277 188.226 7.88381C188.91 7.97528 189.496 8.05443 190.07 8.13359C190.07 8.05971 190.07 8.00518 190.07 7.92075C189.866 7.88909 189.556 7.84159 189.242 7.7941C189.258 7.77827 189.275 7.76244 189.291 7.74661C189.854 7.8029 190.418 7.85918 190.981 7.91547C190.997 7.90316 191.008 7.89085 191.025 7.87854C190.484 7.81169 189.943 7.74485 189.402 7.67977C189.418 7.66218 189.429 7.64459 189.446 7.627C189.959 7.67625 190.478 7.7255 190.992 7.77299C191.008 7.75716 191.02 7.74133 191.036 7.7255C190.567 7.67273 190.097 7.6182 189.556 7.55664C189.672 7.51442 189.805 7.46517 189.965 7.40712C189.965 7.38426 189.965 7.34204 189.965 7.29806C190.247 7.31038 190.528 7.32269 190.843 7.33676C190.881 7.32093 190.959 7.28575 191.036 7.25057L191.031 7.25409C190.893 7.04477 190.445 7.0606 189.871 7.08699C190.164 7.13448 190.357 7.1679 190.655 7.21715C190.175 7.21011 189.733 7.26992 189.711 7.04477C189.705 7.00959 189.446 6.97969 189.264 6.93747C189.253 6.92164 189.225 6.87414 189.208 6.84248C189.838 6.85479 190.572 6.86887 191.307 6.88294C191.312 6.87063 191.318 6.86007 191.323 6.84776C191.02 6.82665 190.721 6.80555 190.418 6.78444C190.418 6.77037 190.412 6.75629 190.412 6.74046C190.65 6.73167 190.893 6.72463 191.185 6.71408C190.931 6.68066 190.721 6.65251 190.462 6.61909C190.589 6.58743 190.677 6.5628 190.76 6.54169C190.633 6.50651 190.489 6.4643 190.291 6.40625C190.699 6.42033 191.02 6.43088 191.428 6.44495C191.312 6.39218 191.268 6.37107 191.158 6.3183C191.561 6.3183 191.892 6.3183 192.223 6.3183C192.223 6.30247 192.223 6.28664 192.223 6.27081C191.914 6.26201 191.605 6.25322 191.29 6.24442C191.29 6.23211 191.285 6.2198 191.285 6.20749C191.759 6.19166 192.234 6.17758 192.764 6.16C192.632 6.1213 192.521 6.08787 192.361 6.04038C192.56 6.04566 192.687 6.04917 192.82 6.05093C192.461 5.97178 192.223 5.78005 191.539 5.91901C191.715 5.93308 191.853 5.94364 191.986 5.95419C191.947 5.96826 191.908 5.98058 191.87 5.99465C191.174 5.99641 190.677 5.86448 190.23 5.70089C190.252 5.68858 190.28 5.67626 190.302 5.66571C190.401 5.69034 190.489 5.71848 190.594 5.73959C190.716 5.76422 190.843 5.78357 190.964 5.8082C191.102 5.83282 191.235 5.86096 191.401 5.89262C191.434 5.82754 191.472 5.75191 191.539 5.61998C191.699 5.67451 191.782 5.72904 191.897 5.73608C192.151 5.75542 192.494 5.78533 192.665 5.74487C192.831 5.70793 192.853 5.5848 192.88 5.49685C192.891 5.46343 192.742 5.42297 192.582 5.39658C192.599 5.43176 192.615 5.46695 192.637 5.5074C192.439 5.50037 192.262 5.49509 192.041 5.48806C192.041 5.39483 192.041 5.29984 192.041 5.20662C191.969 5.15912 191.886 5.09756 191.776 5.04303C191.671 4.99026 191.533 4.94628 191.412 4.89703C191.428 4.94276 191.439 4.9885 191.456 5.03248C191.362 5.07645 191.262 5.12043 191.174 5.15912C190.942 5.12394 190.755 5.09404 190.501 5.05534C190.429 5.0958 190.351 5.13625 190.269 5.18199C189.07 4.94276 187.767 4.91286 186.497 4.82667C186.658 4.82667 186.823 4.82667 186.983 4.82667C186.994 4.8126 187.011 4.79677 187.022 4.7827C186.702 4.68771 186.139 4.82843 185.829 4.72641C185.846 4.71233 185.857 4.69826 185.873 4.68419C186.094 4.68067 186.315 4.6754 186.531 4.67188C186.547 4.61735 186.558 4.58217 186.564 4.54523C186.37 4.68243 186.034 4.5681 185.763 4.5892C185.382 4.62087 184.946 4.57161 184.532 4.56106C184.432 4.55754 184.239 4.5681 184.239 4.57337C184.228 4.69123 184.002 4.6367 183.847 4.63494C183.461 4.62966 183.069 4.62262 182.682 4.61559C182.66 4.61559 182.632 4.60504 182.61 4.598C182.66 4.57162 182.71 4.54523 182.77 4.51533C182.665 4.50126 182.594 4.49246 182.522 4.48191C182.682 4.43969 182.853 4.42034 182.997 4.4309C183.45 4.46432 183.792 4.38868 184.09 4.29721C184.305 4.23037 184.267 4.21806 184.504 4.26027C184.659 4.28842 184.808 4.3148 184.791 4.2163C184.559 4.18288 184.327 4.14946 184.09 4.11428C184.101 4.10021 184.107 4.08437 184.118 4.0703C184.421 4.0703 184.719 4.0703 185.073 4.0703C184.94 4.1389 184.858 4.17936 184.775 4.22157C184.973 4.26027 185.172 4.29897 185.399 4.34295C185.498 4.29193 185.597 4.23741 185.708 4.18112C185.548 4.16353 185.426 4.14946 185.305 4.13715C185.31 4.12835 185.316 4.11955 185.321 4.11076C185.52 4.11076 185.713 4.11076 185.918 4.11076C185.901 4.13186 185.879 4.15121 185.862 4.17056C186.359 4.20222 186.845 4.23389 187.337 4.26379C187.331 4.28138 187.326 4.29897 187.326 4.31656C187.177 4.31656 187.022 4.30776 186.889 4.32008C186.801 4.32887 186.74 4.36933 186.669 4.39571C187.022 4.45552 186.674 4.49774 186.635 4.54875C186.707 4.59624 186.779 4.64197 186.906 4.72641C186.956 4.65429 187 4.6068 187.016 4.55754C187.039 4.4995 187.044 4.44145 187.055 4.37813C187.315 4.38692 187.497 4.39396 187.674 4.401C187.668 4.41331 187.668 4.42562 187.662 4.43793C187.502 4.45025 187.342 4.46256 187.16 4.47487C187.535 4.51709 187.867 4.55403 188.148 4.58745C188.209 4.55227 188.253 4.52588 188.303 4.49774C188.369 4.51885 188.48 4.53468 188.496 4.5593C188.546 4.63318 188.562 4.71058 188.596 4.79677C188.275 4.78973 187.994 4.78446 187.712 4.77918C187.784 4.85833 188.187 4.9111 188.568 4.86009C188.706 4.8425 188.778 4.76159 188.949 4.67188C189.115 4.70354 189.363 4.7528 189.612 4.80205C189.612 4.7739 189.612 4.74927 189.612 4.7651C189.959 4.78797 190.307 4.81084 190.666 4.83371C190.661 4.83723 190.633 4.86185 190.605 4.88472C190.716 4.85658 190.826 4.82843 190.975 4.79149C191.031 4.80028 191.141 4.81612 191.251 4.83371C191.141 4.78446 191.036 4.7352 190.87 4.65781C191.086 4.66484 191.24 4.67012 191.389 4.67364C191.467 4.48894 191.334 4.33767 190.743 4.26731C190.843 4.26379 190.937 4.26027 191.08 4.255C190.953 4.21278 190.859 4.18112 190.76 4.15122C191.389 4.11604 192.013 4.08261 192.704 4.04391C192.566 3.98059 192.516 3.95596 192.422 3.91199C192.571 3.91551 192.665 3.91727 192.753 3.92079C192.775 3.90847 192.792 3.89616 192.814 3.88385C192.577 3.84339 192.35 3.77479 192.107 3.76951C191.572 3.75544 191.417 3.66046 191.445 3.49863C191.45 3.46169 191.445 3.42475 191.445 3.40012C190.948 3.27348 190.478 3.15211 190.009 3.03073C190.015 3.0237 190.015 3.0149 190.02 3.00787C190.186 3.02897 190.346 3.04832 190.512 3.06943C190.534 2.99204 190.55 2.91992 190.572 2.83724C190.412 2.84956 190.258 2.86187 190.042 2.8777C190.18 2.82317 190.269 2.78799 190.423 2.72643C190.219 2.73698 190.086 2.74578 189.948 2.75105C189.86 2.75457 189.694 2.75984 189.689 2.75281C189.545 2.56987 189.004 2.6332 188.623 2.55229C188.778 2.5347 188.877 2.52414 188.894 2.52414C188.701 2.46258 188.502 2.40101 188.303 2.33769C187.983 2.23391 187.569 2.23039 187.237 2.2902C186.746 2.37815 186.404 2.25677 185.923 2.24446C186.122 2.20928 186.249 2.18641 186.497 2.14068C186.039 2.16882 185.73 2.18817 185.459 2.204C185.316 2.13012 185.194 2.07208 185.062 2.00348C185.183 1.96654 185.327 1.92256 185.476 1.87859C185.145 1.88035 184.891 1.91905 184.846 2.01931C184.648 2.04042 184.488 2.05801 184.327 2.0756C184.339 2.08967 184.35 2.1055 184.355 2.11957C183.958 2.06504 183.56 2.01051 183.168 1.95423C183.173 1.94015 183.173 1.92608 183.179 1.91377C183.648 1.91377 184.123 1.91377 184.593 1.91377C184.593 1.90673 184.587 1.89794 184.587 1.8909C184.013 1.87331 183.439 1.85572 182.864 1.83989C182.908 1.80998 182.958 1.79591 183.008 1.79767C183.549 1.80823 184.096 1.81702 184.637 1.83461C184.913 1.84341 185.183 1.86803 185.459 1.88562C185.537 1.91377 185.608 1.94191 185.686 1.97006C185.713 1.96302 185.741 1.95423 185.769 1.94719C185.708 1.91905 185.647 1.88914 185.586 1.861C186.409 1.78712 187.171 1.88386 187.199 2.07208C187.359 2.05273 187.519 2.03338 187.778 2.00172C187.602 1.97533 187.491 1.9595 187.353 1.9384C187.464 1.90498 187.574 1.87507 187.701 1.83813C187.491 1.82582 187.315 1.81703 187.138 1.80647C187.105 1.82406 187.061 1.861 187.033 1.85924C186.779 1.84341 186.531 1.81878 186.277 1.80119C185.978 1.78008 185.68 1.76426 185.382 1.74491C185.393 1.7238 185.404 1.70269 185.415 1.68158C185.951 1.71148 186.492 1.74139 187.027 1.76953C186.834 1.72379 186.652 1.64816 186.437 1.63585C185.78 1.59891 185.117 1.58307 184.454 1.56548C184.173 1.55845 183.902 1.66575 183.593 1.56901C183.472 1.53031 183.262 1.52503 183.024 1.49689C182.903 1.50568 182.665 1.52503 182.428 1.54438C182.367 1.45995 182.312 1.39135 182.262 1.32099C182.24 1.32099 182.218 1.32275 182.196 1.32275C182.18 1.37728 182.163 1.43356 182.146 1.50744C181.705 1.46874 181.318 1.44763 180.865 1.51272C180.512 1.56373 180.01 1.48809 179.584 1.4318C179.949 1.43884 180.313 1.44411 180.678 1.45115C180.683 1.43708 180.694 1.42125 180.7 1.40718C180.385 1.37903 180.07 1.33682 179.75 1.32626C178.408 1.28581 177.067 1.25942 175.725 1.21721C175.145 1.19962 174.576 1.1486 174.002 1.12926C173.688 1.1187 173.367 1.15036 173.047 1.15212C172.423 1.15388 171.799 1.15564 171.175 1.14509C170.502 1.13277 169.828 1.10463 169.149 1.08528C168.127 1.05714 167.106 1.03075 166.062 1.00261C166.095 0.976222 166.134 0.946319 166.167 0.919934C166.123 0.907621 166.095 0.897066 166.073 0.897066C165.615 0.932246 165.212 0.993813 164.676 0.932248C164.146 0.870683 163.522 0.909378 162.943 0.895305C162.286 0.879474 161.629 0.842537 160.971 0.831984C159.862 0.816153 158.752 0.812636 157.642 0.8056C157.25 0.803841 156.863 0.80208 156.471 0.803839C156.311 0.803839 156.151 0.810873 155.997 0.840777C156.875 0.861884 157.758 0.884751 158.636 0.905858C158.636 0.918171 158.636 0.930487 158.636 0.94104C158.117 0.94104 157.598 0.94104 157.073 0.94104C157.068 0.955113 157.057 0.969183 157.051 0.983255C157.471 1.00788 157.89 1.0413 158.316 1.05714C159.022 1.08352 159.729 1.10815 160.436 1.1187C160.955 1.12574 161.474 1.10639 161.993 1.09935C162.07 1.09759 162.159 1.09055 162.219 1.09935C162.904 1.20489 163.644 1.19434 164.367 1.22072C164.406 1.22248 164.439 1.23655 164.461 1.24183C164.329 1.26997 164.185 1.29812 164.047 1.32802C164.075 1.34561 164.102 1.3632 164.124 1.38079C161.606 1.35265 159.094 1.3245 156.576 1.29636C156.576 1.28228 156.576 1.26821 156.576 1.25414C157.648 1.25414 158.719 1.25414 159.784 1.25414C156.549 1.12749 153.308 1.12925 150.072 1.22424C150.072 1.23831 150.067 1.25238 150.067 1.2647C151.314 1.2647 152.562 1.2647 153.81 1.2647C153.81 1.28404 153.805 1.3034 153.805 1.32275C152.927 1.32275 152.043 1.32802 151.165 1.32098C150.459 1.31395 149.752 1.29108 149.045 1.27701C148.664 1.26997 148.283 1.26118 147.902 1.25942C146.875 1.25238 145.854 1.25063 144.827 1.24007C144.7 1.23831 144.578 1.19433 144.379 1.15388C145.047 1.18554 145.589 1.21017 146.124 1.2348C146.124 1.22776 146.13 1.21896 146.13 1.21193C145.892 1.19082 145.66 1.16795 145.423 1.14685C145.439 1.12926 145.456 1.1099 145.473 1.09231C145.649 1.10287 145.82 1.12222 145.997 1.12046C146.406 1.11694 146.814 1.10111 147.262 1.09056C147.262 1.01668 147.262 0.937521 147.262 0.8355C147.731 0.881233 148.189 0.926967 148.653 0.972701C148.653 0.985014 148.647 0.997326 148.647 1.00964C148.316 1.00964 147.979 1.00964 147.648 1.00964C147.643 1.02547 147.632 1.03954 147.626 1.05537C147.786 1.07472 147.946 1.11166 148.106 1.11166C149.04 1.1099 149.973 1.10463 150.9 1.0888C151.662 1.07472 152.419 1.03603 153.181 1.02371C153.655 1.01492 154.125 1.0026 154.6 1.10463C154.809 1.1486 155.273 1.0501 155.621 1.01668C155.616 1.00085 155.61 0.986777 155.605 0.970946C155.522 0.956874 155.439 0.942797 155.323 0.921689C155.444 0.890027 155.533 0.865404 155.682 0.826707C155.538 0.810876 155.444 0.802078 155.268 0.784487C155.478 0.731717 155.643 0.689501 155.787 0.652562C155.687 0.63849 155.522 0.615624 155.351 0.592757C155.362 0.578685 155.367 0.562854 155.378 0.548782C155.875 0.548782 156.367 0.548782 156.863 0.548782C156.863 0.562854 156.869 0.576929 156.869 0.591002C156.654 0.608591 156.433 0.62794 156.217 0.64553C157.239 0.735239 158.266 0.76866 159.298 0.650807C159.155 0.643771 159.017 0.638491 158.873 0.631455C159.006 0.554059 159.006 0.554062 160.303 0.591002C160.171 0.596279 160.033 0.599794 159.9 0.605072C159.773 0.610348 159.646 0.617385 159.519 0.622662C159.525 0.638493 159.525 0.654322 159.53 0.670153C160.193 0.670153 160.85 0.670153 161.573 0.670153C161.457 0.643769 161.38 0.627941 161.264 0.601555C161.375 0.571652 161.463 0.547026 161.546 0.524159C161.546 0.510087 161.551 0.496011 161.551 0.481939C161.027 0.469626 160.502 0.455559 160.005 0.443246C160.027 0.430933 160.088 0.401027 160.187 0.351775C159.917 0.372883 159.707 0.388717 159.558 0.399271C159.497 0.43797 159.453 0.494256 159.398 0.496014C159.022 0.501291 158.575 0.539992 158.271 0.487221C157.443 0.341224 156.676 0.511843 155.881 0.49953C155.003 0.483699 154.125 0.485459 153.247 0.478423C152.662 0.473146 152.038 0.422135 151.497 0.473146C151.082 0.511844 150.784 0.50129 150.365 0.452039C150.525 0.4151 150.635 0.392231 150.746 0.367605C150.74 0.355292 150.735 0.342982 150.735 0.332428C149.779 0.360572 148.824 0.386957 147.825 0.415101C147.979 0.441486 148.14 0.46963 148.294 0.497774C148.267 0.511846 148.244 0.529433 148.233 0.527675C147.604 0.485458 146.947 0.469629 146.356 0.392234C145.832 0.323632 145.313 0.302522 144.771 0.295485C144.722 0.295485 144.672 0.316593 144.578 0.33946C144.76 0.350014 144.893 0.358813 145.02 0.365849C145.02 0.378162 145.025 0.390472 145.025 0.401027C144.457 0.409821 143.866 0.457317 143.319 0.420377C142.11 0.339464 140.939 0.409822 139.752 0.452038C139.305 0.467869 138.758 0.552301 138.372 0.369365C138.322 0.346498 138.09 0.341223 138.019 0.360572C137.577 0.480184 137.174 0.321871 136.743 0.346497C136.544 0.357051 136.323 0.323634 136.114 0.311321C136.103 0.32891 136.097 0.346498 136.086 0.364088C136.489 0.401027 136.892 0.437967 137.295 0.474906C137.295 0.481942 137.295 0.488979 137.295 0.497774C137.113 0.497774 136.931 0.503049 136.749 0.496013C136.555 0.488977 136.368 0.473147 136.169 0.480183C137.312 0.700057 138.554 0.531191 139.752 0.598033C139.509 0.60331 139.266 0.606829 139.024 0.615624C138.792 0.624419 138.56 0.640249 138.328 0.652562C138.333 0.664875 138.333 0.678947 138.339 0.69126C139.377 0.708849 140.415 0.724682 141.453 0.742272C141.453 0.758103 141.453 0.775693 141.453 0.791524C141.359 0.800319 141.265 0.809117 141.171 0.816152C141.166 0.828465 141.16 0.840779 141.149 0.85485C141.326 0.861887 141.508 0.87068 141.685 0.874198C141.9 0.877715 142.116 0.874196 142.347 0.905858C141.911 0.923448 141.481 0.948075 141.044 0.956871C140.426 0.967424 139.802 0.97798 139.184 0.963908C138.996 0.96039 138.427 1.03602 138.659 0.817908C138.67 0.809113 138.51 0.763381 138.444 0.76514C138.262 0.770417 137.919 0.7968 137.919 0.807354C137.936 0.905858 137.77 0.863645 137.649 0.860127C137.312 0.851332 136.981 0.840779 136.644 0.83902C136.539 0.83902 136.428 0.863644 136.29 0.881235C137.036 0.90762 137.726 0.932244 138.416 0.956871C138.411 0.97446 138.405 0.990293 138.405 1.00788C137.406 0.979739 136.379 1.0413 135.412 0.851329C135.639 0.851329 135.865 0.851329 136.086 0.851329C135.655 0.784487 135.263 0.714129 134.761 0.770417C134.264 0.824946 133.723 0.84957 133.204 0.768656C133.104 0.752825 132.977 0.756342 132.757 0.745788C132.972 0.79504 133.099 0.824946 133.22 0.85309C133.204 0.860126 133.182 0.867161 133.165 0.874197C132.773 0.837258 132.354 0.752826 132.006 0.78097C131.713 0.803837 131.448 0.800322 131.183 0.795045C130.548 0.782732 129.919 0.747547 129.289 0.735234C128.604 0.721162 127.914 0.728201 127.23 0.715888C126.909 0.71061 126.6 0.687746 126.307 0.75107C126.269 0.759865 126.18 0.740515 126.015 0.722925C126.236 0.700058 126.346 0.689503 126.462 0.67719C126.457 0.663117 126.457 0.650803 126.451 0.63673C124.336 0.773932 122.222 0.712371 120.101 0.722925C120.101 0.703576 120.096 0.684224 120.096 0.664875C120.399 0.664875 120.698 0.664875 121.057 0.664875C120.532 0.464349 120.018 0.680708 119.522 0.627937C119.599 0.645527 119.682 0.663115 119.759 0.680706C119.753 0.696537 119.753 0.71061 119.748 0.726441C118.379 0.694779 117.004 0.663115 115.634 0.631453C115.64 0.624418 115.651 0.617382 115.656 0.610346C115.524 0.629695 115.391 0.663116 115.253 0.664874C114.745 0.671911 114.237 0.671913 113.729 0.666635C113.222 0.661358 112.714 0.634973 112.211 0.643768C111.526 0.654321 110.853 0.698299 110.168 0.712371C109.892 0.717648 109.577 0.703574 109.334 0.661358C108.788 0.566372 108.28 0.585719 107.623 0.670151C107.855 0.693018 107.954 0.703576 108.059 0.712371C108.053 0.721166 108.048 0.729958 108.042 0.736994C107.805 0.72644 107.567 0.714129 107.28 0.700056C107.385 0.668394 107.446 0.650804 107.507 0.633214C107.424 0.612105 107.341 0.571652 107.264 0.575169C106.927 0.587483 106.59 0.622658 106.253 0.626176C106.077 0.627935 105.9 0.57165 105.712 0.557578C105.039 0.508326 104.365 0.464348 103.686 0.422131C103.443 0.4063 103.194 0.401023 102.952 0.383433C102.891 0.378157 102.852 0.339461 102.88 0.353534C102.571 0.353534 102.339 0.360568 102.118 0.351772C101.781 0.337701 101.45 0.300764 101.113 0.293728C100.98 0.29021 100.842 0.339461 100.754 0.397508C100.997 0.397508 101.24 0.397508 101.483 0.397508C101.483 0.406303 101.488 0.413337 101.488 0.422131C101.361 0.430926 101.234 0.439722 101.074 0.450276C101.4 0.504805 101.693 0.552299 101.98 0.599792C101.969 0.619141 101.958 0.640248 101.947 0.659597C101.4 0.659597 100.859 0.659597 100.351 0.659597C100.384 0.664874 100.467 0.675427 100.605 0.696535C99.8926 0.675427 99.2355 0.647285 98.584 0.63849C98.2472 0.633213 97.9048 0.673672 97.5736 0.668396C96.9828 0.657841 96.4361 0.756341 95.8564 0.735233C95.249 0.712366 94.6472 0.663116 94.0343 0.633213C93.5153 0.606828 92.9907 0.590998 92.4717 0.568131C91.6324 0.531192 90.7987 0.490733 89.9484 0.418615C90.1471 0.40982 90.3514 0.399266 90.5502 0.39047C90.5557 0.379916 90.5612 0.369363 90.5612 0.35881C89.8931 0.339461 89.2195 0.320109 88.5293 0.30076C88.5625 0.284929 88.6232 0.260305 88.6729 0.237438C88.452 0.182909 88.2312 0.130137 88.0103 0.0756075C88.049 0.061536 88.0876 0.0492241 88.2201 -2.7463e-05C87.5631 0.0333931 87.0109 0.0632974 86.3759 0.0949594C86.6355 0.123103 86.8177 0.142453 86.9999 0.161802C87.0054 0.172357 87.0109 0.18467 87.022 0.195224C86.5582 0.228644 86.0943 0.263823 85.6305 0.297243C85.6029 0.279654 85.5808 0.262065 85.5532 0.244475C85.7189 0.204019 85.8845 0.163558 86.0833 0.114306C85.9177 0.0984746 85.7299 0.0685721 85.5312 0.065054C85.2772 0.0597773 85.0176 0.0773697 84.7637 0.0844059C84.968 0.123104 85.1888 0.165317 85.3931 0.202255C85.0508 0.427407 84.5759 0.274377 84.1618 0.27086C83.963 0.2691 83.7698 0.249751 83.5655 0.237438C83.4661 0.0861635 82.1023 0.0668143 81.5998 0.242715C82.4667 0.101994 83.2176 0.277895 84.0183 0.330665C82.8643 0.35529 81.6992 0.328903 80.5508 0.378156C80.5508 0.393987 80.5563 0.409819 80.5563 0.423891C81.3017 0.423891 82.0471 0.423891 82.787 0.423891C82.787 0.432686 82.7925 0.439725 82.7925 0.44852C82.6876 0.457314 82.5827 0.466105 82.4778 0.476659C82.4722 0.490731 82.4667 0.504806 82.4612 0.518879C82.9416 0.617383 83.5324 0.473141 84.0845 0.608584C83.9078 0.494249 83.6925 0.415096 84.1673 0.413338C84.3882 0.413338 84.6091 0.406301 84.8244 0.395746C85.3379 0.369362 85.5532 0.452034 85.5146 0.636728C85.1833 0.650801 84.8134 0.666634 84.4434 0.682465C86.3042 0.705332 88.0986 0.87068 89.9263 0.981497C89.1809 1.12222 88.3692 1.01491 87.5962 1.04306C86.8397 1.0712 86.0612 1.02371 85.2164 1.00788C85.5367 0.949833 85.8072 0.900582 86.0833 0.849571C86.0667 0.831982 86.0502 0.812633 86.0336 0.795043C85.0673 1.08 83.9299 0.992049 82.8311 1.00788C82.8256 0.909376 83.3888 1.02547 83.1955 0.874195L83.2066 0.87771C82.8974 0.905855 82.5882 0.933999 82.2403 0.965661C82.2955 0.983251 82.3397 0.997324 82.3839 1.0114C82.0029 0.921687 81.517 1.18202 81.1692 0.967421C81.1526 0.958627 81.0698 0.949832 81.0422 0.956868C80.5784 1.05009 80.0759 1.00612 79.59 1.00436C79.0489 1.00436 78.5078 0.988532 77.9612 0.986773C76.9839 0.981496 76.0066 0.983251 75.0292 0.977975C74.836 0.976216 74.6151 1.01843 74.4605 0.914653C74.4164 0.882991 74.0022 0.891784 73.7924 0.91817C73.3286 0.976216 72.9256 0.918171 72.517 0.865402C72.2078 1.00436 71.8323 0.912893 71.4844 0.912893C71.4789 0.89882 71.4734 0.882989 71.4734 0.868917C71.8268 0.868917 72.1746 0.868917 72.528 0.868917C72.8206 0.861882 73.1133 0.854848 73.4059 0.849571C73.5219 0.847812 73.6489 0.854845 73.7593 0.84605C73.8311 0.839014 73.8808 0.809113 73.9415 0.788005C73.8753 0.770415 73.82 0.740509 73.7483 0.735232C73.555 0.717641 73.2679 0.766898 73.2568 0.64025C73.2568 0.636732 73.2016 0.629693 73.174 0.631451C72.782 0.633211 72.3624 0.668394 72.009 0.629696C71.3409 0.554059 70.7004 0.69478 70.0268 0.619142C69.7617 0.589239 69.3807 0.682466 69.0274 0.722923C70.0212 0.740512 70.9875 0.758101 71.9482 0.775691C71.9482 0.791522 71.9482 0.807354 71.9482 0.821426C71.1311 0.821426 70.3194 0.819667 69.5022 0.821426C68.9445 0.823185 68.3924 0.830217 67.8347 0.833735C66.3384 0.84253 64.8421 0.84957 63.3513 0.860124C62.6887 0.863642 62.0316 0.872437 61.369 0.875955C61.2476 0.875955 61.1261 0.870676 60.8666 0.86364C61.1482 0.798557 61.3249 0.758099 61.474 0.724678C61.2034 0.698293 60.9273 0.664875 60.6457 0.650803C60.5298 0.645526 60.3972 0.70357 60.2758 0.70357C59.8727 0.700052 59.4697 0.687739 59.0666 0.670149C58.8457 0.659595 58.6304 0.612102 58.4205 0.61562C57.6641 0.627933 56.9077 0.663114 56.1457 0.67191C55.6819 0.677187 55.2126 0.656077 54.7543 0.63145C54.5444 0.620897 54.3346 0.538227 54.1469 0.547022C53.8432 0.561094 53.5616 0.624417 53.3794 0.650802C53.0978 0.615622 52.8935 0.569888 52.6837 0.568129C51.5628 0.555816 50.442 0.552295 49.3211 0.548777C48.526 0.547018 47.7309 0.548777 47.0297 0.548777C47.0518 0.547018 47.1732 0.538225 47.3444 0.524154C47.0297 0.504805 46.7757 0.485456 46.5162 0.474902C46.4665 0.473143 46.4057 0.497766 46.3505 0.510079C46.3947 0.524151 46.4389 0.538227 46.5659 0.580444C45.6603 0.554058 44.8432 0.529428 44.026 0.504802C44.0204 0.494248 44.0149 0.485456 44.0094 0.474902C44.3297 0.466108 44.6499 0.457313 44.9536 0.448518C44.8708 0.415097 44.7548 0.369359 44.6278 0.318348C43.9211 0.462587 43.2033 0.564612 42.3585 0.503047C42.3806 0.439723 42.4082 0.372876 42.4358 0.306034C42.4082 0.300758 42.3806 0.297241 42.353 0.291965C42.2425 0.364083 42.1266 0.436204 42.0162 0.508324C41.6297 0.508324 41.1714 0.501284 40.7131 0.510078C40.1388 0.522391 39.5646 0.550539 38.9904 0.568129C38.256 0.592754 37.5327 0.590994 36.8315 0.488972C36.6989 0.469622 36.5002 0.503044 36.329 0.511839C36.329 0.525911 36.329 0.539982 36.3345 0.554053C36.5222 0.564607 36.7045 0.575166 36.8922 0.58572C36.8922 0.592755 36.8867 0.601546 36.8867 0.608582C36.5388 0.596269 36.1744 0.603307 35.8486 0.566368C35.0535 0.4749 34.2639 0.492489 33.4523 0.587475C33.756 0.598029 34.0597 0.608587 34.3578 0.61914C34.3578 0.634971 34.3633 0.64904 34.3633 0.664871C33.3805 0.664871 32.4032 0.664871 31.4204 0.664871C31.4149 0.689497 31.4093 0.712365 31.4093 0.736991C31.6909 0.751063 31.9836 0.789761 32.2486 0.775689C32.8173 0.744027 33.3474 0.712365 33.9216 0.786242C34.1867 0.819664 34.5566 0.759858 34.8824 0.742267C34.9597 0.738749 35.037 0.740507 35.1143 0.740507C35.683 0.740507 36.2517 0.721162 36.8149 0.744028C37.7811 0.780968 38.7143 0.689498 39.675 0.698293C40.0891 0.701811 40.5088 0.643766 40.9284 0.634972C41.4254 0.622659 41.9278 0.63145 42.4523 0.63145C42.0769 0.828458 41.8892 0.849566 41.199 0.768652C41.4861 0.73699 41.707 0.714126 41.9278 0.6895C41.9223 0.682464 41.9167 0.677184 41.9167 0.670148C41.5026 0.691257 41.0885 0.712367 40.6744 0.733475C40.6744 0.749306 40.6744 0.763374 40.6744 0.779205C40.956 0.805591 41.2431 0.831975 41.6186 0.867155C40.4646 0.867155 39.41 0.867155 38.3499 0.867155C38.3499 0.969177 38.0903 0.900577 37.8971 0.890023C37.6983 0.879469 37.5051 0.868916 37.3063 0.863639C37.1628 0.860121 37.0247 0.863639 36.9032 0.863639C36.5995 0.890024 36.1854 0.969178 36.0253 0.928721C35.7548 0.860121 35.567 0.914648 35.3572 0.916406C34.656 0.923443 33.9603 0.93224 33.2646 0.951589C32.2817 0.979733 31.3044 1.01843 30.3271 1.05009C29.8136 1.06768 29.3112 1.07648 28.9688 0.902337C28.9247 0.877711 28.7701 0.877713 28.5989 0.860122C28.7424 0.918169 28.8418 0.955107 29.0296 1.02899C28.7756 1.04482 28.5934 1.06944 28.4111 1.06417C27.4946 1.04306 26.578 1.01667 25.6615 0.988526C25.3191 0.977972 24.9823 0.956866 24.6455 0.946311C24.016 0.928722 23.3866 0.914652 22.735 0.932242C22.862 0.95335 22.9946 0.972695 23.1878 1.00436C23.0277 1.11341 22.8676 1.22247 22.7019 1.32977C23.0498 1.3157 23.3093 1.18905 23.7123 1.23303C23.7841 1.24007 23.889 1.21192 24.0326 1.19082C23.8173 1.15739 23.6737 1.13629 23.5301 1.11342C25.1479 1.00084 26.705 1.24358 28.3007 1.09583C28.3007 1.11166 28.3007 1.12573 28.3007 1.14156C27.7155 1.16267 27.1302 1.18202 26.5449 1.20312C26.5504 1.21896 26.5559 1.23303 26.5614 1.24886C26.6719 1.24358 26.7823 1.23303 26.8872 1.23479C27.0308 1.23831 27.1743 1.25238 27.3234 1.26293C29.3498 1.26293 31.3762 1.26293 33.3971 1.26293C32.4474 1.30163 31.4922 1.30691 30.5369 1.3157C30.0124 1.31922 29.4934 1.33505 28.9688 1.32626C28.4222 1.31746 27.8756 1.28404 27.3289 1.26117C27.2516 1.26117 27.1578 1.25062 27.097 1.26117C26.5394 1.35968 25.9927 1.35616 25.4075 1.27524C25.2473 1.25414 24.9878 1.32098 24.7725 1.34912C24.397 1.37199 23.9664 1.36144 23.5522 1.37551C23.2541 1.38606 22.967 1.43355 22.6688 1.45642C22.5418 1.46521 22.2988 1.48808 22.459 1.38606C22.0393 1.3456 22.0393 1.3456 21.2222 1.46873C21.0344 1.42476 20.9019 1.37375 20.7418 1.35968C20.3774 1.32977 20.0019 1.30515 19.632 1.30163C19.3504 1.29811 19.0246 1.36847 18.7816 1.34033C18.3234 1.28931 17.8927 1.34737 17.4565 1.33329C17.0976 1.32098 16.7442 1.29107 16.3798 1.29107C16.9816 1.49336 17.7602 1.30339 18.4007 1.41069C18.0915 1.52854 18.0418 1.5303 17.7105 1.45114C17.2908 1.49688 16.9816 1.54261 16.6614 1.5602C15.1485 1.64463 13.6356 1.72555 12.1227 1.79591C11.5209 1.82405 10.908 1.81702 10.3006 1.83109C9.9362 1.83988 9.57178 1.85747 9.07484 1.87682C9.373 1.91376 9.5497 1.93487 9.74847 1.96125C9.20184 2.06151 8.70491 2.17585 8.1638 2.24093C7.63925 2.30426 7.05949 2.32185 6.50734 2.35351C6.0601 2.37989 5.60733 2.39924 5.17113 2.45729C5.8558 2.44322 6.54047 2.42739 7.33005 2.41155C7.192 2.44498 7.14232 2.45729 7.07607 2.47312C7.4184 2.48895 7.86563 2.46433 8.05336 2.52765C8.49509 2.67541 8.87607 2.547 9.2957 2.54876C8.9865 2.74225 8.35152 2.70179 7.97606 2.68596C7.37421 2.65958 6.76685 2.66837 6.17053 2.64199C5.94966 2.63143 5.72882 2.62264 5.50795 2.61208C5.49692 2.63671 5.49138 2.65958 5.48033 2.6842C5.86133 2.70179 6.24231 2.71411 6.61777 2.74049C6.83862 2.75632 7.04292 2.79502 7.26379 2.81789C7.33005 2.82492 7.41838 2.81085 7.49568 2.81085C7.97054 2.80733 8.47852 2.7528 8.86502 2.9375C8.23006 2.9375 7.61716 2.95333 7.02084 2.93398C6.41899 2.91463 5.82819 2.8601 5.2926 2.82492C5.22083 2.73873 5.14352 2.65078 5.02757 2.51006C4.5472 2.77567 3.91776 2.68948 3.2607 2.71586C3.29935 2.64374 3.26622 2.56811 3.3656 2.53469C3.64168 2.43442 3.48155 2.41332 3.211 2.39221C3.11714 2.38517 3.0343 2.36582 2.97357 2.35703C2.7748 2.42739 2.55946 2.50302 2.33308 2.58218C2.3607 2.58746 2.47113 2.61384 2.50426 2.62088C2.74719 2.58042 2.94045 2.54876 3.23308 2.50126C3.1613 2.61032 3.12265 2.66661 3.07848 2.73345C2.69197 2.74929 2.29443 2.76863 1.89688 2.78095C1.47173 2.79502 1.33922 2.88121 1.58768 3.01841C1.44412 3.0061 1.33369 2.99555 1.22327 2.98675C1.2067 2.99203 1.19565 2.99731 1.17908 3.00434C1.31712 3.04128 1.43858 3.08877 1.59319 3.11164C1.80301 3.1433 2.03493 3.16968 2.26131 3.17672C2.77481 3.19431 3.29382 3.19783 3.80733 3.20663C4.12756 3.2119 4.45334 3.21366 4.77911 3.22069C5.71225 3.24356 6.64539 3.26643 7.573 3.29458C8.31288 3.31568 9.05827 3.34734 9.79816 3.37021C10.1571 3.38252 10.5159 3.3878 10.8748 3.43178C10.2509 3.44233 9.62148 3.45288 9.01962 3.46344C8.95889 3.48279 8.89262 3.52149 8.8098 3.52677C8.25766 3.55667 7.69446 3.56898 7.14783 3.60592C6.71162 3.63582 6.29753 3.69387 5.86685 3.73608C5.33678 3.78709 4.80121 3.83283 4.26561 3.87856C4.23801 3.88032 4.19936 3.87857 4.17174 3.87329C3.86806 3.80469 3.56438 3.73608 3.20548 3.65517C2.80794 3.7009 2.41039 3.77654 2.30547 3.95772C2.49872 4.014 2.69199 4.06677 2.87972 4.1213L2.87419 4.11955C3.20548 4.14065 3.53677 4.16176 3.84598 4.18111C3.71346 4.21277 3.52573 4.25851 3.29935 4.31304C3.40427 4.36405 3.50363 4.4133 3.63063 4.47135C3.49811 4.49245 3.35455 4.51532 3.21652 4.53819C3.66376 4.5505 4.09444 4.56281 4.51961 4.57513C4.51961 4.59096 4.51959 4.60855 4.52512 4.62438C4.40364 4.6279 4.27666 4.63318 4.15518 4.63669C3.6196 4.64901 3.08954 4.65956 2.55394 4.67363C2.21161 4.68242 1.86375 4.68418 1.53799 4.71233C1.14044 4.74751 0.759461 4.80907 0.240433 4.87415C0.764969 5.00256 1.157 5.09755 1.49933 5.18198C1.13492 5.27696 0.764985 5.37547 0.41713 5.46518C1.32817 5.54082 2.2337 5.60766 3.12267 5.69033C4.02266 5.77476 4.92267 5.8205 5.85028 5.85216C6.73924 5.88382 7.61717 5.82402 8.48956 5.86095C8.49509 5.8803 8.49509 5.89965 8.5006 5.919C6.63985 6.00695 4.7791 6.09314 2.99013 6.17757C2.91835 6.20572 2.84659 6.23562 2.76376 6.26728C3.89015 6.22859 5.02205 6.21451 6.18709 6.31126C5.73433 6.35875 5.35335 6.40097 4.96684 6.43791C4.80119 6.45374 4.58586 6.48188 4.46439 6.45901C3.79076 6.32885 3.11162 6.45726 2.43246 6.4555C3.00671 6.47661 3.58647 6.49771 4.16071 6.51882C4.16071 6.52937 4.16621 6.53817 4.16621 6.54872C3.50363 6.55928 2.83554 6.57159 2.17296 6.58215C2.17296 6.60149 2.16744 6.62084 2.16744 6.64019C2.78032 6.67009 3.3932 6.7 4.04474 6.73166C3.95088 6.77915 3.89015 6.81082 3.82941 6.84072C4.42021 6.85479 4.98341 6.87062 5.59077 6.88469C5.50243 6.9058 5.4472 6.91987 5.27605 6.96385C6.59569 6.94626 7.74416 7.02365 8.77667 7.28047C7.69446 7.26112 6.61226 7.24177 5.52452 7.22418L5.53003 7.22418C5.4196 7.25056 5.30916 7.27695 5.19873 7.30334C6.46317 7.34907 7.72759 7.39304 8.99753 7.43878C8.99753 7.45637 8.99202 7.4722 8.99202 7.48979C8.03128 7.55663 7.06502 7.62523 6.10426 7.69207C6.10979 7.71142 6.11531 7.73077 6.11531 7.75012C7.23065 7.75012 8.35152 7.75012 9.46686 7.75012C9.48343 7.77123 9.50552 7.79234 9.52208 7.81344C9.33987 7.8539 9.16318 7.89436 8.98097 7.93482C9.27361 8.00518 9.56073 8.07378 9.84785 8.14238C9.83128 8.15997 9.81473 8.17755 9.79816 8.19514C8.51717 8.0685 7.23618 8.08609 5.94966 8.19339C7.06502 8.19339 8.18588 8.19339 9.30122 8.19339C9.30122 8.20746 9.30673 8.22329 9.30673 8.23736C8.49507 8.26375 7.68893 8.29189 6.81102 8.32179C7.71103 8.35873 8.53925 8.39215 9.44478 8.43085C8.5282 8.68063 7.54538 8.51001 6.55704 8.59268C6.9325 8.60148 7.2141 8.60851 7.53987 8.6173C7.46257 8.64721 7.4184 8.6648 7.35214 8.69118C7.58405 8.69118 7.79385 8.69118 7.99814 8.69118C7.99814 8.71229 7.99263 8.73516 7.99263 8.75627C6.87729 8.73516 5.76193 8.71405 4.64659 8.69294C4.64659 8.7035 4.64107 8.71581 4.64107 8.72637C5.4693 8.75451 6.30304 8.7809 7.13126 8.80904C7.12575 8.81432 7.12575 8.81783 7.12022 8.81959C7.10918 8.82311 7.0871 8.82135 7.07607 8.82487C7.04845 8.83191 7.02083 8.8407 6.94353 8.86357C7.27483 8.86357 7.53433 8.86357 7.79385 8.86357C7.80489 8.87764 7.81593 8.89171 7.82698 8.90578C7.5509 8.93041 7.28035 8.96383 6.99875 8.9779C6.60672 8.99725 6.20918 9.00429 5.81715 9.01484C5.48587 9.02363 5.1601 9.03067 4.81776 9.06234C6.89386 9.15556 8.96994 9.24703 11.0405 9.34026C11.035 9.35257 11.035 9.36312 11.0295 9.37544C9.21841 9.40006 7.40183 9.42469 5.59077 9.44931C5.58525 9.45811 5.58524 9.46866 5.57973 9.47746C5.77849 9.48977 5.97728 9.50384 6.25887 9.52143C6.02145 9.53199 5.86685 9.53902 5.59077 9.55134C6.22575 9.57596 6.73924 9.59531 7.25273 9.61642C7.25273 9.6428 7.24722 9.66919 7.24722 9.69557C6.85519 9.69557 6.45764 9.69557 6.06561 9.69557C6.05457 9.70788 6.04906 9.7202 6.03801 9.73251C6.12083 9.7501 6.20366 9.76769 6.33066 9.79583C6.19814 9.83805 6.06563 9.87851 5.93863 9.91897C6.04353 10.014 6.15396 10.116 6.27544 10.2268C6.12636 10.218 5.98279 10.2074 5.83923 10.1986C5.83371 10.211 5.8282 10.2233 5.8282 10.2356C6.48526 10.2672 7.1423 10.2989 7.77176 10.3288C7.82146 10.3042 7.80489 10.313 7.78831 10.32C7.77176 10.3271 7.7552 10.3341 7.72206 10.3464C7.94846 10.3464 8.16379 10.3464 8.42882 10.3464C8.28526 10.3306 8.18588 10.3183 8.08649 10.3059C8.09201 10.2971 8.09201 10.2884 8.09752 10.2796C8.77115 10.2936 9.44479 10.3077 10.1129 10.3235C10.1129 10.3341 10.1129 10.3464 10.1129 10.357C9.66013 10.357 9.20184 10.357 8.74907 10.357C8.74356 10.364 8.73251 10.371 8.72699 10.3781C8.90367 10.3957 9.08035 10.415 9.31227 10.4379C9.01962 10.466 8.77667 10.4889 8.5282 10.5117C8.52267 10.5241 8.51717 10.5364 8.51717 10.5487C9.31226 10.6208 10.1018 10.6929 10.8969 10.765C10.8914 10.7862 10.8859 10.8073 10.8804 10.8284C10.6153 10.8231 10.3448 10.8231 10.0798 10.8143C9.78712 10.8037 9.48895 10.7949 9.20735 10.7668C8.95337 10.7422 8.72145 10.6929 8.47852 10.656C8.45642 10.6771 8.42883 10.6982 8.40674 10.7193C9.02515 10.802 9.63805 10.8917 10.2675 10.9656C10.643 11.0095 10.7699 11.0799 10.5767 11.2505C11.9129 11.2752 13.2215 11.2892 14.5246 11.3279C14.8338 11.3367 15.1209 11.4264 15.4135 11.4757C15.1043 11.4915 14.7896 11.5091 14.4197 11.5285C14.519 11.5548 14.5908 11.5724 14.6957 11.6006C12.6693 11.6006 10.6705 11.6006 8.68832 11.6006C8.71042 11.6094 8.77667 11.6393 8.9092 11.6938C8.36256 11.6674 7.90981 11.6463 7.33005 11.6182C7.59508 11.7712 7.89876 11.7923 8.21899 11.8046C8.48402 11.8152 8.78772 11.7729 8.93127 11.9154C8.97545 11.9576 9.37852 11.9559 9.62146 11.9717C9.88098 11.9893 10.2564 11.9313 10.2454 12.116C10.2454 12.1494 10.6816 12.1881 10.9245 12.218C11.035 12.232 11.2227 12.2127 11.2779 12.2356C11.6479 12.3868 12.1282 12.2971 12.5534 12.3112C13.3209 12.3376 14.0884 12.3499 14.8559 12.3675C14.8559 12.3921 14.8614 12.4185 14.8614 12.4431C14.4196 12.466 13.9835 12.4871 13.47 12.5135C13.8951 12.6577 14.2982 12.5539 14.6736 12.5399C14.9608 12.5293 15.2479 12.4941 15.535 12.4906C16.4847 12.4748 17.4399 12.466 18.3896 12.4554C18.4835 12.4537 18.6546 12.4502 18.6602 12.4554C18.7319 12.5768 18.9363 12.4924 19.0853 12.4924C19.9964 12.4924 20.9074 12.4924 21.8185 12.4924C22.6688 12.4924 23.5136 12.4871 24.3639 12.4959C25.4682 12.5065 26.578 12.5258 27.6823 12.5434C28.2068 12.5487 28.7259 12.5539 29.2504 12.5592C29.2449 12.5733 29.2449 12.5874 29.2394 12.6014C28.6431 12.6138 28.0523 12.6261 27.5001 12.6366C27.5664 12.6032 27.6271 12.5698 27.6934 12.5381C27.3345 12.5838 26.8927 12.5452 26.6167 12.6894C26.5449 12.7281 26.1749 12.6999 25.943 12.7017C25.5565 12.7035 25.1645 12.7017 24.778 12.7017C24.778 12.7158 24.778 12.7298 24.778 12.7439C25.8437 12.7439 26.9093 12.7439 27.9198 12.7439C27.9474 12.751 27.9032 12.7386 27.7486 12.6982C29.1842 12.7562 30.5314 12.7351 31.9008 12.8758C31.194 13.0342 30.5093 12.955 29.8412 12.9585C28.6596 12.9638 27.478 12.9814 26.2964 12.9919C26.0866 12.9937 25.8768 12.9849 25.6725 12.9796C25.3136 12.9708 24.9492 12.9585 24.5903 12.955C23.8338 12.9497 23.0719 12.9462 22.3154 12.9462C21.835 12.9462 21.3602 12.9532 20.8798 12.9532C20.0406 12.9515 19.2068 12.9374 18.3675 12.9444C17.6166 12.9515 16.8602 12.9796 16.1092 12.999C16.1148 13.0148 16.1147 13.0306 16.1203 13.0465C16.6172 13.0359 17.1086 13.0166 17.6056 13.0183C18.373 13.0236 19.1405 13.0447 19.908 13.057C20.1731 13.0605 20.4326 13.0535 20.6976 13.0605C21.189 13.0764 21.6749 13.101 22.1663 13.1168C22.4038 13.1256 22.6412 13.1221 22.8786 13.1239C23.4142 13.1291 23.9498 13.145 24.4854 13.1397C24.9271 13.1344 25.3633 13.0869 25.7995 13.0852C26.7989 13.0834 27.7983 13.1045 28.7977 13.1063C29.1842 13.108 29.5762 13.0693 29.9572 13.0746C30.559 13.0834 31.1609 13.1291 31.7627 13.1327C32.5688 13.1362 33.3805 13.1168 34.1866 13.101C34.9155 13.0869 35.7051 12.9972 36.3566 13.0658C37.1517 13.1485 37.9026 13.0729 38.6591 13.1186C38.7253 13.1221 38.7805 13.1379 38.8468 13.1467C38.8413 13.1608 38.8358 13.1766 38.8302 13.1907C38.1511 13.1907 37.4775 13.1907 36.7983 13.1907C36.7983 13.2118 36.7983 13.2329 36.7983 13.254C37.0744 13.254 37.3505 13.2558 37.6266 13.254C39.4266 13.24 41.2266 13.2206 43.0266 13.2101C43.8382 13.2048 44.6499 13.2188 45.456 13.2118C45.9585 13.2065 46.461 13.1766 46.9634 13.1608C47.0407 13.159 47.1235 13.1661 47.2008 13.1766C47.499 13.2153 47.7419 13.3121 48.134 13.2118C48.2886 13.1731 48.6254 13.2259 48.8794 13.2276C49.2217 13.2276 49.564 13.2153 49.9064 13.2118C50.2487 13.2101 50.591 13.2224 50.9279 13.2118C51.3364 13.1995 51.7451 13.1678 52.1536 13.1467C52.2365 13.1432 52.369 13.1362 52.4076 13.152C52.6616 13.2646 53.0647 13.2488 53.3739 13.2523C53.7052 13.2558 53.6444 13.298 53.6334 13.3613C53.6665 13.3385 53.7218 13.2945 53.7273 13.2962C53.9923 13.3297 54.1911 13.3033 54.3512 13.2259C54.3678 13.2171 54.4395 13.2153 54.4837 13.2189C55.1021 13.254 55.7261 13.291 56.3997 13.3314C56.3113 13.3578 56.2837 13.3754 56.2506 13.3772C55.7868 13.3824 55.323 13.386 54.8537 13.3912C54.4395 13.3965 54.0144 13.451 53.6279 13.3561C53.6003 13.3701 53.5727 13.3948 53.5506 13.3948C53.0757 13.3772 52.6064 13.3578 52.0211 13.3332C51.6678 13.4194 47.7751 13.4141 47.5156 13.3226C47.1567 13.3385 46.8751 13.3508 46.5935 13.3631C46.588 13.3543 46.5824 13.3473 46.5769 13.3385C46.6597 13.3209 46.737 13.305 46.8199 13.2875C46.5935 13.3015 46.3395 13.2435 46.1462 13.3596C46.0689 13.4071 45.6051 13.3842 45.318 13.386C44.8321 13.3895 44.3462 13.3877 43.8603 13.3877C43.8603 13.4053 43.8603 13.4247 43.8603 13.4422C44.4898 13.4422 45.1192 13.4422 45.7487 13.4422C45.9971 13.4422 46.2456 13.4475 46.4941 13.4493C46.8088 13.451 47.1291 13.444 47.4438 13.4528C47.764 13.4634 48.0788 13.4933 48.3935 13.5108C48.515 13.5179 48.653 13.5232 48.7634 13.5091C49.3542 13.4422 49.9009 13.4739 50.4861 13.5407C50.823 13.5794 51.2371 13.532 51.6181 13.5232C51.734 13.5214 51.8665 13.5038 51.9604 13.5196C52.4463 13.597 52.9819 13.6041 53.4402 13.546C54.2077 13.4493 54.8647 13.5583 55.5659 13.6217C54.8813 13.6217 54.1911 13.6164 53.5064 13.6234C52.5733 13.6322 51.6346 13.648 50.7015 13.6604C49.034 13.6832 47.361 13.7166 45.6935 13.7272C44.926 13.7325 44.164 13.6938 43.391 13.6885C45.1027 13.8345 46.8419 13.8785 48.7027 13.8169C48.5647 13.8451 48.5039 13.8591 48.4432 13.8697C48.388 13.8785 48.3327 13.8838 48.2775 13.9101C49.3432 14.021 50.4199 13.9365 51.4855 13.9365C51.4911 13.9189 51.491 13.9031 51.4966 13.8855C51.1653 13.8785 50.834 13.8732 50.5027 13.8662C50.5027 13.8556 50.5027 13.8451 50.5082 13.8363C53.3242 13.8116 56.1402 13.787 58.9561 13.7624L58.9451 13.7641C59.0611 13.7553 59.1715 13.7465 59.1604 13.7483C59.4696 13.7378 59.6463 13.7325 59.8175 13.7272C60.1598 13.7166 60.4966 13.6955 60.839 13.6955C61.993 13.6903 63.147 13.6955 64.3009 13.6885C64.5273 13.6867 64.7482 13.6445 64.9856 13.6199C65.0243 13.6287 65.1071 13.6639 65.1899 13.6639C66.0734 13.6639 66.9568 13.6586 67.8402 13.6568C68.547 13.6551 69.2593 13.6586 69.966 13.6604L69.955 13.6639C70.6617 13.6041 71.3574 13.5654 72.0311 13.7061C72.1581 13.7325 72.3237 13.7501 72.4783 13.7518C72.8759 13.7553 73.2734 13.7466 73.6654 13.743L73.6765 13.7483C73.1961 13.7254 72.7102 13.7043 72.2298 13.6815C72.2354 13.6568 72.2354 13.634 72.2409 13.6093C72.655 13.6093 73.1133 13.5706 73.4722 13.6181C74.0961 13.7026 74.593 13.5372 75.1673 13.597C75.1673 13.583 75.1673 13.5689 75.1673 13.5548C74.9243 13.539 74.6759 13.5214 74.3335 13.4985C75.0237 13.4985 75.609 13.4985 76.1943 13.4985C76.1943 13.5056 76.1943 13.5126 76.1943 13.5196C75.9293 13.5249 75.6642 13.532 75.3992 13.5372C75.3881 13.5478 75.3826 13.5601 75.3716 13.5707C75.5317 13.597 75.6973 13.6217 75.8078 13.6393C75.7194 13.6973 75.6366 13.7553 75.5538 13.8116L75.5483 13.8064C75.725 13.8064 75.9016 13.8064 76.0728 13.8064C76.0728 13.8011 76.0728 13.7958 76.0728 13.7905C75.9679 13.7852 75.863 13.78 75.7029 13.7729C76.1446 13.5988 76.6029 13.583 77.1716 13.6428C77.4532 13.6727 77.7955 13.634 78.1102 13.6305C78.5741 13.6252 79.0434 13.6287 79.5072 13.6199C79.7888 13.6146 80.0649 13.597 80.3465 13.5865C80.3409 13.5654 80.3354 13.546 80.3299 13.5249C79.9268 13.5372 79.5238 13.5495 79.1262 13.5619C79.1262 13.5425 79.1207 13.5232 79.1207 13.5038C81.1968 13.4827 83.2729 13.4141 85.4152 13.4985C85.3048 13.5232 85.2385 13.5531 85.1722 13.5513C84.3992 13.5407 83.6262 13.5232 82.8477 13.5108C82.7594 13.5091 82.6655 13.5355 82.5716 13.539C82.3673 13.5495 82.163 13.5654 81.9643 13.5619C81.5667 13.5531 81.1692 13.532 80.7661 13.5478C81.1747 13.7043 81.7213 13.6129 82.1851 13.6656C82.1796 13.6832 82.1741 13.7043 82.1685 13.729C82.2182 13.7272 82.2403 13.729 82.2458 13.7272C82.671 13.5372 83.2342 13.6938 83.7256 13.6656C84.2391 13.6357 84.7857 13.6797 85.36 13.692C85.3213 13.7219 85.2937 13.7501 85.244 13.794C85.9287 13.794 86.5968 13.794 87.2704 13.794C87.2759 13.7817 87.287 13.7677 87.2925 13.7553C86.7845 13.736 86.2821 13.7166 85.7741 13.6973C85.7796 13.6885 85.7796 13.6797 85.7851 13.6709C86.8453 13.6709 87.9109 13.6692 88.9711 13.6727C89.4238 13.6744 89.8821 13.6744 90.3238 13.6973C90.9312 13.729 91.522 13.7905 92.1294 13.8187C92.5103 13.8363 92.9024 13.8169 93.2889 13.8152C93.5981 13.8134 93.9073 13.8152 94.2275 13.8152C94.2607 13.7835 94.3048 13.7378 94.3269 13.7166C94.4981 13.7483 94.6803 13.7993 94.7189 13.7888C95.122 13.6744 95.5416 13.7219 95.9613 13.7624C95.9834 13.7641 95.9889 13.7782 96.0054 13.787C96.0275 13.7729 96.0441 13.7483 96.0717 13.7466C96.403 13.729 96.7508 13.7254 97.0766 13.6991C97.5239 13.6621 97.695 13.7817 97.9325 13.8591C98.1478 13.9295 98.319 14.0403 98.6226 13.8943C98.6392 13.8855 98.7276 13.882 98.7552 13.889C99.3128 14.0456 99.7822 13.8732 100.29 13.8415C100.925 13.8028 101.571 13.7782 102.201 13.7483C102.256 13.8257 102.283 13.8697 102.305 13.9013C102.532 13.8714 102.725 13.8468 102.946 13.8187C102.847 13.8099 102.742 13.7993 102.559 13.7817C102.764 13.7553 102.869 13.7395 102.979 13.7254C103.134 13.7043 103.321 13.6533 103.437 13.6674C103.686 13.6991 103.459 13.7448 103.426 13.794C103.382 13.8538 103.493 13.933 103.592 13.9928C103.614 14.0051 103.874 13.9612 104.023 13.9612C104.575 13.9594 105.127 13.9647 105.679 13.9699C105.801 13.9717 105.983 14.0122 106.021 13.9963C106.507 13.8134 107.087 13.9946 107.623 13.9436C108.164 13.8925 108.755 13.9049 109.323 13.8978C110.008 13.889 110.693 13.889 111.377 13.882C111.433 13.882 111.482 13.8503 111.532 13.8345C111.51 13.8169 111.493 13.7993 111.471 13.78C112.139 13.8028 112.807 13.8257 113.42 13.8468C113.36 13.8363 113.238 13.8169 113.122 13.7976C113.133 13.7835 113.139 13.7694 113.15 13.7553C113.365 13.7641 113.586 13.7853 113.796 13.7817C114.569 13.7694 115.342 13.7501 116.115 13.7325C116.209 13.7307 116.303 13.7342 116.396 13.7378C116.937 13.7624 116.937 13.7624 117.302 13.6375C117.169 13.6129 117.015 13.5601 116.877 13.5654C116.59 13.5742 116.181 13.583 116.054 13.6463C115.833 13.7553 115.701 13.678 115.518 13.6551C115.618 13.6463 115.712 13.6375 115.789 13.6305C115.673 13.5812 115.568 13.5372 115.463 13.4933C115.491 13.4792 115.518 13.4669 115.541 13.4528C116.529 13.532 117.501 13.5056 118.467 13.4352C118.467 13.4211 118.467 13.4071 118.467 13.3912C118.174 13.3912 117.876 13.3912 117.583 13.3912C117.583 13.3807 117.583 13.3684 117.589 13.3578C118.069 13.3578 118.55 13.3578 119.036 13.3578C119.036 13.3666 119.041 13.3736 119.041 13.3824C118.909 13.3895 118.771 13.3948 118.638 13.4018C118.633 13.4123 118.627 13.4229 118.616 13.4335C118.787 13.4563 118.953 13.4774 119.163 13.5056C118.837 13.5707 118.599 13.6991 118.169 13.59C118.136 13.5812 118.053 13.59 117.998 13.5988C117.744 13.641 117.49 13.6867 117.186 13.7395C120.162 13.7501 123.105 13.6867 126.147 13.7888C125.363 13.6199 124.485 13.7272 123.762 13.6058C123.933 13.532 124.386 13.6604 124.425 13.488C124.789 13.7096 125.496 13.5918 126.048 13.6551C126.352 13.6903 126.683 13.7026 126.998 13.7254C126.992 13.7378 126.987 13.7518 126.976 13.7641C126.749 13.7606 126.528 13.7553 126.291 13.7501C126.528 13.8433 126.931 13.8679 127.18 13.8116C127.395 13.7624 127.406 13.7237 127.202 13.685C126.981 13.6428 126.744 13.6129 126.512 13.5548C126.959 13.5548 127.406 13.5548 127.798 13.5548C128.174 13.583 128.522 13.6094 128.925 13.6393C128.709 13.7061 128.56 13.7518 128.455 13.7835C129.118 13.8275 129.769 13.8697 130.415 13.9119C130.432 13.889 130.454 13.8644 130.471 13.8415C130.012 13.7958 129.549 13.7501 129.09 13.7061C129.09 13.692 129.096 13.678 129.096 13.6621C129.433 13.6621 129.775 13.6762 130.101 13.6586C130.415 13.641 130.708 13.5918 131.056 13.5918C130.957 13.6111 130.857 13.6305 130.758 13.6498C130.763 13.6656 130.763 13.6832 130.769 13.6991C131.724 13.729 132.685 13.7589 133.64 13.7888C133.646 13.7677 133.657 13.7466 133.662 13.7254C133.176 13.7079 132.69 13.6885 132.204 13.6709C132.199 13.6604 132.199 13.6498 132.193 13.641C132.37 13.634 132.547 13.6287 132.723 13.6217C133.171 13.6023 133.623 13.5794 134.071 13.5601C134.126 13.5583 134.187 13.5619 134.258 13.5636C134.242 13.5988 134.231 13.6269 134.209 13.6762C134.573 13.5742 134.893 13.5583 135.23 13.6445C135.28 13.6586 135.396 13.6586 135.457 13.6498C136.053 13.5548 136.666 13.5443 137.301 13.5865C137.356 13.59 137.422 13.5847 137.483 13.5777C137.5 13.5759 137.511 13.5619 137.538 13.5443C137.196 13.5214 136.859 13.5003 136.528 13.4774C136.533 13.4686 136.539 13.4616 136.544 13.4528C137.091 13.4264 137.638 13.3983 138.184 13.3719C138.19 13.3789 138.195 13.3842 138.201 13.3912C138.074 13.4053 137.941 13.4194 137.798 13.4335C138.046 13.4546 138.278 13.4757 138.516 13.495C138.51 13.5073 138.504 13.5196 138.499 13.5302C138.3 13.539 138.107 13.5478 137.875 13.5583C138.041 13.5794 138.173 13.5953 138.3 13.6129L138.284 13.6076C138.687 13.7395 139.222 13.6867 139.603 13.6533C140.26 13.5953 140.884 13.6041 141.536 13.6129C141.751 13.6146 141.966 13.6129 142.182 13.583C141.37 13.5865 140.575 13.4159 139.725 13.6023C139.708 13.5108 139.697 13.4458 139.675 13.3385C139.89 13.3772 140.034 13.4053 140.205 13.4352C140.768 13.3121 141.409 13.291 142 13.3895C142.342 13.3561 142.635 13.3297 142.922 13.3033C142.922 13.298 142.927 13.2927 142.927 13.2875C142.585 13.2875 142.237 13.2875 141.895 13.2875C141.889 13.2734 141.884 13.2611 141.884 13.247C142.088 13.2312 142.292 13.2118 142.502 13.1995C142.706 13.1872 142.922 13.1837 143.181 13.1749C143.236 13.189 143.347 13.2382 143.463 13.2382C143.987 13.24 144.506 13.2276 145.031 13.2224C145.423 13.2171 145.815 13.2206 146.201 13.2083C146.93 13.1837 147.659 13.1204 148.382 13.1256C149.017 13.1309 149.619 13.0658 150.243 13.0693C151.27 13.0729 152.303 13.0764 153.33 13.0711C154.014 13.0676 154.705 13.05 155.389 13.0412C155.494 13.0394 155.599 13.0517 155.704 13.0588C155.704 13.0729 155.709 13.0869 155.709 13.101C154.953 13.1274 154.197 13.1555 153.44 13.1819C153.435 13.189 153.435 13.1942 153.429 13.2013C154.417 13.2013 155.406 13.2013 156.466 13.2013C156.256 13.1555 156.096 13.1204 155.886 13.0729C158.111 13.043 160.254 13.0271 162.396 13.0729C162.396 13.0975 162.396 13.1221 162.402 13.1485C161.463 13.1485 160.524 13.1485 159.591 13.1485C159.591 13.1608 159.597 13.1749 159.597 13.1872C160.828 13.1872 162.059 13.1872 163.307 13.1872C163.318 13.1239 163.329 13.0834 163.346 12.9972C164.809 12.9972 166.261 12.9972 167.708 12.9972C167.708 12.9867 167.708 12.9761 167.708 12.9656C166.868 12.9656 166.029 12.9691 165.19 12.9638C164.975 12.962 164.665 13.0183 164.56 12.8864C164.555 12.8794 164.257 12.8934 164.108 12.9093C163.865 12.9357 163.638 12.9726 163.401 13.006C163.384 12.9884 163.368 12.9708 163.346 12.9532C163.456 12.9427 163.567 12.9304 163.743 12.9128C163.213 12.8952 162.755 12.8794 162.302 12.8635C162.302 12.853 162.297 12.8424 162.297 12.8319C162.794 12.8319 163.291 12.8319 163.787 12.8319C163.793 12.8108 163.793 12.7914 163.799 12.7703C163.357 12.7598 162.915 12.7492 162.473 12.7386C162.473 12.7299 162.473 12.7193 162.473 12.7105C162.992 12.7105 163.511 12.7087 164.025 12.7158C164.069 12.7158 164.102 12.7844 164.168 12.8459C164.295 12.8143 164.45 12.7756 164.61 12.7386C164.66 12.7281 164.732 12.7175 164.787 12.7193C165.356 12.751 165.908 12.7316 166.471 12.7C166.885 12.6771 167.321 12.7035 167.746 12.7035C167.907 12.7035 168.061 12.6929 168.221 12.6876C168.216 12.6718 168.216 12.6577 168.21 12.6419C166.256 12.6419 164.301 12.6419 162.352 12.6419C162.352 12.6173 162.352 12.5927 162.346 12.568C164.036 12.568 165.726 12.568 167.415 12.568C167.421 12.5434 167.421 12.517 167.426 12.4924C166.83 12.4748 166.239 12.459 165.643 12.4414C165.637 12.4484 165.632 12.4572 165.621 12.4642C165.676 12.4748 165.737 12.4836 165.841 12.5029C165.621 12.517 165.438 12.5276 165.184 12.5416C165.267 12.4871 165.317 12.4555 165.361 12.4255C165.008 12.4255 164.676 12.4255 164.351 12.4255C164.351 12.4115 164.351 12.3992 164.351 12.3851C164.566 12.3851 164.803 12.4027 164.997 12.3798C165.229 12.3517 165.422 12.2883 165.665 12.2338C165.698 12.2461 165.753 12.2708 165.814 12.2954C165.72 12.3059 165.626 12.3147 165.538 12.3253C165.543 12.3341 165.549 12.3429 165.554 12.3517C165.891 12.3517 166.233 12.3517 166.57 12.3517C166.57 12.3429 166.576 12.3323 166.576 12.3235C166.405 12.32 166.233 12.3165 166.057 12.313C166.559 12.1828 167.167 12.1336 167.719 12.1423C168.53 12.1547 169.32 12.0491 170.148 12.1318C170.452 12.1617 170.855 12.0825 171.208 12.0544C171.203 12.0403 171.203 12.0245 171.197 12.0104C171.026 12.0104 170.861 12.0104 170.689 12.0104C170.689 11.9928 170.684 11.977 170.684 11.9594C171.225 11.9489 171.772 11.9365 172.313 11.926C172.318 11.9418 172.329 11.9594 172.335 11.9752C172.031 11.9928 171.727 12.0122 171.424 12.0298C171.854 12.0509 172.302 12.1107 172.622 11.9489C172.683 11.9172 172.937 11.9242 173.108 11.9242C173.5 11.9207 173.897 11.9225 174.295 11.9225C174.295 11.9436 174.295 11.9647 174.295 11.9858C173.754 11.9858 173.213 11.9858 172.672 11.9858C172.672 12.0069 172.672 12.0263 172.666 12.0474C173.075 12.0474 173.478 12.0456 173.886 12.0474C175.073 12.0544 176.261 12.065 177.448 12.0685C177.884 12.0702 177.652 12.1547 177.586 12.2479C177.889 12.262 178.171 12.2743 178.453 12.2848C178.458 12.2672 178.469 12.2496 178.475 12.2303C178.254 12.2215 178.033 12.2127 177.757 12.2022C178.502 12.0544 178.679 12.0509 179.303 12.1177C179.634 12.1037 179.971 12.0913 180.302 12.072C180.484 12.0597 180.661 12.0333 180.843 12.0122L180.854 12.0139C180.418 12.0139 179.982 12.0139 179.546 12.0139C179.546 11.9893 179.546 11.9647 179.546 11.9401C179.982 11.9401 180.413 11.9401 180.849 11.9401C180.849 11.9278 180.849 11.9137 180.849 11.9014C180.175 11.8679 179.502 11.8328 178.828 11.7993C178.635 11.8099 178.431 11.8345 178.248 11.824C177.989 11.8081 177.74 11.7677 177.486 11.736C177.403 11.7712 177.326 11.8064 177.205 11.8592C176.846 11.8592 176.41 11.8592 175.973 11.8592C175.973 11.8486 175.968 11.838 175.968 11.8275C176.294 11.8275 176.619 11.8275 176.945 11.8275C176.956 11.8099 176.967 11.7923 176.978 11.7765C176.84 11.7571 176.702 11.7378 176.597 11.7219C176.741 11.692 176.907 11.6586 177.067 11.627C177.045 11.6094 177.017 11.5918 176.995 11.5759C176.487 11.6111 175.973 11.6463 175.465 11.6815C175.454 11.6674 175.449 11.6533 175.438 11.6375C175.642 11.627 175.841 11.6182 176.045 11.6076C176.051 11.6006 176.051 11.5935 176.056 11.5865C175.504 11.532 174.952 11.4757 174.372 11.4194C174.4 11.4493 174.422 11.4739 174.488 11.5478C174.184 11.5038 173.964 11.4722 173.759 11.444C173.676 11.5496 173.522 11.5566 173.157 11.4827C173.003 11.4511 172.721 11.4792 172.517 11.4986C172.164 11.532 171.854 11.5003 171.518 11.4704C171.258 11.4475 170.938 11.4546 170.684 11.4845C170.48 11.5073 170.325 11.5865 170.336 11.4405C170.126 11.444 169.789 11.4194 169.723 11.4546C169.441 11.6059 169.37 11.4986 169.259 11.4335C169.099 11.4669 168.939 11.5021 168.668 11.5584C168.707 11.481 168.724 11.4493 168.746 11.4141C168.635 11.4036 168.525 11.3913 168.37 11.3754C168.503 11.3526 168.591 11.3367 168.751 11.3086C168.641 11.2716 168.569 11.247 168.508 11.2241C168.58 11.2206 168.691 11.2154 168.807 11.2101C168.807 11.1995 168.812 11.189 168.812 11.1784C168.47 11.1784 168.133 11.1784 167.791 11.1784C169.684 10.9955 171.6 11.0307 173.522 11.1485C173.527 11.1221 173.533 11.0975 173.538 11.0711C173.196 11.0588 172.859 11.0465 172.517 11.0324C172.511 11.0236 172.511 11.0166 172.506 11.0078C172.732 11.0025 172.964 10.9849 173.185 10.9955C173.98 11.0359 174.775 11.0887 175.57 11.1362C175.857 11.1538 176.15 11.1661 176.437 11.1802L176.421 11.1784C176.691 11.196 176.962 11.2118 177.232 11.2294C177.243 11.2189 177.26 11.2101 177.271 11.1995C176.934 11.1397 176.592 11.0271 176.261 11.0324C175.935 11.0359 175.631 11.0518 175.322 11.0131C175.211 10.999 175.112 10.9779 174.919 10.9445C176.018 10.9445 176.989 10.9462 177.961 10.9427C178.248 10.9409 178.541 10.9058 178.823 10.9146C179.833 10.9497 180.838 10.9972 181.848 11.0395C181.937 11.043 182.097 11.0465 182.102 11.0377C182.285 10.8161 182.881 10.9445 183.312 10.846C183.085 11.0483 183.345 11.0975 183.786 11.1169C184.2 11.1344 184.609 11.1749 185.023 11.2048C185.012 11.2242 185.007 11.2417 184.996 11.2611C184.383 11.2294 183.764 11.196 183.151 11.1643C183.146 11.1784 183.135 11.1907 183.129 11.2048C183.847 11.2576 184.57 11.3121 185.239 11.3614C185.437 11.2945 184.797 11.24 185.493 11.1942C184.874 11.138 184.427 11.0975 183.974 11.057C183.974 11.0483 183.969 11.0395 183.969 11.0289C184.073 11.0219 184.184 11.0113 184.289 11.0078C184.35 11.006 184.466 11.0236 184.471 11.0219C184.615 10.8618 184.979 10.9656 185.211 10.9603C185.658 10.9515 186.111 10.9797 186.514 10.8301C186.376 10.8372 186.238 10.8512 186.227 10.8442C185.973 10.6718 185.636 10.7721 185.316 10.8055C185.227 10.8143 185.134 10.8266 185.045 10.8231C184.559 10.8055 184.079 10.7791 183.593 10.7668C183.383 10.7615 183.173 10.7879 182.964 10.7862C182.743 10.7826 182.522 10.7633 182.301 10.751C182.307 10.7334 182.312 10.7176 182.318 10.7C182.61 10.7 182.903 10.7 183.19 10.7C183.19 10.6912 183.196 10.6841 183.196 10.6753C182.456 10.5997 181.721 10.5206 180.981 10.452C180.716 10.4273 180.429 10.422 180.153 10.3851C180.562 10.371 180.976 10.3587 181.385 10.3446C181.385 10.3394 181.39 10.3323 181.39 10.3271C180.976 10.3095 180.562 10.2901 180.142 10.2725C180.197 10.1881 180.275 10.1318 180.584 10.1723C180.727 10.1916 181.015 10.1951 181.07 10.167C181.379 10.0087 181.815 10.0773 182.207 10.0826C182.395 10.0843 182.577 10.1301 182.892 10.1758C182.445 10.1758 182.141 10.1758 181.843 10.1758C181.843 10.1828 181.837 10.1899 181.837 10.1969C182.135 10.2198 182.439 10.2426 182.737 10.2655C182.732 10.2831 182.726 10.2989 182.715 10.3165C182.472 10.306 182.229 10.2954 181.986 10.2848C181.981 10.3042 181.975 10.3253 181.975 10.3446C182.671 10.357 183.372 10.3675 184.068 10.3798C184.068 10.371 184.073 10.3622 184.073 10.3534C183.715 10.3376 183.361 10.3218 183.002 10.306C183.002 10.2919 183.002 10.2778 183.002 10.2637C183.405 10.2743 183.808 10.2866 184.212 10.2972C184.327 10.3007 184.443 10.2989 184.559 10.2954C184.67 10.2936 184.775 10.2813 184.88 10.2848C185.161 10.2919 185.443 10.2989 185.719 10.3183C185.89 10.3306 186.05 10.3658 186.232 10.3921C186.31 10.3517 186.387 10.3095 186.531 10.2338C186.288 10.1775 185.995 10.1107 185.664 10.0351C185.818 10.0491 185.94 10.0597 186.127 10.0755C186.061 10.0228 186.023 9.99285 185.967 9.9436C186.133 9.9735 186.26 9.99637 186.387 10.0175C186.409 10.0087 186.437 9.99989 186.459 9.99109C186.321 9.94008 186.177 9.88731 186.039 9.8363C186.1 9.81695 186.188 9.79233 186.221 9.78001C185.951 9.75715 185.68 9.729 185.404 9.71493C185.134 9.70086 184.858 9.6991 184.548 9.6903C184.598 9.64984 184.637 9.61994 184.681 9.58652C184.344 9.5531 184.018 9.52144 183.692 9.48978C183.704 9.47571 183.715 9.45988 183.726 9.4458C183.908 9.46163 184.085 9.48802 184.267 9.48978C184.51 9.49154 184.747 9.46515 184.99 9.46339C185.2 9.46164 185.41 9.47922 185.697 9.49153C185.564 9.46339 185.481 9.4458 185.399 9.42645C185.41 9.41062 185.415 9.39655 185.426 9.38072C185.719 9.39479 186.012 9.40886 186.304 9.42294C186.144 9.3385 186.006 9.26814 185.873 9.19602C185.907 9.18899 185.94 9.18195 185.973 9.17316C185.719 9.1626 185.465 9.15029 185.194 9.13798C185.41 9.08697 185.603 9.01661 185.835 8.99374C186.111 8.9656 186.426 8.97791 186.807 8.97263C186.652 8.94449 186.558 8.9269 186.404 8.89875C186.569 8.87589 186.68 8.86005 186.801 8.84422C186.492 8.7809 186.194 8.71934 185.896 8.65777C185.664 8.64194 185.432 8.62611 185.205 8.61028C185.415 8.5663 185.586 8.53288 185.78 8.49242C185.785 8.49594 185.84 8.52409 185.862 8.53816C186.238 8.44317 186.31 8.62611 186.564 8.62963C186.431 8.6437 186.271 8.65249 186.111 8.66305ZM171.396 10.2831C171.578 10.2725 171.794 10.2796 171.932 10.2461C172.274 10.1617 172.959 10.1863 173.262 10.313C172.799 10.3288 172.346 10.3042 171.871 10.3288C171.01 10.3746 170.132 10.371 169.259 10.3886C169.254 10.3728 169.254 10.3552 169.248 10.3394C169.591 10.3306 169.938 10.3218 170.281 10.313C170.656 10.3024 171.032 10.2919 171.407 10.2813C170.971 10.2813 170.54 10.2813 170.104 10.2813C170.104 10.2585 170.11 10.2338 170.11 10.211C170.645 10.211 171.186 10.211 171.827 10.211C171.628 10.2426 171.512 10.2637 171.396 10.2831ZM91.2625 0.680704C91.3839 0.531189 91.6987 0.615622 91.9306 0.620899C92.1128 0.626175 92.3171 0.680706 92.4551 0.661357C93.0404 0.583962 93.4545 0.738751 93.9625 0.768654C93.449 0.791521 92.9465 0.796799 92.4441 0.791521C92.0962 0.788004 91.7539 0.777451 91.4116 0.759861C91.3508 0.758102 91.3122 0.708848 91.2625 0.680704C91.0968 0.682463 90.9257 0.68774 90.76 0.685981C90.3735 0.680703 89.9815 0.671912 89.595 0.666634C89.4735 0.664875 89.352 0.67191 89.2361 0.675427C89.2361 0.657837 89.2306 0.640251 89.2306 0.62442C89.86 0.599794 90.4895 0.573405 91.1189 0.548779C91.1244 0.561092 91.13 0.573406 91.1355 0.587477C91.0692 0.608586 91.0085 0.629694 90.9146 0.659597C91.0416 0.666633 91.152 0.673668 91.2625 0.680704ZM179.325 9.73604C179.198 9.75011 179.016 9.75187 178.961 9.78177C178.784 9.87324 178.419 9.88907 178.154 9.80464C178.215 9.79584 178.281 9.78881 178.37 9.7765C177.829 9.76418 177.326 9.75187 176.824 9.73955C176.829 9.729 176.829 9.71669 176.835 9.70613C177.028 9.67623 177.227 9.64457 177.508 9.6006C177.249 9.55838 177.122 9.53903 176.94 9.51089C177.514 9.46867 177.497 9.47043 177.691 9.64105C177.729 9.67447 177.9 9.6903 178.016 9.71317C178.022 9.71493 178.055 9.70086 178.077 9.69382C178.022 9.6692 177.967 9.64281 177.84 9.58652C178.386 9.58652 178.834 9.58652 179.286 9.58652C179.286 9.59708 179.292 9.60587 179.292 9.61643C178.938 9.62874 178.585 9.63929 178.237 9.6516C178.237 9.66743 178.243 9.68151 178.243 9.69734C178.607 9.69734 178.966 9.69734 179.331 9.69734C179.458 9.67975 179.59 9.66216 179.711 9.64457C179.667 9.61643 179.629 9.59004 179.546 9.53727C180.01 9.53375 180.28 9.64984 180.75 9.62346C181.351 9.58828 182.025 9.68854 182.665 9.73604C182.754 9.74307 182.826 9.78177 182.903 9.8064C182.886 9.81695 182.87 9.8275 182.848 9.83806C182.191 9.79936 181.534 9.75891 180.794 9.71493C180.981 9.77122 181.097 9.80464 181.208 9.83806C180.91 9.92601 180.611 9.93832 180.219 9.83806C180.485 9.83278 180.661 9.82927 180.838 9.82575C180.843 9.80992 180.843 9.79408 180.849 9.77825C180.7 9.77122 180.545 9.75187 180.402 9.76066C180.098 9.78001 179.805 9.81519 179.507 9.84333C179.496 9.83102 179.485 9.82047 179.474 9.80816C179.518 9.79936 179.568 9.79057 179.629 9.78001C179.524 9.76418 179.424 9.75011 179.325 9.73604ZM185.664 2.74225C185.321 2.72818 184.979 2.71235 184.637 2.69828C184.631 2.70532 184.631 2.71411 184.626 2.72115C184.846 2.74226 185.067 2.76161 185.288 2.78271C185.288 2.79151 185.288 2.80206 185.288 2.81086C185.1 2.82493 184.907 2.839 184.719 2.85131C184.719 2.86011 184.719 2.86891 184.725 2.8777C185.216 2.89881 185.708 2.91991 186.199 2.93926C186.194 2.94982 186.188 2.96213 186.188 2.97268C186.023 2.985 185.862 2.99731 185.581 3.01842C185.813 3.0448 185.923 3.05712 186.034 3.06943C186.028 3.07647 186.023 3.0835 186.017 3.08878C185.382 3.06943 184.742 3.05008 184.107 3.03073C184.107 3.0237 184.107 3.01666 184.112 3.00963C184.394 3.00259 184.67 2.99555 185.095 2.985C184.454 2.85835 183.958 2.74226 183.295 2.81614C183.704 2.74578 184.101 2.68421 184.499 2.62616C184.731 2.59626 185.52 2.67717 185.664 2.74225C186.017 2.60329 186.326 2.7792 186.658 2.75985C186.641 2.78271 186.63 2.80734 186.624 2.8179C186.448 2.80382 186.315 2.79151 186.177 2.7792C186.161 2.79327 186.15 2.8091 186.133 2.82317C186.31 2.84428 186.486 2.86539 186.663 2.88649C186.658 2.89705 186.647 2.9076 186.641 2.91816C186.227 2.89529 185.813 2.87242 185.399 2.84956C185.399 2.83724 185.399 2.82317 185.399 2.81086C185.575 2.80558 185.752 2.80206 185.929 2.79678C185.934 2.78623 185.934 2.77744 185.94 2.76688C185.846 2.75809 185.752 2.75105 185.664 2.74225ZM181.114 4.20047C181.296 4.21982 181.484 4.23741 181.65 4.255C181.589 4.21806 181.528 4.18288 181.473 4.15298C181.826 4.17584 182.119 4.19343 182.417 4.21278C182.428 4.19519 182.439 4.17936 182.45 4.16177C182.124 4.12483 181.799 4.08613 181.462 4.04743C181.876 4.04743 182.246 4.02984 182.588 4.05271C182.892 4.07382 183.168 4.1389 183.461 4.18464C183.444 4.19871 183.427 4.21102 183.411 4.2251C183.162 4.20575 182.908 4.18639 182.583 4.16001C182.837 4.38868 183.3 4.24093 183.626 4.29545C182.787 4.34822 181.975 4.49422 181.092 4.3535C181.103 4.29545 181.114 4.24444 181.125 4.19343C180.877 4.19343 180.628 4.19343 180.38 4.19343C180.38 4.20398 180.38 4.21454 180.38 4.22333C180.49 4.23213 180.6 4.24268 180.711 4.25148C179.899 4.3623 179.54 4.04216 178.8 4.07558C178.811 4.05799 178.823 4.0404 178.839 4.02281C179.104 4.03336 179.369 4.04392 179.678 4.05447C179.469 3.9331 179.673 3.9243 179.894 3.93134C180.253 3.94014 180.611 3.95421 180.97 3.96828C181.075 3.9718 181.18 3.98763 181.28 3.99642C181.274 4.00522 181.269 4.01577 181.263 4.02457C180.976 4.03336 180.683 4.0404 180.341 4.05095C180.65 4.11427 180.882 4.15649 181.114 4.20047ZM179.248 1.90673C179.242 1.94015 179.237 1.97357 179.231 2.00699C179.17 2.00348 179.071 2.00524 179.06 1.99644C178.894 1.8311 178.502 1.83813 178.105 1.83813C177.95 1.83813 177.801 1.83285 177.646 1.8311C177.514 1.82934 177.387 1.8311 177.254 1.8311C177.961 1.75546 178.64 1.74842 179.253 1.91201C179.491 1.90145 179.728 1.87507 179.965 1.88035C180.567 1.89266 181.169 1.91904 181.771 1.94015C181.777 1.93136 181.777 1.9208 181.782 1.91201C181.075 1.87331 180.369 1.83286 179.557 1.78888C179.745 1.76601 179.877 1.73611 180.004 1.73963C180.799 1.75898 181.594 1.7836 182.389 1.80999C182.489 1.81351 182.583 1.83637 182.682 1.84869C182.643 1.86276 182.605 1.87683 182.566 1.8909C182.378 1.90673 182.191 1.92432 181.997 1.94015C181.997 1.94719 182.003 1.95422 182.003 1.96126C182.163 1.97005 182.323 1.98061 182.489 1.9894C182.494 2.00348 182.494 2.01579 182.5 2.02986C182.378 2.0369 182.251 2.05625 182.135 2.05097C181.175 2.00699 180.214 1.95774 179.248 1.90673ZM171.484 2.31658C170.441 2.31658 169.403 2.31658 168.359 2.31658C168.359 2.30075 168.354 2.28668 168.354 2.27084C168.724 2.25501 169.099 2.22863 169.469 2.22863C169.933 2.22687 170.397 2.23918 170.855 2.25677C171.07 2.26557 171.275 2.29899 171.484 2.3201C171.683 2.27788 171.882 2.23567 172.119 2.18466C170.629 2.18466 169.16 2.18466 167.702 2.18466C167.686 2.12837 167.669 2.07208 167.641 1.98413C168.508 2.04041 169.425 1.90497 170.203 2.03162C170.562 2.02107 170.838 2.01227 171.12 2.00523C171.126 2.01755 171.131 2.02986 171.131 2.04218C171.021 2.05625 170.91 2.07032 170.8 2.08439C171.816 2.04217 172.683 2.33593 173.704 2.21983C173.323 2.20928 172.942 2.19872 172.556 2.18817C172.561 2.15827 172.572 2.12661 172.578 2.09671C173.638 2.12309 174.698 2.14948 175.758 2.1741C175.758 2.18817 175.753 2.20048 175.753 2.21455C175.603 2.21983 175.454 2.22687 175.311 2.23215C175.305 2.2515 175.3 2.27085 175.294 2.28844C175.603 2.29899 175.913 2.30954 176.222 2.3201C176.222 2.33241 176.216 2.34297 176.216 2.35528C175.951 2.35528 175.686 2.35528 175.427 2.35528C175.421 2.37111 175.421 2.38694 175.416 2.40453C176.205 2.42564 176.989 2.44674 177.779 2.46785C177.779 2.48192 177.773 2.49424 177.773 2.50831C177.641 2.51183 177.508 2.52238 177.376 2.51886C177.254 2.51535 177.133 2.49951 177.011 2.48896C177.006 2.49599 176.995 2.50303 176.989 2.51183C177.116 2.53997 177.249 2.56812 177.398 2.6033C177.221 2.64551 177.089 2.67893 177.045 2.68949C176.851 2.65255 176.73 2.62264 176.597 2.60505C176.178 2.55228 175.736 2.60329 175.311 2.58218C175.09 2.57163 174.864 2.5558 174.626 2.53997C174.527 2.55756 174.361 2.58922 174.14 2.62968C174.162 2.56988 174.168 2.54876 174.168 2.54349C173.964 2.56284 173.77 2.60154 173.61 2.58922C173.428 2.57691 173.268 2.51887 173.102 2.48193C173.08 2.49248 173.064 2.50303 173.042 2.51359C173.102 2.54173 173.169 2.56811 173.224 2.59274C172.611 2.56635 172.026 2.53997 171.44 2.51359C171.457 2.43971 171.473 2.37815 171.484 2.31658ZM174.969 10.0052C175.217 10.0403 175.211 10.0403 175.261 10.1512C175.272 10.1723 175.344 10.1934 175.405 10.2039C175.432 10.2092 175.51 10.1969 175.543 10.1863C175.742 10.1213 176.481 10.0914 176.741 10.116C176.973 10.1388 177.232 10.1301 177.475 10.1353C177.475 10.1213 177.475 10.1072 177.481 10.0931C177.415 10.0861 177.343 10.079 177.161 10.0579C178.204 10.0861 179.132 10.1125 180.054 10.1388C180.076 10.1512 180.092 10.1635 180.115 10.1758C179.905 10.2092 179.695 10.2426 179.446 10.2831C179.596 10.313 179.723 10.3376 179.877 10.3693C179.59 10.3851 179.364 10.3974 179.032 10.415C179.231 10.4678 179.331 10.4942 179.441 10.5223C178.806 10.6824 174.825 10.7088 173.307 10.5645C173.511 10.5346 173.688 10.5082 173.87 10.4801C173.815 10.3904 173.516 10.2426 173.24 10.1934C173.456 10.1987 173.588 10.2022 173.726 10.2057C173.748 10.1899 173.77 10.174 173.798 10.1582C173.594 10.116 173.389 10.072 173.251 10.0439C173.467 10.0052 173.688 9.96471 173.908 9.92425C173.903 9.91194 173.897 9.89962 173.886 9.88731C172.826 9.86972 171.772 9.85213 170.711 9.83454C170.706 9.85213 170.695 9.86796 170.689 9.88555C171.446 9.91194 172.197 9.93832 172.953 9.96295C172.953 9.97702 172.948 9.99285 172.948 10.0069C171.915 9.98933 170.883 9.97174 169.856 9.95415C169.856 9.93832 169.861 9.92249 169.861 9.90666C170.292 9.91018 170.286 9.90842 170.595 9.79408C170.64 9.77649 170.728 9.76242 170.794 9.76418C171.44 9.77298 172.081 9.78529 172.727 9.79584C173.682 9.80991 174.637 9.82047 175.592 9.8363C175.664 9.83806 175.73 9.86268 175.802 9.87675C175.791 9.89259 175.786 9.91018 175.775 9.92601C175.471 9.92073 175.167 9.90842 174.869 9.91194C174.565 9.91546 174.218 9.89083 173.947 9.99989C174.681 10.0755 174.902 10.174 174.764 10.3482C174.919 10.3482 175.073 10.3482 175.151 10.3482C175.101 10.2936 175.04 10.2444 175.013 10.1916C174.974 10.1301 174.98 10.065 174.969 10.0052ZM48.9291 0.745784C48.5757 0.75282 48.2665 0.75986 47.9628 0.766897C47.372 0.780969 46.7867 0.791521 46.1959 0.809111C45.9419 0.816147 45.6493 0.870676 45.445 0.842532C45.0088 0.780967 44.5836 0.802077 44.1474 0.805595C43.5953 0.810871 43.0431 0.80735 42.4855 0.80735C42.7174 0.731713 43.0045 0.656079 43.3192 0.640248C43.772 0.617381 44.2524 0.659594 44.7051 0.636727C45.699 0.585716 46.6818 0.698294 47.6702 0.643765C47.7861 0.636729 47.9131 0.684224 48.0456 0.694777C48.1616 0.703572 48.2886 0.700051 48.4101 0.696533C48.6585 0.687738 48.9125 0.664874 49.161 0.666632C49.4371 0.668392 49.7242 0.715885 49.9837 0.700054C50.3647 0.677187 50.5855 0.72468 50.8174 0.831979C50.1659 0.831979 49.5641 0.831979 48.9346 0.831979C48.9291 0.828461 48.9291 0.793277 48.9291 0.745784ZM178.856 2.40277C179.64 2.61033 179.816 2.60857 180.711 2.4186C180.849 2.3887 181.131 2.37639 181.235 2.40453C181.478 2.47137 181.727 2.49424 182.031 2.47489C182.019 2.52238 182.008 2.55756 182.008 2.55229C182.362 2.55932 182.671 2.56636 182.986 2.57339C182.986 2.58571 182.986 2.59802 182.986 2.61033C182.859 2.63496 182.726 2.66135 182.544 2.69653C182.748 2.70356 182.886 2.70884 183.03 2.71236C182.522 2.74578 182.014 2.75633 181.506 2.77568C180.611 2.81086 179.805 2.58746 178.894 2.66662C178.883 2.66662 178.867 2.65255 178.828 2.63496C178.927 2.61561 179.021 2.59802 179.181 2.56988C178.994 2.55756 178.867 2.55053 178.745 2.54173C178.789 2.48896 178.823 2.44674 178.856 2.40277ZM65.0519 13.4897C65.0574 13.5108 65.0574 13.5302 65.0629 13.5513C64.7758 13.5513 64.4887 13.5478 64.2016 13.5513C63.6053 13.5583 63.0089 13.5689 62.4126 13.5759C61.7003 13.5865 60.9881 13.5988 60.2758 13.6041C59.2322 13.6111 58.1886 13.6041 57.1451 13.6181C56.6316 13.6252 55.842 13.5812 55.5439 13.4827C56.4604 13.4827 57.3383 13.4739 58.2163 13.4862C58.8512 13.4933 59.4807 13.5407 60.1101 13.5443C60.8997 13.5478 61.6838 13.5214 62.4733 13.5144C63.0145 13.5091 63.5556 13.5126 64.0967 13.5091C64.4114 13.5073 64.7316 13.4968 65.0519 13.4897ZM85.7355 0.698295C86.2158 0.444999 86.3925 0.42213 87.0772 0.481936C87.1434 0.487213 87.2263 0.490732 87.2925 0.483697C87.9717 0.418614 88.6066 0.487214 89.214 0.532949C89.0042 0.749306 88.568 0.70533 88.1152 0.67015C87.7674 0.643766 87.4029 0.619141 87.0496 0.622659C86.6575 0.629695 86.26 0.666633 85.7355 0.698295ZM186.862 3.00259C187.21 3.07999 187.508 3.14859 187.812 3.21719C187.828 3.20487 187.85 3.19256 187.867 3.17849C187.823 3.14331 187.784 3.10637 187.74 3.07119C187.762 3.05712 187.789 3.04128 187.812 3.02721C188.176 3.06591 188.54 3.10461 189.021 3.15386C188.767 3.17497 188.634 3.18728 188.568 3.19256C188.778 3.26292 188.993 3.3368 189.231 3.41596C189.01 3.46521 188.949 3.58658 188.502 3.47576C188.248 3.41244 187.817 3.42651 187.729 3.27348C187.729 3.27172 187.701 3.26996 187.685 3.26996C187.342 3.24885 187 3.22598 186.663 3.20487C186.735 3.13451 186.79 3.07823 186.862 3.00259ZM150.784 0.759864C150.784 0.768659 150.784 0.777453 150.784 0.786247C150 0.805596 149.216 0.839021 148.427 0.839021C147.665 0.839021 146.908 0.805596 146.146 0.786247C146.146 0.78097 146.141 0.777455 146.141 0.772178C146.82 0.756347 147.499 0.742273 148.25 0.726442C148.057 0.680708 147.93 0.650804 147.803 0.620901C147.814 0.608588 147.819 0.596275 147.83 0.582203C148.697 0.582203 149.564 0.582203 150.431 0.582203C150.431 0.596275 150.436 0.610351 150.436 0.624423C149.978 0.624423 149.514 0.624423 149.056 0.624423C149.051 0.642013 149.045 0.659602 149.04 0.678951C149.625 0.705337 150.205 0.73172 150.784 0.759864ZM152.093 0.659599C152.098 0.670154 152.109 0.67895 152.115 0.689505C152.778 0.689505 153.44 0.689505 154.103 0.689505C154.059 0.747552 153.97 0.793284 153.871 0.796802C153.319 0.81615 152.761 0.828464 152.203 0.8355C151.878 0.839017 151.596 0.717649 151.679 0.601555C151.767 0.485461 151.994 0.571653 152.17 0.575171C152.292 0.578689 152.419 0.564615 152.54 0.562857C153.081 0.555821 153.622 0.548783 154.169 0.545265C154.235 0.545265 154.302 0.566374 154.368 0.578687C154.368 0.587482 154.362 0.598037 154.362 0.606832C153.606 0.626181 152.849 0.643768 152.093 0.659599ZM48.4763 12.962C48.4763 12.9761 48.4763 12.9919 48.4763 13.006C46.461 13.006 44.4456 13.006 42.4303 13.006C44.4401 12.8952 46.4554 12.9304 48.4763 12.962ZM163.71 9.01661C163.263 9.03947 162.816 9.0641 162.341 9.08873C162.429 9.11335 162.495 9.1327 162.573 9.15381C162.125 9.23296 160.662 9.19251 160.48 9.10456C161.518 8.89875 162.633 9.02364 163.71 9.01661ZM74.1348 13.3965C74.1237 13.4176 74.1127 13.437 74.1016 13.4581C72.5943 13.4405 71.0869 13.4247 69.5795 13.4071C69.5795 13.3912 69.5795 13.3754 69.585 13.3578C69.6458 13.3543 69.7065 13.349 69.7673 13.349C70.8881 13.342 72.009 13.3314 73.1243 13.3332C73.4611 13.3349 73.7979 13.3754 74.1348 13.3965ZM173.87 3.5426C173.864 3.52677 173.853 3.51094 173.848 3.49687C173.688 3.48807 173.522 3.47928 173.362 3.47048C174.267 3.34735 175.107 3.35439 175.294 3.45289C175.112 3.46345 174.913 3.474 174.72 3.48455C174.726 3.49687 174.731 3.50918 174.737 3.5215C174.908 3.53029 175.073 3.53908 175.245 3.54964C175.239 3.56371 175.234 3.57778 175.234 3.59361C174.56 3.60416 173.881 3.61648 173.207 3.62703C173.202 3.6112 173.202 3.59713 173.196 3.5813C173.422 3.56547 173.643 3.55492 173.87 3.5426ZM103.885 0.56461C104.359 0.56461 104.779 0.56461 105.204 0.56461C105.21 0.5822 105.215 0.598033 105.215 0.615623C105.028 0.629695 104.84 0.654319 104.652 0.657837C104.15 0.668391 103.642 0.673673 103.139 0.668396C103.073 0.668396 102.974 0.592756 102.968 0.55054C102.968 0.518878 103.101 0.455555 103.161 0.457313C103.465 0.467868 103.769 0.494254 104.133 0.51888C104.017 0.541747 103.973 0.548779 103.885 0.56461ZM93.1067 0.992051C92.1238 1.02371 91.13 1.08879 90.2355 0.868918C91.2128 0.830221 92.1404 0.969183 93.1067 0.992051ZM183.991 3.12748C184.234 3.13275 184.537 3.17321 184.703 3.13803C185.172 3.03777 185.531 3.1521 185.923 3.18377C186.139 3.1996 186.332 3.24709 186.52 3.27875C185.857 3.37902 185.134 3.35966 183.991 3.12748ZM94.5975 0.860125C94.5975 0.854848 94.5975 0.849572 94.5975 0.844295C96.0496 0.844295 97.5018 0.844295 98.9595 0.844295C98.8711 0.904101 98.8214 0.939279 98.7662 0.979736C97.4024 0.941039 95.9999 0.900583 94.5975 0.860125ZM178.773 11.9436C178.767 11.9612 178.767 11.977 178.762 11.9946C177.332 11.9946 175.902 11.9946 174.472 11.9946C174.472 11.977 174.472 11.9612 174.472 11.9436C175.907 11.9436 177.343 11.9436 178.773 11.9436ZM166.399 11.4247C166.394 11.3983 166.383 11.3719 166.377 11.3455C167.04 11.4546 167.553 11.2734 168.16 11.2822C168.199 11.2822 168.232 11.3015 168.265 11.3121C168.293 11.3227 168.321 11.3332 168.348 11.3473C168.265 11.3666 168.199 11.3825 168.078 11.4088C168.227 11.4352 168.343 11.4563 168.459 11.4757C168.426 11.4968 168.387 11.5179 168.354 11.539C167.702 11.4986 167.051 11.4616 166.399 11.4247ZM190.285 3.50038C190.528 3.55315 190.76 3.60593 190.997 3.6587C190.992 3.67101 190.986 3.68332 190.981 3.69564C190.489 3.68508 190.004 3.67453 189.512 3.66397C189.518 3.6499 189.518 3.63583 189.523 3.62176C189.656 3.59361 189.788 3.56547 189.959 3.53205C189.788 3.50391 189.678 3.48631 189.446 3.44762C189.888 3.42651 190.208 3.31921 190.429 3.48808C190.379 3.49335 190.324 3.49862 190.285 3.50038ZM187.64 5.56721C187.64 5.55489 187.64 5.54434 187.646 5.53203C188.01 5.54786 188.375 5.56369 188.739 5.57776C189.059 5.59007 189.33 5.63229 189.33 5.75718C189.33 5.82051 189.186 5.88207 189.109 5.9454C188.971 5.75367 188.634 5.75191 188.22 5.7695C188.043 5.77653 187.845 5.73783 187.662 5.72025C187.668 5.70969 187.674 5.69913 187.679 5.68858C188.154 5.70089 188.629 5.71145 189.104 5.72376C189.109 5.70793 189.12 5.6921 189.126 5.67627C188.629 5.63933 188.132 5.60239 187.64 5.56721ZM7.18097 9.11862C7.18649 9.10279 7.18649 9.08872 7.192 9.07289C8.48956 9.10103 9.7816 9.12918 11.0791 9.15908C11.0736 9.18195 11.0681 9.20305 11.0626 9.22592C9.76503 9.18898 8.47301 9.1538 7.18097 9.11862ZM154.694 0.916412C154.694 0.930484 154.694 0.944559 154.688 0.958632C153.771 0.958632 152.855 0.958632 151.938 0.958632C152.849 0.865404 153.766 0.846052 154.694 0.916412ZM129.554 13.4141C129.56 13.4035 129.565 13.393 129.571 13.3824C130.316 13.3824 131.061 13.3895 131.807 13.3789C132.166 13.3736 132.254 13.4352 132.342 13.5073C131.393 13.4757 130.476 13.4458 129.554 13.4141ZM122.619 13.5566C121.846 13.583 121.068 13.6076 120.295 13.634C120.289 13.6094 120.284 13.583 120.272 13.5583C121.057 13.5267 121.841 13.495 122.619 13.4634C122.619 13.5249 122.619 13.5548 122.619 13.5566ZM110.549 13.5073C110.284 13.5654 110.146 13.5953 110.008 13.6269C110.014 13.634 110.025 13.641 110.03 13.648C110.157 13.6375 110.284 13.6287 110.411 13.6181C110.499 13.6604 110.582 13.6991 110.731 13.7712C110.251 13.7325 109.881 13.7026 109.594 13.6797C109.517 13.6146 109.467 13.5689 109.395 13.5091C109.743 13.5073 110.085 13.5073 110.549 13.5073ZM109.246 13.5232C108.959 13.6815 108.285 13.7184 107.805 13.6357C108.004 13.6234 108.153 13.6129 108.302 13.6023C108.302 13.5953 108.296 13.5865 108.296 13.5794C108.175 13.5759 108.048 13.5724 107.926 13.5689C107.926 13.5531 107.932 13.539 107.932 13.5232C108.329 13.5232 108.733 13.5232 109.246 13.5232ZM173.936 1.52679C173.93 1.51095 173.93 1.49513 173.925 1.47929C174.67 1.47929 175.416 1.47929 176.161 1.47929C176.161 1.49513 176.161 1.51096 176.161 1.52679C175.421 1.52679 174.676 1.52679 173.936 1.52679ZM59.2929 13.3578C58.6856 13.3279 58.139 13.3015 57.6476 13.2769C58.415 13.2769 59.2377 13.2769 60.0549 13.2769C60.0549 13.2892 60.0549 13.3015 60.0494 13.3138C59.7733 13.3297 59.4862 13.3455 59.2929 13.3578ZM178.668 3.73609C178.232 3.76951 177.939 3.79414 177.641 3.81701C177.757 3.77303 177.9 3.76072 178.022 3.73433C178.121 3.71322 178.199 3.67629 178.342 3.62528C177.961 3.61472 177.635 3.60417 177.31 3.59537C177.315 3.57954 177.315 3.56371 177.321 3.54788C177.796 3.55843 178.27 3.56899 178.861 3.5813C178.651 3.62352 178.535 3.64638 178.392 3.67628C178.475 3.69563 178.535 3.70794 178.668 3.73609ZM164.312 2.19169C164.019 2.17234 163.859 2.16882 163.71 2.15123C163.605 2.13892 163.522 2.10726 163.429 2.08439C163.545 2.0756 163.666 2.05624 163.782 2.05976C163.953 2.06504 164.124 2.08615 164.29 2.10022C164.295 2.08967 164.301 2.07911 164.312 2.0668C164.251 2.05625 164.191 2.04745 164.13 2.0369C164.152 2.02283 164.179 2.00875 164.202 1.99468C164.406 2.03865 164.61 2.08439 164.82 2.13013C164.572 2.16003 164.378 2.18465 164.312 2.19169ZM20.5541 1.43531C20.5485 1.4529 20.543 1.47225 20.5375 1.48984C19.9246 1.45642 19.2896 1.51095 18.6823 1.45467C18.6878 1.4318 18.6933 1.41069 18.6988 1.38782C19.3172 1.40541 19.9357 1.41948 20.5541 1.43531ZM133.585 13.4897C133.579 13.4757 133.574 13.4634 133.568 13.4493C134.474 13.4493 135.385 13.4493 136.29 13.4493C136.29 13.4634 136.29 13.4757 136.29 13.4897C135.39 13.4897 134.49 13.4897 133.585 13.4897ZM188.342 3.79414C188.557 3.84163 188.844 3.90496 189.093 3.95948C188.899 3.99115 188.8 4.02281 188.689 4.02457C188.546 4.02809 188.386 4.01401 188.248 3.99818C188.198 3.99291 188.137 3.95245 188.154 3.9331C188.181 3.89264 188.253 3.8557 188.342 3.79414ZM183.819 3.03249C183.295 3.00786 182.71 2.98148 182.069 2.95158C182.826 2.84252 183.433 2.88121 183.819 3.03249ZM189.766 6.20397C189.396 6.24794 189.065 6.2884 188.734 6.32886C188.723 6.32006 188.712 6.31302 188.701 6.30423C188.767 6.28664 188.833 6.26905 188.888 6.25498C188.783 6.20221 188.689 6.1512 188.579 6.09667C188.954 6.13009 189.291 6.15999 189.766 6.20397ZM54.9586 13.0588C54.9586 13.0693 54.9586 13.0799 54.9586 13.0887C54.285 13.0887 53.6058 13.0887 52.9322 13.0887C52.9322 13.0781 52.9322 13.0676 52.9322 13.0588C53.6058 13.0588 54.285 13.0588 54.9586 13.0588ZM169.038 8.58037C169.044 8.56102 169.049 8.53992 169.055 8.52057C169.938 8.5364 170.827 8.55399 171.711 8.56982C171.711 8.57334 171.711 8.57686 171.705 8.58037C170.822 8.58037 169.927 8.58037 169.038 8.58037ZM169.707 2.39749C170.226 2.39749 170.689 2.39749 171.164 2.39749C170.954 2.52062 170.242 2.52238 169.707 2.39749ZM120.405 13.4809C120.19 13.6129 119.93 13.6516 119.577 13.6094C119.499 13.6006 119.428 13.5671 119.4 13.539C119.389 13.5267 119.499 13.4862 119.56 13.4845C119.825 13.4774 120.09 13.4809 120.405 13.4809ZM39.8296 12.9409C40.5585 12.9409 41.1548 12.9409 41.7511 12.9409C41.7456 12.9585 41.7401 12.9779 41.7346 12.9955C41.1272 12.9867 40.5033 13.0429 39.8296 12.9409ZM182.019 10.5716C182.014 10.5927 182.008 10.6138 181.997 10.6349C181.379 10.612 180.766 10.5874 180.148 10.5645C180.153 10.5469 180.159 10.5293 180.164 10.5135C180.783 10.5329 181.401 10.5522 182.019 10.5716ZM108.313 13.4088C108.307 13.4229 108.307 13.4352 108.302 13.4493C107.639 13.4458 106.966 13.4757 106.32 13.4088C106.988 13.4088 107.65 13.4088 108.313 13.4088ZM174.013 8.99198C174.013 9.00253 174.013 9.01309 174.013 9.02364C173.384 9.02364 172.754 9.02364 172.13 9.02364C172.13 9.01309 172.13 9.00253 172.136 8.99198C172.76 8.99198 173.384 8.99198 174.013 8.99198ZM100.384 13.729C100.92 13.6955 101.433 13.5601 101.996 13.6727C101.461 13.692 100.925 13.7096 100.384 13.729ZM68.4973 1.09055C68.4973 1.07648 68.4973 1.0624 68.4918 1.04833C69.1544 1.04833 69.8114 1.04833 70.474 1.04833C70.474 1.06241 70.474 1.07648 70.474 1.09055C69.8169 1.09055 69.1599 1.09055 68.4973 1.09055ZM187.58 3.50566C187.563 3.52677 187.541 3.54964 187.524 3.57075C187.033 3.51798 186.542 3.46345 186.05 3.41068C186.067 3.39309 186.083 3.37374 186.1 3.35615C186.591 3.4054 187.088 3.45641 187.58 3.50566ZM127.29 0.810875C127.98 0.738756 128.141 0.761621 128.212 0.923449C127.925 0.923449 127.644 0.923449 127.268 0.923449C127.434 0.900581 127.506 0.89003 127.638 0.870681C127.495 0.846054 127.412 0.831984 127.29 0.810875ZM174.67 11.7518C175.245 11.7431 175.791 11.7343 176.338 11.7255C176.145 11.824 175.261 11.838 174.67 11.7518ZM180.821 9.28397C180.832 9.30156 180.838 9.32091 180.849 9.3385C180.324 9.38775 179.805 9.32267 179.281 9.28397C179.789 9.28397 180.308 9.28397 180.821 9.28397ZM189.385 5.44056C189.65 5.44056 189.893 5.44056 190.136 5.44056C190.153 5.45639 190.169 5.47398 190.18 5.48981C189.959 5.53027 189.739 5.57073 189.485 5.61646C189.44 5.53027 189.413 5.48981 189.385 5.44056ZM133.585 0.916411C134.043 0.907616 134.501 0.897065 135.037 0.886511C134.546 1.06769 134.049 0.921688 133.585 0.916411ZM74.5875 1.05713C74.593 1.06769 74.593 1.07824 74.5986 1.08879C73.9526 1.08879 73.301 1.08879 72.655 1.08879C72.655 1.07824 72.655 1.06769 72.6605 1.05713C73.2955 1.05713 73.9415 1.05713 74.5875 1.05713ZM69.3807 13.3525C69.3807 13.3648 69.3807 13.3772 69.3752 13.3877C68.674 13.3877 67.9783 13.3877 67.277 13.3877C67.277 13.3754 67.277 13.3631 67.277 13.3525C67.9838 13.3525 68.6795 13.3525 69.3807 13.3525ZM180.424 2.89353C180.424 2.86539 180.424 2.83548 180.424 2.80734C180.843 2.81965 181.258 2.83021 181.677 2.84252C181.677 2.86011 181.672 2.8777 181.672 2.89353C181.252 2.89353 180.838 2.89353 180.424 2.89353ZM10.3337 10.2074C10.8141 10.1142 11.543 10.1336 11.8853 10.2356C11.3828 10.2268 10.9025 10.218 10.3337 10.2074ZM105.293 0.904101C105.293 0.918173 105.293 0.932243 105.293 0.946315C104.807 0.946315 104.321 0.946315 103.829 0.946315C103.829 0.932243 103.829 0.918173 103.829 0.904101C104.321 0.904101 104.807 0.904101 105.293 0.904101ZM47.5763 0.995565C47.8855 0.953348 48.1726 0.789761 48.6364 0.962143C48.2113 0.976215 47.891 0.98501 47.5763 0.995565ZM172.495 9.35609C172.495 9.37368 172.489 9.39303 172.489 9.41062C171.959 9.39655 171.435 9.38248 170.905 9.37017C170.91 9.35434 170.91 9.3385 170.916 9.32443C171.44 9.33499 171.965 9.34554 172.495 9.35609ZM105.624 13.6146C105.624 13.6076 105.624 13.6006 105.624 13.5935C105.988 13.5742 106.353 13.5566 106.701 13.539C106.706 13.5724 106.717 13.6164 106.728 13.6621C106.353 13.6445 105.988 13.6287 105.624 13.6146ZM105.359 1.03427C105.359 1.04482 105.359 1.05537 105.359 1.06593C104.873 1.06593 104.387 1.06593 103.907 1.06593C103.907 1.05537 103.907 1.04482 103.907 1.03427C104.387 1.03427 104.873 1.03427 105.359 1.03427ZM176.575 8.50474C176.575 8.51881 176.575 8.53112 176.575 8.5452C176.205 8.5452 175.835 8.5452 175.46 8.5452C175.46 8.53112 175.46 8.51881 175.46 8.50474C175.83 8.50474 176.205 8.50474 176.575 8.50474ZM178.011 9.41238C178.011 9.42294 178.011 9.43349 178.016 9.44404C177.652 9.43173 177.288 9.41766 176.857 9.40358C177.105 9.35433 177.265 9.32091 177.337 9.30684C177.597 9.3473 177.801 9.38072 178.011 9.41238ZM122.597 13.3719C123.182 13.3719 123.657 13.3719 124.231 13.3719C124.038 13.4317 123.939 13.4634 123.812 13.5038C123.574 13.2839 123.044 13.4458 122.597 13.3719ZM43.2861 1.32098C43.2861 1.30691 43.2861 1.29284 43.2861 1.27877C43.7885 1.27877 44.2965 1.27877 44.799 1.27877C44.799 1.28404 44.799 1.28932 44.799 1.2946C44.2965 1.30339 43.7885 1.31219 43.2861 1.32098ZM88.9269 13.5372C88.441 13.5953 87.9606 13.6217 87.414 13.495C88.0048 13.5108 88.4631 13.5232 88.9269 13.5372ZM190.081 3.1609C190.064 3.17497 190.048 3.1908 190.031 3.20487C189.683 3.16266 189.247 3.1908 189.048 3.02721C189.391 3.07119 189.733 3.11692 190.081 3.1609ZM170.96 10.1107C170.96 10.1002 170.96 10.0896 170.965 10.0808C171.468 10.0808 171.976 10.0808 172.478 10.0808C172.478 10.0914 172.473 10.1019 172.473 10.1107C171.965 10.1107 171.462 10.1107 170.96 10.1107ZM183.599 10.0333C183.593 10.014 183.593 9.99461 183.588 9.9735C183.952 9.96647 184.316 9.95943 184.681 9.9524C184.686 9.96823 184.686 9.98406 184.692 9.99989C184.327 10.0122 183.963 10.0228 183.599 10.0333ZM180.07 1.62001C179.27 1.73962 179.121 1.73787 178.867 1.62001C179.237 1.62001 179.629 1.62001 180.07 1.62001ZM179.507 8.32884C179.507 8.34995 179.507 8.3693 179.507 8.3904C179.11 8.37281 178.712 8.35522 178.315 8.33763C178.32 8.32004 178.331 8.30069 178.337 8.2831C178.729 8.29717 179.115 8.31301 179.507 8.32884ZM108.766 13.437C108.766 13.4264 108.771 13.4159 108.771 13.4053C109.241 13.4053 109.704 13.4053 110.174 13.4053C110.174 13.4159 110.174 13.4264 110.168 13.437C109.699 13.437 109.229 13.437 108.766 13.437ZM185.244 9.33323C185.244 9.35433 185.239 9.37368 185.239 9.39479C184.896 9.38424 184.559 9.37368 184.217 9.36313C184.223 9.3385 184.234 9.31212 184.239 9.28749C184.57 9.30333 184.907 9.31739 185.244 9.33323ZM142.441 0.680707C142.298 0.828462 141.978 0.770419 141.657 0.766901C141.812 0.601555 142.187 0.710609 142.441 0.680707ZM173.743 1.44587C173.737 1.46522 173.737 1.48633 173.732 1.50568C173.411 1.50568 173.091 1.50568 172.771 1.50568C172.771 1.49161 172.776 1.47754 172.776 1.46346C173.102 1.45819 173.422 1.45291 173.743 1.44587ZM183.372 6.45374C183.356 6.47837 183.334 6.50124 183.317 6.52586C182.997 6.50652 182.671 6.48541 182.351 6.46606C182.362 6.44671 182.373 6.42912 182.389 6.40977C182.715 6.42384 183.041 6.43967 183.372 6.45374ZM100.544 1.02723C100.539 1.0026 100.528 0.979734 100.522 0.955107C100.804 0.948072 101.085 0.941039 101.367 0.935761C101.372 0.960387 101.378 0.98501 101.378 1.00964C101.102 1.01491 100.82 1.02195 100.544 1.02723ZM120.377 0.853089C120.383 0.837258 120.383 0.823185 120.388 0.807354C120.902 0.816148 121.415 0.826703 121.923 0.835499C121.918 0.840775 121.918 0.846053 121.912 0.853089C121.404 0.853089 120.891 0.853089 120.377 0.853089ZM181.108 9.14149C181.108 9.16084 181.114 9.1802 181.114 9.19954C180.611 9.19954 180.104 9.19954 179.601 9.19954C179.601 9.19251 179.601 9.18547 179.601 9.17668C180.098 9.16436 180.6 9.15205 181.108 9.14149ZM94.095 1.0325C94.1005 1.05361 94.106 1.07472 94.1116 1.09583C93.7913 1.09583 93.4711 1.09583 93.1508 1.09583C93.1453 1.08352 93.1453 1.07296 93.1398 1.06065C93.4545 1.05185 93.7748 1.0413 94.095 1.0325ZM53.65 0.765136C53.6444 0.752823 53.6445 0.738751 53.6389 0.726438C54.042 0.726438 54.4506 0.726438 54.8537 0.726438C54.8537 0.738751 54.8537 0.752824 54.8537 0.765136C54.4506 0.765136 54.053 0.765136 53.65 0.765136Z" fill="url(#paint0_linear_6398_408)"/>
<defs>
<linearGradient id="paint0_linear_6398_408" x1="189.117" y1="14.0018" x2="63.8064" y2="-81.1015" gradientUnits="userSpaceOnUse">
<stop stop-color="#FDD925"/>
<stop offset="0.294518" stop-color="#FF9559"/>
<stop offset="0.682384" stop-color="#7C91FF"/>
<stop offset="1" stop-color="#7E33FF"/>
</linearGradient>
</defs>
</svg>
