<svg width="148" height="16" viewBox="0 0 148 16" fill="none" xmlns="http://www.w3.org/2000/svg">
<path id="Underline_2" d="M46.451 13.6219C46.4754 13.5961 46.4917 13.552 46.5201 13.5502C46.6419 13.5429 46.7678 13.5465 46.9303 13.5465C46.6825 13.4473 46.1342 13.4565 45.9434 13.5447C45.7281 13.6439 45.7078 13.6402 45.5372 13.5134C45.5088 13.4914 45.4154 13.4896 45.3626 13.4712C45.3504 13.4675 45.391 13.4289 45.4032 13.416C44.8671 13.3848 44.335 13.3407 43.803 13.3278C43.4699 13.3205 43.1734 13.3848 42.8851 13.4987C42.682 13.5796 42.3287 13.5704 42.0443 13.598C41.9266 13.609 41.8088 13.6127 41.691 13.62C41.6951 13.6384 41.6991 13.6568 41.7032 13.6752C41.8494 13.6678 41.9956 13.6586 42.1378 13.6549C42.2555 13.6531 42.3733 13.655 42.487 13.6697C42.5155 13.6733 42.5439 13.7505 42.5277 13.7542C42.4383 13.7781 42.3327 13.8001 42.2312 13.8075C41.8088 13.8332 41.3823 13.8534 40.9559 13.8755C40.9559 13.8975 40.9559 13.9178 40.9559 13.9398C42.9216 14.017 44.8874 14.0923 46.8694 14.1695C46.8734 14.153 46.8734 14.1383 46.8775 14.1254C46.8937 14.0703 47.572 13.7836 47.6776 13.7909C48.0919 13.8204 48.4858 13.8461 48.9123 13.7597C49.1925 13.7027 49.5621 13.7487 49.8911 13.7762C49.6637 13.7854 49.4362 13.7928 49.1763 13.8038C49.3509 13.9655 49.5865 13.9214 49.8058 13.9159C49.9561 13.9122 50.1104 13.9196 50.2607 13.9288C50.5653 13.9472 50.8659 13.9747 51.1705 13.9876C51.6375 14.0078 52.1046 14.0335 52.5717 14.0243C52.8032 14.0188 52.9819 14.0207 53.1362 14.1291C53.0225 14.1364 52.925 14.1383 52.8275 14.1493C52.2752 14.2081 51.7594 14.2577 51.1664 14.1585C50.7034 14.0813 50.1389 14.1438 49.619 14.1585C50.2688 14.1953 50.9187 14.2302 51.5685 14.2669C51.5685 14.289 51.5685 14.311 51.5685 14.3331C51.1461 14.3515 50.7237 14.368 50.3013 14.3864C50.3054 14.4048 50.3054 14.4231 50.3094 14.4397C50.3988 14.458 50.4841 14.4764 50.5734 14.493C50.5775 14.5058 50.5816 14.5187 50.5856 14.5297C50.3663 14.5481 50.147 14.5812 49.9277 14.583C49.6962 14.5849 49.4647 14.5591 49.2332 14.5444C49.2291 14.5646 49.225 14.5849 49.221 14.6051C49.9317 14.6253 50.6465 14.6473 51.3573 14.6675C51.3573 14.6841 51.3573 14.6988 51.3614 14.7153C50.8009 14.8385 50.1998 14.7539 49.6109 14.7631C49.5865 14.8017 49.5662 14.8403 49.5337 14.8936C50.3825 14.9395 51.2436 14.9855 52.1452 15.0333C52.1046 15.0792 52.0762 15.1086 52.0437 15.1454C52.4864 15.206 52.8844 15.1693 53.2824 15.1196C53.2824 15.0994 53.2824 15.081 53.2824 15.0608C52.9332 15.0425 52.5839 15.0222 52.1696 15.0002C52.3524 14.8881 52.4458 14.8164 52.7138 14.8936C52.8316 14.9285 53.0509 14.8771 53.2418 14.8624C53.384 14.8862 53.5627 14.9359 53.7414 14.9414C54.5415 14.9634 55.3416 14.9634 56.1417 14.9892C56.824 15.0112 57.5023 15.059 58.1806 15.0884C58.3836 15.0976 58.6314 15.0112 58.7614 15.2023C58.1603 15.1766 57.5835 15.1472 57.0109 15.127C56.5316 15.1086 56.0524 15.0957 55.5731 15.0902C55.2888 15.0866 55.0004 15.0976 54.7161 15.1086C54.6187 15.1123 54.5293 15.1399 54.4318 15.1472C54.3587 15.1527 54.2328 15.1582 54.2166 15.1435C54.0297 14.9524 53.7211 15.0994 53.4733 15.048C53.5505 15.2869 53.9201 15.2391 54.1963 15.263C54.5618 15.2942 54.9355 15.3126 55.2969 15.3622C53.5099 15.2593 51.6944 15.3328 49.9358 15.0829C49.9236 15.0994 49.9155 15.116 49.9033 15.1325C49.948 15.1601 49.9926 15.1876 50.0373 15.2152C50.0251 15.2244 50.017 15.2317 50.0048 15.2409C49.8708 15.1968 49.7449 15.1472 49.6068 15.1086C49.489 15.0774 49.2981 15.0204 49.2372 15.0406C48.8636 15.1711 48.4412 15.1104 48.0431 15.1343C47.637 15.1582 47.2268 15.1766 46.8206 15.1858C46.4023 15.1968 45.9799 15.1931 45.5575 15.1987C45.4722 15.2005 45.391 15.2152 45.3057 15.2244C45.3057 15.2391 45.3016 15.252 45.3016 15.2667C45.6672 15.3016 46.0327 15.3383 46.3982 15.3732C46.3982 15.3806 46.3942 15.3879 46.3942 15.3953C46.0611 15.41 45.7281 15.4357 45.3991 15.4357C44.9889 15.4357 44.5746 15.4302 44.1726 15.3953C43.9004 15.3714 43.6405 15.2373 43.3968 15.2501C43.1409 15.2648 42.9054 15.32 42.617 15.2961C42.2921 15.2685 41.9266 15.2336 41.626 15.2795C41.1224 15.3549 40.6269 15.3273 40.1273 15.3347C39.6603 15.3402 39.1973 15.3108 38.7302 15.3089C38.4621 15.3071 38.19 15.3291 37.922 15.3365C37.8082 15.3402 37.6823 15.3549 37.5889 15.3347C37.0041 15.2097 36.3948 15.2703 35.7978 15.2685C35.5135 15.2667 35.2292 15.2942 34.9408 15.2979C34.8677 15.2979 34.7906 15.2354 34.7215 15.2391C34.5103 15.2501 34.3072 15.2814 34.1001 15.3016C33.962 15.3163 33.8199 15.3438 33.6858 15.3347C33.3284 15.3126 32.9791 15.2758 32.5608 15.2391C32.6096 15.3181 32.6339 15.3494 32.6664 15.4045C31.9963 15.3512 31.3667 15.3016 30.7128 15.2501C30.7372 15.2869 30.7616 15.3236 30.7941 15.3769C30.6925 15.3806 30.6032 15.3879 30.5179 15.3879C29.8518 15.3788 29.1898 15.3732 28.5278 15.3567C28.2069 15.3494 27.8901 15.3108 27.5693 15.3089C27.4312 15.3089 27.285 15.3585 27.1631 15.4008C27.1306 15.4118 27.1509 15.5056 27.1834 15.5111C27.4271 15.557 27.6789 15.5956 27.9307 15.6269C28.146 15.6526 28.3775 15.6122 28.5237 15.7647C28.5765 15.8217 28.9908 15.818 29.2345 15.807C29.6812 15.7849 30.1239 15.7353 30.5666 15.6949C30.6194 15.6893 30.6682 15.6801 30.7941 15.6599C30.4489 15.6085 30.1808 15.5662 29.9087 15.5258C29.9127 15.5129 29.9168 15.5019 29.9209 15.489C30.2823 15.4982 30.6438 15.5074 31.0621 15.5184C30.9443 15.6673 31.0175 15.7151 31.2855 15.7169C31.4602 15.7169 31.6307 15.7684 31.8054 15.7867C31.9353 15.8014 32.0937 15.897 32.1993 15.7647C32.2075 15.7537 32.3618 15.7555 32.3659 15.761C32.4308 15.8988 32.6542 15.8455 32.8167 15.8492C33.3122 15.8621 33.8077 15.8805 34.3032 15.8768C34.7053 15.8731 35.1074 15.8419 35.5094 15.8217C35.5135 15.8382 35.5176 15.8547 35.5216 15.8731C34.9977 15.897 34.4738 15.9301 33.9458 15.9429C32.9832 15.9687 32.0206 15.9981 31.0581 15.9999C30.3798 16.0018 29.6975 15.9723 29.0152 15.9411C27.8617 15.8878 26.7123 15.8253 25.5629 15.7628C25.039 15.7353 24.5191 15.6967 23.9952 15.6673C22.9108 15.6066 21.8263 15.5497 20.7379 15.4706C21.1034 15.4706 21.473 15.4633 21.8385 15.4725C22.728 15.4909 23.6175 15.5166 24.5069 15.5405C24.515 15.5166 24.5232 15.4945 24.5313 15.4706C24.4257 15.4559 24.3242 15.4339 24.2186 15.4284C22.9433 15.3641 21.6639 15.3089 20.3926 15.2336C19.8403 15.2005 19.292 15.1325 18.7477 15.0645C18.4838 15.0314 18.2401 14.9579 17.9801 14.912C17.8827 14.8954 17.7649 14.9101 17.6146 14.9101C17.6796 14.9598 17.708 14.98 17.7527 15.0149C17.1719 14.9965 16.6074 14.9781 15.9656 14.9561C16.0712 14.9101 16.12 14.8881 16.1971 14.855C15.8479 14.7264 15.4417 14.7337 15.0559 14.7447C14.3329 14.765 13.614 14.8054 12.8952 14.8348C12.8586 14.8366 12.818 14.8256 12.6921 14.8091C12.883 14.7778 12.9805 14.7613 13.0861 14.7447C13.0536 14.6014 12.883 14.6216 12.688 14.6473C12.5053 14.6712 12.3184 14.6804 12.1316 14.6914C11.5955 14.719 11.0634 14.7447 10.5273 14.7723L10.5355 14.7741C10.9091 14.7337 11.2828 14.6933 11.6605 14.6547C11.8473 14.6363 12.0341 14.6216 12.2169 14.5793C11.7336 14.5628 11.2543 14.436 10.7954 14.5904C9.89781 14.3772 8.93524 14.4764 8.01328 14.4048C8.00516 14.4268 7.99704 14.447 7.99297 14.4691C8.2854 14.4966 8.58189 14.5242 8.87025 14.5518C8.83776 14.5573 8.7809 14.5793 8.7281 14.5775C7.89144 14.5499 7.05477 14.5187 6.22217 14.4875C5.94599 14.4764 5.88101 14.3864 5.88507 14.2963C5.40582 14.1089 4.95093 13.9306 4.47574 13.745C4.7966 13.5667 5.18244 13.7468 5.5236 13.7009C5.4708 13.5465 5.30834 13.473 4.98749 13.473C4.88189 13.473 4.78035 13.416 4.65038 13.3775C4.76817 13.2819 4.89001 13.2047 4.95499 13.1147C4.9753 13.0871 4.8494 13.0136 4.75598 12.9897C4.54885 12.9382 4.31734 12.9052 4.09802 12.8647C4.0899 12.8445 4.08178 12.8225 4.07366 12.8022C4.2483 12.7673 4.427 12.7361 4.59352 12.6938C4.70724 12.6644 4.80472 12.6166 4.95499 12.5578C4.5854 12.4861 4.26048 12.4218 3.9315 12.3575C3.93557 12.3355 3.93557 12.3134 3.93963 12.2932C4.18738 12.2638 4.43919 12.2362 4.68694 12.2068C3.60659 12.0561 2.66432 11.7382 1.51899 11.6628C1.53524 11.6371 1.55554 11.6132 1.57179 11.5875C2.07135 11.6426 2.56685 11.7069 3.06641 11.7529C3.50911 11.7933 3.95993 11.8227 4.41076 11.8429C4.49199 11.8466 4.5854 11.7841 4.67881 11.7602C4.76004 11.74 4.8494 11.718 4.93875 11.7161C5.12151 11.7143 5.30428 11.7253 5.43425 11.729C5.5236 11.6536 5.58452 11.6022 5.67387 11.5268C5.25554 11.4735 4.83315 11.4203 4.32953 11.3559C4.78847 11.3026 5.15807 11.2604 5.60889 11.2089C5.47892 11.163 5.38551 11.1281 5.2393 11.0766C5.7348 11.0766 6.16531 11.0766 6.59177 11.0766C6.59989 11.0656 6.60395 11.0564 6.61207 11.0454C6.45368 11.0178 6.29528 10.9902 6.14907 10.9663C6.18968 10.948 6.2506 10.9222 6.30746 10.8965C6.2506 10.8708 6.20187 10.8285 6.14094 10.823C5.90538 10.7991 5.66169 10.7881 5.42613 10.7715C5.30022 10.7623 5.17025 10.7532 5.04435 10.7054C5.30022 10.6888 5.55609 10.6705 5.8079 10.6539C5.8079 10.63 5.8079 10.6061 5.8079 10.5822C5.43019 10.5694 5.04841 10.5547 4.64226 10.5418C4.66663 10.5014 4.68694 10.4701 4.72349 10.4132C4.34171 10.393 3.98836 10.3727 3.63502 10.3544C3.63502 10.347 3.63095 10.3378 3.63095 10.3305C3.89495 10.3084 4.16301 10.2864 4.427 10.2643C4.427 10.2533 4.427 10.2423 4.427 10.2331C4.17113 10.1926 3.9112 10.1504 3.65532 10.1099C3.66345 10.0952 3.67157 10.0787 3.67969 10.064C4.0371 10.0916 4.39857 10.1191 4.75598 10.1467C4.76411 10.1283 4.77223 10.1118 4.78035 10.0934C4.50417 10.0493 4.17925 10.0346 3.964 9.95189C3.77311 9.87838 3.70406 9.72953 3.56597 9.60088C3.89495 9.63764 4.21174 9.67256 4.5326 9.70748C4.54072 9.69094 4.55291 9.67439 4.56103 9.65785C4.38233 9.6211 4.1955 9.58802 4.02492 9.54208C3.964 9.52554 3.93963 9.47224 3.89901 9.43733C3.96806 9.42446 4.04116 9.40057 4.10615 9.40241C4.37827 9.40976 4.65445 9.4263 4.96312 9.441C4.95093 9.39322 4.94281 9.36014 4.9225 9.28663C5.22305 9.30501 5.50329 9.32155 5.78353 9.33993C5.7876 9.32706 5.79572 9.31603 5.79978 9.30317C5.27991 9.24252 4.76411 9.18188 4.24424 9.12307C4.2483 9.11205 4.25236 9.10102 4.25642 9.08816C4.54479 9.05324 4.82909 9.02016 5.16619 8.97973C5.10121 9.01648 5.06872 9.0367 5.00779 9.06978C5.17837 9.08815 5.32459 9.10286 5.51954 9.12307C5.45456 8.91908 5.67794 8.93562 5.93787 8.96135C6.07596 8.97422 6.22624 8.96319 6.37245 8.93562C6.21811 8.9007 6.05159 8.87497 5.90944 8.82719C5.7876 8.78676 5.69824 8.72244 5.54391 8.64342C5.03622 8.57542 4.43106 8.49272 3.82997 8.41186C3.83809 8.38981 3.84621 8.36776 3.85434 8.34754C4.62195 8.40084 5.38551 8.45413 6.15313 8.50743C6.15719 8.49273 6.16125 8.47802 6.16937 8.46332C5.28397 8.34203 4.39857 8.22074 3.51317 8.09945C3.51317 8.09393 3.51723 8.08842 3.51723 8.08291C4.14676 8.12701 4.77629 8.16928 5.40988 8.21339C5.41394 8.19685 5.418 8.18031 5.42613 8.16377C4.29297 8.02961 3.15982 7.89362 2.02667 7.75946C2.03073 7.74476 2.03886 7.7319 2.04292 7.71719C2.61559 7.75946 3.19638 7.78887 3.76092 7.84768C4.70318 7.94692 5.64544 8.04799 6.61614 8.06269C6.85576 8.06637 7.09539 8.0535 7.33502 8.05166C7.67618 8.04983 8.0214 8.05167 8.36663 8.02043C5.60483 7.73006 2.83897 7.4397 -3.87277e-07 7.14014C0.625466 6.9968 1.16158 7.14749 1.78299 7.13646C1.64083 7.15484 1.57991 7.16403 1.51899 7.17138C2.68869 7.38456 3.95587 7.27614 5.19868 7.4691C4.98749 7.34414 4.98749 7.35149 4.52854 7.33127C4.30922 7.32208 4.09396 7.2743 3.89089 7.20447C4.20362 7.21549 4.52042 7.22652 4.83315 7.23938C4.84127 7.22652 4.84533 7.21365 4.85346 7.20263C4.5326 7.15117 4.21175 7.09971 3.87464 7.04642C3.97618 7.02988 4.06553 7.01334 4.16707 6.9968C3.91526 6.8847 3.62689 6.86816 3.33041 6.8994C3.05016 6.9288 2.75368 6.92329 2.46531 6.93248C2.46125 6.91042 2.45313 6.88837 2.44907 6.86632C2.70088 6.84611 2.95269 6.80383 3.2045 6.80935C3.69594 6.82037 4.18331 6.86448 4.67475 6.88653C5.09715 6.90491 5.5236 6.91594 5.94599 6.92329C6.01504 6.92513 6.08408 6.89572 6.25466 6.8608C5.9135 6.82221 5.66981 6.79465 5.36114 6.75973C5.6292 6.64946 5.99473 6.82405 6.1247 6.6366C6.29934 6.5925 6.46992 6.54655 6.68518 6.49142C6.29122 6.34072 5.75916 6.44548 5.26773 6.30213C6.13282 6.34256 6.91669 6.38116 7.70055 6.41791C7.70867 6.40505 7.71679 6.39218 7.72086 6.37931C7.4528 6.33521 7.1888 6.27272 6.91262 6.25251C6.50648 6.22311 6.08814 6.22862 5.682 6.20289C5.58452 6.19738 5.50735 6.12387 5.35708 6.0522C6.16937 6.0522 6.88419 6.12571 7.59089 6.00809C6.99385 5.92172 6.4618 5.70303 5.76729 5.83167C5.73074 5.77837 5.69012 5.7214 5.64544 5.65892C6.69736 5.65892 7.74523 5.65892 8.79308 5.65892C8.79715 5.63871 8.80121 5.61849 8.80121 5.59644C8.4966 5.58541 8.19199 5.5799 7.89144 5.55968C7.60307 5.5413 7.31471 5.50823 7.03447 5.48066C7.136 5.46596 7.24972 5.44942 7.4 5.42736C7.33908 5.39428 7.29034 5.36855 7.20505 5.32261C7.75335 5.28769 8.27322 5.25462 8.78902 5.22154C8.29758 5.05246 7.72492 5.10024 7.19287 5.06533C6.64863 5.02857 6.09627 5.01755 5.54391 4.98079C6.78266 4.81907 8.09857 4.9569 9.3292 4.7768C9.3292 4.7621 9.33326 4.7474 9.33326 4.73269C8.81745 4.6794 8.30165 4.62611 7.7899 4.57465C7.78584 4.57833 7.81427 4.55995 7.87925 4.52136C7.70461 4.50849 7.55434 4.49746 7.33502 4.48092C7.53809 4.45152 7.6843 4.42947 7.82645 4.40742C7.82239 4.40007 7.81833 4.39455 7.81427 4.3872C7.39188 4.37066 6.96948 4.35596 6.54303 4.33942C6.54303 4.32288 6.54303 4.30634 6.54303 4.2898C7.12788 4.27326 7.71679 4.25672 8.30165 4.24018C8.30571 4.22364 8.30571 4.20894 8.30977 4.1924C8.20823 4.16483 8.1067 4.13911 7.90362 4.08581C8.28134 4.06927 8.56158 4.0564 8.84182 4.04354C8.84588 4.03068 8.84588 4.01781 8.84995 4.00311C8.11482 3.93695 7.37969 3.87079 6.64457 3.80464C6.64863 3.7881 6.65269 3.77339 6.65675 3.75685C6.83139 3.74766 7.0101 3.73847 7.18474 3.72745C7.1888 3.70723 7.1888 3.68702 7.19287 3.6668C6.77047 3.63556 6.34808 3.60616 5.92569 3.57492C6.27091 3.46098 6.7258 3.62454 7.00604 3.42973C7.02634 3.41687 6.97761 3.38011 6.96542 3.35439C7.51778 3.3746 8.07014 3.39665 8.62656 3.41503C8.84588 3.42238 9.0652 3.42606 9.28452 3.42422C9.46729 3.42422 9.60944 3.39665 9.54446 3.30109C9.0449 3.25698 8.5697 3.21472 8.09451 3.17245C8.93117 3.07505 9.83688 3.31763 10.6004 2.99235C8.37069 2.9317 6.14094 2.87106 3.9112 2.81041C3.9112 2.78836 3.9112 2.76815 3.9112 2.74609C4.76817 2.7516 5.63326 2.83431 6.49023 2.7075C5.40176 2.55313 4.26454 2.53291 3.07859 2.39692C5.93787 2.2205 8.69967 2.2352 11.4615 2.3326C11.4655 2.34914 11.4655 2.36384 11.4696 2.38038C10.9619 2.38038 10.4583 2.38038 9.9506 2.38038C9.9506 2.40243 9.94654 2.42449 9.94654 2.44654C10.3486 2.46308 10.7548 2.47778 11.1569 2.49432C11.1569 2.5127 11.1569 2.53291 11.1569 2.55129C10.5639 2.56783 9.96685 2.58437 9.2764 2.60459C9.42667 2.63399 9.49166 2.65604 9.5607 2.65788C10.1577 2.67442 10.7588 2.68177 11.3559 2.70199C11.6727 2.71301 11.9935 2.73874 12.3063 2.76263C12.7124 2.79387 12.8992 2.74609 12.9033 2.59724C12.6921 2.56599 12.3712 2.60091 12.4281 2.40243C12.4322 2.39141 12.1397 2.35833 11.9692 2.33444C12.1763 2.22785 12.6068 2.38589 12.7286 2.1672C12.6109 2.16353 12.5093 2.16169 12.4119 2.15801C12.4078 2.14698 12.4037 2.1378 12.3997 2.12677C12.6149 2.08267 12.8261 2.03856 13.0739 1.98894C12.9642 1.94851 12.8667 1.91359 12.7002 1.85111C12.9358 1.81068 13.0982 1.77209 13.2648 1.75738C14.1786 1.67652 15.0924 1.59383 16.0103 1.52951C16.9323 1.46518 17.8542 1.41189 18.7802 1.37146C18.9955 1.36227 19.227 1.42659 19.4544 1.456C19.5844 1.47254 19.7144 1.49643 19.8484 1.50194C20.7135 1.54053 21.5989 1.53869 22.4437 1.6269C23.1179 1.69674 23.7555 1.66366 24.4135 1.65263C24.8643 1.64528 25.3151 1.69674 25.766 1.71144C26.0625 1.72063 26.363 1.71879 26.6636 1.71144C26.8666 1.70593 27.0697 1.68203 27.2159 1.67101C27.0088 1.57728 26.7773 1.46886 26.5336 1.36778C26.3427 1.28876 26.1356 1.21709 25.9812 1.16012C25.9812 1.16012 26.0868 1.15277 26.1843 1.14542C26.2249 0.959803 26.034 0.908342 25.7132 0.906504C24.3201 0.897316 22.927 0.866077 21.5339 0.880779C20.9734 0.886292 20.417 0.987367 19.8565 1.04434C19.755 1.05536 19.6535 1.07006 19.5397 1.06639C19.9703 0.908342 20.4698 0.856887 20.9856 0.844022C22.0782 0.818294 23.1707 0.80727 24.2592 0.788892C25.242 0.772352 26.2249 0.742948 27.2078 0.737435C28.6009 0.730084 29.998 0.739269 31.3911 0.739269C32.0206 0.739269 32.6542 0.733759 33.2838 0.737435C33.893 0.74111 34.4981 0.761327 35.1074 0.761327C36.3948 0.759489 37.6864 0.744785 38.9739 0.741109C39.2988 0.741109 39.6278 0.761323 39.9527 0.774187C39.9527 0.788889 39.9486 0.803594 39.9486 0.818297C39.709 0.810945 39.4694 0.79808 39.2297 0.799917C38.125 0.810944 37.0203 0.825644 35.9156 0.844021C34.5794 0.866075 33.2431 0.888132 31.911 0.915698C31.1637 0.932237 30.4204 0.96348 29.6 0.991046C30.1036 1.04802 30.5544 1.09947 31.119 1.16379C30.9362 1.20606 30.8509 1.24097 30.7575 1.24465C30.3636 1.25935 29.9696 1.26671 29.5756 1.27222C29.5025 1.27406 29.4254 1.25568 29.3523 1.2226C29.5025 1.21341 29.6487 1.20422 29.799 1.19319C29.799 1.18033 29.799 1.16563 29.799 1.15276C29.2263 1.15276 28.6537 1.15276 28.081 1.15276C28.0769 1.13071 28.0769 1.10866 28.0729 1.08661C28.4628 1.0719 28.8527 1.0572 29.2385 1.0425C29.2385 1.03331 29.2345 1.02596 29.2345 1.01677C28.4059 0.980015 27.5815 0.94326 26.7488 0.906504C26.6879 1.10498 26.8138 1.17482 27.1794 1.17665C27.7358 1.18033 28.2922 1.20973 28.8486 1.22811C28.8486 1.24465 28.8486 1.26303 28.8486 1.27957C28.2191 1.2667 27.5896 1.25201 26.9276 1.2373C26.9722 1.44681 27.2647 1.44313 27.488 1.46334C27.7602 1.48723 28.0404 1.48172 28.3125 1.50377C28.5156 1.52031 28.7024 1.5828 28.9055 1.59199C29.1735 1.60301 29.4457 1.58096 29.7178 1.57545C30.0346 1.57177 30.3473 1.57728 30.6641 1.56809C30.8794 1.56258 31.0946 1.54236 31.3058 1.52582C31.5658 1.50561 31.8257 1.47621 32.0897 1.46702C32.1872 1.46335 32.2887 1.50194 32.4349 1.5295C32.2684 1.5975 32.1668 1.63793 31.9881 1.71328C32.642 1.65447 33.1579 1.875 33.7427 1.7243C33.9295 1.67652 34.226 1.73349 34.4738 1.73349C35.4973 1.72981 36.5207 1.72982 37.5402 1.71328C38.3525 1.70041 39.1607 1.66734 39.973 1.63426C40.172 1.62691 40.4238 1.63058 40.501 1.49275C40.5091 1.47621 40.6188 1.47437 40.6838 1.46518C40.7406 1.72063 41.3052 1.56993 41.4636 1.70041C41.0899 1.71328 40.7 1.72614 40.306 1.74084C40.306 1.76106 40.306 1.78311 40.306 1.80333C41.7113 1.81068 43.1206 1.81619 44.5259 1.82354C44.53 1.83641 44.534 1.84927 44.5381 1.8603C44.5056 1.84927 44.469 1.83824 44.3756 1.80884C44.53 1.78127 44.6437 1.76106 44.7858 1.73349C44.8833 2.0018 45.3057 1.86581 45.586 1.9044C45.8581 1.94116 46.1424 1.9577 46.4104 2.00915C46.5648 1.99996 46.7435 1.89337 46.8613 2.0551C47.1659 2.00364 47.442 2.27195 47.7791 2.07347C47.8238 2.04591 48.0188 2.07531 48.1447 2.0845C48.5143 2.1139 48.8757 2.16353 49.2453 2.17271C50.0739 2.19293 50.9024 2.20028 51.7269 2.20028C52.0112 2.20028 52.2996 2.14331 52.5839 2.14147C52.925 2.13963 53.2703 2.1672 53.6114 2.18558C53.8226 2.19661 53.9445 2.17823 53.782 2.04407C53.8145 2.04223 53.847 2.03855 53.8835 2.03672C53.9648 2.09185 54.046 2.14515 54.18 2.2352C54.2937 2.21682 54.4765 2.18006 54.6633 2.15801C54.7324 2.15066 54.842 2.16169 54.8908 2.18558C55.2198 2.35098 56.0564 2.36384 56.4138 2.21314C56.4991 2.17639 56.6291 2.16352 56.7591 2.16352C56.6981 2.19109 56.6372 2.21866 56.5722 2.24806C56.5966 2.26828 56.6128 2.29401 56.6291 2.29401C57.1083 2.30136 57.5917 2.30503 58.0709 2.30871C58.2212 2.30871 58.3715 2.30503 58.5177 2.30135C58.806 2.29216 59.0944 2.29033 59.3746 2.27011C59.7239 2.24439 60.057 2.23704 60.3575 2.36384C60.5687 2.18007 60.8815 2.27011 61.1576 2.25909C61.1658 2.27747 61.1739 2.294 61.182 2.31238C60.7962 2.35097 60.3941 2.43918 60.0245 2.41713C59.5452 2.38773 59.0822 2.38405 58.603 2.40427C58.0831 2.42632 57.5551 2.39508 57.0271 2.40243C56.5316 2.40978 56.0361 2.42816 55.5406 2.45389C55.1263 2.47594 54.7202 2.52005 54.3059 2.54578C54.2003 2.55129 54.0866 2.50535 53.9769 2.50535C53.5139 2.50718 53.0509 2.51637 52.5839 2.52372C52.5798 2.5421 52.5798 2.56048 52.5757 2.57885C52.6204 2.59907 52.6651 2.61928 52.7138 2.64134C52.527 2.65053 52.3442 2.65972 52.1615 2.66707C52.1574 2.67993 52.1574 2.69464 52.1534 2.7075C52.2183 2.72036 52.2996 2.75344 52.3442 2.74425C52.6732 2.67442 52.9494 2.77366 53.2499 2.79755C53.3352 2.8049 53.4327 2.76998 53.5058 2.71668C53.3921 2.70198 53.2824 2.68912 53.1687 2.67442C53.1768 2.65236 53.185 2.63215 53.1931 2.6101C53.3312 2.6248 53.4814 2.62847 53.6074 2.65788C53.8023 2.70382 53.9526 2.72587 54.0094 2.56599C54.046 2.56966 54.0785 2.57334 54.115 2.57885C54.1881 2.65972 54.2572 2.73874 54.3303 2.8196C54.3019 2.82879 54.2694 2.83981 54.2409 2.849C54.4197 2.86003 54.6024 2.87106 54.7852 2.88208C54.7811 2.9023 54.7771 2.92068 54.773 2.94089C54.5456 2.93538 54.3181 2.93354 54.0907 2.91517C54.0704 2.91333 54.0866 2.8049 54.0866 2.71853C54.0054 2.74058 53.9079 2.74977 53.8754 2.77733C53.6926 2.94457 53.3637 2.92619 53.0631 2.94273C52.4539 2.97581 51.8609 3.09526 51.2314 3.04748C50.9552 3.02726 50.679 2.99786 50.3988 2.98132C50.2932 2.97581 50.1754 2.98867 50.0657 2.99786C49.883 3.01256 49.7043 3.03094 49.5012 3.04932C49.5987 3.23493 49.3225 3.22758 49.0707 3.23125C48.9082 3.23309 48.7458 3.23125 48.5833 3.23125C48.5793 3.24412 48.5752 3.25882 48.5752 3.27168C48.628 3.28087 48.6849 3.29557 48.7377 3.29557C49.4322 3.28455 50.1267 3.26985 50.8252 3.26066C51.4304 3.25331 52.0396 3.25514 52.6448 3.24412C52.8397 3.24044 53.0387 3.18899 53.2337 3.19083C53.6845 3.1945 54.1313 3.22391 54.5821 3.22942C55.1385 3.23677 55.6949 3.22207 56.2514 3.23309C56.5154 3.2386 56.7794 3.29925 57.0434 3.29741C57.7622 3.29006 58.4486 3.37093 59.1472 3.43157C59.3218 3.44627 59.5046 3.44076 59.6874 3.44443C59.732 3.44627 59.7889 3.4426 59.8214 3.45362C60.2682 3.61535 60.7677 3.58778 61.2754 3.56205C61.5232 3.55102 61.775 3.57675 62.0268 3.5841C62.0877 3.58594 62.1527 3.57859 62.2177 3.53448C62.1121 3.53448 62.0105 3.54 61.909 3.53264C61.8196 3.52713 61.7344 3.50876 61.6572 3.48854C61.645 3.48487 61.6653 3.42238 61.6856 3.42054C61.7831 3.40768 61.9455 3.38195 61.978 3.404C62.2664 3.58042 62.502 3.44627 62.7822 3.39849C63.0259 3.35622 63.3102 3.37276 63.5823 3.39665C63.3996 3.404 63.2168 3.41135 63.0381 3.41871C63.0381 3.43524 63.034 3.45179 63.034 3.46649C63.1071 3.48119 63.1843 3.49773 63.2655 3.51427C63.2168 3.53264 63.1762 3.54919 63.0706 3.59145C63.6636 3.59145 64.1956 3.59145 64.6749 3.59145C64.6749 3.65761 64.6749 3.71642 64.6749 3.79177C64.6546 3.79728 64.5896 3.81198 64.5286 3.82852C64.7561 3.9884 65.0769 3.99759 65.4181 3.99024C65.7268 3.98473 66.0436 4.01046 66.3482 3.98841C66.6609 3.96635 66.9574 3.90203 67.262 3.86344C67.3717 3.84873 67.4935 3.85425 67.6072 3.85058C67.6194 3.87079 67.6316 3.89284 67.6438 3.91306C67.4935 3.94063 67.3473 3.96819 67.193 3.99759C67.3676 3.99759 67.5504 4.00679 67.721 3.99392C67.8347 3.98473 67.9281 3.93327 68.0418 3.91489C68.2124 3.88733 68.318 3.75685 68.5617 3.84322C68.5982 3.85609 68.6998 3.82668 68.8216 3.7789C68.7242 3.76052 68.6307 3.74031 68.5211 3.71826C69.0003 3.51059 69.4593 3.67231 69.8898 3.66312C69.8939 3.64842 69.902 3.63556 69.906 3.62086C69.642 3.58778 69.374 3.5547 69.11 3.52346C69.1506 3.48119 69.1912 3.43525 69.2156 3.40768C69.6948 3.46832 70.17 3.52897 70.6534 3.59145C70.5681 3.62453 70.4909 3.64842 70.4259 3.67783C70.2756 3.74766 70.1254 3.77707 69.902 3.75685C69.5933 3.72745 69.2724 3.72929 68.9597 3.71826C68.8988 3.99208 68.8988 3.98841 69.3821 3.99392C69.6624 3.9976 69.9467 4.02516 70.2269 4.02333C70.3487 4.02333 70.4625 3.97187 70.5843 3.94614C70.633 3.93511 70.7021 3.92041 70.7427 3.9296C71.1204 3.99943 71.4697 3.959 71.8352 3.89652C71.9896 3.86895 72.1926 3.91306 72.3714 3.91122C72.8628 3.90571 73.3705 3.85241 73.8416 3.89652C74.2721 3.93695 74.662 3.88549 75.0682 3.87263C75.1413 3.87079 75.2144 3.85609 75.2875 3.8469C75.2875 3.83219 75.2875 3.81566 75.2834 3.80095C74.9423 3.7936 74.597 3.7789 74.2559 3.78074C73.5411 3.78258 72.8262 3.8175 72.1195 3.79177C71.819 3.78074 71.5306 3.70907 71.2098 3.76604C71.0351 3.79728 70.8483 3.81382 70.6696 3.83587C70.6493 3.81198 70.6249 3.78809 70.6046 3.7642C70.7305 3.72745 70.8483 3.67231 70.9864 3.65761C71.3682 3.61167 71.8027 3.51243 72.1398 3.56205C72.7816 3.65394 73.403 3.59329 74.0284 3.59697C74.1868 3.5988 74.3452 3.54735 74.5077 3.51978C74.4996 3.50508 74.4874 3.48854 74.4792 3.47383C74.1015 3.47383 73.7238 3.47383 73.342 3.47383C73.342 3.4573 73.342 3.44076 73.342 3.42238C73.8294 3.42238 74.3127 3.42238 74.8367 3.42238C74.7879 3.48486 74.7595 3.52346 74.6904 3.60799C74.9626 3.58778 75.1778 3.57307 75.2875 3.56572C75.852 3.56572 76.3191 3.5694 76.7902 3.56389C77.3223 3.55837 77.8543 3.54735 78.3823 3.53448C79.288 3.51427 80.1978 3.51427 81.0954 3.45914C81.6153 3.42789 82.1026 3.54367 82.6022 3.4867C82.9434 3.44627 83.3495 3.53448 83.6338 3.36725C83.6582 3.35255 83.7557 3.35254 83.7922 3.36357C84.1415 3.46464 84.1415 3.46465 84.5355 3.37827C84.6086 3.36173 84.6898 3.35806 84.767 3.34887C84.5233 3.20736 84.5233 3.2092 84.178 3.28271C84.1009 3.29925 83.9993 3.29741 83.91 3.29557C83.5201 3.28455 83.1302 3.25882 82.7403 3.2625C82.5413 3.26433 82.3504 3.32314 82.1514 3.34887C82.0214 3.36541 81.8833 3.36909 81.733 3.35071C81.8061 3.33785 81.8792 3.32498 81.9564 3.31211C81.9564 3.29741 81.9564 3.28271 81.9524 3.26801C81.2782 3.26801 80.6039 3.26801 79.881 3.26801C79.946 3.21839 79.9866 3.18715 80.0719 3.11915C79.7957 3.1118 79.5601 3.10445 79.3286 3.09894C79.3286 3.11732 79.3287 3.13753 79.3246 3.15591C79.4505 3.14856 79.5805 3.13937 79.7064 3.13202C79.7064 3.15039 79.7104 3.16877 79.7104 3.18715C79.0362 3.28822 78.358 3.29741 77.6513 3.16142C77.6797 3.13937 77.7162 3.11364 77.7853 3.06402C77.4807 3.01256 77.1923 2.96478 76.908 2.917C76.908 2.90597 76.9121 2.89679 76.9121 2.88576C77.3142 2.917 77.7162 2.94824 78.1183 2.97765C78.4473 3.00154 78.7763 3.02359 79.1053 3.04748C79.1174 3.0291 79.1337 3.00888 79.1459 2.99051C79.0971 2.96294 79.0525 2.93721 78.9712 2.89311C79.284 2.86186 79.5602 2.8196 79.8404 2.81409C80.0191 2.81041 80.1409 2.9023 80.3928 2.87289C80.9086 2.81225 81.4569 2.76814 81.9767 2.78652C82.3301 2.79938 82.6712 2.86003 83.0286 2.80673C83.1911 2.78284 83.3536 2.76447 83.516 2.74242C83.516 2.72771 83.512 2.71485 83.512 2.70014C82.0864 2.64869 80.6649 2.59539 79.2027 2.5421C79.5926 2.3914 80.6283 2.36384 81.2335 2.47594C81.2213 2.42816 81.205 2.38221 81.1888 2.31973C81.8021 2.47961 82.1473 2.49064 82.5331 2.33995C81.7209 2.20579 80.8964 2.31606 80.1369 2.22417C80.1409 2.20947 80.145 2.19477 80.145 2.17823C80.4618 2.18925 80.7745 2.20395 81.0913 2.21314C81.6071 2.22785 82.1229 2.2352 82.6387 2.25357C82.6916 2.25541 82.7281 2.31422 82.7931 2.33076C82.8906 2.35832 83.0043 2.39324 83.1099 2.39324C83.5688 2.38589 84.0237 2.36751 84.4867 2.32708C84.2633 2.32708 84.0359 2.32708 83.8125 2.32708C83.8125 2.31054 83.8125 2.29401 83.8166 2.27747C84.7791 2.27746 85.7458 2.27746 86.7368 2.27746C86.6555 2.41897 86.5053 2.41529 86.3063 2.38773C86.1479 2.36567 85.9773 2.36751 85.7823 2.35832C85.9488 2.5182 86.1113 2.54577 86.3997 2.49248C86.4768 2.47778 86.5784 2.49248 86.6677 2.49248C87.0454 2.49248 87.4232 2.48697 87.8009 2.49248C87.9918 2.49432 88.1786 2.51637 88.3654 2.5274C88.3654 2.54577 88.3695 2.56599 88.3695 2.58437C87.9065 2.60274 87.4435 2.62112 86.9805 2.63766C86.9805 2.65053 86.9764 2.66339 86.9764 2.67809C87.6506 2.67809 88.3248 2.67809 88.999 2.67809C88.999 2.69647 88.999 2.71485 89.0031 2.73322C88.601 2.75711 88.203 2.78101 87.8009 2.8049C87.8049 2.82511 87.809 2.84533 87.8131 2.86738C88.3451 2.85084 88.8772 2.83614 89.4742 2.81776C89.3727 2.75895 89.3402 2.74058 89.2589 2.69463C89.8194 2.65053 90.3149 2.61193 90.8104 2.5715C90.8064 2.55312 90.8064 2.53659 90.8023 2.51821C90.5383 2.48697 90.2906 2.40059 89.99 2.48697C89.8194 2.53475 89.6692 2.56967 89.462 2.49432C89.3402 2.44837 89.133 2.45572 88.9625 2.44837C88.5441 2.42632 88.1299 2.40978 87.7115 2.39141C87.7115 2.3767 87.7115 2.36384 87.7115 2.34913C88.0608 2.35832 88.4101 2.37486 88.7594 2.37303C89.3524 2.36935 89.9453 2.3473 90.5342 2.34362C90.6723 2.34178 90.8064 2.39324 90.9485 2.39875C91.5049 2.41713 92.0614 2.42816 92.6218 2.44102C93.7347 2.46675 94.8475 2.49983 95.9563 2.51453C97.0692 2.52923 98.1861 2.52556 99.303 2.53291C99.7091 2.53475 100.123 2.56231 100.525 2.54209C100.802 2.52923 101.07 2.45572 101.399 2.40059C101.748 2.57334 102.268 2.50534 102.776 2.49248C103.275 2.47961 103.779 2.48513 104.278 2.48145C104.957 2.47594 105.639 2.46859 106.321 2.43367C105.854 2.36751 105.326 2.48145 104.871 2.28481C105.253 2.28114 105.562 2.22233 105.948 2.25173C106.618 2.30135 107.316 2.25541 108.003 2.24071C108.535 2.22968 109.059 2.14698 109.599 2.24806C109.757 2.27746 109.977 2.22416 110.171 2.20946C110.171 2.19292 110.171 2.17638 110.171 2.15801C110.058 2.13595 109.94 2.11206 109.826 2.09001C109.826 2.08082 109.83 2.07163 109.83 2.06245C110.058 2.05509 110.289 2.04958 110.517 2.04223C110.517 2.02569 110.521 2.01099 110.521 1.99445C109.717 1.97975 108.921 1.87499 108.104 1.98526L108.112 1.98894C108.238 1.94299 108.36 1.89705 108.486 1.85111C108.482 1.83824 108.482 1.82538 108.478 1.81068C108.161 1.81068 107.844 1.81435 107.527 1.81068C106.654 1.79781 105.785 1.77024 104.912 1.76841C103.673 1.76473 102.43 1.77943 101.192 1.78678C100.818 1.93932 100.416 1.87867 99.9569 1.78494C100.014 1.87499 100.042 1.91726 100.071 1.96321C100.034 1.97056 100.002 1.98342 99.9731 1.98342C99.4898 1.9724 99.0024 1.98158 98.5313 1.94115C98.0155 1.89705 97.5322 1.94483 97.0326 1.96689C96.6508 1.98342 96.2528 1.93564 95.867 1.91726C95.867 1.90072 95.8629 1.88235 95.8629 1.86581C96.2041 1.8511 96.5493 1.8364 96.8904 1.8217C96.8904 1.80884 96.8945 1.79781 96.8945 1.78494C96.2894 1.7537 95.6842 1.7243 95.079 1.69306C95.0709 1.68019 95.0628 1.66917 95.0547 1.65631C95.209 1.63977 95.3674 1.61036 95.5217 1.61036C96.464 1.60669 97.4063 1.61036 98.3526 1.6122C99.5264 1.61403 100.7 1.61587 101.87 1.61587C102.008 1.61587 102.174 1.63976 102.183 1.52031C102.183 1.50561 102.382 1.47988 102.487 1.47988C102.715 1.47988 102.946 1.49826 103.174 1.50377C103.913 1.51847 104.652 1.54053 105.395 1.54053C105.655 1.54053 105.915 1.47805 106.175 1.44497C106.24 1.43761 106.329 1.42107 106.374 1.43577C106.768 1.55155 107.207 1.48539 107.617 1.52215C107.986 1.55523 108.25 1.45048 108.571 1.43761C109.071 1.41556 109.578 1.38799 110.078 1.39167C111.654 1.4027 113.23 1.42843 114.81 1.44497C115.2 1.44864 115.589 1.44312 115.975 1.42842C117.482 1.37513 118.981 1.41004 120.484 1.49826C121.909 1.58095 123.339 1.66366 124.785 1.5828C125.422 1.54788 126.072 1.59198 126.718 1.58463C127.506 1.57544 128.294 1.55155 129.086 1.53317C129.65 1.52031 130.215 1.50745 130.775 1.48723C130.974 1.47988 131.173 1.45047 131.372 1.43026C131.372 1.41188 131.372 1.39167 131.372 1.37329C130.796 1.34205 130.223 1.3108 129.646 1.27956C129.65 1.26302 129.65 1.24465 129.654 1.22811C131.169 1.21892 132.672 1.35124 134.187 1.3788C134.195 1.35859 134.199 1.33654 134.207 1.31632C133.436 1.24465 132.668 1.17298 131.896 1.10314C131.896 1.08844 131.9 1.07374 131.9 1.05904C132.778 1.08844 133.659 1.11601 134.536 1.14541C134.54 1.1252 134.544 1.10682 134.548 1.0866C134.402 1.07925 134.256 1.07374 134.089 1.06638C134.077 0.991036 134.207 0.899149 133.825 0.917526C133.237 0.94693 132.627 0.888124 132.026 0.873423C131.839 0.869747 131.649 0.888123 131.45 0.866071C131.709 0.849531 131.969 0.832993 132.229 0.816453C132.225 0.805427 132.225 0.792562 132.221 0.781536C132.087 0.777861 131.953 0.772345 131.819 0.768669C131.811 0.75213 131.799 0.735593 131.791 0.719053C131.99 0.678622 132.189 0.638188 132.388 0.59592C132.392 0.577543 132.396 0.561008 132.4 0.542631C132.022 0.507713 131.64 0.472795 131.263 0.437877C131.267 0.413986 131.271 0.388259 131.275 0.364368C132.018 0.463607 132.757 0.50955 133.541 0.391933C133.436 0.333126 133.354 0.287183 133.277 0.243077C133.708 0.298209 134.13 0.0887049 134.552 0.219185C134.552 0.2394 134.548 0.257779 134.548 0.277994C134.329 0.277994 134.11 0.277994 133.89 0.277994C133.886 0.296371 133.882 0.314747 133.878 0.333124C133.992 0.35334 134.106 0.390095 134.219 0.390095C134.804 0.39377 135.414 0.426849 135.933 0.281667C136.185 0.211833 136.413 0.118109 136.697 0.086868C137.57 -0.0123714 138.435 0.0721642 139.304 0.103406C139.625 0.114433 139.95 0.129134 140.267 0.114432C140.823 0.0868659 141.38 0.0335717 141.936 0.000492567C142.022 -0.00502063 142.119 0.0372472 142.212 0.0574622C142.135 0.123621 142.087 0.228374 141.977 0.248589C141.624 0.312911 141.242 0.336799 140.876 0.390094C140.405 0.459929 139.938 0.538955 139.471 0.617979C139.174 0.669435 138.902 0.667597 138.622 0.583061C138.273 0.480147 137.838 0.529763 137.737 0.671269C137.932 0.696997 138.131 0.722728 138.33 0.748457C138.326 0.761321 138.326 0.776023 138.322 0.788887C137.404 0.864235 136.482 0.939584 135.523 1.01861C135.584 1.04066 135.617 1.06271 135.649 1.06455C136.729 1.07006 137.81 1.07925 138.89 1.07374C139.049 1.07374 139.207 1.01309 139.406 0.970823C139.95 1.11233 140.555 1.02228 141.136 0.930392C141.664 0.847693 142.082 0.853206 142.46 1.07925C142.854 1.31816 143.382 1.36594 143.979 1.27589C144.207 1.24097 144.446 1.22627 144.682 1.20605C144.726 1.20238 144.804 1.20238 144.812 1.21341C144.986 1.38248 145.417 1.3347 145.612 1.44312C145.665 1.64528 145.697 1.83824 145.774 2.02569C145.803 2.09552 145.941 2.15617 146.034 2.21865C146.067 2.24071 146.148 2.26092 146.144 2.27746C146.107 2.40794 146.27 2.49799 146.355 2.60642C146.457 2.73322 146.57 2.73506 146.761 2.74241C146.847 2.74609 146.932 2.75711 147.021 2.76446C147.029 2.781 147.037 2.79754 147.046 2.81408C146.343 2.95191 145.636 3.09158 144.909 3.23309C144.95 3.33233 144.986 3.4187 145.039 3.54918C143.865 3.52345 142.688 3.41686 141.571 3.65209C141.64 3.79544 141.839 3.84689 142.147 3.77706C142.294 3.74398 142.42 3.69436 142.566 3.66496C142.984 3.58226 143.37 3.68885 143.768 3.72744C144.109 3.76052 144.446 3.79544 144.783 3.83955C144.917 3.85792 145.039 3.90203 145.129 3.96267C146.046 3.93694 146.96 3.91305 147.878 3.88732C147.89 3.91122 147.903 3.93327 147.915 3.95716C147.764 3.98473 147.618 4.01597 147.464 4.03618C147.245 4.06559 146.94 3.98473 146.859 4.17769C146.842 4.21445 146.607 4.24753 146.469 4.25304C146.172 4.26407 145.868 4.25487 145.571 4.26039C145.478 4.26222 145.393 4.29163 145.299 4.30817C145.34 4.35779 145.356 4.42395 145.429 4.45703C145.742 4.58935 146.115 4.65183 146.53 4.6555C146.684 4.65734 146.834 4.66653 146.985 4.67205C146.985 4.6941 146.989 4.71799 146.989 4.74004C146.469 4.77128 145.949 4.80068 145.315 4.83928C146.103 4.92381 146.79 5.03041 147.224 5.35569C147.18 5.4586 147.017 5.50087 146.786 5.50454C146.591 5.50822 146.396 5.51925 146.201 5.5266C146.201 5.54497 146.201 5.56152 146.197 5.57989C146.44 5.59643 146.684 5.61481 146.924 5.63135C146.924 5.64421 146.928 5.65524 146.928 5.6681C146.851 5.68648 146.773 5.70486 146.708 5.71956C146.867 5.98236 147.452 5.9456 147.846 6.09262C147.614 6.12754 147.448 6.15143 147.281 6.17716C147.277 6.19186 147.269 6.20656 147.265 6.22126C147.509 6.28742 147.756 6.35358 148 6.41974C147.992 6.43444 147.984 6.44914 147.972 6.46201C147.261 6.49876 146.526 6.41423 145.823 6.51347C145.811 6.53184 145.799 6.55022 145.786 6.5686C146.522 6.75605 147.253 6.9435 147.988 7.13279C147.984 7.14565 147.984 7.15851 147.98 7.17138C147.488 7.20813 146.997 7.24489 146.449 7.28716C146.92 7.4452 147.334 7.5812 147.764 7.72638C147.545 7.74843 147.322 7.77232 147.111 7.79437C147.07 7.94323 147.586 7.97264 147.366 8.17295C146.895 7.90096 146.335 7.84583 145.689 7.90831C145.263 7.94875 144.828 7.96345 144.397 7.98918C144.393 8.01123 144.389 8.03144 144.385 8.0535C144.775 8.0976 145.161 8.14722 145.555 8.18214C145.933 8.21522 146.002 8.25381 145.945 8.43391C146.282 8.5552 146.266 8.64341 145.896 8.74817C145.738 8.79411 145.571 8.83454 145.417 8.88048C145.36 8.89702 145.303 8.91908 145.271 8.94481C145.161 9.03669 145.064 9.13041 144.946 9.23884C145.088 9.24619 145.291 9.25538 145.587 9.27009C145.271 9.33073 145.039 9.373 144.739 9.43181C144.865 9.50716 144.942 9.60088 145.08 9.62845C145.559 9.72217 145.791 9.86551 145.64 10.1228C145.636 10.132 145.661 10.143 145.665 10.154C145.669 10.1632 145.657 10.1743 145.644 10.1945C145.555 10.2037 145.445 10.2073 145.356 10.2275C145.279 10.2441 145.214 10.2808 145.145 10.3066C145.214 10.3433 145.279 10.4021 145.36 10.4095C145.592 10.4315 145.831 10.4297 146.103 10.4407C145.831 10.6704 145.047 10.5087 144.99 10.8469C144.739 10.8524 144.442 10.8267 144.377 11.0159C144.962 11.1023 145.539 11.0895 146.124 11.0343C146.262 11.0215 146.416 11.049 146.566 11.0564C146.566 11.0766 146.562 11.0986 146.562 11.1189C146.042 11.1942 145.522 11.2696 144.99 11.3467C145.206 11.457 145.405 11.5618 145.624 11.6757C145.555 11.7143 145.502 11.7455 145.449 11.7749C145.661 12.1278 146.306 12.0212 146.916 12.0451C146.436 12.216 145.884 12.069 145.583 12.2454C145.709 12.3465 145.815 12.4255 145.916 12.5064C145.75 12.5523 145.583 12.5964 145.352 12.6607C145.612 12.6938 145.811 12.7195 146.03 12.7489C145.937 12.7673 145.868 12.782 145.758 12.8041C146.01 12.8721 146.221 12.929 146.432 12.986C146.42 12.997 146.408 13.0062 146.396 13.0172C145.872 12.9787 145.348 12.9401 144.82 12.9015C144.808 12.9199 144.8 12.9401 144.787 12.9584C145.019 13.0209 145.25 13.0816 145.478 13.1441C145.474 13.1496 145.466 13.1569 145.462 13.1624C145.153 13.1165 144.848 13.0558 144.532 13.0264C144.068 12.9842 143.597 12.9474 143.13 12.9419C142.822 12.9382 142.452 13.0558 142.208 13.0025C141.904 12.9382 141.623 12.9088 141.319 12.918C141.173 12.9217 141.035 12.964 140.892 12.9878C140.901 13.0136 140.913 13.0393 140.921 13.065C141.205 13.065 141.485 13.065 141.77 13.065C141.774 13.0724 141.778 13.0816 141.782 13.0889C141.376 13.1606 140.974 13.2304 140.555 13.3039C140.982 13.3738 141.412 13.4436 141.843 13.5153C141.839 13.5337 141.835 13.5502 141.835 13.5686C141.737 13.5796 141.636 13.5925 141.514 13.6072C141.55 13.6384 141.587 13.6678 141.632 13.7046C141.583 13.7082 141.546 13.7138 141.518 13.7119C141.278 13.6899 141.12 13.7523 140.933 13.8167C140.616 13.9269 140.263 14.0096 139.926 14.107C139.8 14.1438 139.662 14.1787 139.556 14.2265C139.516 14.2449 139.524 14.3276 139.556 14.3368C139.942 14.4286 140.243 14.6271 140.775 14.5793C140.754 14.5407 140.734 14.504 140.697 14.4397C140.807 14.4599 140.88 14.4672 140.941 14.4856C141.173 14.5536 141.388 14.6418 141.636 14.6933C141.871 14.7429 141.859 14.8348 141.851 14.9175C141.843 15.0112 141.77 15.1031 141.721 15.1987C141.912 15.2299 142.058 15.2519 142.2 15.2758C142.188 15.2942 142.18 15.3126 142.168 15.331C141.798 15.2832 141.424 15.2372 141.055 15.1895C141.047 15.2042 141.035 15.2189 141.022 15.2336C141.096 15.252 141.165 15.2722 141.238 15.2905C141.246 15.3052 141.25 15.3199 141.258 15.3365C141.083 15.353 140.901 15.3898 140.73 15.3824C140.178 15.3567 139.719 15.4872 139.219 15.5607C138.837 15.6177 138.419 15.6379 138.017 15.636C136.949 15.6324 135.881 15.6066 134.816 15.5919C134.447 15.5864 134.098 15.5754 133.728 15.5276C133.322 15.4743 132.859 15.5147 132.424 15.5166C130.938 15.5221 129.451 15.5166 127.965 15.5368C126.275 15.5589 124.582 15.5956 122.892 15.6379C121.962 15.6618 121.04 15.7096 120.114 15.75C119.878 15.761 119.643 15.8106 119.411 15.807C118.932 15.7978 118.445 15.7261 117.974 15.75C116.897 15.8051 115.845 15.6342 114.769 15.7243C114.769 15.7077 114.765 15.6912 114.765 15.6746C115.204 15.6599 115.646 15.6434 116.085 15.6287C113.465 15.4596 110.842 15.6103 108.226 15.5497C108.604 15.4339 108.64 15.4339 109.075 15.5258C109.124 15.5368 109.185 15.5423 109.241 15.5405C110.387 15.5056 111.528 15.467 112.669 15.4339C113.112 15.421 113.555 15.421 113.997 15.41C114.099 15.4082 114.196 15.3788 114.298 15.3622C114.298 15.3457 114.298 15.3291 114.294 15.3126C114.058 15.2887 113.815 15.274 113.587 15.2372C113.315 15.1931 113.108 15.217 112.958 15.342C112.75 15.1895 112.523 15.1637 112.117 15.2391C111.654 15.3236 111.203 15.3089 110.634 15.1821C110.923 15.1711 111.142 15.1619 111.366 15.1527C111.366 15.138 111.366 15.1251 111.361 15.1104C111.167 15.0994 110.972 15.0884 110.777 15.0792C110.777 15.0682 110.777 15.059 110.777 15.048C111.544 15.048 112.308 15.048 113.047 15.048C113.1 15.0774 113.157 15.138 113.214 15.138C113.644 15.138 114.075 15.127 114.521 15.0792C114.473 15.0627 114.428 15.0461 114.31 15.0057C116.02 14.991 117.677 15.0847 119.31 14.8899C118.335 14.8734 117.356 14.8568 116.381 14.8403C116.377 14.8164 116.377 14.7907 116.373 14.7668C116.503 14.7502 116.633 14.7337 116.763 14.7172C116.763 14.7025 116.767 14.6878 116.767 14.6731C116.446 14.6731 116.126 14.6731 115.809 14.6749C115.78 14.6749 115.732 14.6878 115.728 14.7006C115.565 14.9781 115.118 14.7925 114.81 14.8366C114.976 14.8091 115.143 14.7833 115.313 14.7558C115.309 14.7374 115.301 14.7172 115.297 14.6988C115.09 14.6988 114.879 14.697 114.672 14.6988C113.153 14.7135 111.638 14.73 110.119 14.7411C109.444 14.7466 108.77 14.7282 108.096 14.7392C107.779 14.7447 107.462 14.7888 107.146 14.8164C107.154 14.8311 107.158 14.844 107.166 14.8587C107.101 14.8311 107.036 14.7778 106.975 14.7778C106.163 14.7852 105.355 14.7999 104.542 14.8146C104.538 14.8348 104.538 14.8532 104.534 14.8734C104.737 14.8826 104.948 14.9065 105.147 14.8973C105.757 14.866 105.838 14.8734 106.378 15.1123C106.045 15.1325 105.749 15.1472 105.452 15.1711C105.367 15.1784 105.29 15.2134 105.139 15.2538C104.449 15.2777 103.669 15.3052 102.889 15.3328C102.881 15.3475 102.873 15.3641 102.861 15.3788C102.942 15.4155 103.027 15.4523 103.109 15.4872C103.096 15.5 103.088 15.5111 103.076 15.5239C102.962 15.4945 102.857 15.4615 102.739 15.4394C102.629 15.4192 102.503 15.399 102.39 15.4026C102.053 15.4155 101.736 15.4412 101.378 15.3898C101.062 15.3438 100.684 15.4026 100.282 15.4155C100.688 15.3328 101.066 15.2409 101.464 15.1821C101.89 15.1196 102.333 15.0829 102.776 15.0443C103.218 15.0057 103.669 14.9763 104.169 14.9395C103.661 14.7741 101.009 14.8679 100.501 14.945C100.757 14.9965 100.932 15.0314 101.11 15.0663C101.07 15.1582 100.948 15.1748 100.278 15.1729C100.367 15.1307 100.465 15.0866 100.623 15.013C100.456 15.0039 100.371 14.9873 100.31 15.0002C99.8513 15.1049 99.3639 15.0645 98.8887 15.0792C98.6734 15.0847 98.4216 15.1141 98.3363 14.9561C98.3241 14.9303 98.1373 14.9193 98.0358 14.9212C98.0033 14.9212 97.9749 14.9855 97.918 15.0498C97.6296 15.0002 97.321 14.9469 96.9839 14.8881C97.0204 14.8495 97.057 14.8091 97.126 14.7355C96.8011 14.7576 96.7239 14.8421 96.7036 14.9653C96.5574 14.9542 96.399 14.9432 96.2406 14.9322C96.2366 14.9212 96.2366 14.912 96.2325 14.9009C96.33 14.8844 96.4315 14.8679 96.529 14.8495C96.2894 14.8256 96.0254 14.6896 95.8223 14.8844C95.802 14.9065 95.7004 14.9193 95.6395 14.9193C94.8922 14.9212 94.1449 14.9212 93.3854 14.8881C93.8525 14.8568 94.3195 14.8274 94.7866 14.798C94.811 14.7962 94.8394 14.7944 94.8557 14.7999C95.1724 14.923 95.404 14.8532 95.6314 14.7282C95.672 14.7061 95.806 14.7153 95.8954 14.7227C96.3259 14.7613 96.7402 14.7833 97.0448 14.5793C97.0651 14.5646 97.1544 14.5738 97.2154 14.572C97.1057 14.7006 97.2072 14.7172 97.8815 14.6786C97.8205 14.6565 97.788 14.6418 97.6865 14.6051C98.0723 14.6051 98.4013 14.5959 98.7262 14.6069C99.2136 14.6253 99.6969 14.6694 100.18 14.6786C100.635 14.6859 101.09 14.6639 101.545 14.6492C101.602 14.6473 101.65 14.6124 101.699 14.5463C101.322 14.5334 100.944 14.5187 100.534 14.504C100.534 14.4838 100.55 14.4507 100.53 14.425C100.509 14.3974 100.456 14.3643 100.408 14.3588C100.355 14.3533 100.278 14.3698 100.229 14.3882C100.136 14.4213 100.058 14.4966 99.969 14.4985C99.3273 14.5077 98.6856 14.504 98.1048 14.504C98.2714 14.4562 98.4825 14.3974 98.6937 14.3386C98.6734 14.3184 98.6531 14.3 98.6328 14.2798C98.4135 14.3 98.117 14.1732 98.0195 14.3423C97.8043 14.3184 97.5971 14.2926 97.39 14.2724C97.3372 14.2669 97.2438 14.2761 97.2316 14.2908C97.0732 14.4838 96.7321 14.3845 96.4478 14.3974C96.5168 14.3698 96.5899 14.3423 96.6793 14.3055C96.598 14.2926 96.5371 14.2724 96.4762 14.2724C96.0538 14.2688 95.6273 14.2706 95.2049 14.2706C94.9816 14.2706 94.7501 14.2375 94.5917 14.3643C94.5632 14.3864 94.3886 14.368 94.283 14.3643C94.0515 14.3551 93.8159 14.3368 93.5844 14.3368C93.093 14.3368 92.5975 14.3459 92.106 14.3496C91.7486 14.3533 91.3912 14.3533 91.0338 14.3606C90.9485 14.3625 90.8673 14.3882 90.7861 14.4029C90.713 14.4158 90.6317 14.4452 90.5749 14.436C89.6692 14.3184 88.7634 14.4342 87.8577 14.4195C87.6465 14.4158 87.4313 14.4286 87.2485 14.4011C87.1795 14.3864 87.1104 14.357 87.0414 14.357C86.5418 14.3533 86.0382 14.3533 85.5386 14.357C85.2137 14.3588 84.8847 14.3735 84.5598 14.3772C84.2999 14.379 84.04 14.379 83.78 14.3643C83.6744 14.3588 83.581 14.3147 83.4957 14.3165C82.8459 14.3239 82.2001 14.3276 81.5503 14.3386C80.9004 14.3515 80.2506 14.3735 79.6008 14.39C79.5926 14.3717 79.5845 14.3515 79.5764 14.3331C79.7429 14.311 79.9054 14.2908 80.0719 14.2688C80.0719 14.2504 80.0719 14.232 80.0719 14.2136C79.8038 14.2081 79.5317 14.1952 79.2637 14.1971C78.9875 14.1989 78.7072 14.2026 78.4392 14.232C78.1711 14.2632 77.9193 14.3294 77.6594 14.3809C77.6716 14.3625 77.6878 14.3441 77.7 14.3257C77.6228 14.2982 77.5416 14.2467 77.4685 14.2485C77.2004 14.2559 76.9324 14.2835 76.6643 14.2982C76.1566 14.3239 75.649 14.3459 75.1413 14.3662C75.0763 14.368 75.0072 14.357 74.9382 14.3515C74.9341 14.3368 74.9301 14.3202 74.926 14.3055C75.1575 14.2926 75.385 14.2669 75.6165 14.2688C75.848 14.2706 76.047 14.2632 76.181 14.153C76.2094 14.1273 76.3597 14.1034 76.3719 14.1107C76.6034 14.2449 76.8877 14.1603 77.1476 14.1603C77.5294 14.1603 77.9315 14.1456 78.2889 14.1181C78.6179 14.0923 78.9103 14.1475 79.2109 14.1236C79.4342 14.1052 79.6576 14.0758 79.881 14.0648C80.3562 14.0427 80.8355 14.0299 81.3147 14.0152C81.4366 14.0115 81.5584 14.0152 81.6802 14.0152C81.6802 13.9986 81.6802 13.9802 81.6802 13.9637C81.3188 13.9637 80.9532 13.9619 80.5918 13.9637C80.1206 13.9674 79.6211 14.0243 79.1784 13.9692C78.2402 13.8498 77.3548 14.0372 76.4409 14.0243C75.8358 14.0151 75.2306 14.0335 74.6255 14.0299C74.5239 14.0299 74.4183 13.9839 74.3168 13.96C74.3249 13.9398 74.333 13.9196 74.3412 13.8994C74.7108 13.8847 75.0763 13.87 75.4702 13.8534C75.4378 13.824 75.3971 13.7909 75.3443 13.7432C75.5637 13.7229 75.7424 13.688 75.8195 13.8314C75.8358 13.8589 76.0307 13.8755 76.1445 13.8736C77.1883 13.8626 78.228 13.8497 79.2718 13.8332C79.8851 13.824 80.4984 13.8056 81.1238 13.8185C81.0182 13.8314 80.9126 13.8442 80.807 13.8571C80.8111 13.87 80.8111 13.8828 80.8151 13.8939C81.2132 13.881 81.6071 13.8663 82.0052 13.8534C82.0011 13.8332 82.0011 13.8148 81.997 13.7946C81.8468 13.8001 81.6965 13.8038 81.5422 13.8093C81.5422 13.7965 81.5422 13.7818 81.5381 13.7689C82.3463 13.7432 83.1586 13.7156 83.9669 13.6899C83.9709 13.6788 83.975 13.6697 83.979 13.6586C83.8856 13.6329 83.7963 13.6053 83.6825 13.5723C83.7597 13.5594 83.8288 13.5484 83.8978 13.5373C83.8978 13.5226 83.8937 13.5079 83.8937 13.4914C83.4226 13.4914 82.9515 13.4914 82.4397 13.4914C82.5331 13.5171 82.6063 13.5355 82.7119 13.5649C82.2285 13.609 81.7899 13.655 81.3431 13.6917C80.8923 13.7285 80.4415 13.7579 80.0232 13.6164C80.076 13.5998 80.1166 13.587 80.1572 13.5741C80.1531 13.5649 80.145 13.5557 80.1409 13.5465C79.7185 13.5557 79.2962 13.5667 78.8738 13.5759C78.2199 13.5906 77.5619 13.5998 76.908 13.6182C76.6562 13.6255 76.4044 13.6549 76.1242 13.6384C76.3597 13.598 76.5953 13.5575 76.8065 13.5226C76.4937 13.4289 76.0957 13.4675 75.787 13.5943C75.6733 13.6402 75.454 13.6255 75.2794 13.6366C75.2753 13.6182 75.2712 13.598 75.2672 13.5796C75.3768 13.5686 75.4865 13.5557 75.653 13.5392C75.5515 13.4767 75.4865 13.4363 75.4337 13.405C75.8967 13.405 76.376 13.405 76.8958 13.405C76.7374 13.3536 76.6034 13.3113 76.4694 13.2709C76.4409 13.2617 76.376 13.2562 76.376 13.2598C76.2013 13.4528 75.9211 13.2911 75.6977 13.3021C75.1656 13.3278 74.6214 13.2966 74.0975 13.3315C73.3299 13.383 72.5663 13.3205 71.7987 13.3554C71.1164 13.3866 70.4259 13.3591 69.7355 13.3591C69.6948 13.3591 69.6542 13.3738 69.5161 13.3995C70.9742 13.5263 72.3673 13.3021 73.8091 13.5006C73.6507 13.5373 73.5654 13.5557 73.4517 13.5814C73.6751 13.5814 73.8782 13.5814 74.0812 13.5814C74.0934 13.6017 74.1097 13.6219 74.1218 13.6421C74.0081 13.6641 73.8578 13.7193 73.7847 13.7009C73.1918 13.552 72.6638 13.6623 72.1277 13.7744C71.9449 13.813 71.7621 13.8461 71.5387 13.8883C71.5997 13.6807 72.3145 13.8479 72.1155 13.5704C72.3551 13.5594 72.546 13.552 72.7369 13.5428C72.7369 13.5263 72.7328 13.5116 72.7328 13.4951C70.3325 13.5245 67.9322 13.5539 65.4262 13.5851C65.5928 13.6311 65.6699 13.6513 65.7512 13.6752C65.7227 13.688 65.7024 13.7046 65.674 13.7064C65.4019 13.7248 65.1419 13.7303 65.0038 13.892C64.9673 13.9343 64.6627 13.9214 64.4799 13.9325C64.4718 13.9141 64.4637 13.8975 64.4515 13.8792C64.5733 13.8589 64.6952 13.8369 64.817 13.8167C64.817 13.8056 64.813 13.7946 64.813 13.7836C63.7164 13.7836 62.6198 13.7836 61.5232 13.7836C61.5191 13.7799 61.515 13.7781 61.5069 13.7744C61.6491 13.7634 61.7872 13.7505 61.9293 13.7395C61.8928 13.5355 61.8481 13.5208 61.0236 13.4271C61.1861 13.4216 61.3526 13.416 61.515 13.4105C61.515 13.3922 61.515 13.3756 61.511 13.3572C60.9342 13.3572 60.3616 13.3572 59.7849 13.3572C59.2122 13.3572 58.6436 13.3572 58.0709 13.3572C58.0709 13.3775 58.0709 13.3995 58.0709 13.4197C58.936 13.4197 59.8011 13.4197 60.6702 13.4197C60.6175 13.5024 60.6215 13.5079 59.8945 13.5539C59.594 13.5723 59.2812 13.5576 58.9726 13.5723C59.6671 13.7358 60.4631 13.5631 61.2145 13.7597C61.0723 13.7818 60.9546 13.8167 60.8327 13.8167C60.1544 13.824 59.4802 13.8314 58.802 13.8277C57.4576 13.8185 56.1133 13.7946 54.7689 13.7909C53.9323 13.7891 53.0956 13.8167 52.2589 13.8148C52.0274 13.8148 51.7959 13.7597 51.4873 13.7193C51.6497 13.7027 51.7553 13.6807 51.8528 13.6825C52.2265 13.688 52.5961 13.7046 52.9697 13.7082C53.1525 13.7101 53.3596 13.7395 53.4611 13.6108C53.4855 13.5778 53.6805 13.5741 53.7982 13.5263C53.2499 13.5098 52.7016 13.4932 52.1493 13.4767C52.1452 13.4951 52.1412 13.5134 52.1371 13.5318C52.3077 13.5429 52.4783 13.5539 52.6529 13.5649C52.393 13.6439 52.1615 13.6329 51.93 13.5594C51.8 13.519 51.6254 13.4987 51.467 13.4951C50.9552 13.4804 50.4394 13.473 49.9236 13.4693C49.4322 13.4657 48.9407 13.4693 48.3681 13.4693C48.494 13.4859 48.5549 13.4932 48.6158 13.5024C48.9042 13.5447 49.1925 13.6072 49.489 13.6274C49.753 13.6458 50.0333 13.6164 50.3013 13.6072C50.2769 13.6844 50.1429 13.7082 49.9236 13.6954C49.5865 13.6752 49.2453 13.6531 48.9082 13.6586C48.4249 13.6678 47.9416 13.7064 47.4583 13.723C46.7719 13.745 46.0693 13.7156 45.4072 13.7891C44.9077 13.8442 44.5015 13.6788 44.0385 13.7579C44.0385 13.7395 44.0385 13.7211 44.0385 13.7027C44.5706 13.6972 45.1067 13.6991 45.6387 13.6844C45.8946 13.677 46.1505 13.6421 46.4064 13.62C46.4307 13.6384 46.4592 13.6715 46.4835 13.6715C46.845 13.6752 47.2105 13.6807 47.572 13.666C47.637 13.6641 47.6857 13.5704 47.7426 13.5208C47.7182 13.5134 47.6898 13.5061 47.6654 13.4987C47.7791 13.4877 47.8969 13.4749 48.0106 13.4638C48.0066 13.4546 48.0025 13.4455 47.9985 13.4363C47.6898 13.4455 47.3852 13.4546 47.0359 13.4657C47.1293 13.5318 47.1781 13.5667 47.1984 13.5814C46.979 13.5925 46.715 13.6072 46.451 13.6219ZM20.9937 15.0719C21.1521 15.1178 21.3024 15.1766 21.4771 15.206C21.5461 15.217 21.6639 15.1619 21.7573 15.138C21.7939 15.1748 21.8142 15.2299 21.8751 15.2428C22.1269 15.2997 22.395 15.3585 22.6955 15.2648C22.4681 15.1858 22.2081 15.1748 21.9847 15.1068C21.7329 15.0314 21.3268 15.081 20.9856 15.0774C20.4901 14.9083 19.9459 15.0075 19.4179 15.0094C19.6575 15.0645 19.9134 15.0847 20.1571 15.1251C20.3805 15.1619 20.5998 15.2703 20.7663 15.0866C20.7825 15.0682 20.9166 15.0755 20.9937 15.0719ZM44.6356 14.4709C44.6396 14.4764 44.6437 14.4819 44.6518 14.4893C44.2132 14.4636 43.7745 14.4323 43.3359 14.4121C42.8566 14.3901 42.3774 14.3735 41.8981 14.3643C41.4067 14.357 40.9153 14.3625 40.4279 14.3606C39.9446 14.3588 39.4613 14.3551 38.982 14.3533C38.519 14.3515 38.056 14.3533 37.597 14.3533C37.593 14.3735 37.593 14.3956 37.5889 14.4158C37.8813 14.4525 38.1738 14.5113 38.4743 14.5169C38.787 14.5242 39.1038 14.4819 39.445 14.4581C39.4369 14.5132 39.4288 14.5591 39.4206 14.6032C40.2735 14.7888 43.1328 14.8568 43.9167 14.7043C43.3928 14.6859 42.8688 14.6694 42.353 14.651C42.5195 14.526 42.0971 14.5848 42.024 14.4819C42.2027 14.4966 42.349 14.5077 42.4911 14.5205C42.7023 14.5389 42.9135 14.5665 43.1288 14.5757C43.4334 14.5885 43.742 14.5849 44.0466 14.5977C44.3553 14.6124 44.6599 14.6455 44.9686 14.6602C45.1595 14.6694 45.2773 14.64 45.1067 14.5389C45.2082 14.5187 45.3057 14.4966 45.4032 14.4764C45.3951 14.458 45.391 14.4415 45.3829 14.4231C45.127 14.4415 44.8833 14.4562 44.6356 14.4709ZM14.2314 14.3864C14.8244 14.1603 15.5473 14.3588 16.1565 14.21C16.0063 14.1861 15.856 14.1824 15.7016 14.1787C14.4913 14.1383 13.281 14.0978 12.0707 14.0574C12.0179 14.0556 11.9326 14.0537 11.9164 14.0372C11.8067 13.9361 11.7011 13.9416 11.5468 14.0188C11.5021 14.0409 11.3762 14.0243 11.2909 14.0225C10.771 14.0041 10.2512 13.9968 9.73535 13.9619C9.43074 13.9416 9.12613 13.892 8.84588 13.8295C8.46817 13.745 8.10264 13.6513 7.66806 13.7174C7.79802 13.7432 7.93611 13.7413 8.07014 13.756C8.18386 13.7671 8.29759 13.7909 8.39506 13.8222C8.48847 13.8516 8.5494 13.9122 8.64687 13.9325C8.87025 13.9747 9.10582 14.0041 9.33732 14.0335C9.80033 14.0942 10.2633 14.1567 10.7345 14.2063C11.2137 14.2577 11.7377 14.2504 12.1682 14.3478C12.8546 14.5058 13.5369 14.5297 14.2598 14.493C14.2923 14.4911 14.3167 14.4783 14.3654 14.4654C14.3248 14.4342 14.2842 14.4121 14.2314 14.3864ZM93.0767 2.95927C93.0767 2.9464 93.0727 2.93354 93.0727 2.92068C92.6868 2.91333 92.301 2.89679 91.9151 2.89679C90.3312 2.89679 88.7513 2.90229 87.1673 2.90413C86.4322 2.90413 85.6808 2.86922 85.0472 3.0971C85.0472 3.0971 85.0675 3.10629 85.0878 3.10629C85.3518 3.11547 85.5671 3.03646 85.7905 3.00705C86.1844 2.95376 86.6596 2.97948 87.0617 3.03829C87.1957 3.0585 87.3622 3.10445 87.5247 3.10812C87.8902 3.11548 88.2558 3.1118 88.6254 3.10812C88.6863 3.10812 88.7431 3.08791 88.8487 3.07137C88.7431 3.03277 88.6741 3.00705 88.536 2.95559C89.0802 2.97029 89.5433 2.98316 90.0022 2.99602C90.0022 3.01072 90.0022 3.02543 90.0022 3.04013C89.7626 3.04748 89.5229 3.05483 89.2833 3.06402C90.4327 3.10078 91.578 3.24963 92.7396 3.06218C92.5853 3.04748 92.4269 3.03278 92.2726 3.01808C92.2726 3.00889 92.2726 2.99786 92.2766 2.98867C92.5406 2.97765 92.8087 2.96846 93.0767 2.95927ZM49.2007 14.7447C49.0423 14.7227 48.9245 14.7061 48.8026 14.6914C48.4858 14.6528 48.1772 14.6198 47.9457 14.4783C47.8279 14.4048 47.6167 14.2963 47.3933 14.3809C47.243 14.4378 47.1862 14.5499 47.0887 14.6418C47.0034 14.6069 46.8816 14.5554 46.6947 14.4764C46.3739 14.4672 45.9434 14.4562 45.5128 14.4452C45.5047 14.4617 45.4966 14.4783 45.4885 14.4948C45.5941 14.5279 45.6956 14.5591 45.8784 14.6143C45.6591 14.6216 45.521 14.6253 45.257 14.6345C45.4885 14.7466 45.6469 14.8274 45.8337 14.9193C46.0043 14.8201 46.2074 14.8274 46.447 14.9193C46.5404 14.9561 46.711 14.9634 46.8409 14.9579C47.2105 14.9432 47.5801 14.9138 47.9457 14.8899C47.9619 14.8881 47.9782 14.8752 48.0066 14.8642C47.97 14.8403 47.9335 14.8146 47.8929 14.7907C48.2868 14.6308 48.7214 14.7907 49.2007 14.7447ZM95.1278 3.15774C95.1318 3.17612 95.1359 3.1945 95.14 3.21288C95.3877 3.21839 95.6355 3.22757 95.8832 3.23125C96.4681 3.23676 97.0651 3.27903 97.6296 3.23125C97.983 3.20185 98.2917 3.22941 98.6247 3.2386C98.974 3.24779 99.3761 3.26434 99.6604 3.19082C99.8878 3.13202 100.062 3.0971 100.306 3.10812C100.473 3.11548 100.647 3.10996 100.826 3.10996C100.81 3.08791 100.806 3.08056 100.798 3.07872C100.757 3.06953 100.716 3.06034 100.672 3.05667C100.144 3.00889 99.636 3.04564 99.1324 3.13753C98.9902 3.16326 98.7831 3.10629 98.6125 3.07505C98.5922 3.07137 98.6206 2.99786 98.6369 2.91332C98.4257 2.94273 98.2023 2.94272 98.0683 2.99602C97.8408 3.08607 97.4794 3.13018 97.1341 3.04932C97.4144 3.03461 97.6459 3.02175 97.8774 3.01072C97.8733 2.99602 97.8693 2.97948 97.8693 2.96478C97.4184 2.96478 96.9676 2.96294 96.5168 2.96478C96.3909 2.96478 96.265 2.98867 96.1431 2.98132C95.9279 2.96846 95.6801 2.88943 95.6151 3.08056C95.607 3.10261 95.4567 3.11364 95.3715 3.12834C95.2902 3.13936 95.209 3.14672 95.1278 3.15774ZM82.2204 3.99392C82.2204 4.00678 82.2164 4.02149 82.2164 4.03435C82.4032 4.0417 82.59 4.04905 82.7768 4.0564C82.7768 4.07478 82.7768 4.09132 82.7768 4.1097C82.5047 4.1097 82.2285 4.12072 81.9564 4.10786C81.3431 4.07662 81.3472 4.0711 81.2254 4.16483C82.5616 4.16483 83.9303 4.16483 85.295 4.16483C85.295 4.14461 85.295 4.1244 85.295 4.10235C85.23 4.10418 85.165 4.11154 85.1041 4.10786C84.7548 4.09316 84.3568 4.12256 84.0724 4.04905C83.7841 3.9737 83.5932 3.98657 83.3495 4.04905C83.252 4.07294 83.1464 4.08948 83.0449 4.1097C83.0124 4.08765 82.9799 4.06559 82.9474 4.04538C83.0368 4.03619 83.1302 4.027 83.2195 4.01781C83.1952 4.00127 83.1708 3.98473 83.1464 3.96819C82.8378 3.97738 82.5291 3.98473 82.2204 3.99392ZM139.434 0.294533C139.438 0.272481 139.438 0.250424 139.442 0.228371C139.178 0.204481 138.914 0.153026 138.655 0.162216C137.952 0.187944 137.249 0.23756 136.547 0.279829C136.441 0.28718 136.344 0.314747 136.242 0.333124C136.246 0.34415 136.25 0.355176 136.258 0.366202C137.314 0.344149 138.374 0.320262 139.434 0.294533ZM135.791 0.763157C135.426 0.689647 135.129 0.549978 134.67 0.579382C134.276 0.603272 133.862 0.515062 133.407 0.597761C133.716 0.627165 134.016 0.616136 134.203 0.682296C134.711 0.862394 135.239 0.814614 135.791 0.763157ZM96.8986 13.1698C96.8945 13.1882 96.8904 13.2047 96.8823 13.2231C97.0204 13.247 97.1585 13.2672 97.2925 13.2966C97.39 13.3168 97.4794 13.3701 97.5728 13.3701C97.9464 13.3701 98.3241 13.3536 98.6978 13.3425C98.7953 13.3389 98.8968 13.3333 98.9943 13.3297C98.9943 13.3058 98.9943 13.2819 98.9943 13.258C98.316 13.1569 97.6093 13.1643 96.8986 13.1698ZM86.5824 13.7579C86.5865 13.7891 86.5906 13.8185 86.5946 13.8498C87.8293 13.8314 89.0681 13.8112 90.3027 13.7928C90.3027 13.7818 90.3027 13.7707 90.2987 13.7597C89.0599 13.7579 87.8212 13.7579 86.5824 13.7579ZM19.1905 1.64896C19.1864 1.6269 19.1823 1.60485 19.1742 1.58463C18.2969 1.58647 17.4156 1.48907 16.5424 1.59934C16.5424 1.61404 16.5424 1.63058 16.5424 1.64528C17.1029 1.64528 17.6633 1.64528 18.2238 1.64528C18.2238 1.65447 18.2238 1.66182 18.2238 1.67101C18.1182 1.67652 18.0126 1.6802 17.907 1.68571C17.9111 1.70225 17.9151 1.72063 17.9233 1.73717C18.3457 1.7096 18.7681 1.67836 19.1905 1.64896ZM19.3042 1.65447C19.3164 1.68755 19.3326 1.71879 19.3448 1.75187C19.7794 1.73165 20.2099 1.7096 20.6445 1.69306C20.7216 1.68938 20.8029 1.70593 20.8841 1.70777C21.2131 1.7096 21.542 1.70777 21.871 1.70777C21.144 1.64528 20.413 1.61404 19.6819 1.59383C19.556 1.59015 19.4301 1.63242 19.3042 1.65447ZM7.98485 13.0209C8.59813 13.0816 9.19111 13.1036 9.8775 13.0099C9.4348 12.9584 9.09363 12.918 8.75247 12.8794C8.68749 12.8721 8.61032 12.8721 8.5494 12.8831C8.37475 12.9217 8.20417 12.9676 7.98485 13.0209ZM136.031 0.605114C136.027 0.627167 136.023 0.649216 136.019 0.671269C136.335 0.687809 136.652 0.702511 137.054 0.722726C137.002 0.603272 137.018 0.476472 136.908 0.439717C136.758 0.388261 136.494 0.357015 136.331 0.481982C136.392 0.516899 136.449 0.55182 136.559 0.617979C136.327 0.612466 136.181 0.608789 136.031 0.605114ZM49.4768 14.4231C49.485 14.3992 49.489 14.3753 49.4971 14.3496C49.2047 14.3147 48.9123 14.2798 48.6199 14.2449C48.6117 14.2577 48.6077 14.2706 48.5996 14.2835C48.7173 14.2982 48.8392 14.3129 48.961 14.3257C48.957 14.3404 48.957 14.357 48.9529 14.3717C48.8108 14.3754 48.6686 14.368 48.5346 14.3845C48.3884 14.4011 48.2503 14.4378 48.1081 14.4654C48.2462 14.4838 48.3924 14.526 48.5265 14.5187C48.8433 14.5003 49.16 14.4562 49.4768 14.4231ZM62.2623 3.85792C62.2339 3.77706 62.2217 3.73296 62.2055 3.68885C62.0877 3.69988 61.9415 3.69437 61.8643 3.72745C61.7465 3.77706 61.9009 3.94798 62.0633 3.94246C62.5426 3.9296 63.0218 3.90203 63.5011 3.87814C63.497 3.85241 63.493 3.82852 63.4849 3.80279C63.0625 3.82301 62.6441 3.84138 62.2623 3.85792ZM43.0881 2.18374C42.2434 2.12493 41.3986 2.04591 40.5578 2.18374C41.4026 2.18374 42.2434 2.18374 43.0881 2.18374ZM80.1572 4.13359C80.4577 4.22731 80.9654 4.21629 81.0507 4.10602C81.006 4.07478 80.9614 4.0417 80.8801 3.98657C81.1279 3.98657 81.3228 3.98657 81.5178 3.98657C81.006 3.89284 80.4131 3.95716 80.1572 4.13359ZM68.7485 4.28428C68.7485 4.26039 68.7445 4.2365 68.7445 4.21261C68.0987 4.24753 67.4407 4.11521 66.8071 4.28428C67.457 4.28428 68.1027 4.28428 68.7485 4.28428ZM40.2776 13.6439C40.2817 13.6274 40.2857 13.6108 40.2898 13.5943C40.0136 13.5667 39.6928 13.5741 39.4653 13.5043C39.1282 13.4013 38.9089 13.4326 38.6205 13.5943C39.2013 13.666 39.7456 13.5998 40.2776 13.6439ZM34.9774 13.813C35.6719 13.8626 36.3867 14.0115 37.0487 13.7432C36.7441 13.6586 36.6913 13.666 36.5654 13.734C36.4923 13.7726 36.3664 13.8075 36.2608 13.8093C35.8344 13.8167 35.4038 13.813 34.9774 13.813ZM143.703 4.16115C143.707 4.17953 143.707 4.19607 143.711 4.21444C143.788 4.21812 143.869 4.22363 143.947 4.2218C144.304 4.21812 144.661 4.21445 145.015 4.2071C145.112 4.20526 145.21 4.18504 145.307 4.17401C145.218 4.14277 145.129 4.08029 145.047 4.08396C144.596 4.1005 144.15 4.13359 143.703 4.16115ZM81.4487 3.01073C81.4366 2.99235 81.4244 2.97397 81.4162 2.95559C80.8355 2.95559 80.2547 2.95559 79.6739 2.95559C80.0191 3.01807 80.3643 3.05299 80.7096 3.07505C80.8883 3.08607 81.071 3.08056 81.2497 3.07137C81.3188 3.06769 81.3797 3.03094 81.4487 3.01073ZM105.318 14.2835C105.887 14.3441 106.346 14.1475 106.849 14.2412C106.906 14.2522 107.004 14.2081 107.081 14.1897C106.492 14.1658 105.899 14.0574 105.318 14.2835ZM89.7991 13.5998C89.7991 13.6127 89.7991 13.6255 89.7991 13.6384C90.6074 13.6384 91.4115 13.6384 92.2198 13.6384C92.2198 13.6255 92.2157 13.6127 92.2157 13.5998C91.4075 13.5998 90.6033 13.5998 89.7991 13.5998ZM88.3248 3.3213C87.744 3.32866 87.2242 3.11731 86.6231 3.2239C87.1632 3.34887 87.7521 3.31395 88.3248 3.3213ZM49.2453 14.8715C49.2413 14.8458 49.2413 14.8201 49.2372 14.7944C48.9935 14.7944 48.7458 14.787 48.5021 14.798C48.4249 14.8017 48.2949 14.8568 48.299 14.8844C48.3071 14.9377 48.3681 15.0039 48.4534 15.0333C48.5386 15.0627 48.6767 15.0535 48.7945 15.0608C48.8026 15.0498 48.8067 15.0388 48.8148 15.0277C48.7417 15.0039 48.6727 14.9818 48.5752 14.9487C48.8229 14.9193 49.0341 14.8954 49.2453 14.8715ZM65.2272 4.21445C65.6821 4.33574 66.072 4.34493 66.5878 4.26407C66.4051 4.21077 66.2994 4.15381 66.1979 4.15564C65.9014 4.16116 65.609 4.19056 65.2272 4.21445ZM50.411 14.0427C50.0658 13.9398 48.5468 13.9122 47.9782 13.9876C48.7986 14.006 49.5703 14.0243 50.411 14.0427ZM107.251 13.2488C107.016 13.2176 106.76 13.1735 106.496 13.1532C106.216 13.1312 105.927 13.133 105.639 13.1257C105.635 13.1441 105.635 13.1643 105.631 13.1827C105.931 13.19 106.232 13.1974 106.532 13.2047C106.532 13.2212 106.532 13.2359 106.532 13.2525C106.496 13.269 106.459 13.2837 106.419 13.3021C107.06 13.3499 107.06 13.3499 107.251 13.2488ZM106.341 14.561C106.346 14.5463 106.35 14.5297 106.358 14.515C106.045 14.4378 105.18 14.4654 104.952 14.5977C105.464 14.583 105.903 14.572 106.341 14.561ZM105.415 14.1567C105.168 14.1567 104.985 14.1567 104.778 14.1567C104.827 14.1916 104.892 14.2191 104.879 14.2302C104.684 14.4378 104.23 14.2908 103.925 14.379C104.278 14.5573 104.587 14.3257 104.81 14.3698C105.03 14.2945 105.188 14.2375 105.415 14.1567ZM57.1571 13.3903C57.1611 13.3701 57.1652 13.348 57.1693 13.3278C56.9987 13.3278 56.8322 13.3278 56.6616 13.3278C56.2839 13.326 55.9061 13.3186 55.5244 13.3223C55.4634 13.3223 55.4025 13.3701 55.3457 13.3958C55.4228 13.4069 55.5 13.4307 55.5731 13.4271C55.7356 13.4216 55.898 13.394 56.0605 13.3903C56.426 13.3866 56.7915 13.3903 57.1571 13.3903ZM53.6439 13.3738C53.6358 13.3866 53.6317 13.3995 53.6236 13.4124C54.0866 13.4271 54.5496 13.4418 55.0167 13.4565C55.0329 13.4436 55.0451 13.4289 55.0614 13.416C55.0045 13.3866 54.9476 13.3315 54.8908 13.3315C54.4724 13.3407 54.0582 13.3591 53.6439 13.3738ZM50.8983 2.55864C50.9024 2.57334 50.9024 2.5862 50.9065 2.60091C51.3776 2.54945 51.8975 2.72403 52.332 2.49064C51.8528 2.51269 51.3776 2.53475 50.8983 2.55864ZM95.0628 3.08791C94.6932 3.08791 94.3439 3.08791 93.9987 3.08791C94.3805 3.22941 94.815 3.21655 95.0628 3.08791ZM85.3153 2.97213C85.3112 2.95743 85.3112 2.94456 85.3071 2.92986C84.901 2.92986 84.4908 2.92986 84.0846 2.92986C84.0846 2.94456 84.0887 2.95743 84.0887 2.97213C84.4989 2.97213 84.9091 2.97213 85.3153 2.97213ZM22.9514 15.2152C24.0602 15.4412 24.0602 15.4412 24.1414 15.2942C23.7393 15.2667 23.3453 15.2409 22.9514 15.2152ZM43.4456 2.14698C43.4456 2.15066 43.4496 2.1525 43.4496 2.15617C43.9857 2.15617 44.5218 2.15617 45.062 2.15617C45.058 2.13412 45.058 2.11207 45.0539 2.09001C44.5178 2.11023 43.9817 2.12861 43.4456 2.14698ZM33.7589 13.734C34.157 13.8718 34.8434 13.824 34.8962 13.6917C34.5144 13.7064 34.1367 13.7193 33.7589 13.734ZM112.34 13.1624C112.34 13.179 112.34 13.1955 112.34 13.2121C112.787 13.1863 113.258 13.2488 113.689 13.1514C113.685 13.1367 113.681 13.1202 113.681 13.1055C113.234 13.1238 112.787 13.1422 112.34 13.1624ZM7.27409 12.2399C7.25379 12.2675 7.23348 12.295 7.21317 12.3226C7.67212 12.2822 7.91581 12.567 8.41537 12.4604C8.03359 12.3869 7.65587 12.3134 7.27409 12.2399ZM78.9184 4.09867C78.5489 4.12072 78.2442 4.1391 77.9315 4.15748C78.1914 4.29163 78.6991 4.27693 78.9184 4.09867ZM87.212 3.87263C86.883 3.83771 86.5581 3.80463 86.1925 3.76604C86.3306 3.90938 86.7936 3.96084 87.212 3.87263ZM86.7774 4.16483C86.4565 4.02884 86.1235 4.0417 85.9001 4.16483C86.2007 4.16483 86.489 4.16483 86.7774 4.16483ZM61.2551 3.78626C60.7352 3.63188 60.6418 3.65026 60.5565 3.89101C60.7718 3.85977 60.9789 3.82852 61.2551 3.78626ZM5.97848 7.27981C5.98255 7.26879 5.98661 7.25776 5.99067 7.24673C5.7348 7.22652 5.47892 7.20814 5.15807 7.18241C5.22711 7.26143 5.26367 7.3037 5.28804 7.33494C5.53578 7.31473 5.7551 7.29635 5.97848 7.27981ZM77.6553 4.18688C77.2898 4.11337 76.9243 4.04905 76.4856 4.18688C76.9283 4.18688 77.2898 4.18688 77.6553 4.18688ZM38.2631 13.8222C37.8448 13.813 37.5158 13.8056 37.1868 13.7983C37.5117 13.938 37.8448 13.9012 38.2631 13.8222ZM102.987 13.1808C102.987 13.1606 102.987 13.1404 102.987 13.122C102.678 13.1404 102.373 13.1588 102.065 13.1771C102.069 13.1992 102.077 13.2194 102.081 13.2415C102.382 13.2212 102.686 13.201 102.987 13.1808ZM100.814 13.2323C100.81 13.2543 100.802 13.2764 100.798 13.2966C101.11 13.2892 101.423 13.2819 101.736 13.2727C101.732 13.2488 101.732 13.2231 101.728 13.1992C101.427 13.2102 101.123 13.2212 100.814 13.2323ZM89.6732 3.42973C89.4742 3.30293 89.0153 3.29006 88.7269 3.39665C89.0681 3.40952 89.328 3.4187 89.6732 3.42973ZM12.156 3.5014C11.892 3.51059 11.6727 3.51978 11.3721 3.53081C11.7783 3.67415 11.8514 3.67048 12.156 3.5014ZM45.2164 14.8421C45.2204 14.8238 45.2204 14.8054 45.2245 14.7852C44.8955 14.776 44.5625 14.7668 44.2335 14.7576C44.2294 14.7741 44.2294 14.7925 44.2254 14.8091C44.5543 14.8201 44.8833 14.8311 45.2164 14.8421ZM104.599 13.1165C104.595 13.1367 104.595 13.1551 104.591 13.1753C104.839 13.1753 105.086 13.1753 105.334 13.1753C105.334 13.1551 105.334 13.1367 105.334 13.1165C105.091 13.1165 104.847 13.1165 104.599 13.1165ZM25.9081 15.5846C25.9122 15.5625 25.9162 15.5405 25.9162 15.5184C25.6766 15.5221 25.4492 15.4155 25.2055 15.5019C25.2014 15.5239 25.2014 15.546 25.1974 15.568C25.4329 15.5736 25.6726 15.5791 25.9081 15.5846ZM19.1986 15.0204C19.0199 14.8734 18.8168 14.8954 18.6097 14.9322C18.6056 14.9542 18.6015 14.9781 18.5975 15.0002C18.7965 15.0075 18.9996 15.013 19.1986 15.0204ZM140.486 15.1968C140.255 15.1913 140.019 15.184 139.788 15.1784C139.788 15.1987 139.784 15.217 139.784 15.2372C140.003 15.331 140.239 15.2924 140.486 15.1968ZM99.835 14.9303C99.835 14.9175 99.8391 14.9065 99.8391 14.8936C99.437 14.9028 99.0349 14.912 98.6369 14.923C98.6409 14.9395 98.6409 14.9561 98.645 14.9726C99.039 14.9579 99.437 14.9432 99.835 14.9303ZM81.9849 14.107C82.1636 14.0648 82.3423 14.0207 82.521 13.9784C82.2895 13.9692 82.0092 13.892 81.9849 14.107ZM25.6807 15.4357C25.6888 15.4082 25.6929 15.3806 25.701 15.3549C25.4695 15.3383 25.238 15.3218 25.0065 15.3071C25.0024 15.3236 24.9984 15.3383 24.9943 15.3549C25.2217 15.3806 25.4492 15.4082 25.6807 15.4357ZM93.9621 13.6108C93.9662 13.6329 93.9743 13.655 93.9784 13.677C94.3114 13.655 94.6445 13.6311 94.9816 13.609C94.9775 13.5961 94.9775 13.5814 94.9734 13.5686C94.6363 13.5814 94.2992 13.5961 93.9621 13.6108ZM90.4449 2.72771C90.4449 2.75895 90.4449 2.79203 90.449 2.82328C90.6398 2.81593 90.8307 2.80673 91.0216 2.79938C91.0176 2.78101 91.0176 2.76447 91.0135 2.74609C90.8226 2.73874 90.6358 2.73322 90.4449 2.72771ZM102.414 14.5922C102.418 14.6143 102.418 14.6363 102.422 14.6584C102.694 14.651 102.966 14.6418 103.243 14.6345C103.239 14.6143 103.239 14.594 103.234 14.5738C102.962 14.5812 102.686 14.5867 102.414 14.5922ZM96.9311 13.3775C96.9189 13.3536 96.9067 13.3315 96.8904 13.3076C96.6468 13.3425 96.399 13.3775 96.1553 13.4124C96.1675 13.4344 96.1797 13.4546 96.1919 13.4767C96.4396 13.4436 96.6874 13.4105 96.9311 13.3775ZM119.651 14.8771C119.651 14.8844 119.651 14.8918 119.651 14.8991C119.988 14.8991 120.321 14.8991 120.658 14.8991C120.658 14.8826 120.654 14.866 120.654 14.8495C120.321 14.8587 119.988 14.8679 119.651 14.8771ZM83.0693 2.59172C83.0652 2.56967 83.0611 2.54578 83.0611 2.52372C82.8215 2.52924 82.5819 2.53475 82.3463 2.54026C82.3463 2.5568 82.3504 2.57518 82.3504 2.59172C82.59 2.59172 82.8296 2.59172 83.0693 2.59172ZM104.254 14.2724C104.258 14.2522 104.258 14.232 104.262 14.2118C104.002 14.1989 103.742 14.1879 103.486 14.175C103.482 14.2008 103.478 14.2283 103.474 14.2541C103.73 14.2614 103.994 14.2669 104.254 14.2724ZM9.68255 3.46465C9.90187 3.41136 10.0521 3.37644 10.2552 3.32866C9.86531 3.25331 9.83282 3.26066 9.68255 3.46465Z" fill="url(#paint0_linear_6398_562)"/>
<defs>
<linearGradient id="paint0_linear_6398_562" x1="2.8917" y1="16.0021" x2="123.28" y2="-45.4187" gradientUnits="userSpaceOnUse">
<stop stop-color="#533CA3"/>
<stop offset="0.294518" stop-color="#BF5AB8"/>
<stop offset="0.682384" stop-color="#ED641F"/>
<stop offset="1" stop-color="#FFE322"/>
</linearGradient>
</defs>
</svg>
