<svg width="269" height="23" viewBox="0 0 269 23" fill="none" xmlns="http://www.w3.org/2000/svg">
<path d="M244.702 10.4154C244.209 10.3422 243.71 10.2749 243.217 10.1988C242.516 10.0876 241.613 10.1695 241.226 9.748C241.181 9.77727 241.136 9.80362 241.091 9.83289C241.158 9.88851 241.226 9.94706 241.308 10.0115C240.442 9.95584 239.607 9.90315 238.772 9.84753C238.749 9.86802 238.734 9.88558 238.712 9.90607C239.07 9.97926 239.428 10.0554 239.711 10.1139C239.517 10.1139 239.092 10.1666 238.958 10.1051C238.078 9.69238 236.72 9.7802 235.661 9.5665C235.683 9.53138 235.706 9.49917 235.721 9.46405C236.407 9.49917 237.086 9.53138 237.772 9.5665C237.779 9.55772 237.787 9.54894 237.794 9.54016C237.556 9.49918 237.324 9.45819 237.086 9.41721C237.093 9.39672 237.101 9.37623 237.101 9.35574C237.697 9.38794 238.294 9.42014 238.891 9.45234C238.906 9.44063 238.921 9.42892 238.936 9.42014C238.801 9.38794 238.675 9.35281 238.54 9.32061C238.533 9.29719 238.533 9.2767 238.525 9.25328C239.048 9.22693 239.562 9.20059 240.084 9.17424C240.077 9.15082 240.077 9.1274 240.069 9.10399C239.48 9.1801 238.943 9.00446 238.287 9.13619C237.921 9.20937 237.339 9.09228 236.877 9.00738C237.213 8.98689 237.548 8.9664 237.884 8.94591C237.884 8.93127 237.876 8.91664 237.869 8.902C237.362 8.902 236.855 8.902 236.243 8.902C236.422 8.99275 236.549 9.05422 236.787 9.17424C235.93 9.12448 235.228 9.07179 234.52 9.04837C233.587 9.01909 232.648 9.02202 231.715 8.99275C231.499 8.98689 231.29 8.91664 231.089 8.81711C233.483 8.79662 235.885 8.77613 238.279 8.75856C238.279 8.73222 238.287 8.70294 238.287 8.6766C237.69 8.6239 237.086 8.56829 236.489 8.51559C236.489 8.50096 236.489 8.48925 236.497 8.47461C237.324 8.47461 238.16 8.47461 238.988 8.47461C238.995 8.43948 239.003 8.40436 239.018 8.36923C238.839 8.36923 238.652 8.3663 238.473 8.36923C238.182 8.37216 237.891 8.38972 237.6 8.38386C237.339 8.37801 237.071 8.34874 236.758 8.32825C236.84 8.25799 236.892 8.20822 236.937 8.17017C236.4 8.12333 235.877 8.0765 235.348 8.02966C235.355 8.01209 235.355 7.9916 235.363 7.97404C235.922 8.00038 236.489 8.02673 237.048 8.05308C237.048 8.02673 237.048 8.00331 237.048 7.97697C237.25 7.98282 237.451 7.98575 237.645 7.9916C237.645 7.97697 237.653 7.9594 237.653 7.94477C236.303 7.85987 234.952 7.77498 233.394 7.67545C234.057 7.63154 234.565 7.59934 235.064 7.56714C235.064 7.54079 235.072 7.51445 235.072 7.4881C234.781 7.49396 234.497 7.50567 234.207 7.50567C233.834 7.50567 233.446 7.51445 233.08 7.48225C232.752 7.45298 232.454 7.36808 232.163 7.24513C232.909 7.24513 233.647 7.24513 234.393 7.24513C233.483 6.93777 232.446 7.18366 231.499 7.08706C231.499 7.06071 231.499 7.03437 231.499 7.00509C231.976 7.00509 232.461 7.01973 232.939 7.00217C233.819 6.97289 234.699 7.02559 235.586 6.87922C236.213 6.77676 237.011 6.84116 237.727 6.85287C238.279 6.86165 238.831 6.90264 239.406 6.92898C239.167 6.94362 238.936 6.95826 238.712 6.97289C238.727 7.00509 238.734 7.0373 238.749 7.0695C239.256 7.02266 239.779 6.99631 240.256 6.9202C240.644 6.8558 240.957 6.69773 241.345 6.64211C241.725 6.58941 242.173 6.62454 242.583 6.60698C242.889 6.59234 243.195 6.5338 243.501 6.53087C243.941 6.52501 244.381 6.55429 244.828 6.566C245.142 6.57478 245.455 6.5777 245.776 6.58356C245.783 6.55721 245.791 6.53087 245.791 6.50452C245.455 6.49574 245.119 6.48696 244.784 6.47818C244.784 6.46354 244.784 6.45183 244.791 6.43719C245.403 6.4167 246.014 6.39621 246.626 6.37865C246.626 6.36401 246.626 6.3523 246.626 6.33766C243.732 6.33766 240.83 6.33766 237.936 6.33766C237.936 6.3201 237.936 6.30254 237.936 6.28205C238.988 6.23228 240.047 6.15617 241.099 6.14446C242.165 6.13275 243.24 6.19715 244.314 6.20008C245.768 6.20301 247.23 6.2235 248.67 6.15324C249.998 6.08884 251.295 5.91906 252.616 5.75805C251.288 5.74634 249.96 5.73756 248.64 5.72C247.506 5.70536 246.335 5.74049 245.246 5.63803C243.665 5.48874 242.091 5.52387 240.502 5.4946C239.055 5.46825 237.615 5.39214 236.176 5.38336C235.534 5.38043 234.893 5.4946 234.244 5.54143C234.087 5.55314 233.908 5.51216 233.565 5.47703C233.99 5.43312 234.251 5.40677 234.624 5.37165C233.893 5.12868 233.118 5.18137 232.387 5.11111C232.879 5.11111 233.364 5.11111 233.886 5.11111C233.617 5.06721 233.386 5.02915 233.147 4.99109C233.162 4.96768 233.17 4.94133 233.185 4.91791C233.714 4.94426 234.244 4.9706 234.773 4.99402C234.781 4.97646 234.788 4.96182 234.796 4.94426C234.706 4.92084 234.617 4.89742 234.527 4.87108C234.699 4.77155 235.012 4.81838 236.109 5.11112C235.915 5.13746 235.751 5.16088 235.594 5.18137C235.631 5.19015 235.669 5.20186 235.698 5.21064C236.877 5.21064 238.055 5.21064 239.234 5.21064C239.241 5.1843 239.241 5.15795 239.249 5.13453C238.07 5.04379 236.884 4.95304 235.706 4.86229C235.698 4.84766 235.691 4.83009 235.683 4.81545C237.571 4.78033 239.465 4.7452 241.352 4.70714C241.36 4.67787 241.36 4.65153 241.367 4.62225C241.181 4.58712 240.994 4.54907 240.666 4.4876C241.099 4.50223 241.375 4.51101 241.651 4.5198C241.658 4.50809 241.666 4.4993 241.673 4.4876C241.464 4.44954 241.248 4.40856 240.965 4.35587C241.114 4.30317 241.211 4.27097 241.173 4.28561C239.719 4.23584 238.175 4.18315 236.631 4.13339C236.079 4.11583 235.519 4.1129 234.96 4.09241C234.154 4.06313 233.356 4.02215 232.558 3.98702C232.558 3.9636 232.566 3.93726 232.566 3.91384C235.631 3.91384 238.689 3.91384 241.755 3.91384C241.763 3.89335 241.763 3.86993 241.77 3.84944C241.017 3.82602 240.256 3.78211 239.503 3.77918C237.451 3.77333 235.4 3.8026 233.341 3.78796C232.29 3.78211 231.245 3.706 230.194 3.67965C229.94 3.6738 229.671 3.74698 229.41 3.78211C229.276 3.79967 229.134 3.83187 229 3.82602C228.381 3.79675 227.762 3.74405 227.143 3.72649C226.173 3.69722 225.203 3.68258 224.234 3.67087C223.54 3.66209 222.839 3.66794 222.138 3.66794C222.16 3.65038 222.227 3.60354 222.324 3.53621C221.616 3.5128 220.937 3.50109 220.258 3.46596C219.176 3.41326 218.102 3.34886 217.028 3.27861C215.753 3.19372 214.485 3.07662 213.202 3.01808C212.679 2.99466 212.135 3.1059 211.59 3.13224C211.24 3.1498 210.874 3.14102 210.531 3.11175C209.576 3.02686 208.637 2.92148 207.689 2.82487C207.152 3.05906 206.22 2.80731 205.705 3.11175C205.631 3.15566 205.28 3.11761 205.056 3.11761C205.094 3.02393 205.123 2.92733 205.161 2.84244C204.474 2.98295 204.184 2.65216 203.661 2.5819C203.273 2.52921 202.878 2.48823 202.483 2.45018C202.199 2.42383 201.908 2.41797 201.625 2.40041C201.565 2.39748 201.506 2.38285 201.446 2.38285C200.842 2.37114 200.238 2.36236 199.589 2.35065C199.484 2.37699 199.283 2.47945 199.081 2.47945C198.306 2.47652 197.53 2.44432 196.754 2.41505C196.038 2.3887 195.322 2.35357 194.606 2.3243C193.689 2.28917 192.771 2.2599 191.801 2.28039C192.234 2.33601 192.674 2.39456 193.107 2.45017C193.084 2.47945 193.062 2.50579 193.04 2.53507C192.197 2.41797 191.354 2.30088 190.511 2.18379C190.526 2.14866 190.533 2.11353 190.548 2.07548C191.742 2.07548 192.935 2.07548 194.173 2.07548C194.114 1.96717 193.442 1.97595 194.061 1.77982C192.458 1.70078 191.011 1.63052 189.429 1.55441C189.638 1.6276 189.758 1.67151 189.892 1.71834C188.721 1.77982 187.572 1.84129 186.371 1.90569C187.863 2.07548 189.317 2.24233 190.779 2.40919C190.765 2.4531 190.75 2.49701 190.735 2.53799C188.848 2.49701 186.96 2.4531 185.081 2.41212C185.081 2.37114 185.081 2.33308 185.081 2.2921C185.573 2.2921 186.065 2.2921 186.707 2.2921C185.938 2.07841 185.304 2.18964 184.663 2.22184C184.081 2.25112 183.492 2.2599 182.903 2.26283C182.768 2.26283 182.642 2.17793 182.492 2.16622C182.231 2.14573 181.963 2.15159 181.702 2.14866C181.441 2.14573 181.172 2.14866 180.844 2.14866C181.015 2.20135 181.157 2.24233 181.314 2.28917C180.859 2.30966 180.434 2.34479 180.008 2.34186C179.837 2.34186 179.665 2.26282 179.531 2.16622C179.225 2.18379 178.919 2.20135 178.606 2.21892C178.599 2.18964 178.584 2.16037 178.576 2.13402C179.852 1.95838 181.239 2.10475 182.53 1.92911C182.418 1.89691 182.276 1.85885 182.142 1.81787C182.157 1.80031 182.172 1.78274 182.187 1.76518C182.642 1.82665 183.104 1.88813 183.596 1.95253C183.507 1.99936 183.425 2.04035 183.201 2.15744C183.857 2.14281 184.357 2.1311 184.887 2.12231C184.842 2.03157 184.812 1.9818 184.767 1.89691C185.252 1.94082 185.685 1.97887 186.125 2.01693C186.132 1.98766 186.147 1.96131 186.155 1.93204C184.588 1.61003 182.776 1.83251 181.15 1.60418C181.388 1.65687 181.62 1.71249 181.858 1.76518C181.851 1.78274 181.843 1.79738 181.828 1.81494C180.844 1.70663 179.859 1.5954 178.875 1.48709C178.852 1.5105 178.837 1.53099 178.815 1.55441C179.285 1.64223 179.762 1.73005 180.314 1.83251C180.173 1.86764 180.061 1.9174 179.956 1.91447C178.524 1.89106 177.092 1.86471 175.652 1.83251C175.503 1.82958 175.369 1.77104 175.227 1.73883C175.197 1.75933 175.175 1.78274 175.145 1.80323C175.302 1.84422 175.443 1.89398 175.608 1.92326C175.794 1.95838 175.995 1.97302 176.383 2.02278C176.063 2.09597 175.928 2.12524 175.764 2.16037C175.943 2.21306 176.085 2.25697 176.264 2.31259C175.637 2.5497 174.884 2.42968 174.22 2.49116C173.176 2.58483 172.132 2.52628 171.087 2.53799C170.602 2.54385 170.065 2.67558 169.663 2.61996C168.492 2.4531 167.291 2.5819 166.164 2.49116C165.411 2.42968 164.628 2.49408 163.897 2.35357C164.046 2.35357 164.203 2.35357 164.352 2.35357C164.359 2.33894 164.359 2.3243 164.367 2.30966C164.135 2.29503 163.904 2.28039 163.673 2.26575C163.554 2.32137 163.427 2.4209 163.307 2.4209C163.002 2.41797 162.703 2.36235 162.397 2.34479C161.562 2.29503 160.727 2.25697 159.899 2.21013C159.742 2.20135 159.593 2.16915 159.436 2.14866C160.048 2.08718 160.652 2.07547 161.249 2.09011C161.629 2.0989 162.002 2.13988 162.368 2.17793C162.554 2.19842 162.718 2.24526 162.89 2.28039C162.882 2.30966 162.875 2.34186 162.867 2.37113C163.136 2.33601 163.404 2.30088 163.673 2.26283C163.919 2.21013 164.188 2.0989 164.404 2.11646C165.001 2.1633 165.53 2.16622 166.105 2.05206C166.448 1.98473 166.895 2.00815 167.298 1.99351C167.313 1.97009 167.32 1.94667 167.335 1.92326C166.888 1.86471 166.44 1.80616 165.993 1.74762C166.157 1.71542 166.343 1.68029 166.522 1.64516C166.515 1.62174 166.507 1.59832 166.5 1.5749C165.172 1.77396 163.844 1.73883 162.517 1.59539C162.509 1.62174 162.494 1.64516 162.487 1.6715C162.681 1.69785 162.882 1.72127 163.076 1.74762C163.076 1.76225 163.076 1.77689 163.076 1.79153C162.726 1.78274 162.368 1.77689 162.017 1.7564C161.95 1.75347 161.845 1.69492 161.845 1.66272C161.845 1.63052 161.942 1.57783 162.017 1.56905C162.196 1.55148 162.383 1.55441 162.569 1.53392C161.719 1.53392 160.876 1.53392 159.914 1.53392C160.451 1.63638 160.921 1.72712 161.562 1.85007C159.772 1.97302 158.138 1.8208 156.341 1.83251C156.833 1.90276 157.146 1.94667 157.459 1.99058C157.452 2.02278 157.445 2.05206 157.437 2.08426C157.101 2.06962 156.758 2.06962 156.445 2.02864C156.288 2.00815 156.191 1.91155 156.065 1.85007C156.102 1.8208 156.132 1.79445 156.169 1.76518C155.08 1.71541 153.984 1.66565 152.894 1.61588C152.894 1.57783 152.902 1.53978 152.902 1.49879C154.028 1.44317 155.162 1.38755 156.288 1.33486C156.288 1.32608 156.288 1.3173 156.281 1.30852C155.073 1.30852 153.872 1.30852 152.648 1.30852C153.014 1.26753 153.387 1.22655 153.76 1.18557C153.752 1.16801 153.745 1.15337 153.73 1.1358C152.477 1.2002 151.224 1.26753 149.985 1.33194C150.761 1.44903 151.529 1.56612 152.417 1.69785C151.156 1.77103 150.053 1.83251 148.949 1.89691C148.949 1.9174 148.949 1.93789 148.949 1.95838C149.284 1.96717 149.62 1.97595 150.03 1.98473C149.717 2.175 149.859 2.23355 150.329 2.26283C151.209 2.32137 152.081 2.41505 152.954 2.49701C152.969 2.46481 152.984 2.43554 152.999 2.40334C152.238 2.33601 151.477 2.27161 150.575 2.19257C150.843 2.15159 150.977 2.13109 151.291 2.08133C150.821 2.05206 150.515 2.03449 150.209 2.014C150.217 1.99936 150.217 1.9818 150.224 1.96717C150.977 1.96717 151.731 1.96717 152.492 1.96717C152.492 1.98766 152.499 2.00522 152.499 2.02571C152.335 2.0462 152.178 2.06669 152.014 2.08426C152.484 2.1428 152.939 2.31552 153.394 2.06669C153.484 2.01693 153.924 2.06962 154.192 2.09889C154.58 2.13988 154.946 2.24233 155.334 2.25112C156.594 2.27454 157.862 2.2599 159.123 2.27453C159.354 2.27746 159.585 2.34186 159.817 2.37992C159.802 2.40626 159.787 2.43261 159.772 2.45895C159.041 2.45895 158.302 2.45895 157.571 2.45895C157.251 2.45895 156.937 2.45895 156.617 2.45895C156.318 2.46188 156.027 2.46774 155.729 2.46774C155.408 2.46774 155.155 2.42968 154.804 2.55263C154.521 2.65216 153.857 2.55556 153.364 2.55556C152.85 2.55556 152.328 2.56141 151.813 2.5819C151.268 2.60239 150.716 2.73412 150.239 2.50287C150.194 2.48237 150.075 2.47359 150 2.48237C149.157 2.57019 148.352 2.55263 147.569 2.34772C147.613 2.38577 147.658 2.42383 147.695 2.45895C147.457 2.48237 147.218 2.50287 147.002 2.52336C147.084 2.37699 147.136 2.28039 147.203 2.14866C147.673 2.19842 148.188 2.24819 148.695 2.30088C148.053 2.02278 147.226 2.02278 146.427 1.9818C145.92 1.95545 145.42 1.92033 144.913 1.90862C144.466 1.89691 144.018 1.92325 143.571 1.91447C143.078 1.90276 142.586 1.87642 142.101 1.83836C141.303 1.77689 140.505 1.70078 139.692 1.65979C140.55 1.92325 141.765 1.79445 142.713 2.13988C140.773 2.14573 138.998 2.13402 137.141 2.00522C137.35 1.87056 137.462 1.80031 137.588 1.71541C137.812 1.75054 138.058 1.7886 138.357 1.83543C138.103 1.66858 138.11 1.65687 136.91 1.54563C136.387 1.49586 135.835 1.50172 135.298 1.41975C135.977 1.39341 136.656 1.36706 137.327 1.33779C135.254 1.17679 133.143 1.48708 131.076 1.2324C132.315 1.09775 133.605 1.41097 134.828 1.13288C134.329 1.15337 133.821 1.17678 133.307 1.19728C133.419 1.12117 133.516 1.05676 133.613 0.989437L133.628 0.995293C132.285 1.01871 130.942 1.05676 129.6 1.06555C128.63 1.0714 127.66 1.04213 126.698 1.01286C126.176 0.99529 125.654 0.951381 125.146 0.904542C125.012 0.892833 124.908 0.825506 124.721 0.758176C124.781 0.854778 124.818 0.922107 124.863 0.998218C124.445 1.05969 123.856 1.07726 123.722 1.34657C123.08 1.32608 122.424 1.31144 121.775 1.27924C121.372 1.25875 120.88 1.36121 120.589 1.13873C120.559 1.11531 120.35 1.12409 120.223 1.12995C119.284 1.16215 118.351 1.19142 117.411 1.2324C117.277 1.23826 117.15 1.29973 117.023 1.38463C118.776 1.04506 120.35 1.51343 122.029 1.53685C121.036 1.63052 120.037 1.71541 119.008 1.63052C118.53 1.59247 118.045 1.56905 117.561 1.53977C117.27 1.52221 116.949 1.53685 116.695 1.48708C116.449 1.43732 116.27 1.32315 116.031 1.22655C116.337 1.18264 116.561 1.15044 116.785 1.11824C116.203 1.1036 115.621 1.08604 115.047 1.0714C115.658 0.951381 116.263 0.857705 116.777 1.12409C117.232 1.10653 117.687 1.07433 118.142 1.0714C119.149 1.06262 120.164 1.06847 121.26 1.06848C121.119 1.10946 121.051 1.12702 120.984 1.14751C120.992 1.168 121.007 1.18557 121.014 1.20606C121.529 1.1563 122.036 1.09189 122.558 1.05677C123.013 1.02749 123.483 1.03335 123.953 1.02164C123.946 0.986509 123.931 0.951381 123.923 0.916253C122.043 0.916253 120.171 0.916253 118.292 0.916253C118.284 0.892833 118.277 0.869414 118.269 0.84307C118.575 0.807941 118.873 0.775741 119.179 0.740613C119.037 0.673286 118.911 0.611812 118.672 0.49472C118.694 0.617667 118.709 0.673286 118.724 0.752322C117.904 0.752322 117.083 0.752322 116.128 0.752322C116.27 0.728904 116.375 0.711339 116.531 0.684993C115.987 0.597173 115.524 0.523992 115.039 0.447881C115.479 0.415681 115.897 0.386407 116.322 0.354207C116.322 0.342498 116.315 0.333715 116.315 0.322005C115.755 0.322005 115.189 0.322005 114.569 0.322005C114.525 0.488864 114.487 0.655721 114.435 0.857707C113.63 0.822579 112.817 0.758176 112.011 0.758176C111.302 0.758176 110.601 0.837216 109.893 0.872344C109.617 0.884053 109.333 0.866488 109.05 0.860635L109.065 0.869416C108.378 0.620593 107.617 0.731831 107.021 0.886979C106.693 0.971871 106.536 0.968945 106.23 0.933817C105.984 0.904543 105.693 0.933816 105.432 0.91918C105.231 0.907471 105.037 0.869414 104.843 0.84307C104.44 0.84307 104.037 0.84307 103.634 0.84307C103.88 0.74354 104.127 0.676213 104.373 0.682066C104.529 0.684994 104.679 0.790377 104.828 0.848925C105.395 0.758177 105.954 0.652794 106.528 0.576684C106.767 0.544482 107.051 0.570828 107.424 0.570828C106.797 0.342496 106.17 0.403971 105.596 0.442027C104.79 0.497645 104.007 0.603028 103.194 0.68792C103.254 0.717194 103.351 0.772814 103.455 0.828433C103.44 0.851853 103.418 0.878197 103.403 0.901616C103.038 0.884053 102.672 0.866488 102.239 0.845997C101.747 0.980654 101.053 0.889906 100.412 0.889906C99.7481 0.889906 99.0842 0.845995 98.398 0.822577C98.3756 0.781595 98.3458 0.723049 98.3309 0.699631C98.6516 0.638157 98.9724 0.576683 99.3304 0.506428C98.9798 0.310297 98.2563 0.529844 98.219 0.245894C98.9574 0.18442 99.6213 0.128802 100.278 0.0731834C100.278 0.0497649 100.278 0.0234187 100.278 2.9198e-07C99.5691 2.61006e-07 98.8605 2.30031e-07 98.0623 1.95144e-07C97.8609 0.181494 94.9668 0.608883 93.7137 0.570827C93.8106 0.626446 93.8778 0.664501 93.9673 0.708412C93.2587 0.708412 92.565 0.708412 91.8712 0.708412C91.7668 0.708412 91.6326 0.679138 91.5654 0.696701C90.7822 0.919178 90.0512 0.611809 89.3277 0.717193C89.3724 0.582537 89.4023 0.494718 89.4321 0.409826L89.4545 0.418608C88.7981 0.579609 87.8359 0.65572 87.8209 0.538625C87.9552 0.526916 88.0895 0.515209 88.2237 0.506428C88.1417 0.459591 88.0671 0.415678 87.9925 0.371769C86.5305 0.58839 84.2256 0.658647 83.2037 0.564973C83.3156 0.635229 83.3753 0.711338 83.4573 0.717193C83.9049 0.737684 84.3599 0.752323 84.8149 0.746467C86.0681 0.728904 87.3212 0.693775 88.5818 0.682066C88.731 0.67914 88.8801 0.766958 89.0293 0.813795C88.8801 0.860632 88.7533 0.936743 88.5892 0.95138C87.4554 1.06555 86.3589 0.892833 85.2401 0.860633C84.8597 0.848924 84.4718 0.930889 84.0765 0.945526C83.793 0.954307 83.4946 0.922107 83.2037 0.910398C82.9725 0.901615 82.7413 0.892831 82.51 0.88405C82.4951 0.907468 82.4877 0.930889 82.4727 0.954307C82.6816 0.983581 82.8979 1.00993 83.2932 1.06262C82.3981 1.25289 81.5851 1.09775 80.8467 1.17971C80.8765 1.11238 80.8914 1.07433 80.9063 1.03334C81.2569 1.01871 81.6597 1.00115 82.055 0.986509C82.055 0.96309 82.0476 0.942598 82.0476 0.919179C81.5627 0.919179 81.0853 0.919179 80.6005 0.919179C80.593 0.901615 80.593 0.884052 80.5856 0.869415C80.7795 0.85185 80.9809 0.831359 81.2942 0.802085C80.2798 0.655719 79.325 1.0714 78.415 0.778667C77.7809 0.805011 77.0872 0.837213 76.3861 0.854778C76.2891 0.857703 76.1772 0.769885 75.9982 0.690847C75.3567 0.690847 74.581 0.690847 73.6635 0.690847C73.9096 0.641084 74.0439 0.617663 74.1707 0.591317C74.1558 0.564971 74.1409 0.538627 74.1259 0.512281C72.7311 0.728902 71.2393 0.591317 69.8295 0.831357C70.5381 0.831357 71.2393 0.831357 71.9479 0.831357C68.8673 0.986506 65.8016 1.23826 62.6762 1.12116C62.7955 1.11238 62.9074 1.10653 63.0268 1.09774C63.4818 1.05969 63.9442 1.06847 64.4067 1.03334C65.6225 0.936742 66.8906 0.966016 68.1363 0.92796C68.5764 0.916251 69.009 0.860631 69.4491 0.825503C69.4416 0.802085 69.4267 0.781592 69.4192 0.758174C68.4943 0.781592 67.5694 0.813794 66.6444 0.825503C64.9512 0.845996 63.258 0.857705 61.5648 0.857705C60.7219 0.857705 59.8716 0.790375 59.0361 0.813794C58.3499 0.834284 57.686 0.954306 57.0072 1.01871C56.6343 1.05384 56.2389 1.09189 55.8585 1.08018C54.6501 1.05091 53.4492 0.998215 52.2408 0.957232C52.2334 0.983578 52.2185 1.00993 52.211 1.03627C52.4348 1.05384 52.6511 1.06847 52.8749 1.08603C52.8823 1.10653 52.8823 1.12702 52.8898 1.14751C51.9574 1.19435 51.025 1.24411 50.0926 1.29095C50.0851 1.27924 50.0777 1.2646 50.0702 1.25289C50.3388 1.21776 50.6073 1.17971 50.8758 1.14458C49.7868 1.22947 48.7947 0.945524 47.6982 1.02456C46.5719 1.10653 45.4083 1.11531 44.2596 1.15336C44.2447 1.18264 44.2223 1.20898 44.2074 1.23826C44.4386 1.29973 44.6698 1.3612 45.0353 1.46073C44.5728 1.46951 44.2074 1.4783 43.8344 1.48708C43.8269 1.46951 43.8195 1.45195 43.812 1.43439C43.8941 1.4139 43.9761 1.39048 44.0656 1.36999C44.0358 1.35828 44.0134 1.33778 43.9836 1.33486C43.5659 1.2968 43.1407 1.2646 42.723 1.22947C42.6186 1.22069 42.4694 1.19435 42.4246 1.21191C41.7757 1.44902 41.1566 1.17385 40.5076 1.19727C39.8512 1.22069 39.1799 1.16215 38.516 1.14165C38.5086 1.10945 38.4936 1.07725 38.4862 1.04798C39.0382 0.998216 39.5901 0.910396 40.1496 0.901613C42.1785 0.869413 44.2148 0.869411 46.2437 0.843067C47.1836 0.831356 48.1159 0.77574 49.0558 0.755247C49.3392 0.749393 49.6227 0.799158 49.9136 0.799158C50.8161 0.799158 51.7187 0.790375 52.6213 0.781593C52.666 0.781593 52.7108 0.752319 52.7481 0.711338C52.0693 0.781593 51.4726 0.582535 50.7341 0.682064C50.1523 0.758175 49.4511 0.646934 48.7947 0.644009C47.8549 0.635225 46.9075 0.655718 45.9677 0.649864C45.632 0.646936 45.2889 0.570825 44.9607 0.576681C44.4311 0.585462 43.909 0.644008 43.3868 0.670355C41.6265 0.752321 39.8661 0.866487 38.0983 0.892831C36.4573 0.919177 34.7715 0.927959 33.1753 0.793302C31.9744 0.690845 30.9898 0.810865 29.9455 0.960158C29.7888 0.983577 29.6844 1.07432 29.5128 1.15336C28.6849 1.12116 27.745 1.08311 26.8499 1.04798C27.5287 0.673282 28.6178 0.945521 29.4606 0.749391C28.4164 0.749391 27.3721 0.749391 26.1637 0.749391C26.477 0.796227 26.6635 0.825501 27.014 0.878194C26.6635 0.925031 26.4621 0.971869 26.2607 0.974797C24.8285 0.998216 23.4038 1.00114 21.9717 1.03627C19.5847 1.09189 17.1978 1.16214 14.8109 1.23533C12.9088 1.2968 11.0067 1.37877 9.09717 1.44024C8.78391 1.44902 8.46317 1.39633 8.1424 1.36998C8.1424 1.34657 8.14987 1.32022 8.14987 1.2968C9.58948 1.168 11.0142 1.01285 12.4687 0.922104C14.0053 0.825503 15.5643 0.790373 17.1158 0.728899C17.1083 0.699625 17.1083 0.670353 17.1008 0.644007C16.0118 0.682063 14.9302 0.711335 13.8412 0.758171C12.7671 0.80501 11.6855 0.857702 10.6114 0.919176C9.50742 0.983576 8.41095 1.05969 7.30698 1.13287C6.21048 1.20313 5.11401 1.27338 3.93546 1.35242C3.92053 1.24996 3.93546 1.16214 3.88324 1.0831C3.83103 1.00407 3.73404 0.89283 3.59232 0.872339C3.4357 0.848921 3.07764 0.889902 3.0329 0.939667C2.61517 1.36998 1.64548 1.59539 0.862275 1.97301C1.23523 1.99936 1.47394 2.00521 1.69772 2.03448C1.94388 2.06669 2.18256 2.1223 2.41379 2.17207C2.5257 2.19549 2.62265 2.23062 2.72705 2.26282C2.76437 2.21013 2.77185 2.15158 2.83896 2.1106C3.01053 2.00228 3.16715 1.88226 3.40585 1.80908C3.51773 1.77395 3.80121 1.83836 4.04733 1.85885C3.57742 2.04327 3.21191 2.18963 2.71216 2.38576C3.1597 2.42382 3.40585 2.4326 3.62964 2.4648C3.89072 2.50578 4.13684 2.56726 4.39047 2.61703C4.50235 2.64044 4.6217 2.67557 4.72614 2.67264C4.7858 2.66972 4.88278 2.59068 4.86786 2.55262C4.77087 2.2716 5.27811 2.27453 5.77042 2.14865C5.63614 2.28331 5.56152 2.34186 5.52423 2.40626C5.32285 2.76339 5.35269 2.77803 6.23288 2.79266C6.44171 2.79559 6.64313 2.81608 6.85196 2.83072C7.03845 2.84243 7.21747 2.85707 7.40396 2.86877C7.23987 3.19956 7.26224 3.20542 8.07529 3.22883C8.5079 3.24054 8.93308 3.2786 9.35825 3.35178C9.13449 3.35178 8.89578 3.36642 8.67947 3.34886C7.95593 3.29324 7.38156 3.24933 6.76245 3.56548C6.37457 3.76454 5.37509 3.75282 4.63663 3.82308C4.42032 3.84357 4.18161 3.82601 3.78629 3.82601C4.30097 4.03385 4.71866 4.20656 5.06177 4.34415C4.89768 4.67493 4.79324 4.95303 4.5993 5.21942C4.5098 5.34236 4.23383 5.43896 4.03989 5.54728C3.92798 5.60875 3.73404 5.6673 3.71167 5.7317C3.57742 6.2352 3.67438 6.72992 4.06973 7.21C4.0921 7.23927 4.18906 7.25976 4.31586 7.3066C4.03989 7.40613 3.78626 7.4998 3.52521 7.5964C3.91309 7.83937 3.4357 8.00623 3.05527 8.18187C4.03241 8.41606 4.65152 8.70586 4.43521 9.21521C4.39792 9.29425 4.79324 9.40549 4.96481 9.48746C4.53964 9.58699 4.1294 9.68066 3.59232 9.80653C3.92798 9.86508 4.0921 9.89435 4.29349 9.92948C4.11447 9.99388 3.9429 10.0524 3.71167 10.1344C3.99512 10.2105 4.22635 10.2749 4.5322 10.3598C4.3457 10.4505 4.17416 10.5325 4.02496 10.6057C4.15924 10.7345 4.52472 10.9365 4.42032 11.0038C4.16669 11.1619 3.6893 11.2585 3.23431 11.399C3.36111 11.7034 4.27112 11.6595 4.81564 11.8557C4.48743 11.9435 4.18161 12.0225 3.88324 12.1016C3.95038 12.1074 4.01749 12.1133 4.08463 12.1191C4.13684 12.2274 4.30093 12.3533 4.2189 12.4382C3.98019 12.6812 3.65949 12.9124 3.33127 13.1378C3.16718 13.252 3.12241 13.3135 3.36856 13.4335C3.74899 13.6179 4.15924 13.8316 3.64456 14.1038C3.54013 14.1595 3.47299 14.2707 3.53265 14.3322C3.90561 14.7186 3.15225 14.9967 3.05527 15.345C3.1597 15.3977 3.29395 15.4621 3.47299 15.5499C3.18207 15.5675 2.98068 15.5792 2.94339 15.5792C3.09256 15.6934 3.30142 15.8222 3.42078 15.9627C3.59235 16.1588 3.54013 16.3901 4.11447 16.5072C4.24875 16.5335 4.31586 16.6828 4.29349 16.7736C4.2562 16.9756 4.38303 17.1161 4.86786 17.1775C5.00214 17.1951 5.12894 17.2302 5.26318 17.2595C5.23337 17.2888 5.19605 17.321 5.16623 17.3503C4.7858 17.4088 4.4054 17.4703 4.02496 17.5288C4.02496 17.5464 4.01752 17.561 4.01752 17.5786C4.37555 17.5874 4.7485 17.5786 5.09161 17.6108C5.32285 17.6313 5.57648 17.6957 5.72565 17.7718C5.93451 17.883 6.05386 18.0235 6.21796 18.1494C6.56854 18.4158 6.47903 18.5153 5.79279 18.6324C5.62869 18.6617 5.47202 18.6968 5.3154 18.7319C5.33029 18.7554 5.33777 18.7759 5.35269 18.7993C5.85245 18.7993 6.34476 18.7993 6.86691 18.7993C7.09814 19.0013 7.38156 19.215 7.58298 19.4433C7.7247 19.6101 7.64264 19.7653 7.40396 19.9468C6.94894 20.2922 7.29953 20.4883 8.34381 20.5323C8.1424 20.6025 7.96338 20.664 7.79184 20.7225C7.81421 20.743 7.83658 20.7635 7.85895 20.7811C8.20209 20.7401 8.5452 20.6991 8.95544 20.6493C9.12701 20.7694 9.18668 20.9889 9.77597 20.9948C9.85056 20.9948 9.91022 21.1148 9.99973 21.1733C10.1042 21.2407 10.2011 21.3373 10.3503 21.3636C10.8799 21.4485 10.9843 21.6329 11.0515 21.832L11.0366 21.8261C11.5587 21.6944 11.5587 21.6944 12.5955 21.8554C12.2002 22.075 12.1405 22.0808 11.7004 21.9257C11.7377 21.9871 11.7452 22.0603 11.8272 22.1159C11.8869 22.1598 12.1181 22.2184 12.1331 22.2125C12.6776 21.9754 13.2668 22.1657 13.8412 22.1686C14.147 22.1716 14.4529 22.1423 14.7661 22.1306C14.8258 22.1598 14.8855 22.1891 14.9451 22.2213C14.5871 22.3062 14.2291 22.3882 13.8785 22.4731C13.9531 22.517 14.0277 22.5609 14.1022 22.6077C14.8705 22.5228 15.6314 22.4145 16.4146 22.3589C17.0859 22.3091 17.7871 22.3121 18.4733 22.3062C19.4057 22.2974 20.3456 22.3121 21.278 22.3033C22.1283 22.2945 22.9786 22.2711 23.829 22.2418C24.4332 22.2213 25.0374 22.1657 25.6415 22.1628C26.1488 22.1598 26.656 22.2155 27.1632 22.2447L27.1408 22.236C27.8047 22.2038 28.476 22.1686 29.1399 22.1364C29.2443 22.1306 29.4084 22.1247 29.4457 22.1481C30.0051 22.476 30.8406 22.3004 31.6685 22.3648C31.3925 22.4994 31.1613 22.6136 30.9301 22.7248C30.945 22.7424 30.9599 22.7629 30.9749 22.7804C31.7357 22.6926 32.489 22.5814 33.2648 22.5258C33.8988 22.4819 34.5627 22.4994 35.2116 22.4965C36.5394 22.4936 37.8671 22.5082 39.1873 22.4877C40.806 22.4614 42.4171 22.4087 44.0358 22.3677C44.2223 22.3618 44.4088 22.3765 44.6698 22.3823C44.5356 22.4497 44.4535 22.4906 44.2521 22.5931C45.2218 22.5609 46.0497 22.7131 46.8777 22.476C47.1761 22.3911 47.6236 22.4087 48.0115 22.3413C48.75 22.2155 49.6078 22.2155 50.4208 22.1657C50.4432 22.1891 50.473 22.2125 50.4954 22.233C50.2567 22.3443 50.0255 22.4555 49.7868 22.5697C49.8092 22.5902 49.839 22.6107 49.8614 22.6311C50.652 22.5345 51.4353 22.4116 52.2483 22.3501C52.8227 22.3062 53.4268 22.3413 54.0161 22.3384C55.3811 22.3355 56.7536 22.3531 58.1186 22.3267C59.2077 22.3062 60.2892 22.2096 61.3783 22.195C62.0049 22.1862 62.6389 22.2799 63.2729 22.3062C64.0487 22.3384 64.802 22.4116 65.5927 22.2272C66.0402 22.1247 66.6892 22.1745 67.2486 22.1628C67.5172 22.1569 67.7857 22.1745 68.1139 22.1803C68.0393 22.1159 68.002 22.075 67.9498 22.034C68.2854 22.034 68.5987 22.034 69.0015 22.034C68.8225 22.1452 68.6883 22.233 68.4346 22.3882C69.3521 22.2799 70.098 22.1598 70.8738 22.1072C71.5078 22.0632 72.1791 22.0691 72.8281 22.0896C74.76 22.1511 76.6844 22.236 78.6164 22.0867C79.0042 22.0574 79.4145 22.0896 79.8173 22.0984C80.317 22.1072 80.8243 22.1159 81.324 22.1306C81.6075 22.1394 82.0327 22.034 82.0401 22.2857C82.0401 22.3033 82.1818 22.3326 82.2564 22.3326C82.9277 22.3326 83.6438 22.3882 84.248 22.3062C85.2699 22.1628 86.262 22.2623 87.2615 22.2682C87.6121 22.2711 87.9701 22.2799 88.3207 22.2887C89.7305 22.315 91.1403 22.3443 92.55 22.3677C93.0423 22.3765 93.5421 22.3677 93.8927 22.3677C93.4377 22.517 92.9006 22.6956 92.2442 22.9122C93.6689 23.0439 94.8325 22.9005 96.1155 22.76C95.3696 22.6604 94.7654 22.5785 94.1165 22.4906C94.7579 22.274 95.474 22.2769 96.1826 22.2799C96.2647 22.2799 96.3915 22.2857 96.4139 22.3091C96.8465 22.6751 97.6223 22.5463 98.3085 22.5521C98.3682 22.5521 98.4353 22.558 98.6143 22.5697C98.3234 22.7073 98.0698 22.8273 97.8237 22.9444C97.8386 22.9619 97.8535 22.9824 97.8684 23C98.6516 22.9151 99.4199 22.8097 100.218 22.7512C100.852 22.7043 101.508 22.7102 102.157 22.7073C103.44 22.7014 104.716 22.7278 105.999 22.7014C107.237 22.678 108.468 22.5872 109.714 22.5609C111.041 22.5316 112.369 22.5404 113.697 22.5345C114.487 22.5316 115.278 22.5345 116.181 22.5345C116.181 22.4057 116.181 22.274 116.181 22.1159C118.254 22.0837 120.395 22.0632 122.536 22.0164C123.923 21.9871 125.303 21.8993 126.683 21.8759C127.69 21.8583 128.704 21.9022 129.719 21.9227C130.204 21.9315 130.689 21.9549 131.173 21.9696C133.307 22.034 135.44 22.1013 137.581 22.1599C138.707 22.1891 139.834 22.2067 140.967 22.2243C142.743 22.2506 144.518 22.2652 146.293 22.3004C148.389 22.3413 150.493 22.4028 152.589 22.4467C154.55 22.4877 156.512 22.4877 158.466 22.558C160.339 22.6253 162.166 22.5082 164.016 22.4614C164.874 22.4409 165.732 22.4584 166.589 22.4497C168.238 22.435 169.886 22.4292 171.535 22.3882C172.878 22.356 174.213 22.274 175.555 22.2301C176.853 22.1862 178.151 22.1745 179.442 22.1247C180.814 22.072 182.187 21.9842 183.559 21.9286C184.133 21.9052 184.723 21.9403 185.297 21.9344C186.572 21.9257 187.855 21.9257 189.124 21.8876C190.414 21.8466 191.704 21.7617 192.987 21.7003C194.255 21.6388 195.531 21.5568 196.799 21.5305C198.38 21.4954 199.969 21.5129 201.558 21.5012C202.117 21.4954 202.669 21.4632 203.229 21.4485C204.467 21.4163 205.713 21.39 206.951 21.3578C207.659 21.3373 208.368 21.3021 209.084 21.2817C209.457 21.2729 209.838 21.2904 210.211 21.2875C211.352 21.2787 212.5 21.2641 213.642 21.2553C214.156 21.2524 214.679 21.2495 215.193 21.2612C215.909 21.2787 216.573 21.308 217.312 21.1733C217.931 21.0621 218.744 21.1558 219.475 21.1499C219.796 21.147 220.109 21.1148 220.43 21.0972C220.43 21.0738 220.43 21.0504 220.43 21.027C219.609 20.9889 218.789 20.9479 217.968 20.9099C217.975 20.8894 217.983 20.8689 217.983 20.8513C218.968 20.8513 219.945 20.8513 221.049 20.8513C220.914 20.784 220.855 20.7547 220.765 20.7079C222.257 20.503 223.764 20.7079 225.3 20.6523C225.211 20.5879 225.151 20.541 225.054 20.4737C226.285 20.4737 227.478 20.4737 228.679 20.4737C228.679 20.462 228.679 20.4474 228.679 20.4357C228.284 20.3976 227.881 20.3566 227.486 20.3186C227.493 20.2834 227.501 20.2512 227.508 20.2161C229.321 20.1868 231.133 20.1576 232.953 20.1312C232.961 20.1195 232.968 20.1107 232.976 20.099C232.066 20.0258 231.148 19.9527 230.238 19.8795C230.246 19.8414 230.253 19.8063 230.268 19.7682C230.477 19.7624 230.723 19.7243 230.887 19.7594C231.447 19.8765 231.976 19.8443 232.573 19.8121C233.61 19.7565 234.662 19.7624 235.758 19.7419C235.646 19.4579 235.922 19.4345 236.526 19.4609C238.07 19.5253 239.629 19.534 241.181 19.5633C241.188 19.534 241.203 19.5048 241.211 19.4755C241.054 19.4609 240.905 19.4404 240.748 19.4316C240.569 19.4228 240.383 19.4228 240.077 19.417C240.323 19.3379 240.48 19.2911 240.636 19.2413C240.48 19.212 240.293 19.1798 239.95 19.1154C240.234 19.0949 240.39 19.0832 240.539 19.0715L240.524 19.0774C240.077 19.0569 239.629 19.0247 239.182 19.0188C238.264 19.0042 237.347 19.0013 236.429 18.9983C235.534 18.9983 234.639 19.013 233.744 19.0071C233.386 19.0042 233.028 18.9603 232.67 18.9339C232.677 18.9105 232.685 18.8842 232.685 18.8608C233.968 18.8432 235.258 18.8344 236.541 18.7993C237.779 18.7671 239.085 19.0452 240.435 18.6354C240.047 18.5914 239.808 18.5417 239.562 18.5388C237.727 18.5124 235.892 18.4802 234.057 18.4861C232.864 18.489 231.678 18.5505 230.484 18.5856C230.402 18.5885 230.32 18.5797 230.231 18.5329C230.716 18.5153 231.208 18.5007 231.693 18.4831C231.7 18.4685 231.708 18.4509 231.715 18.4363C231.424 18.4158 231.126 18.3719 230.835 18.3778C229.806 18.3953 228.732 18.5212 227.762 18.4304C226.621 18.3221 225.591 18.568 224.51 18.4802C224.331 18.4656 224.174 18.4129 223.92 18.3602C224.584 18.3338 225.091 18.3163 225.606 18.2958C225.599 18.2694 225.599 18.2431 225.591 18.2167C224.935 18.2167 224.278 18.2167 223.622 18.2167C223.622 18.2021 223.622 18.1875 223.622 18.1728C224.86 18.1465 226.098 18.1172 227.337 18.0909C227.337 18.0704 227.337 18.047 227.337 18.0265C224.756 18.0265 222.182 18.0265 219.602 18.0265C219.594 18.0177 219.594 18.0089 219.587 18.0001C220.258 17.9445 220.929 17.8713 221.608 17.8391C223.279 17.7572 224.942 17.6723 226.621 17.6313C228.254 17.5903 229.888 17.6137 231.521 17.5932C232.401 17.5815 233.282 17.5376 234.162 17.5054C234.639 17.4878 235.109 17.4615 235.586 17.3971C234.572 17.3971 233.558 17.3971 232.543 17.3971C232.536 17.3883 232.536 17.3795 232.536 17.3737C232.73 17.3532 232.924 17.3298 233.118 17.3093C232.483 17.2127 231.738 17.441 231.066 17.1131C233.386 16.9785 235.609 16.8497 237.839 16.7238C237.854 16.7414 237.862 16.756 237.876 16.7736C237.772 16.7531 237.668 16.7355 237.541 16.7121C237.615 16.6858 237.645 16.6653 237.675 16.6653C237.862 16.6623 238.048 16.6623 238.242 16.6623C238.361 16.8614 239.547 16.8702 241.352 16.6594C240.875 16.677 240.398 16.6916 239.92 16.7092C239.92 16.6916 239.913 16.674 239.913 16.6536C242.956 16.5043 245.992 16.352 249.035 16.2028C249.035 16.1764 249.028 16.1471 249.028 16.1208C248.909 16.1149 248.782 16.1091 248.662 16.1091C248.051 16.1091 247.305 16.0183 246.857 16.1354C246.357 16.2672 245.865 16.2232 245.395 16.2701C244.575 16.355 243.71 16.352 242.859 16.3813C242.016 16.4106 241.173 16.4428 240.331 16.4486C238.958 16.4574 237.586 16.4399 236.213 16.4457C235.057 16.4486 233.908 16.4662 232.752 16.4779C232.58 16.4808 232.416 16.4867 232.215 16.4926C232.804 16.3316 232.804 16.3491 233.535 16.3755C233.841 16.3872 234.154 16.2964 234.475 16.2847C235.087 16.2584 235.698 16.2584 236.31 16.235C236.556 16.2262 236.817 16.2496 237.004 16.0974C237.108 16.0095 237.593 16.0037 237.906 15.9627C237.921 15.9861 237.944 16.0125 237.959 16.0359C237.727 16.0798 237.496 16.1208 237.265 16.1647C237.272 16.1823 237.272 16.1969 237.28 16.2145C237.869 16.2145 238.451 16.2203 239.04 16.2145C239.905 16.2057 240.771 16.194 241.636 16.1764C242.158 16.1676 242.755 16.2057 243.195 16.1149C244.232 15.9071 245.261 16.0886 246.283 16.0505C247.454 16.0095 248.633 15.9803 249.811 15.9539C250.482 15.9393 251.146 15.9364 251.818 15.9276C252.228 15.9217 252.638 15.9276 253.041 15.91C253.369 15.8954 253.69 15.9129 254.003 15.7724C254.227 15.67 254.801 15.708 255.226 15.6846C255.793 15.6553 256.36 15.629 256.92 15.547C251.392 15.8603 245.835 15.8368 240.286 15.8456C240.278 15.8193 240.278 15.79 240.271 15.7637C241.158 15.7256 242.054 15.6875 242.941 15.6495C242.956 15.6348 242.971 15.6202 242.986 15.6026C242.516 15.5178 242.054 15.4358 241.584 15.3509C241.591 15.3304 241.591 15.3128 241.599 15.2924C242.501 15.2924 243.404 15.2924 244.448 15.2924C244.038 15.1987 243.747 15.1313 243.448 15.064C242.262 15.2045 241.106 15.2455 240.062 14.9235C240.069 14.8913 240.084 14.8591 240.092 14.8269C241.211 14.9059 242.322 14.9879 243.441 15.0669C243.538 15.0669 243.642 15.0669 243.896 15.0669C243.68 14.9967 243.575 14.9616 243.471 14.9294C243.486 14.9089 243.501 14.8855 243.516 14.865C244.023 14.9177 244.53 14.9733 245.037 15.026C245.045 14.9938 245.06 14.9586 245.067 14.9264C244.142 14.8796 243.21 14.8357 242.24 14.7859C242.419 14.7567 242.583 14.7332 242.747 14.7069C242.68 14.6688 242.628 14.6396 242.635 14.6425C243.545 14.581 244.448 14.5166 245.351 14.4551C245.358 14.4698 245.365 14.4844 245.373 14.502C245.186 14.5254 245 14.5517 244.821 14.5752C246.596 14.6513 248.349 14.7127 250.206 14.5225C249.498 14.4522 248.953 14.3966 248.401 14.341C248.424 14.3029 248.446 14.2649 248.461 14.2268C249.132 14.2063 249.789 14.2151 250.348 14.4171C250.669 14.5312 250.811 14.5283 251.281 14.4112C251.377 14.3849 251.557 14.4142 251.698 14.4171C251.9 14.4229 252.101 14.4317 252.302 14.4376C252.31 14.4054 252.325 14.3732 252.332 14.338C251.281 14.259 250.221 14.1829 249.17 14.1039C249.17 14.0863 249.177 14.0687 249.177 14.0512C249.744 14.0717 250.318 14.1302 250.87 14.1009C251.445 14.0717 251.997 13.9604 252.534 13.8258C250.87 13.7965 249.229 14.0307 247.588 13.7877C249.095 13.7175 250.609 13.6443 252.041 13.5769C252.526 13.5272 252.951 13.4862 253.377 13.4423C253.377 13.4306 253.377 13.4189 253.377 13.4072C251.78 13.4423 250.191 13.4774 248.595 13.5096C248.588 13.4657 248.58 13.4218 248.573 13.375C252.601 13.2403 256.636 13.1027 260.679 12.9651C260.03 12.8334 259.381 12.8071 258.635 12.8627C258.046 12.9066 257.404 12.8451 256.688 12.8275C256.882 12.7866 256.994 12.7631 257.151 12.7309C256.964 12.6929 256.808 12.6636 256.599 12.6226C257.427 12.5787 258.195 12.5377 258.971 12.4997C258.971 12.485 258.971 12.4704 258.963 12.4558C258.464 12.4558 257.964 12.4558 257.464 12.4558C257.464 12.4265 257.464 12.3972 257.464 12.3709C258.576 12.3709 259.694 12.3738 260.806 12.3709C261.425 12.368 262.052 12.3445 262.671 12.3504C263.059 12.3533 263.454 12.4206 263.842 12.4148C264.685 12.4002 265.52 12.3533 266.363 12.3211L266.348 12.327C266.02 12.3006 265.699 12.2772 265.371 12.2509C265.259 12.2421 265.14 12.2333 265.043 12.163C266.072 12.1338 267.101 12.1016 268.131 12.0723C268.131 12.043 268.138 12.0137 268.138 11.9845C265.259 11.8088 262.35 11.7942 259.426 11.8059C259.642 11.8235 259.859 11.844 260.082 11.8615C260.09 11.8762 260.09 11.8908 260.097 11.9025C259.933 11.9084 259.776 11.9142 259.612 11.9171C258.516 11.9347 257.419 11.9464 256.323 11.9728C255.898 11.9845 255.48 12.0401 255.055 12.0489C254.607 12.0606 254.495 11.9464 254.667 11.7239C254.108 11.7854 253.615 11.8381 253.235 11.8791C253.556 11.9084 253.973 11.9435 254.391 11.9815C254.384 12.0108 254.376 12.0401 254.369 12.0694C252.258 12.1074 250.147 12.1455 248.043 12.1835C248.036 12.166 248.036 12.1484 248.028 12.1308C249.08 12.0869 250.132 12.0401 251.184 11.9962C251.184 11.9669 251.184 11.9376 251.184 11.9084C249.528 11.8879 247.872 11.8674 246.223 11.8469C246.231 11.8352 246.231 11.8205 246.238 11.8088C247.342 11.7503 248.446 11.6742 249.55 11.6361C250.117 11.6156 250.699 11.6742 251.266 11.6595C252.295 11.6303 253.324 11.5542 254.361 11.5337C255.42 11.5132 256.487 11.5366 257.554 11.5424C257.919 11.5424 258.285 11.5424 258.852 11.5424C258.583 11.4663 258.486 11.44 258.382 11.4107C258.382 11.3902 258.382 11.3697 258.382 11.3492C259.776 11.3492 261.164 11.3492 262.559 11.3492C262.559 11.3112 262.559 11.2731 262.566 11.238C260.783 11.1765 259.001 11.1151 257.091 11.0477C257.598 10.9921 257.964 10.9306 258.344 10.9131C258.792 10.8926 259.217 10.9072 259.694 10.9658C260.321 11.0419 261.074 10.9511 261.768 10.916C262.216 10.8955 262.663 10.8253 263.111 10.8194C263.901 10.8106 264.692 10.8253 265.483 10.8457C265.93 10.8575 266.37 10.8926 266.833 10.8633C266.706 10.8457 266.572 10.8253 266.445 10.8077C266.445 10.7901 266.445 10.7755 266.438 10.7579C266.907 10.7287 267.385 10.6994 267.855 10.6701C267.862 10.6467 267.862 10.6233 267.87 10.5999C266.534 10.5413 265.207 10.4681 263.872 10.433C263.215 10.4154 262.544 10.4974 261.88 10.5003C260.59 10.5032 259.299 10.4798 258.009 10.471C257.845 10.471 257.68 10.515 257.524 10.512C257.322 10.512 257.128 10.4857 257.032 10.4769C256.502 10.512 256.01 10.5911 255.57 10.5589C254.645 10.4915 253.824 10.6701 252.944 10.6965C252.653 10.7052 252.295 10.7638 252.079 10.714C251.012 10.4681 249.841 10.5501 248.715 10.5003C247.834 10.4623 246.932 10.4886 246.044 10.4769C245.582 10.471 245.127 10.4418 244.664 10.4242C244.381 10.4447 244.105 10.4798 243.821 10.4828C243.262 10.4886 242.703 10.471 242.151 10.4769C240.487 10.4915 238.831 10.5179 237.168 10.5208C236.526 10.5208 235.862 10.5062 235.281 10.2632C235.795 10.2749 236.228 10.2808 236.743 10.2925C236.601 10.2134 236.541 10.1754 236.355 10.0671C237.533 10.1695 238.525 10.2544 239.6 10.3481C239.585 10.354 239.689 10.2866 239.808 10.2837C240.308 10.2632 240.815 10.2398 241.315 10.2603C242.456 10.2866 243.575 10.3569 244.702 10.4154ZM142.899 2.49701C143.033 2.57019 143.16 2.6463 143.339 2.74583C142.72 2.7107 142.176 2.6785 141.557 2.64338C142.079 2.58776 142.489 2.54385 142.899 2.49701C142.974 2.49115 143.041 2.48237 143.25 2.45895C142.78 2.41505 142.444 2.38284 142.109 2.35064C142.474 2.31259 142.854 2.33893 143.168 2.28624C143.72 2.18964 144.033 2.35064 144.428 2.43846C144.578 2.47359 144.742 2.50286 144.891 2.53506C144.771 2.46188 144.66 2.3887 144.533 2.31259C144.578 2.29503 144.63 2.28039 144.675 2.26283C145.204 2.07255 145.562 2.10475 146.002 2.33893C146.159 2.42383 146.442 2.46774 146.651 2.52921C146.092 2.52921 145.488 2.52921 144.876 2.52921C144.771 2.70192 144.294 2.79267 144.026 2.64923C143.675 2.46188 143.265 2.54092 142.899 2.49701ZM231.73 8.42192C231.275 8.67952 230.768 8.4629 230.261 8.43363C230.305 8.48925 230.328 8.52438 230.358 8.5595C230.261 8.55658 230.156 8.5595 230.074 8.54487C229.865 8.50681 229.664 8.42777 229.455 8.42777C228.649 8.42192 227.844 8.44241 227.038 8.44534C226.926 8.44534 226.815 8.41314 226.703 8.39557C227.374 8.33995 228.068 8.38679 228.649 8.3019C229.492 8.17895 230.253 8.3341 231.059 8.32239C231.305 8.31946 231.559 8.38094 231.805 8.41314C232.446 8.42777 233.088 8.44241 233.729 8.45412C233.729 8.47754 233.722 8.50096 233.722 8.52438C233.155 8.52438 232.595 8.53023 232.028 8.51852C231.932 8.51559 231.827 8.45412 231.73 8.42192ZM94.8773 1.27046C94.6386 1.29388 94.3924 1.31144 94.1687 1.3495C94.0642 1.36706 94.0046 1.42853 93.8405 1.50757C93.2214 1.4783 92.4605 1.44024 91.6922 1.40512C91.6997 1.38755 91.6997 1.36706 91.7072 1.3495C92.2293 1.3495 92.7514 1.3495 93.4377 1.3495C93.1841 1.31144 93.0871 1.2968 92.9528 1.27339C93.6316 1.1036 94.2507 1.22069 94.8773 1.27046C95.2353 1.21191 95.5859 1.15044 96.026 1.07433C94.0269 1.07433 92.1472 1.07433 90.2675 1.07433C90.2675 1.04798 90.2675 1.02163 90.2675 0.992363C92.6843 0.992363 95.1011 0.992363 97.5178 0.992363C97.5178 1.00993 97.5253 1.02749 97.5253 1.04505C97.0703 1.05969 96.6078 1.07726 96.1528 1.09189C96.1528 1.11238 96.1528 1.13287 96.1528 1.15629C96.399 1.17386 96.6451 1.19142 96.8987 1.20898C96.8913 1.22948 96.8913 1.24997 96.8838 1.27046C96.2125 1.27046 95.5412 1.27046 94.8773 1.27046ZM68.1214 1.29095C68.1064 1.26167 68.099 1.2324 68.0841 1.20313C68.278 1.18264 68.4719 1.14751 68.6733 1.13873C69.919 1.08018 71.1722 1.02164 72.4178 0.974799C73.0444 0.951379 73.671 0.942597 74.2975 0.951379C75.5283 0.968944 76.759 1.007 77.9823 1.03334C78.3627 1.04213 78.7357 1.03334 79.1161 1.03334C78.4523 1.07725 77.7959 1.1036 77.1395 1.14166C76.7068 1.16507 76.1549 1.14751 75.8714 1.25289C75.5283 1.3817 75.2448 1.34657 74.9092 1.34657C74.6406 1.34657 74.3721 1.34071 74.0961 1.34071C73.3129 1.34071 72.5297 1.35535 71.754 1.34071C71.5898 1.33779 71.4407 1.23826 71.2467 1.16507C70.3293 1.45488 69.2029 1.22655 68.1214 1.29095ZM202.311 2.95367C202.281 2.96538 202.408 2.88049 202.49 2.88928C203.05 2.93611 203.706 2.94489 204.131 3.07955C204.81 3.29324 205.422 3.34301 206.041 3.19664C206.317 3.27861 206.533 3.34301 206.809 3.42497C206.876 3.31959 206.914 3.25519 206.928 3.23762C208.495 3.23762 210.009 3.23762 211.576 3.23762C212.113 3.4279 212.866 3.42497 213.597 3.44546C213.798 3.45132 214 3.44546 214.201 3.44546C214.201 3.46888 214.201 3.48938 214.201 3.51279C213.933 3.52743 213.672 3.55963 213.403 3.55378C212.374 3.53329 211.352 3.49523 210.33 3.48059C209.136 3.46303 207.943 3.48059 206.757 3.45425C205.563 3.42498 204.377 3.36057 203.184 3.30495C203.072 3.2991 202.938 3.27861 202.863 3.24641C202.699 3.1703 202.557 3.0854 202.311 2.95367ZM59.0212 1.46951C56.1196 1.46951 53.2777 1.46951 50.4357 1.46951C50.4357 1.42853 50.4283 1.38755 50.4283 1.34657C51.756 1.31437 53.0763 1.26753 54.404 1.25289C55.3438 1.24118 56.2837 1.29973 57.2161 1.27338C57.8576 1.25875 58.4618 1.21484 59.0212 1.46951ZM15.2808 1.42268C15.2733 1.39633 15.2659 1.36706 15.2659 1.34071C16.1759 1.29095 17.0784 1.22069 17.9959 1.2002C18.7568 1.18263 19.5325 1.2324 20.3008 1.23533C20.905 1.23533 21.5017 1.20898 21.9344 1.19727C22.1731 1.30851 22.3148 1.37291 22.4267 1.42268C21.4719 1.58368 20.4724 1.329 19.4281 1.52513C18.7642 1.64808 17.8467 1.5222 17.0412 1.51049C17.0412 1.47829 17.0337 1.44609 17.0337 1.41097C17.4962 1.38462 17.9586 1.35535 18.4659 1.32607C17.3321 1.17093 16.3475 1.56026 15.2808 1.42268ZM234.885 10.1578C234.855 10.1871 234.826 10.2164 234.796 10.2456C234.512 10.1754 234.236 10.0671 233.931 10.0466C233.587 10.0232 233.222 10.0846 232.842 10.1081C232.745 10.0524 232.625 9.97926 232.498 9.90607C232.491 9.93242 232.483 9.96169 232.476 9.98804C232.073 10.0261 231.67 10.0788 231.26 10.0963C230.969 10.111 230.552 10.0232 230.38 10.0817C229.835 10.2632 229.44 10.0993 228.985 10.0202C229.269 10.0056 229.56 9.99097 229.985 9.97047C229.753 9.92364 229.664 9.90607 229.403 9.85338C230.775 9.85338 231.954 9.85338 233.14 9.85338C233.326 9.85338 233.528 9.85631 233.707 9.83582C234.177 9.78313 234.557 9.81825 234.848 10.0202C234.744 10.0437 234.639 10.0641 234.512 10.0905C234.647 10.1139 234.766 10.1344 234.885 10.1578ZM70.6052 2.46481C70.9633 2.42675 71.2542 2.37406 71.5526 2.3682C72.567 2.35357 73.574 2.1106 74.6108 2.33893C74.6854 2.35649 74.8943 2.34478 74.9017 2.33015C75.0211 2.1428 75.3791 2.23062 75.6178 2.22476C76.0802 2.21306 76.5502 2.21598 77.0052 2.24233C77.2513 2.25696 77.4826 2.33308 77.7213 2.37991C77.6914 2.40919 77.6616 2.43553 77.6392 2.46481C75.3194 2.46481 72.9996 2.46481 70.6052 2.46481ZM22.5311 1.24996C24.3213 1.24996 26.1413 1.24996 27.9539 1.24996C27.9539 1.28802 27.9614 1.329 27.9614 1.36706C27.7227 1.37877 27.4914 1.3934 27.2527 1.39926C26.9469 1.40804 26.6411 1.40511 26.3353 1.4139C25.9996 1.4256 25.6639 1.45195 25.3208 1.46073C24.821 1.47537 24.3138 1.48415 23.8141 1.48708C23.2919 1.49001 22.7996 1.43731 22.5311 1.24996ZM130.651 2.04913C130.651 2.06669 130.651 2.08718 130.651 2.10475C130.465 2.13402 130.241 2.14573 130.107 2.19842C129.876 2.2921 129.905 2.30088 129.726 2.20135C129.667 2.16915 129.51 2.13109 129.458 2.1428C128.54 2.35942 127.63 2.13109 126.743 2.10475C126.191 2.08718 125.587 2.01107 124.99 1.99058C124.766 1.9818 124.55 1.95838 124.326 1.94082C124.333 1.92325 124.341 1.90569 124.348 1.89105C125.557 1.89105 126.758 1.89105 127.973 1.89105C127.959 1.92033 127.936 1.9818 127.914 2.0462C128.861 2.04913 129.756 2.04913 130.651 2.04913ZM60.3713 2.50579C60.3862 2.53799 60.4012 2.56726 60.4086 2.59946C58.7378 2.73997 57.0371 2.75754 55.3066 2.70192C55.7616 2.60825 56.2315 2.54384 56.7089 2.49408C56.8357 2.48237 57.0445 2.49408 57.1191 2.52921C57.4324 2.68436 57.6935 2.64044 57.9844 2.52628C58.0664 2.49408 58.1932 2.46188 58.2977 2.46481C58.9914 2.47359 59.6776 2.49115 60.3713 2.50579ZM19.3983 2.78388C19.4057 2.78974 19.4057 2.79559 19.4132 2.80437C17.444 2.90976 15.4822 3.01221 13.513 3.1176C13.6473 3.00929 13.8412 2.93025 14.0501 2.91854C14.9825 2.86292 15.9223 2.81315 16.8621 2.78974C17.6976 2.76925 18.5479 2.78388 19.3983 2.78388ZM230.343 9.39379C230.35 9.37037 230.358 9.34988 230.365 9.32646C230.716 9.31183 231.089 9.26206 231.424 9.28841C231.849 9.32061 232.304 9.29134 232.692 9.45527C232.916 9.54894 233.438 9.55187 233.819 9.54016C234.289 9.52845 234.386 9.52552 234.647 9.75971C233.319 9.67481 232.058 9.59578 230.805 9.51674C230.805 9.50503 230.805 9.49625 230.813 9.48454C231.23 9.48454 231.648 9.48454 232.066 9.48454C232.066 9.47283 232.066 9.45819 232.073 9.44648C231.491 9.42892 230.917 9.41136 230.343 9.39379ZM16.3102 2.69313C16.3027 2.66972 16.2878 2.6463 16.2803 2.62288C17.4514 2.56141 18.615 2.49993 19.816 2.43553C19.7488 2.76339 20.3903 2.59361 20.7558 2.69313C19.2192 2.69313 17.7647 2.69313 16.3102 2.69313ZM99.1738 1.33486C99.1961 1.35535 99.2185 1.37877 99.2483 1.39926C98.8754 1.41975 98.5024 1.44024 98.1668 1.45781C98.5099 1.01286 99.4423 1.12116 100.143 1.09775C100.912 1.0714 101.792 0.927962 102.486 1.24411C102.284 1.2646 102.068 1.27339 101.889 1.24411C101.076 1.09775 100.255 1.20313 99.4348 1.21484C99.3378 1.21777 99.2558 1.29388 99.1738 1.33486ZM27.9166 1.61588C26.5814 1.73004 25.2388 1.91154 23.9856 1.63344C25.2388 1.6393 26.5739 1.4578 27.9166 1.61588ZM230.276 9.41136C230.298 9.43185 230.32 9.45234 230.335 9.47576C230.253 9.50503 230.179 9.53138 230.082 9.5665C230.201 9.58114 230.313 9.59578 230.335 9.5987C230.268 9.65432 230.194 9.71287 230.104 9.78605C229.358 9.69823 228.515 9.60163 227.643 9.49918C228.508 9.25913 229.425 9.56943 230.276 9.41136ZM83.5767 1.60417C83.5767 1.58075 83.5692 1.55441 83.5692 1.53099C83.8974 1.53099 84.2331 1.53685 84.5613 1.53099C85.255 1.51343 85.9711 1.51636 86.6424 1.45781C87.1198 1.41683 87.1944 1.39633 87.3361 1.62467C86.083 1.64516 84.8224 1.72127 83.5767 1.60417ZM113.085 1.51343C112.317 1.48708 111.698 1.46659 111.093 1.4461C111.093 1.39633 111.093 1.34657 111.093 1.29973C111.489 1.32315 111.839 1.34072 112.376 1.37292C112.13 1.30851 112.048 1.2851 111.921 1.25289C113.018 1.22655 114.047 1.20313 115.077 1.17678C115.077 1.19435 115.084 1.21484 115.084 1.2324C114.301 1.28802 113.518 1.34072 112.66 1.40219C112.809 1.44317 112.884 1.46073 113.085 1.51343ZM45.9379 1.40511C45.9304 1.37584 45.923 1.34657 45.9155 1.31437C47.0717 1.27924 48.2353 1.24118 49.3915 1.20606C49.3989 1.23533 49.4064 1.26167 49.4138 1.29095C48.295 1.49586 47.094 1.34949 45.9379 1.40511ZM133.449 1.80909C134.254 1.69492 135.015 1.52514 135.828 1.76518C135.679 1.94374 135.276 1.95546 134.91 1.93789C134.433 1.9174 133.963 1.85885 133.449 1.80909ZM232.26 5.39214C232.096 5.60583 229.992 5.59705 228.896 5.39214C230.029 5.39214 231.118 5.39214 232.26 5.39214ZM130.584 1.89105C131.442 1.83836 132.33 1.77689 133.18 1.95545C132.292 2.00815 131.39 2.21599 130.584 1.89105ZM235.907 6.06835C235.154 6.22643 234.602 6.04786 234.035 5.86637C234.318 5.85466 234.594 5.89271 234.87 5.90442C234.99 5.90735 235.109 5.8488 235.243 5.83124C235.43 5.80489 235.631 5.78733 235.825 5.77269C235.862 5.76976 235.915 5.80196 235.997 5.82831C235.87 5.87808 235.758 5.92198 235.639 5.9659C235.751 6.00688 235.833 6.03908 235.907 6.06835ZM77.1768 1.68028C77.1469 1.65101 77.1245 1.61881 77.0947 1.58954C76.3786 1.51635 75.6103 1.6071 74.8942 1.52221C75.8639 1.48415 76.8262 1.4461 77.7959 1.40804C77.8257 1.43731 77.8555 1.46952 77.8854 1.49879C77.6541 1.56026 77.4155 1.62174 77.1768 1.68028ZM64.8319 1.53977C64.8319 1.52806 64.8319 1.51342 64.8244 1.50172C65.257 1.48708 65.6897 1.46366 66.1223 1.45488C66.5549 1.4461 66.995 1.45195 67.4277 1.45195C67.3978 1.45781 67.2934 1.47244 67.1293 1.49879C67.3829 1.56026 67.5246 1.59539 67.7782 1.65686C66.6967 1.61588 65.7643 1.57783 64.8319 1.53977ZM79.8695 2.26575C79.0863 2.44724 78.3329 2.42382 78.0942 2.26575C78.6909 2.26575 79.2802 2.26575 79.8695 2.26575ZM254.16 12.5904C255.443 12.4382 256.204 12.4587 256.412 12.6753C255.652 12.649 254.913 12.6197 254.16 12.5904ZM225.927 10.19C225.919 10.231 225.912 10.272 225.905 10.31C225.039 10.2603 224.174 10.2105 223.309 10.1608C223.629 10.1139 223.95 10.1051 224.264 10.1168C224.577 10.1286 224.883 10.1608 225.188 10.1754C225.435 10.19 225.681 10.1871 225.927 10.19ZM33.5035 1.81786C33.496 1.84714 33.496 1.87348 33.4886 1.90276C32.8172 2.03156 32.2653 1.85007 31.6536 1.8003C31.6685 1.7681 31.676 1.7359 31.6909 1.70077C32.3026 1.73883 32.8993 1.77688 33.5035 1.81786ZM176.555 2.30088C177.189 2.30088 177.823 2.30088 178.636 2.30088C177.898 2.46774 177.898 2.46774 176.555 2.30088ZM55.3215 1.72126C56.1121 1.53391 56.4776 1.55148 56.9923 1.80323C56.4254 1.77395 55.9107 1.75054 55.3215 1.72126ZM232.222 8.056C232.782 8.056 233.289 8.056 233.819 8.056C233.64 8.27555 233.013 8.27555 232.222 8.056ZM28.0956 1.35535C28.8266 1.33193 29.3786 1.31436 30.0126 1.29387C29.4233 1.60124 28.849 1.46659 28.0956 1.35535ZM230.85 17.359C230.85 17.3766 230.85 17.3942 230.85 17.4088C230.313 17.4088 229.768 17.4088 229.224 17.4088C229.246 17.3883 229.284 17.3415 229.313 17.3064C229.835 17.3239 230.343 17.3415 230.85 17.359ZM82.0103 1.32022C82.0252 1.34364 82.0401 1.36706 82.055 1.39048C81.2793 1.43439 80.511 1.4783 79.7352 1.52513C79.7278 1.50757 79.7278 1.49001 79.7203 1.47244C80.4811 1.42268 81.242 1.37291 82.0103 1.32022ZM234.154 6.08299C233.408 6.08299 232.73 6.08299 231.909 6.08299C232.73 5.99517 233.408 5.92784 234.154 6.08299ZM79.5562 2.59654C79.0192 2.6785 78.6238 2.7429 78.2136 2.79267C78.1614 2.79852 78.0495 2.72241 77.96 2.68436C78.0495 2.65508 78.1315 2.60239 78.2285 2.59946C78.6014 2.59068 78.9744 2.59654 79.5562 2.59654ZM201.394 2.74876C201.371 2.76633 201.356 2.78682 201.334 2.80438C200.887 2.7634 200.439 2.72242 200.066 2.69022C200.141 2.62289 200.2 2.56727 200.29 2.49116C200.626 2.56727 201.013 2.65802 201.394 2.74876Z" fill="url(#paint0_linear_6297_9590)"/>
<defs>
<linearGradient id="paint0_linear_6297_9590" x1="262.916" y1="23.003" x2="68.7001" y2="-101.479" gradientUnits="userSpaceOnUse">
<stop stop-color="#533CA3"/>
<stop offset="0.294518" stop-color="#BF5AB8"/>
<stop offset="0.682384" stop-color="#ED641F"/>
<stop offset="1" stop-color="#FFE322"/>
</linearGradient>
</defs>
</svg>
