<svg width="290" height="21" viewBox="0 0 290 21" fill="none" xmlns="http://www.w3.org/2000/svg">
<path d="M279.325 12.9946C279.781 13.0447 280.22 13.1054 280.684 13.1397C281.222 13.1793 281.777 13.1925 282.381 13.174C281.992 13.1186 281.595 13.0632 281.114 12.9946C281.934 12.9946 282.688 12.9946 283.284 12.9946C283.433 12.8917 283.533 12.8231 283.657 12.736C282.895 12.678 282.15 12.6226 281.404 12.5671C281.429 12.5302 281.446 12.4906 281.47 12.4537C282.017 12.4827 282.555 12.5144 283.259 12.5513C283.003 12.4985 282.87 12.4695 282.704 12.4379C283.963 12.2215 283.309 12.0342 282.497 11.8257C283.524 11.9629 284.402 12.0817 285.264 12.2004C285.264 12.0896 285.264 12.0078 285.264 11.8811C284.957 11.8336 284.493 11.7624 284.021 11.6912C284.046 11.6674 284.071 11.6437 284.096 11.6199C284.941 11.7044 285.785 11.7888 286.63 11.8732C286.655 11.8548 286.672 11.8363 286.697 11.8178C285.885 11.7176 285.073 11.6173 284.262 11.5197C284.286 11.4933 284.303 11.4669 284.328 11.4405C285.098 11.5144 285.877 11.5883 286.647 11.6595C286.672 11.6358 286.688 11.612 286.713 11.5883C286.009 11.5091 285.305 11.4273 284.493 11.335C284.667 11.2716 284.866 11.1978 285.106 11.1107C285.106 11.0764 285.106 11.0131 285.106 10.9471C285.529 10.9656 285.951 10.984 286.423 11.0052C286.481 10.9814 286.597 10.9286 286.713 10.8759L286.705 10.8811C286.498 10.5672 285.827 10.5909 284.966 10.6305C285.404 10.7017 285.694 10.7519 286.142 10.8257C285.421 10.8152 284.758 10.9049 284.725 10.5672C284.717 10.5144 284.328 10.4695 284.054 10.4062C284.038 10.3825 283.997 10.3112 283.972 10.2637C284.916 10.2822 286.017 10.3033 287.119 10.3244C287.127 10.306 287.135 10.2901 287.144 10.2717C286.688 10.24 286.241 10.2083 285.785 10.1767C285.785 10.1556 285.777 10.1345 285.777 10.1107C286.133 10.0975 286.498 10.087 286.937 10.0711C286.556 10.021 286.241 9.97879 285.852 9.92866C286.042 9.88116 286.175 9.84422 286.299 9.81256C286.108 9.75979 285.893 9.69647 285.595 9.6094C286.208 9.63051 286.688 9.64634 287.301 9.66745C287.127 9.58829 287.061 9.55663 286.895 9.47748C287.5 9.47748 287.997 9.47748 288.494 9.47748C288.494 9.45373 288.494 9.42998 288.494 9.40623C288.03 9.39304 287.566 9.37985 287.094 9.36666C287.094 9.34819 287.086 9.32972 287.086 9.31125C287.798 9.2875 288.51 9.2664 289.305 9.24001C289.107 9.18197 288.941 9.13183 288.701 9.06059C288.999 9.0685 289.189 9.07378 289.388 9.07642C288.85 8.95769 288.494 8.67009 287.467 8.87853C287.732 8.89964 287.939 8.91547 288.138 8.9313C288.08 8.95241 288.022 8.97089 287.964 8.99199C286.92 8.99463 286.175 8.79674 285.504 8.55136C285.537 8.53289 285.578 8.51442 285.612 8.49859C285.761 8.53553 285.893 8.57775 286.051 8.60941C286.233 8.64635 286.423 8.67537 286.605 8.71231C286.812 8.74925 287.011 8.79146 287.26 8.83896C287.309 8.74133 287.367 8.62788 287.467 8.42999C287.707 8.51179 287.831 8.59358 288.005 8.60413C288.386 8.63316 288.9 8.67801 289.156 8.61732C289.405 8.56192 289.438 8.37722 289.479 8.2453C289.496 8.19516 289.272 8.13448 289.032 8.0949C289.057 8.14767 289.082 8.20044 289.115 8.26113C288.817 8.25057 288.552 8.24266 288.22 8.23211C288.22 8.09227 288.22 7.94979 288.22 7.80995C288.113 7.73871 287.989 7.64636 287.823 7.56457C287.666 7.48541 287.458 7.41945 287.276 7.34557C287.301 7.41417 287.318 7.48277 287.343 7.54874C287.202 7.6147 287.053 7.68066 286.92 7.73871C286.572 7.68594 286.291 7.64108 285.91 7.58303C285.802 7.64372 285.686 7.7044 285.562 7.773C283.765 7.41417 281.81 7.36932 279.905 7.24003C280.145 7.24003 280.394 7.24003 280.634 7.24003C280.65 7.21892 280.675 7.19517 280.692 7.17407C280.212 7.03159 279.367 7.24267 278.903 7.08963C278.928 7.06852 278.944 7.04742 278.969 7.02631C279.3 7.02103 279.632 7.01312 279.955 7.00784C279.98 6.92605 279.996 6.87328 280.004 6.81787C279.715 7.02367 279.209 6.85217 278.804 6.88383C278.232 6.93132 277.578 6.85745 276.957 6.84161C276.808 6.83634 276.518 6.85217 276.518 6.86008C276.501 7.03686 276.162 6.95507 275.93 6.95243C275.35 6.94452 274.762 6.93396 274.182 6.92341C274.149 6.92341 274.108 6.90758 274.074 6.89703C274.149 6.85745 274.223 6.81787 274.315 6.77302C274.157 6.75191 274.05 6.73872 273.942 6.72289C274.182 6.65956 274.439 6.63054 274.654 6.64637C275.333 6.6965 275.847 6.58304 276.294 6.44584C276.617 6.34558 276.559 6.32711 276.915 6.39043C277.147 6.43265 277.371 6.47223 277.346 6.32447C276.998 6.27434 276.65 6.22421 276.294 6.17144C276.311 6.15033 276.319 6.12659 276.335 6.10548C276.791 6.10548 277.238 6.10548 277.768 6.10548C277.569 6.20838 277.445 6.26906 277.321 6.33239C277.619 6.39043 277.917 6.44848 278.257 6.51444C278.406 6.43793 278.555 6.35614 278.721 6.27171C278.481 6.24532 278.298 6.22421 278.116 6.20574C278.124 6.19255 278.133 6.17935 278.141 6.16616C278.439 6.16616 278.729 6.16616 279.035 6.16616C279.011 6.19782 278.977 6.22684 278.953 6.25587C279.698 6.30336 280.427 6.35085 281.164 6.39571C281.156 6.42209 281.147 6.44848 281.147 6.47487C280.924 6.47487 280.692 6.46167 280.493 6.48014C280.361 6.49333 280.27 6.55402 280.162 6.5936C280.692 6.6833 280.17 6.74663 280.112 6.82315C280.22 6.89439 280.327 6.96299 280.518 7.08963C280.593 6.98145 280.659 6.91022 280.684 6.83634C280.717 6.74927 280.725 6.6622 280.742 6.56722C281.131 6.58041 281.404 6.59096 281.669 6.60152C281.661 6.61999 281.661 6.63846 281.653 6.65692C281.412 6.67539 281.172 6.69386 280.899 6.71233C281.462 6.77565 281.959 6.83107 282.381 6.8812C282.473 6.82843 282.539 6.78885 282.613 6.74663C282.713 6.77829 282.878 6.80204 282.903 6.83898C282.978 6.9498 283.003 7.06589 283.052 7.19518C282.572 7.18463 282.15 7.17671 281.727 7.16879C281.835 7.28752 282.439 7.36668 283.011 7.29016C283.218 7.26378 283.326 7.1424 283.582 7.00784C283.831 7.05533 284.204 7.12922 284.576 7.20309C284.576 7.16088 284.576 7.12393 284.576 7.14768C285.098 7.18198 285.62 7.21629 286.158 7.25059C286.15 7.25586 286.108 7.2928 286.067 7.3271C286.233 7.28489 286.398 7.24267 286.622 7.18726C286.705 7.20045 286.87 7.2242 287.036 7.25059C286.87 7.17671 286.713 7.10283 286.465 6.98674C286.788 6.99729 287.02 7.00521 287.243 7.01048C287.359 6.73344 287.16 6.50653 286.274 6.40099C286.423 6.39571 286.564 6.39043 286.779 6.38252C286.589 6.31919 286.448 6.2717 286.299 6.22685C287.243 6.17408 288.179 6.12394 289.214 6.0659C289.007 5.97091 288.933 5.93397 288.792 5.86801C289.016 5.87329 289.156 5.87593 289.289 5.88121C289.322 5.86274 289.347 5.84427 289.38 5.8258C289.024 5.76511 288.684 5.66221 288.32 5.65429C287.516 5.63318 287.285 5.49071 287.326 5.24797C287.334 5.19256 287.326 5.13715 287.326 5.10021C286.581 4.91024 285.877 4.72819 285.173 4.54613C285.181 4.53558 285.181 4.52238 285.189 4.51183C285.438 4.54349 285.678 4.57252 285.926 4.60418C285.959 4.48808 285.984 4.3799 286.017 4.25589C285.777 4.27436 285.545 4.29284 285.222 4.31658C285.429 4.23479 285.562 4.18201 285.794 4.08967C285.487 4.1055 285.289 4.11869 285.081 4.12661C284.949 4.13189 284.701 4.1398 284.692 4.12924C284.477 3.85484 283.665 3.94983 283.094 3.82846C283.326 3.80207 283.475 3.78624 283.5 3.78624C283.21 3.6939 282.912 3.60155 282.613 3.50656C282.133 3.35089 281.512 3.34562 281.015 3.43533C280.278 3.56725 279.764 3.38519 279.044 3.36672C279.342 3.31395 279.532 3.27965 279.905 3.21105C279.218 3.25327 278.754 3.28229 278.348 3.30603C278.133 3.19522 277.95 3.10815 277.752 3.00525C277.934 2.94984 278.149 2.88387 278.373 2.81791C277.876 2.82055 277.495 2.8786 277.429 3.02899C277.131 3.06066 276.89 3.08704 276.65 3.11343C276.667 3.13454 276.683 3.15828 276.692 3.17939C276.095 3.0976 275.499 3.0158 274.911 2.93137C274.919 2.91026 274.919 2.88915 274.927 2.87068C275.631 2.87068 276.344 2.87068 277.048 2.87068C277.048 2.86013 277.039 2.84694 277.039 2.83638C276.178 2.81 275.317 2.78361 274.455 2.75986C274.522 2.71501 274.596 2.6939 274.671 2.69654C275.482 2.71237 276.302 2.72556 277.114 2.75195C277.528 2.76514 277.934 2.80208 278.348 2.82847C278.464 2.87068 278.572 2.9129 278.688 2.95512C278.729 2.94456 278.77 2.93137 278.812 2.92082C278.721 2.8786 278.63 2.83375 278.539 2.79153C279.773 2.68072 280.916 2.82583 280.957 3.10815C281.197 3.07912 281.437 3.0501 281.827 3.00261C281.562 2.96303 281.396 2.93929 281.189 2.90763C281.354 2.8575 281.52 2.81264 281.711 2.75723C281.396 2.73876 281.131 2.72557 280.866 2.70974C280.816 2.73612 280.75 2.79153 280.708 2.78889C280.327 2.76514 279.955 2.7282 279.574 2.70182C279.127 2.67015 278.679 2.64641 278.232 2.61739C278.249 2.58573 278.265 2.55406 278.282 2.5224C279.085 2.56725 279.897 2.61211 280.7 2.65433C280.41 2.58572 280.137 2.47227 279.814 2.45381C278.828 2.3984 277.835 2.37464 276.841 2.34826C276.418 2.33771 276.012 2.49866 275.549 2.35354C275.366 2.29549 275.052 2.28758 274.696 2.24536C274.513 2.25855 274.157 2.28757 273.801 2.3166C273.71 2.18995 273.627 2.08705 273.553 1.98151C273.519 1.98151 273.486 1.98415 273.453 1.98415C273.428 2.06595 273.404 2.15037 273.379 2.26119C272.716 2.20315 272.136 2.17148 271.457 2.26911C270.927 2.34562 270.173 2.23217 269.536 2.14774C270.082 2.15829 270.629 2.1662 271.176 2.17676C271.184 2.15565 271.2 2.1319 271.209 2.1108C270.737 2.06858 270.265 2.00526 269.784 1.98943C267.772 1.92874 265.759 1.88916 263.746 1.82584C262.877 1.79946 262.024 1.72294 261.162 1.69392C260.69 1.67809 260.21 1.72558 259.73 1.72822C258.794 1.73086 257.858 1.73349 256.922 1.71766C255.911 1.69919 254.901 1.65698 253.882 1.62795C252.35 1.58574 250.818 1.54616 249.252 1.50394C249.302 1.46437 249.36 1.41951 249.41 1.37993C249.344 1.36147 249.302 1.34563 249.269 1.34563C248.582 1.3984 247.977 1.49075 247.174 1.39841C246.379 1.30606 245.443 1.3641 244.573 1.34299C243.587 1.31924 242.602 1.26384 241.616 1.24801C239.952 1.22426 238.287 1.21899 236.622 1.20843C236.034 1.20579 235.454 1.20315 234.866 1.20579C234.626 1.20579 234.386 1.21634 234.154 1.2612C235.471 1.29286 236.796 1.32716 238.113 1.35882C238.113 1.37729 238.113 1.39576 238.113 1.41159C237.334 1.41159 236.556 1.41159 235.769 1.41159C235.761 1.4327 235.744 1.45381 235.736 1.47492C236.365 1.51186 236.995 1.56199 237.632 1.58574C238.693 1.62531 239.753 1.66225 240.813 1.67809C241.591 1.68864 242.37 1.65961 243.148 1.64906C243.264 1.64642 243.397 1.63587 243.488 1.64906C244.515 1.80737 245.625 1.79154 246.71 1.83112C246.768 1.83375 246.818 1.85486 246.851 1.86278C246.652 1.90499 246.437 1.94721 246.229 1.99207C246.271 2.01845 246.312 2.04483 246.345 2.07122C242.569 2.029 238.8 1.98678 235.024 1.94457C235.024 1.92346 235.024 1.90235 235.024 1.88125C236.63 1.88125 238.237 1.88125 239.836 1.88125C234.982 1.69127 230.121 1.69391 225.267 1.83639C225.267 1.8575 225.259 1.87861 225.259 1.89708C227.131 1.89708 229.002 1.89708 230.874 1.89708C230.874 1.9261 230.866 1.95513 230.866 1.98415C229.549 1.98415 228.224 1.99206 226.907 1.98151C225.847 1.97096 224.787 1.93666 223.727 1.91555C223.155 1.90499 222.584 1.8918 222.012 1.88916C220.472 1.87861 218.939 1.87597 217.399 1.86014C217.208 1.8575 217.026 1.79154 216.728 1.73085C217.73 1.77834 218.542 1.81529 219.345 1.85223C219.345 1.84167 219.354 1.82848 219.354 1.81793C218.997 1.78626 218.65 1.75196 218.293 1.7203C218.318 1.69392 218.343 1.66489 218.368 1.6385C218.633 1.65433 218.89 1.68336 219.155 1.68072C219.768 1.67544 220.381 1.6517 221.051 1.63587C221.051 1.52505 221.051 1.40632 221.051 1.25328C221.755 1.32188 222.443 1.39048 223.139 1.45908C223.139 1.47756 223.13 1.49602 223.13 1.51449C222.633 1.51449 222.128 1.51449 221.631 1.51449C221.623 1.53824 221.606 1.55935 221.598 1.58309C221.838 1.61212 222.078 1.66753 222.319 1.66753C223.718 1.66489 225.118 1.65697 226.509 1.63323C227.652 1.61212 228.787 1.55407 229.93 1.5356C230.642 1.52241 231.346 1.50394 232.059 1.65697C232.373 1.72293 233.069 1.57518 233.591 1.52505C233.582 1.5013 233.574 1.4802 233.566 1.45645C233.442 1.43534 233.317 1.41423 233.144 1.38257C233.326 1.33507 233.458 1.29814 233.682 1.24009C233.467 1.21635 233.326 1.20315 233.061 1.17676C233.375 1.09761 233.624 1.03429 233.839 0.978877C233.69 0.957771 233.442 0.923471 233.185 0.889169C233.201 0.868062 233.21 0.844316 233.226 0.823207C233.972 0.823207 234.709 0.823207 235.454 0.823207C235.454 0.844316 235.463 0.865428 235.463 0.886537C235.14 0.912921 234.808 0.941946 234.485 0.96833C236.017 1.10289 237.558 1.15302 239.107 0.976246C238.891 0.96569 238.684 0.957771 238.469 0.947218C238.668 0.831123 238.668 0.831129 240.614 0.886537C240.415 0.894453 240.208 0.899727 240.01 0.907642C239.819 0.915558 239.629 0.926113 239.438 0.934028C239.446 0.957775 239.446 0.981518 239.455 1.00526C240.448 1.00526 241.434 1.00526 242.519 1.00526C242.345 0.965687 242.229 0.941946 242.055 0.902368C242.221 0.857513 242.353 0.820574 242.478 0.786274C242.478 0.765165 242.486 0.744053 242.486 0.722944C241.699 0.704475 240.912 0.683374 240.167 0.664905C240.2 0.646435 240.291 0.601576 240.44 0.527698C240.034 0.55936 239.72 0.583111 239.496 0.598942C239.405 0.65699 239.339 0.741419 239.256 0.744056C238.693 0.751972 238.022 0.810022 237.566 0.730867C236.324 0.511871 235.173 0.767799 233.98 0.74933C232.663 0.725583 231.346 0.728223 230.029 0.71767C229.151 0.709754 228.216 0.633237 227.404 0.709754C226.783 0.7678 226.336 0.751971 225.706 0.678094C225.946 0.622686 226.112 0.588382 226.278 0.551442C226.269 0.532973 226.261 0.514508 226.261 0.498677C224.828 0.540893 223.395 0.580472 221.896 0.622687C222.128 0.662265 222.368 0.70448 222.6 0.746697C222.559 0.767804 222.526 0.794185 222.509 0.791547C221.565 0.728223 220.579 0.704478 219.693 0.588385C218.906 0.485484 218.128 0.453816 217.316 0.443263C217.242 0.443263 217.167 0.474925 217.026 0.509225C217.3 0.525056 217.498 0.538254 217.689 0.54881C217.689 0.567279 217.697 0.585744 217.697 0.601575C216.844 0.614768 215.958 0.686011 215.138 0.630602C213.324 0.50923 211.568 0.614769 209.788 0.678093C209.117 0.70184 208.297 0.828486 207.717 0.554083C207.642 0.519783 207.295 0.51187 207.187 0.540894C206.524 0.72031 205.92 0.482842 205.274 0.519781C204.976 0.535612 204.644 0.485485 204.33 0.467016C204.313 0.493401 204.305 0.519783 204.288 0.546167C204.893 0.601576 205.497 0.656986 206.102 0.712395C206.102 0.722948 206.102 0.733504 206.102 0.746697C205.829 0.746697 205.555 0.754608 205.282 0.744055C204.992 0.733502 204.711 0.709755 204.412 0.720308C206.127 1.05012 207.99 0.796822 209.788 0.897084C209.423 0.904999 209.059 0.910279 208.694 0.92347C208.346 0.936663 207.999 0.960408 207.651 0.978876C207.659 0.997345 207.659 1.01845 207.667 1.03692C209.224 1.06331 210.781 1.08706 212.339 1.11344C212.339 1.13719 212.339 1.16357 212.339 1.18732C212.198 1.20051 212.057 1.21371 211.916 1.22426C211.908 1.24273 211.9 1.2612 211.883 1.28231C212.148 1.29286 212.421 1.30605 212.686 1.31133C213.009 1.31661 213.332 1.31133 213.68 1.35882C213.026 1.3852 212.38 1.42215 211.726 1.43534C210.798 1.45117 209.862 1.467 208.935 1.44589C208.653 1.44062 207.8 1.55407 208.148 1.2269C208.164 1.2137 207.924 1.14511 207.825 1.14774C207.551 1.15566 207.038 1.19523 207.038 1.21107C207.063 1.35882 206.814 1.2955 206.632 1.29022C206.127 1.27703 205.63 1.2612 205.125 1.25856C204.967 1.25856 204.802 1.2955 204.595 1.32189C205.713 1.36146 206.748 1.3984 207.783 1.43534C207.775 1.46172 207.767 1.48547 207.767 1.51186C206.268 1.46964 204.727 1.56199 203.278 1.27703C203.617 1.27703 203.957 1.27703 204.288 1.27703C203.642 1.17677 203.054 1.07123 202.3 1.15566C201.555 1.23745 200.743 1.27439 199.965 1.15302C199.816 1.12927 199.625 1.13455 199.294 1.11872C199.617 1.19259 199.807 1.23745 199.99 1.27967C199.965 1.29022 199.932 1.30078 199.907 1.31133C199.319 1.25592 198.689 1.12927 198.168 1.17149C197.729 1.20579 197.331 1.20052 196.934 1.1926C195.981 1.17413 195.037 1.12135 194.093 1.10289C193.066 1.08178 192.03 1.09234 191.003 1.07387C190.523 1.06595 190.059 1.03165 189.62 1.12664C189.562 1.13983 189.43 1.11081 189.181 1.08442C189.513 1.05012 189.678 1.03429 189.852 1.01582C189.844 0.99471 189.844 0.976238 189.836 0.955131C186.664 1.16093 183.491 1.06859 180.311 1.08442C180.311 1.0554 180.303 1.02637 180.303 0.997346C180.758 0.997346 181.206 0.997346 181.744 0.997346C180.957 0.696559 180.187 1.0211 179.441 0.941941C179.557 0.968326 179.682 0.994708 179.798 1.02109C179.789 1.04484 179.789 1.06595 179.781 1.0897C177.727 1.0422 175.665 0.994708 173.611 0.947215C173.619 0.936661 173.636 0.926108 173.644 0.915555C173.445 0.944577 173.246 0.994708 173.039 0.997346C172.277 1.0079 171.515 1.0079 170.753 0.999987C169.991 0.992072 169.229 0.952494 168.476 0.965685C167.449 0.981516 166.438 1.04748 165.411 1.06859C164.997 1.07651 164.525 1.0554 164.161 0.992071C163.341 0.849592 162.579 0.878613 161.593 1.00526C161.941 1.03956 162.09 1.0554 162.247 1.06859C162.239 1.08178 162.231 1.09497 162.223 1.10553C161.867 1.0897 161.51 1.07123 161.08 1.05012C161.237 1.00263 161.328 0.97624 161.419 0.949856C161.295 0.918194 161.171 0.857512 161.055 0.862787C160.55 0.881258 160.044 0.934021 159.539 0.939299C159.274 0.941937 159.009 0.85751 158.728 0.836401C157.717 0.762524 156.707 0.696556 155.688 0.633232C155.324 0.609485 154.951 0.60157 154.586 0.575186C154.495 0.56727 154.437 0.509228 154.479 0.530334C154.015 0.530334 153.667 0.540886 153.336 0.527694C152.831 0.506586 152.334 0.451181 151.828 0.440628C151.63 0.43535 151.423 0.509227 151.29 0.596298C151.655 0.596298 152.019 0.596298 152.383 0.596298C152.383 0.609489 152.392 0.620041 152.392 0.633232C152.201 0.646425 152.011 0.659618 151.77 0.675449C152.259 0.757242 152.698 0.828483 153.129 0.899723C153.112 0.928747 153.096 0.960407 153.079 0.989431C152.259 0.989431 151.447 0.989431 150.685 0.989431C150.735 0.997347 150.859 1.01317 151.066 1.04484C149.998 1.01317 149.012 0.970962 148.035 0.957769C147.53 0.949853 147.016 1.01054 146.52 1.00263C145.633 0.986797 144.813 1.13455 143.944 1.10288C143.033 1.06858 142.13 0.994708 141.211 0.949855C140.432 0.910278 139.645 0.886531 138.867 0.852231C137.608 0.796823 136.357 0.736136 135.082 0.627957C135.38 0.614764 135.686 0.598933 135.984 0.58574C135.993 0.569909 136.001 0.55408 136.001 0.538249C134.999 0.509227 133.988 0.480199 132.953 0.451175C133.003 0.427428 133.094 0.390492 133.169 0.356192C132.837 0.2744 132.506 0.195241 132.175 0.113448C132.233 0.0923393 132.291 0.0738724 132.489 -4.95494e-06C131.504 0.0501258 130.676 0.0949828 129.723 0.142476C130.112 0.184691 130.386 0.213715 130.659 0.242739C130.667 0.25857 130.676 0.277041 130.692 0.292872C129.996 0.343003 129.301 0.39577 128.605 0.445901C128.564 0.419516 128.53 0.393134 128.489 0.366749C128.738 0.306063 128.986 0.245373 129.284 0.171494C129.036 0.147748 128.754 0.102894 128.456 0.0976168C128.075 0.0897013 127.686 0.116091 127.305 0.126645C127.611 0.184691 127.942 0.248011 128.249 0.30342C127.735 0.641146 127.023 0.411601 126.402 0.406325C126.104 0.403685 125.814 0.374661 125.507 0.356192C125.358 0.129282 123.313 0.100258 122.559 0.364107C123.859 0.153027 124.986 0.416878 126.187 0.496031C124.456 0.532971 122.708 0.493391 120.985 0.567269C120.985 0.591015 120.994 0.614764 120.994 0.635872C122.112 0.635872 123.23 0.635872 124.34 0.635872C124.34 0.649064 124.348 0.659623 124.348 0.672814C124.191 0.686007 124.033 0.699192 123.876 0.715023C123.868 0.736132 123.859 0.757244 123.851 0.778353C124.572 0.926108 125.458 0.709746 126.286 0.912911C126.021 0.741408 125.698 0.622681 126.41 0.620041C126.742 0.620041 127.073 0.609486 127.396 0.593655C128.166 0.554078 128.489 0.678086 128.431 0.955128C127.934 0.976235 127.379 0.999985 126.824 1.02373C129.615 1.05803 132.307 1.30605 135.049 1.47228C133.93 1.68336 132.713 1.5224 131.553 1.56462C130.419 1.60684 129.251 1.5356 127.984 1.51185C128.464 1.42478 128.87 1.35091 129.284 1.27439C129.259 1.24801 129.234 1.21898 129.21 1.1926C127.76 1.62003 126.054 1.48811 124.406 1.51185C124.398 1.3641 125.242 1.53824 124.953 1.31133L124.969 1.3166C124.505 1.35882 124.042 1.40103 123.52 1.44852C123.603 1.47491 123.669 1.49602 123.735 1.51713C123.164 1.38256 122.435 1.77306 121.913 1.45117C121.888 1.43797 121.764 1.42478 121.722 1.43534C121.027 1.57517 120.273 1.50921 119.544 1.50657C118.733 1.50657 117.921 1.48283 117.101 1.48019C115.635 1.47228 114.169 1.47491 112.703 1.467C112.413 1.46436 112.082 1.52769 111.85 1.37201C111.784 1.32452 111.163 1.33771 110.848 1.37729C110.152 1.46436 109.548 1.37729 108.935 1.29814C108.471 1.50658 107.908 1.36937 107.386 1.36937C107.378 1.34826 107.369 1.32452 107.369 1.30341C107.899 1.30341 108.421 1.30341 108.951 1.30341C109.39 1.29286 109.829 1.28231 110.268 1.27439C110.442 1.27175 110.633 1.2823 110.798 1.26911C110.906 1.25855 110.98 1.2137 111.072 1.18204C110.972 1.15566 110.889 1.1108 110.782 1.10288C110.492 1.0765 110.061 1.15038 110.044 0.960409C110.044 0.955131 109.962 0.944574 109.92 0.947212C109.332 0.94985 108.703 1.00263 108.173 0.944578C107.171 0.831123 106.21 1.0422 105.199 0.928749C104.802 0.883894 104.23 1.02373 103.7 1.08442C105.191 1.1108 106.641 1.13719 108.082 1.16357C108.082 1.18732 108.082 1.21106 108.082 1.23217C106.856 1.23217 105.638 1.22954 104.413 1.23217C103.576 1.23481 102.748 1.24536 101.911 1.25064C99.6669 1.26383 97.4223 1.27439 95.1861 1.29022C94.1923 1.2955 93.2067 1.30869 92.2128 1.31397C92.0306 1.31397 91.8484 1.30605 91.4591 1.29549C91.8815 1.19787 92.1466 1.13718 92.3702 1.08705C91.9644 1.04747 91.5502 0.997346 91.1279 0.976239C90.9539 0.968324 90.7551 1.05539 90.5729 1.05539C89.9683 1.05011 89.3637 1.03164 88.7591 1.00526C88.4279 0.989426 88.1048 0.918189 87.7901 0.923465C86.6554 0.941935 85.5208 0.994706 84.3778 1.0079C83.6821 1.01581 82.9781 0.984149 82.2907 0.947211C81.976 0.93138 81.6613 0.807375 81.3797 0.820569C80.9241 0.841675 80.5017 0.936661 80.2284 0.976239C79.806 0.923468 79.4996 0.854866 79.1848 0.852229C77.5035 0.83376 75.8222 0.828478 74.1409 0.8232C72.9483 0.820562 71.7557 0.8232 70.7038 0.8232C70.7369 0.820562 70.9192 0.807373 71.1759 0.786266C70.7038 0.757242 70.3228 0.72822 69.9336 0.712389C69.859 0.709749 69.7679 0.746683 69.6851 0.765154C69.7513 0.786261 69.8176 0.807375 70.0081 0.870699C68.6498 0.831121 67.424 0.794178 66.1983 0.757238C66.19 0.741407 66.1817 0.72822 66.1734 0.712389C66.6538 0.699196 67.1342 0.686004 67.5897 0.672811C67.4655 0.62268 67.2915 0.554075 67.101 0.477558C66.0409 0.693914 64.9642 0.846952 63.697 0.754604C63.7302 0.65962 63.7716 0.559349 63.813 0.459087C63.7716 0.451172 63.7302 0.445898 63.6888 0.437982C63.5231 0.546161 63.3492 0.654342 63.1835 0.762519C62.6038 0.762519 61.9164 0.75196 61.2289 0.765153C60.3676 0.783622 59.5062 0.825843 58.6449 0.852228C57.5433 0.889167 56.4584 0.886525 55.4065 0.733491C55.2077 0.704469 54.9096 0.754602 54.6528 0.767793C54.6528 0.788902 54.6528 0.810006 54.6611 0.831115C54.9427 0.846946 55.216 0.862783 55.4976 0.878614C55.4976 0.889167 55.4893 0.902355 55.4893 0.912908C54.9676 0.894439 54.4209 0.904994 53.9323 0.849586C52.7396 0.712384 51.5553 0.738769 50.3378 0.881248C50.7933 0.897079 51.2488 0.912915 51.6961 0.928746C51.6961 0.952493 51.7043 0.973596 51.7043 0.99734C50.2301 0.99734 48.7642 0.99734 47.2899 0.99734C47.2816 1.03428 47.2733 1.06858 47.2733 1.10552C47.6957 1.12663 48.1347 1.18468 48.5323 1.16357C49.3853 1.11607 50.1804 1.06858 51.0418 1.1794C51.4393 1.22953 51.9942 1.13982 52.4829 1.11343C52.5988 1.10816 52.7148 1.1108 52.8307 1.1108C53.6838 1.1108 54.5369 1.08178 55.3817 1.11608C56.8311 1.17149 58.2307 1.03428 59.6719 1.04747C60.293 1.05275 60.9225 0.965684 61.5519 0.952491C62.2973 0.934023 63.051 0.94721 63.8378 0.94721C63.2746 1.24272 62.993 1.27438 61.9578 1.15301C62.3884 1.10552 62.7197 1.07122 63.051 1.03428C63.0428 1.02373 63.0345 1.01581 63.0345 1.00526C62.4133 1.03692 61.7921 1.06858 61.1709 1.10025C61.1709 1.12399 61.1709 1.1451 61.1709 1.16884C61.5933 1.20842 62.024 1.248 62.5872 1.30077C60.8562 1.30077 59.2743 1.30077 57.6841 1.30077C57.6841 1.4538 57.2949 1.3509 57.005 1.33507C56.7068 1.31924 56.417 1.30341 56.1188 1.29549C55.9035 1.29022 55.6964 1.29549 55.5142 1.29549C55.0587 1.33507 54.4375 1.4538 54.1973 1.39312C53.7915 1.29021 53.5099 1.372 53.1952 1.37464C52.1433 1.3852 51.0997 1.39839 50.0562 1.42742C48.5819 1.46963 47.116 1.52768 45.65 1.57517C44.8798 1.60156 44.1261 1.61475 43.6126 1.35354C43.5463 1.3166 43.3144 1.3166 43.0577 1.29022C43.273 1.37729 43.4221 1.43269 43.7037 1.54351C43.3227 1.56726 43.0494 1.6042 42.7761 1.59628C41.4012 1.56462 40.0264 1.52504 38.6515 1.48282C38.138 1.46699 37.6328 1.43533 37.1276 1.4195C36.1834 1.39312 35.2392 1.37201 34.2619 1.3984C34.4524 1.43006 34.6512 1.45907 34.9411 1.50657C34.7009 1.67015 34.4607 1.83374 34.2123 1.99469C34.734 1.97358 35.1233 1.78362 35.7279 1.84958C35.8356 1.86013 35.9929 1.81792 36.2083 1.78626C35.8853 1.73612 35.6699 1.70446 35.4546 1.67016C37.8813 1.5013 40.2169 1.86541 42.6105 1.64377C42.6105 1.66752 42.6105 1.68862 42.6105 1.71237C41.7325 1.74403 40.8546 1.77306 39.9767 1.80472C39.985 1.82847 39.9932 1.84958 40.0015 1.87332C40.1672 1.86541 40.3328 1.84958 40.4902 1.85222C40.7055 1.85749 40.9209 1.8786 41.1445 1.89443C44.1841 1.89443 47.2236 1.89443 50.2549 1.89443C48.8304 1.95247 47.3976 1.96039 45.9648 1.97359C45.1779 1.97886 44.3994 2.00261 43.6126 1.98942C42.7926 1.97623 41.9727 1.92609 41.1528 1.89179C41.0368 1.89179 40.896 1.87596 40.8049 1.89179C39.9684 2.03955 39.1485 2.03427 38.2705 1.9129C38.0304 1.88124 37.6411 1.9815 37.3181 2.02372C36.7549 2.05802 36.1089 2.04219 35.4877 2.06329C35.0405 2.07912 34.6098 2.15036 34.1626 2.18466C33.9721 2.19786 33.6076 2.23216 33.8478 2.07912C33.2184 2.01844 33.2184 2.01844 31.9926 2.20313C31.711 2.13717 31.5122 2.06066 31.2721 2.03955C30.7254 1.99469 30.1622 1.95775 29.6073 1.95247C29.1849 1.9472 28.6963 2.05274 28.3318 2.01052C27.6444 1.934 26.9984 2.02108 26.3441 1.99997C25.8058 1.9815 25.2757 1.93664 24.7291 1.93664C25.6318 2.24007 26.7996 1.95512 27.7604 2.11607C27.2966 2.29285 27.222 2.29548 26.7251 2.17675C26.0956 2.24535 25.6318 2.31395 25.1515 2.34033C22.8821 2.46698 20.6128 2.58835 18.3434 2.69389C17.4407 2.7361 16.5214 2.72555 15.6103 2.74666C15.0637 2.75985 14.5171 2.78624 13.7717 2.81527C14.2189 2.87067 14.4839 2.90233 14.7821 2.94191C13.9622 3.0923 13.2168 3.2638 12.4051 3.36143C11.6183 3.45641 10.7487 3.4828 9.92044 3.5303C9.24957 3.56987 8.5704 3.5989 7.91611 3.68597C8.94312 3.66486 9.97012 3.64111 11.1545 3.61736C10.9474 3.66749 10.8729 3.68596 10.7735 3.70971C11.287 3.73346 11.9579 3.69652 12.2394 3.7915C12.902 4.01314 13.4735 3.82053 14.1029 3.82317C13.6392 4.1134 12.6867 4.05272 12.1235 4.02897C11.2207 3.9894 10.3097 4.00259 9.41519 3.96301C9.08389 3.94718 8.75263 3.93399 8.42136 3.91815C8.40479 3.95509 8.39649 3.98939 8.37991 4.02633C8.95139 4.05272 9.52286 4.07119 10.0861 4.11077C10.4174 4.13451 10.7238 4.19256 11.0551 4.22686C11.1545 4.23742 11.287 4.21631 11.4029 4.21631C12.1152 4.21103 12.8772 4.12924 13.4569 4.40628C12.5045 4.40628 11.5851 4.43002 10.6907 4.40099C9.7879 4.37197 8.9017 4.29018 8.09833 4.23741C7.99066 4.10812 7.8747 3.9762 7.70078 3.76512C6.98023 4.16354 6.03604 4.03425 5.05048 4.07382C5.10843 3.96565 5.05875 3.85219 5.20783 3.80206C5.62195 3.65167 5.38175 3.62 4.97592 3.58834C4.83511 3.57779 4.71088 3.54876 4.61978 3.53557C4.32159 3.64111 3.99863 3.75456 3.65906 3.8733C3.70047 3.88121 3.86612 3.92079 3.9158 3.93134C4.28021 3.87066 4.57007 3.82317 5.00903 3.75193C4.90137 3.91551 4.84338 3.99995 4.77713 4.10021C4.19739 4.12396 3.60107 4.15298 3.00476 4.17145C2.36701 4.19256 2.16824 4.32184 2.54096 4.52765C2.32559 4.50918 2.15994 4.49335 1.99432 4.48015C1.96945 4.48807 1.95288 4.49599 1.92804 4.50654C2.1351 4.56195 2.31729 4.63319 2.5492 4.66749C2.86392 4.71498 3.21179 4.75455 3.55139 4.76511C4.32163 4.79149 5.10016 4.79677 5.87039 4.80997C6.35077 4.81788 6.83942 4.82052 7.3281 4.83107C8.72778 4.86537 10.1275 4.89967 11.5189 4.94189C12.6287 4.97355 13.7468 5.02104 14.8566 5.05534C15.395 5.07381 15.9333 5.08173 16.4716 5.14769C15.5358 5.16353 14.5916 5.17935 13.6888 5.19519C13.5977 5.22421 13.4984 5.28226 13.3741 5.29017C12.5459 5.33503 11.7011 5.35349 10.8811 5.4089C10.2268 5.45376 9.60571 5.54082 8.95969 5.60415C8.16458 5.68066 7.36121 5.74927 6.55783 5.81787C6.51642 5.82051 6.45844 5.81787 6.41702 5.80996C5.96152 5.70706 5.50598 5.60415 4.96762 5.48278C4.37131 5.55138 3.77499 5.66484 3.61762 5.9366C3.9075 6.02103 4.19739 6.10019 4.47897 6.18198L4.4707 6.17935C4.96762 6.21101 5.46457 6.24267 5.92838 6.27169C5.72961 6.31919 5.44803 6.38779 5.10843 6.46958C5.26581 6.5461 5.41486 6.61997 5.60535 6.70704C5.40659 6.73871 5.19125 6.77301 4.98419 6.80731C5.65506 6.82578 6.30109 6.84424 6.93881 6.86271C6.93881 6.88646 6.93878 6.91285 6.94708 6.93659C6.76486 6.94187 6.5744 6.94979 6.39218 6.95506C5.58881 6.97353 4.7937 6.98936 3.99033 7.01047C3.47684 7.02366 2.95505 7.0263 2.4664 7.06852C1.87009 7.12129 1.29862 7.21363 0.520081 7.31125C1.30689 7.50386 1.89493 7.64634 2.40842 7.77299C1.86179 7.91547 1.30689 8.06323 0.785126 8.19779C2.15167 8.31125 3.50998 8.41151 4.84341 8.53552C6.19342 8.66217 7.54343 8.73077 8.93485 8.77826C10.2683 8.82576 11.5851 8.73605 12.8937 8.79145C12.902 8.82048 12.902 8.8495 12.9103 8.87852C10.1192 9.01044 7.32806 9.13973 4.64462 9.26638C4.53696 9.30859 4.42929 9.35345 4.30505 9.40094C5.99463 9.3429 7.69247 9.32179 9.44003 9.46691C8.7609 9.53815 8.18942 9.60147 7.60968 9.65688C7.36121 9.68063 7.03821 9.72284 6.85599 9.68854C5.84555 9.49329 4.82684 9.6859 3.80814 9.68327C4.66946 9.71493 5.53912 9.74658 6.40048 9.77825C6.40048 9.79408 6.40875 9.80727 6.40875 9.8231C5.41486 9.83894 4.41272 9.85741 3.41885 9.87324C3.41885 9.90226 3.41058 9.93128 3.41058 9.9603C4.3299 10.0052 5.24924 10.05 6.22653 10.0975C6.08572 10.1687 5.99463 10.2162 5.90353 10.2611C6.78973 10.2822 7.63452 10.306 8.54556 10.3271C8.41306 10.3587 8.33023 10.3798 8.07349 10.4458C10.0529 10.4194 11.7756 10.5355 13.3244 10.9207C11.7011 10.8917 10.0778 10.8627 8.4462 10.8363L8.45447 10.8363C8.28882 10.8759 8.12317 10.9154 7.95752 10.955C9.85416 11.0236 11.7508 11.0896 13.6557 11.1582C13.6557 11.1846 13.6474 11.2083 13.6474 11.2347C12.2063 11.335 10.7569 11.4379 9.31583 11.5381C9.3241 11.5672 9.33237 11.5962 9.33237 11.6252C11.0054 11.6252 12.6867 11.6252 14.3597 11.6252C14.3846 11.6569 14.4177 11.6885 14.4425 11.7202C14.1692 11.7809 13.9042 11.8416 13.6309 11.9022C14.0698 12.0078 14.5005 12.1107 14.9312 12.2136C14.9063 12.24 14.8815 12.2663 14.8566 12.2927C12.9352 12.1028 11.0137 12.1292 9.08392 12.2901C10.7569 12.2901 12.4382 12.2901 14.1112 12.2901C14.1112 12.3112 14.1195 12.335 14.1195 12.3561C12.902 12.3956 11.6928 12.4378 10.3759 12.4827C11.726 12.5381 12.9683 12.5882 14.3266 12.6463C12.9517 13.021 11.4775 12.765 9.99496 12.889C10.5582 12.9022 10.9806 12.9128 11.4692 12.926C11.3532 12.9708 11.287 12.9972 11.1876 13.0368C11.5355 13.0368 11.8502 13.0368 12.1566 13.0368C12.1566 13.0685 12.1483 13.1028 12.1483 13.1344C10.4753 13.1028 8.80231 13.0711 7.1293 13.0394C7.1293 13.0553 7.12103 13.0737 7.12103 13.0896C8.36337 13.1318 9.61395 13.1714 10.8563 13.2136C10.848 13.2215 10.848 13.2268 10.8398 13.2294C10.8232 13.2347 10.7901 13.232 10.7735 13.2373C10.7321 13.2479 10.6906 13.2611 10.5747 13.2954C11.0717 13.2954 11.4609 13.2954 11.8502 13.2954C11.8667 13.3165 11.8833 13.3376 11.8999 13.3587C11.4857 13.3956 11.0799 13.4458 10.6575 13.4669C10.0695 13.4959 9.47318 13.5064 8.88513 13.5223C8.38821 13.5355 7.89957 13.546 7.38605 13.5935C10.5002 13.7334 13.6143 13.8706 16.7202 14.0104C16.7119 14.0289 16.7119 14.0447 16.7036 14.0632C13.987 14.1001 11.2621 14.137 8.54556 14.174C8.53729 14.1872 8.53726 14.203 8.52899 14.2162C8.82715 14.2347 9.12534 14.2558 9.54773 14.2822C9.19159 14.298 8.95969 14.3085 8.54556 14.327C9.49802 14.364 10.2682 14.393 11.0385 14.4246C11.0385 14.4642 11.0302 14.5038 11.0302 14.5434C10.4422 14.5434 9.84589 14.5434 9.25784 14.5434C9.24127 14.5618 9.233 14.5803 9.21643 14.5988C9.34067 14.6252 9.46491 14.6515 9.6554 14.6938C9.4566 14.7571 9.25784 14.8178 9.06735 14.8785C9.22473 15.0209 9.39035 15.174 9.57257 15.3402C9.34894 15.327 9.13361 15.3112 8.91824 15.298C8.90997 15.3165 8.9017 15.3349 8.9017 15.3534C9.8873 15.4009 10.8729 15.4484 11.817 15.4932C11.8916 15.4563 11.8667 15.4695 11.8419 15.48C11.817 15.4906 11.7922 15.5011 11.7425 15.5196C12.0821 15.5196 12.4051 15.5196 12.8026 15.5196C12.5873 15.4959 12.4382 15.4774 12.2891 15.4589C12.2974 15.4457 12.2974 15.4325 12.3057 15.4193C13.3161 15.4405 14.3266 15.4616 15.3287 15.4853C15.3287 15.5011 15.3287 15.5196 15.3287 15.5354C14.6496 15.5354 13.9622 15.5354 13.283 15.5354C13.2747 15.546 13.2581 15.5566 13.2499 15.5671C13.5149 15.5935 13.7799 15.6225 14.1278 15.6568C13.6888 15.699 13.3244 15.7333 12.9517 15.7676C12.9434 15.7861 12.9352 15.8046 12.9352 15.823C14.1278 15.9312 15.3122 16.0394 16.5048 16.1476C16.4965 16.1792 16.4882 16.2109 16.48 16.2426C16.0824 16.2346 15.6766 16.2346 15.2791 16.2215C14.8401 16.2056 14.3928 16.1924 13.9704 16.1502C13.5894 16.1133 13.2416 16.0394 12.8772 15.984C12.8441 16.0157 12.8026 16.0473 12.7695 16.079C13.6971 16.203 14.6165 16.3375 15.5606 16.4484C16.1238 16.5143 16.3143 16.6199 16.0244 16.8758C18.0287 16.9127 19.9916 16.9338 21.9462 16.9919C22.41 17.0051 22.8407 17.1396 23.2797 17.2135C22.8159 17.2373 22.3438 17.2637 21.7889 17.2927C21.938 17.3323 22.0456 17.3586 22.203 17.4009C19.1634 17.4009 16.1652 17.4009 13.1919 17.4009C13.225 17.4141 13.3244 17.4589 13.5232 17.5407C12.7032 17.5011 12.0241 17.4695 11.1545 17.4272C11.552 17.6568 12.0075 17.6885 12.4879 17.7069C12.8854 17.7228 13.341 17.6594 13.5563 17.8731C13.6226 17.9365 14.2272 17.9338 14.5916 17.9576C14.9809 17.984 15.5441 17.8969 15.5275 18.1739C15.5275 18.2241 16.1818 18.2821 16.5462 18.327C16.7119 18.3481 16.9934 18.3191 17.0763 18.3534C17.6312 18.5803 18.3517 18.4457 18.9895 18.4668C20.1407 18.5064 21.292 18.5249 22.4432 18.5512C22.4432 18.5882 22.4514 18.6278 22.4514 18.6647C21.7889 18.699 21.1346 18.7307 20.3643 18.7702C21.002 18.9866 21.6067 18.8309 22.1699 18.8098C22.6005 18.794 23.0312 18.7412 23.4619 18.7359C24.8864 18.7122 26.3193 18.699 27.7438 18.6832C27.8846 18.6805 28.1414 18.6753 28.1496 18.6832C28.2573 18.8652 28.5638 18.7386 28.7874 18.7386C30.154 18.7386 31.5205 18.7386 32.8871 18.7386C34.1626 18.7386 35.4297 18.7307 36.7052 18.7439C38.3617 18.7597 40.0264 18.7887 41.6828 18.8151C42.4696 18.823 43.2482 18.8309 44.035 18.8388C44.0267 18.8599 44.0267 18.8811 44.0184 18.9022C43.1239 18.9206 42.2377 18.9391 41.4095 18.9549C41.5089 18.9048 41.6 18.8547 41.6994 18.8072C41.1611 18.8758 40.4985 18.8177 40.0844 19.0341C39.9767 19.0921 39.4218 19.0499 39.0739 19.0526C38.4942 19.0552 37.9061 19.0526 37.3264 19.0526C37.3264 19.0737 37.3264 19.0948 37.3264 19.1159C38.9249 19.1159 40.5233 19.1159 42.039 19.1159C42.0804 19.1264 42.0141 19.108 41.7822 19.0473C43.9356 19.1344 45.9565 19.1027 48.0105 19.3138C46.9503 19.5512 45.9233 19.4325 44.9212 19.4378C43.1488 19.4457 41.3764 19.4721 39.604 19.4879C39.2893 19.4905 38.9745 19.4774 38.6681 19.4694C38.1297 19.4562 37.5831 19.4378 37.0448 19.4325C35.9101 19.4246 34.7672 19.4193 33.6325 19.4193C32.9119 19.4193 32.1997 19.4299 31.4791 19.4299C30.2202 19.4272 28.9696 19.4061 27.7107 19.4167C26.5843 19.4272 25.4496 19.4694 24.3232 19.4985C24.3315 19.5222 24.3315 19.546 24.3398 19.5697C25.0852 19.5539 25.8223 19.5248 26.5677 19.5275C27.719 19.5354 28.8702 19.5671 30.0214 19.5855C30.419 19.5908 30.8082 19.5803 31.2058 19.5908C31.9429 19.6146 32.6718 19.6515 33.4089 19.6752C33.765 19.6884 34.1211 19.6832 34.4773 19.6858C35.2807 19.6937 36.084 19.7175 36.8874 19.7095C37.55 19.7016 38.2043 19.6304 38.8586 19.6277C40.3577 19.6251 41.8568 19.6568 43.3559 19.6594C43.9356 19.6621 44.5237 19.604 45.0951 19.6119C45.9979 19.6251 46.9007 19.6937 47.8034 19.699C49.0126 19.7043 50.2301 19.6752 51.4393 19.6515C52.5326 19.6304 53.7169 19.4958 54.6942 19.5987C55.8869 19.7227 57.0133 19.6093 58.1479 19.6779C58.2473 19.6832 58.3301 19.7069 58.4295 19.7201C58.4212 19.7412 58.413 19.765 58.4047 19.7861C57.386 19.7861 56.3755 19.7861 55.3568 19.7861C55.3568 19.8177 55.3568 19.8494 55.3568 19.881C55.7709 19.881 56.185 19.8837 56.5992 19.881C59.2992 19.8599 61.9992 19.8309 64.6992 19.8151C65.9167 19.8072 67.1342 19.8283 68.3434 19.8177C69.0971 19.8098 69.8508 19.765 70.6044 19.7412C70.7204 19.7386 70.8446 19.7491 70.9606 19.765C71.4078 19.823 71.7722 19.9681 72.3603 19.8177C72.5922 19.7597 73.0974 19.8388 73.4784 19.8415C73.9919 19.8415 74.5054 19.823 75.0189 19.8177C75.5324 19.8151 76.0459 19.8336 76.5511 19.8177C77.164 19.7993 77.7769 19.7518 78.3898 19.7201C78.514 19.7148 78.7128 19.7043 78.7707 19.728C79.1517 19.8969 79.7563 19.8731 80.2201 19.8784C80.7171 19.8837 80.6259 19.947 80.6094 20.042C80.6591 20.0077 80.7419 19.9417 80.7502 19.9444C81.1478 19.9945 81.4459 19.9549 81.6861 19.8388C81.7109 19.8256 81.8186 19.823 81.8849 19.8283C82.8125 19.881 83.7484 19.9365 84.7588 19.9971C84.6263 20.0367 84.5849 20.0631 84.5352 20.0657C83.8395 20.0737 83.1438 20.0789 82.4398 20.0868C81.8186 20.0948 81.1809 20.1766 80.6011 20.0341C80.5597 20.0552 80.5183 20.0921 80.4852 20.0921C79.7729 20.0657 79.0689 20.0367 78.191 19.9998C77.6609 20.1291 71.8219 20.1211 71.4327 19.9839C70.8943 20.0077 70.4719 20.0262 70.0495 20.0446C70.0412 20.0314 70.0329 20.0209 70.0247 20.0077C70.1489 19.9813 70.2648 19.9576 70.3891 19.9312C70.0495 19.9523 69.6685 19.8652 69.3786 20.0394C69.2627 20.1106 68.567 20.0763 68.1363 20.0789C67.4075 20.0842 66.6786 20.0816 65.9498 20.0816C65.9498 20.108 65.9498 20.137 65.9498 20.1634C66.894 20.1634 67.8382 20.1634 68.7823 20.1634C69.155 20.1634 69.5277 20.1713 69.9004 20.1739C70.3725 20.1766 70.8529 20.166 71.325 20.1792C71.8054 20.195 72.2775 20.2399 72.7495 20.2663C72.9317 20.2768 73.1388 20.2847 73.3045 20.2636C74.1907 20.1634 75.0106 20.2109 75.8885 20.3111C76.3937 20.3692 77.0149 20.2979 77.5864 20.2847C77.7603 20.2821 77.9591 20.2557 78.0999 20.2795C78.8287 20.3956 79.6321 20.4061 80.3195 20.319C81.4708 20.1739 82.4563 20.3375 83.5082 20.4325C82.4812 20.4325 81.4459 20.4246 80.4189 20.4351C79.0192 20.4483 77.6112 20.4721 76.2115 20.4905C73.7103 20.5248 71.2008 20.575 68.6995 20.5908C67.5483 20.5987 66.4053 20.5407 65.2458 20.5328C67.8133 20.7517 70.4222 20.8177 73.2133 20.7254C73.0063 20.7676 72.9152 20.7887 72.8241 20.8045C72.7412 20.8177 72.6584 20.8256 72.5756 20.8652C74.1741 21.0314 75.7891 20.9048 77.3876 20.9048C77.3959 20.8784 77.3959 20.8547 77.4041 20.8283C76.9072 20.8177 76.4103 20.8098 75.9134 20.7992C75.9134 20.7834 75.9134 20.7676 75.9216 20.7544C80.1456 20.7174 84.3695 20.6805 88.5935 20.6436L88.5769 20.6462C88.7509 20.633 88.9165 20.6198 88.8999 20.6225C89.3637 20.6066 89.6288 20.5987 89.8855 20.5908C90.399 20.575 90.9042 20.5433 91.4177 20.5433C93.1487 20.5354 94.8797 20.5433 96.6107 20.5328C96.9503 20.5301 97.2816 20.4668 97.6377 20.4299C97.6957 20.443 97.8199 20.4958 97.9441 20.4958C99.2693 20.4958 100.594 20.4879 101.92 20.4853C102.98 20.4826 104.048 20.4879 105.108 20.4905L105.092 20.4958C106.152 20.4061 107.195 20.3481 108.206 20.5591C108.396 20.5987 108.645 20.6251 108.877 20.6277C109.473 20.633 110.069 20.6198 110.657 20.6145L110.674 20.6225C109.953 20.5882 109.225 20.5565 108.504 20.5222C108.512 20.4853 108.512 20.451 108.521 20.414C109.142 20.414 109.829 20.356 110.368 20.4272C111.303 20.5539 112.049 20.3058 112.91 20.3956C112.91 20.3744 112.91 20.3533 112.91 20.3322C112.546 20.3085 112.173 20.2821 111.66 20.2478C112.695 20.2478 113.573 20.2478 114.451 20.2478C114.451 20.2584 114.451 20.2689 114.451 20.2795C114.053 20.2874 113.656 20.2979 113.258 20.3058C113.241 20.3217 113.233 20.3401 113.217 20.356C113.457 20.3956 113.705 20.4325 113.871 20.4589C113.738 20.5459 113.614 20.633 113.49 20.7175L113.482 20.7095C113.747 20.7095 114.012 20.7095 114.268 20.7095C114.268 20.7016 114.268 20.6937 114.268 20.6858C114.111 20.6779 113.954 20.67 113.714 20.6594C114.376 20.3982 115.064 20.3744 115.917 20.4642C116.339 20.509 116.853 20.451 117.325 20.4457C118.02 20.4378 118.724 20.443 119.42 20.4299C119.842 20.4219 120.257 20.3956 120.679 20.3797C120.671 20.3481 120.662 20.319 120.654 20.2874C120.049 20.3058 119.445 20.3243 118.849 20.3428C118.849 20.3138 118.84 20.2847 118.84 20.2557C121.954 20.2241 125.068 20.1212 128.282 20.2478C128.116 20.2847 128.017 20.3296 127.918 20.327C126.758 20.3111 125.599 20.2847 124.431 20.2663C124.298 20.2636 124.157 20.3032 124.017 20.3085C123.71 20.3243 123.404 20.3481 123.106 20.3428C122.509 20.3296 121.913 20.2979 121.308 20.3217C121.921 20.5565 122.741 20.4193 123.437 20.4985C123.429 20.5248 123.42 20.5565 123.412 20.5934C123.487 20.5908 123.52 20.5934 123.528 20.5908C124.166 20.3058 125.011 20.5407 125.748 20.4985C126.518 20.4536 127.338 20.5196 128.199 20.538C128.141 20.5829 128.1 20.6251 128.025 20.6911C129.052 20.6911 130.054 20.6911 131.065 20.6911C131.073 20.6726 131.09 20.6515 131.098 20.633C130.336 20.604 129.582 20.575 128.82 20.546C128.829 20.5328 128.829 20.5196 128.837 20.5064C130.427 20.5064 132.026 20.5037 133.616 20.509C134.295 20.5117 134.982 20.5117 135.645 20.546C136.556 20.5934 137.442 20.6858 138.353 20.728C138.925 20.7544 139.513 20.7254 140.092 20.7227C140.556 20.7201 141.02 20.7227 141.5 20.7227C141.55 20.6752 141.616 20.6066 141.65 20.575C141.906 20.6225 142.18 20.699 142.238 20.6832C142.842 20.5116 143.472 20.5829 144.101 20.6436C144.134 20.6462 144.143 20.6673 144.167 20.6805C144.2 20.6594 144.225 20.6225 144.267 20.6198C144.764 20.5934 145.285 20.5882 145.774 20.5486C146.445 20.4932 146.702 20.6726 147.058 20.7887C147.381 20.8942 147.638 21.0605 148.093 20.8415C148.118 20.8283 148.251 20.823 148.292 20.8335C149.128 21.0684 149.832 20.8098 150.594 20.7623C151.547 20.7043 152.516 20.6673 153.46 20.6225C153.543 20.7386 153.584 20.8045 153.617 20.852C153.957 20.8072 154.247 20.7702 154.578 20.728C154.429 20.7148 154.272 20.699 153.998 20.6726C154.305 20.633 154.462 20.6093 154.628 20.5882C154.86 20.5565 155.141 20.48 155.315 20.5011C155.688 20.5486 155.348 20.6172 155.299 20.6911C155.232 20.7808 155.398 20.8995 155.547 20.9892C155.58 21.0077 155.97 20.9417 156.193 20.9417C157.021 20.9391 157.85 20.947 158.678 20.9549C158.86 20.9576 159.133 21.0182 159.191 20.9945C159.92 20.7201 160.79 20.9919 161.593 20.9153C162.405 20.8388 163.291 20.8573 164.144 20.8467C165.171 20.8335 166.198 20.8335 167.225 20.823C167.308 20.823 167.382 20.7755 167.457 20.7518C167.424 20.7254 167.399 20.699 167.366 20.67C168.368 20.7043 169.37 20.7386 170.29 20.7702C170.198 20.7544 170.016 20.7254 169.842 20.6963C169.859 20.6752 169.867 20.6541 169.884 20.633C170.207 20.6462 170.538 20.6779 170.853 20.6726C172.012 20.6541 173.172 20.6251 174.331 20.5987C174.472 20.5961 174.613 20.6014 174.754 20.6066C175.565 20.6436 175.565 20.6436 176.112 20.4562C175.913 20.4193 175.681 20.3402 175.474 20.3481C175.044 20.3613 174.431 20.3744 174.24 20.4694C173.909 20.633 173.71 20.5169 173.437 20.4826C173.586 20.4694 173.727 20.4562 173.843 20.4457C173.669 20.3718 173.511 20.3058 173.354 20.2399C173.395 20.2188 173.437 20.2003 173.47 20.1792C174.952 20.2979 176.41 20.2584 177.86 20.1528C177.86 20.1317 177.86 20.1106 177.86 20.0869C177.421 20.0869 176.973 20.0869 176.534 20.0869C176.534 20.071 176.534 20.0526 176.543 20.0367C177.263 20.0367 177.984 20.0367 178.713 20.0367C178.713 20.0499 178.721 20.0605 178.721 20.0737C178.522 20.0842 178.315 20.0921 178.116 20.1027C178.108 20.1185 178.1 20.1343 178.083 20.1502C178.34 20.1845 178.588 20.2161 178.903 20.2584C178.414 20.356 178.058 20.5486 177.412 20.385C177.363 20.3718 177.238 20.385 177.156 20.3982C176.775 20.4615 176.394 20.5301 175.938 20.6093C180.402 20.6251 184.817 20.5301 189.38 20.6832C188.204 20.4299 186.887 20.5908 185.802 20.4088C186.059 20.2979 186.738 20.4905 186.796 20.232C187.343 20.5644 188.403 20.3876 189.231 20.4826C189.687 20.5354 190.184 20.5539 190.656 20.5882C190.647 20.6066 190.639 20.6277 190.622 20.6462C190.283 20.6409 189.952 20.633 189.595 20.6251C189.952 20.7649 190.556 20.8019 190.929 20.7175C191.252 20.6436 191.268 20.5855 190.962 20.5275C190.631 20.4642 190.275 20.4193 189.927 20.3322C190.598 20.3322 191.268 20.3322 191.857 20.3322C192.42 20.3744 192.942 20.414 193.546 20.4589C193.223 20.5591 192.999 20.6277 192.842 20.6752C193.836 20.7412 194.813 20.8045 195.782 20.8679C195.807 20.8335 195.84 20.7966 195.865 20.7623C195.178 20.6937 194.482 20.6251 193.795 20.5591C193.795 20.538 193.803 20.5169 193.803 20.4932C194.308 20.4932 194.822 20.5143 195.31 20.4879C195.782 20.4615 196.221 20.3876 196.743 20.3876C196.594 20.4167 196.445 20.4457 196.296 20.4747C196.304 20.4985 196.304 20.5248 196.312 20.5486C197.745 20.5934 199.186 20.6383 200.619 20.6832C200.627 20.6515 200.644 20.6198 200.652 20.5882C199.923 20.5618 199.195 20.5328 198.466 20.5064C198.457 20.4905 198.457 20.4747 198.449 20.4615C198.714 20.451 198.979 20.4431 199.244 20.4325C199.915 20.4035 200.594 20.3692 201.265 20.3402C201.348 20.3375 201.439 20.3428 201.547 20.3454C201.522 20.3982 201.505 20.4404 201.472 20.5143C202.019 20.3613 202.499 20.3375 203.004 20.4668C203.079 20.4879 203.253 20.4879 203.344 20.4747C204.238 20.3322 205.158 20.3164 206.11 20.3797C206.193 20.385 206.292 20.3771 206.384 20.3665C206.408 20.3639 206.425 20.3428 206.466 20.3164C205.953 20.2821 205.448 20.2504 204.951 20.2161C204.959 20.2029 204.967 20.1924 204.976 20.1792C205.796 20.1396 206.615 20.0974 207.435 20.0578C207.444 20.0684 207.452 20.0763 207.46 20.0869C207.27 20.108 207.071 20.1291 206.856 20.1502C207.228 20.1818 207.576 20.2135 207.932 20.2425C207.924 20.261 207.916 20.2795 207.908 20.2953C207.609 20.3085 207.319 20.3217 206.972 20.3375C207.22 20.3692 207.419 20.3929 207.609 20.4193L207.585 20.4114C208.189 20.6093 208.992 20.5301 209.564 20.48C210.55 20.3929 211.485 20.4061 212.463 20.4193C212.786 20.4219 213.109 20.4193 213.432 20.3744C212.214 20.3797 211.022 20.1238 209.746 20.4035C209.721 20.2663 209.705 20.1686 209.672 20.0077C209.995 20.0657 210.21 20.108 210.467 20.1528C211.312 19.9681 212.272 19.9365 213.158 20.0842C213.672 20.0341 214.111 19.9945 214.542 19.9549C214.542 19.947 214.55 19.9391 214.55 19.9312C214.036 19.9312 213.515 19.9312 213.001 19.9312C212.993 19.9101 212.985 19.8916 212.985 19.8705C213.291 19.8468 213.597 19.8177 213.912 19.7993C214.219 19.7808 214.542 19.7755 214.931 19.7623C215.014 19.7834 215.179 19.8573 215.353 19.8573C216.14 19.8599 216.919 19.8415 217.705 19.8336C218.293 19.8256 218.881 19.8309 219.461 19.8125C220.555 19.7755 221.648 19.6805 222.733 19.6884C223.685 19.6964 224.588 19.5987 225.524 19.604C227.064 19.6093 228.613 19.6146 230.154 19.6066C231.181 19.6014 232.216 19.575 233.243 19.5618C233.4 19.5592 233.558 19.5776 233.715 19.5882C233.715 19.6093 233.723 19.6304 233.723 19.6515C232.589 19.6911 231.454 19.7333 230.319 19.7729C230.311 19.7834 230.311 19.7913 230.303 19.8019C231.785 19.8019 233.268 19.8019 234.858 19.8019C234.543 19.7333 234.303 19.6805 233.988 19.6093C237.326 19.5644 240.54 19.5407 243.753 19.6093C243.753 19.6462 243.753 19.6832 243.761 19.7227C242.353 19.7227 240.945 19.7227 239.546 19.7227C239.546 19.7412 239.554 19.7623 239.554 19.7808C241.401 19.7808 243.248 19.7808 245.12 19.7808C245.136 19.6858 245.153 19.6251 245.178 19.4958C247.372 19.4958 249.551 19.4958 251.721 19.4958C251.721 19.48 251.721 19.4642 251.721 19.4483C250.462 19.4483 249.203 19.4536 247.944 19.4457C247.621 19.4431 247.157 19.5275 247 19.3296C246.991 19.3191 246.544 19.3402 246.321 19.3639C245.956 19.4035 245.617 19.4589 245.26 19.509C245.236 19.4826 245.211 19.4563 245.178 19.4299C245.343 19.414 245.509 19.3956 245.774 19.3692C244.979 19.3428 244.291 19.3191 243.612 19.2953C243.612 19.2795 243.604 19.2636 243.604 19.2478C244.349 19.2478 245.095 19.2478 245.84 19.2478C245.848 19.2162 245.848 19.1871 245.857 19.1555C245.194 19.1396 244.532 19.1238 243.869 19.108C243.869 19.0948 243.869 19.079 243.869 19.0658C244.648 19.0658 245.426 19.0631 246.196 19.0737C246.263 19.0737 246.312 19.1766 246.412 19.2689C246.602 19.2214 246.834 19.1634 247.074 19.108C247.149 19.0921 247.256 19.0763 247.339 19.0789C248.192 19.1264 249.021 19.0974 249.865 19.0499C250.487 19.0156 251.141 19.0552 251.779 19.0552C252.019 19.0552 252.251 19.0394 252.491 19.0315C252.483 19.0077 252.483 18.9866 252.474 18.9629C249.542 18.9629 246.61 18.9629 243.687 18.9629C243.687 18.9259 243.687 18.889 243.679 18.852C246.213 18.852 248.747 18.852 251.282 18.852C251.29 18.8151 251.29 18.7755 251.298 18.7386C250.404 18.7122 249.518 18.6885 248.623 18.6621C248.615 18.6726 248.606 18.6858 248.59 18.6964C248.673 18.7122 248.764 18.7254 248.921 18.7544C248.59 18.7755 248.317 18.7914 247.936 18.8125C248.06 18.7307 248.134 18.6832 248.201 18.6383C247.671 18.6383 247.174 18.6383 246.685 18.6383C246.685 18.6172 246.685 18.5987 246.685 18.5776C247.008 18.5776 247.364 18.604 247.654 18.5697C248.002 18.5275 248.292 18.4325 248.656 18.3507C248.706 18.3692 248.789 18.4061 248.88 18.4431C248.739 18.4589 248.598 18.4721 248.466 18.4879C248.474 18.5011 248.482 18.5143 248.491 18.5275C248.996 18.5275 249.509 18.5275 250.014 18.5275C250.014 18.5143 250.023 18.4985 250.023 18.4853C249.766 18.48 249.509 18.4747 249.244 18.4695C249.998 18.2742 250.909 18.2003 251.737 18.2135C252.955 18.232 254.139 18.0737 255.381 18.1977C255.837 18.2425 256.441 18.1238 256.972 18.0816C256.963 18.0605 256.963 18.0367 256.955 18.0156C256.698 18.0156 256.45 18.0156 256.193 18.0156C256.193 17.9893 256.185 17.9655 256.185 17.9391C256.996 17.9233 257.816 17.9048 258.628 17.889C258.636 17.9127 258.653 17.9391 258.661 17.9629C258.206 17.9893 257.75 18.0183 257.295 18.0447C257.941 18.0763 258.611 18.166 259.092 17.9233C259.183 17.8758 259.564 17.8864 259.821 17.8864C260.409 17.8811 261.005 17.8837 261.601 17.8837C261.601 17.9154 261.601 17.947 261.601 17.9787C260.79 17.9787 259.978 17.9787 259.166 17.9787C259.166 18.0104 259.166 18.0394 259.158 18.071C259.771 18.071 260.376 18.0684 260.988 18.071C262.769 18.0816 264.55 18.0974 266.33 18.1027C266.985 18.1054 266.637 18.232 266.538 18.3718C266.993 18.3929 267.415 18.4114 267.838 18.4272C267.846 18.4009 267.863 18.3745 267.871 18.3454C267.54 18.3323 267.208 18.3191 266.794 18.3032C267.912 18.0816 268.177 18.0763 269.113 18.1766C269.61 18.1555 270.115 18.137 270.612 18.108C270.886 18.0895 271.151 18.0499 271.424 18.0183L271.441 18.0209C270.786 18.0209 270.132 18.0209 269.478 18.0209C269.478 17.984 269.478 17.947 269.478 17.9101C270.132 17.9101 270.778 17.9101 271.432 17.9101C271.432 17.8916 271.432 17.8705 271.432 17.8521C270.422 17.8019 269.411 17.7492 268.401 17.699C268.111 17.7149 267.805 17.7518 267.531 17.736C267.142 17.7122 266.769 17.6515 266.388 17.604C266.264 17.6568 266.148 17.7096 265.966 17.7887C265.428 17.7887 264.773 17.7887 264.119 17.7887C264.119 17.7729 264.111 17.7571 264.111 17.7412C264.599 17.7412 265.088 17.7412 265.577 17.7412C265.593 17.7148 265.61 17.6885 265.626 17.6647C265.419 17.6357 265.212 17.6067 265.055 17.5829C265.27 17.5381 265.519 17.4879 265.759 17.4404C265.726 17.4141 265.684 17.3877 265.651 17.3639C264.889 17.4167 264.119 17.4695 263.357 17.5222C263.341 17.5011 263.332 17.48 263.316 17.4563C263.622 17.4404 263.92 17.4273 264.227 17.4114C264.235 17.4009 264.235 17.3903 264.243 17.3798C263.415 17.298 262.587 17.2135 261.717 17.1291C261.759 17.174 261.792 17.2109 261.891 17.3217C261.436 17.2558 261.104 17.2083 260.798 17.166C260.674 17.3244 260.442 17.3349 259.895 17.2241C259.663 17.1766 259.241 17.2188 258.934 17.2478C258.404 17.298 257.941 17.2505 257.435 17.2056C257.046 17.1713 256.566 17.1819 256.185 17.2267C255.878 17.261 255.646 17.3798 255.663 17.1608C255.348 17.166 254.843 17.1291 254.744 17.1819C254.321 17.4088 254.214 17.2478 254.048 17.1502C253.808 17.2003 253.568 17.2531 253.162 17.3375C253.22 17.2214 253.245 17.174 253.278 17.1212C253.112 17.1054 252.946 17.0869 252.714 17.0631C252.913 17.0288 253.046 17.0051 253.286 16.9629C253.12 16.9075 253.013 16.8705 252.922 16.8362C253.029 16.831 253.195 16.823 253.369 16.8151C253.369 16.7993 253.377 16.7835 253.377 16.7676C252.864 16.7676 252.358 16.7676 251.845 16.7676C254.686 16.4932 257.56 16.546 260.442 16.7228C260.45 16.6832 260.458 16.6463 260.467 16.6067C259.953 16.5882 259.448 16.5697 258.934 16.5486C258.926 16.5354 258.926 16.5249 258.918 16.5117C259.257 16.5038 259.605 16.4774 259.937 16.4932C261.129 16.5539 262.322 16.6331 263.515 16.7043C263.945 16.7307 264.384 16.7492 264.815 16.7703L264.79 16.7676C265.196 16.794 265.602 16.8178 266.007 16.8441C266.024 16.8283 266.049 16.8151 266.065 16.7993C265.56 16.7096 265.047 16.5407 264.55 16.5486C264.061 16.5539 263.606 16.5777 263.142 16.5196C262.976 16.4985 262.827 16.4668 262.537 16.4167C264.185 16.4167 265.643 16.4193 267.101 16.4141C267.531 16.4114 267.97 16.3587 268.393 16.3719C269.908 16.4246 271.416 16.4959 272.931 16.5592C273.064 16.5645 273.304 16.5697 273.312 16.5566C273.586 16.2241 274.48 16.4167 275.126 16.269C274.787 16.5724 275.176 16.6463 275.839 16.6753C276.46 16.7017 277.073 16.7624 277.694 16.8072C277.677 16.8362 277.669 16.8626 277.652 16.8916C276.733 16.8442 275.805 16.794 274.886 16.7465C274.878 16.7676 274.861 16.7861 274.853 16.8072C275.93 16.8864 277.015 16.9682 278.017 17.042C278.315 16.9418 277.354 16.86 278.398 16.7914C277.47 16.7069 276.799 16.6463 276.12 16.5856C276.12 16.5724 276.112 16.5592 276.112 16.5434C276.269 16.5328 276.435 16.517 276.592 16.5117C276.683 16.5091 276.857 16.5354 276.865 16.5328C277.081 16.2927 277.627 16.4484 277.975 16.4405C278.646 16.4273 279.325 16.4695 279.93 16.2452C279.723 16.2558 279.516 16.2769 279.499 16.2663C279.118 16.0077 278.613 16.1581 278.133 16.2083C278 16.2215 277.859 16.2399 277.727 16.2347C276.998 16.2083 276.277 16.1687 275.549 16.1502C275.234 16.1423 274.919 16.1819 274.604 16.1792C274.273 16.174 273.942 16.1449 273.611 16.1265C273.619 16.1001 273.627 16.0763 273.635 16.05C274.074 16.05 274.513 16.05 274.944 16.05C274.944 16.0368 274.952 16.0262 274.952 16.013C273.842 15.8996 272.741 15.7808 271.631 15.6779C271.234 15.641 270.803 15.6331 270.389 15.5777C271.002 15.5566 271.623 15.5381 272.236 15.517C272.236 15.5091 272.244 15.4985 272.244 15.4906C271.623 15.4642 271.002 15.4352 270.372 15.4088C270.455 15.2822 270.571 15.1977 271.035 15.2584C271.25 15.2874 271.681 15.2927 271.764 15.2505C272.227 15.013 272.882 15.1159 273.47 15.1239C273.751 15.1265 274.025 15.1951 274.497 15.2637C273.826 15.2637 273.37 15.2637 272.923 15.2637C272.923 15.2742 272.915 15.2848 272.915 15.2954C273.362 15.3297 273.818 15.364 274.265 15.3983C274.257 15.4246 274.248 15.4484 274.232 15.4748C273.867 15.4589 273.503 15.4431 273.138 15.4273C273.13 15.4563 273.122 15.488 273.122 15.517C274.165 15.5355 275.217 15.5513 276.261 15.5698C276.261 15.5566 276.269 15.5434 276.269 15.5302C275.731 15.5064 275.201 15.4827 274.662 15.4589C274.662 15.4378 274.662 15.4167 274.662 15.3956C275.267 15.4114 275.872 15.4299 276.476 15.4457C276.65 15.451 276.824 15.4484 276.998 15.4431C277.164 15.4405 277.321 15.422 277.478 15.4273C277.901 15.4378 278.323 15.4484 278.737 15.4774C278.994 15.4959 279.234 15.5487 279.508 15.5882C279.623 15.5275 279.739 15.4642 279.955 15.3508C279.59 15.2663 279.151 15.1661 278.654 15.0526C278.886 15.0737 279.069 15.0895 279.35 15.1133C279.251 15.0341 279.193 14.9893 279.11 14.9154C279.358 14.9603 279.549 14.9946 279.739 15.0262C279.773 15.013 279.814 14.9998 279.847 14.9867C279.64 14.9101 279.425 14.831 279.218 14.7545C279.309 14.7254 279.441 14.6885 279.491 14.67C279.085 14.6357 278.679 14.5935 278.265 14.5724C277.859 14.5513 277.445 14.5487 276.981 14.5355C277.056 14.4748 277.114 14.4299 277.18 14.3798C276.675 14.3297 276.186 14.2822 275.698 14.2347C275.714 14.2136 275.731 14.1898 275.747 14.1687C276.021 14.1925 276.286 14.232 276.559 14.2347C276.923 14.2373 277.28 14.1977 277.644 14.1951C277.959 14.1925 278.273 14.2188 278.704 14.2373C278.505 14.1951 278.381 14.1687 278.257 14.1397C278.273 14.1159 278.282 14.0948 278.298 14.0711C278.737 14.0922 279.176 14.1133 279.615 14.1344C279.375 14.0078 279.168 13.9022 278.969 13.794C279.019 13.7835 279.069 13.7729 279.118 13.7597C278.737 13.7439 278.356 13.7255 277.95 13.707C278.273 13.6305 278.563 13.5249 278.911 13.4906C279.325 13.4484 279.797 13.4669 280.369 13.459C280.137 13.4167 279.996 13.3904 279.764 13.3481C280.013 13.3138 280.178 13.2901 280.361 13.2663C279.897 13.1714 279.45 13.079 279.002 12.9867C278.654 12.9629 278.307 12.9392 277.967 12.9154C278.282 12.8495 278.539 12.7993 278.828 12.7386C278.837 12.7439 278.919 12.7861 278.953 12.8073C279.516 12.6648 279.623 12.9392 280.004 12.9445C279.806 12.9656 279.566 12.9788 279.325 12.9946ZM257.253 15.4246C257.526 15.4088 257.849 15.4194 258.057 15.3692C258.57 15.2426 259.597 15.2795 260.053 15.4695C259.357 15.4932 258.678 15.4563 257.965 15.4932C256.673 15.5618 255.357 15.5566 254.048 15.5829C254.04 15.5592 254.04 15.5328 254.031 15.5091C254.545 15.4959 255.067 15.4827 255.58 15.4695C256.143 15.4537 256.707 15.4378 257.27 15.422C256.615 15.422 255.969 15.422 255.315 15.422C255.315 15.3877 255.323 15.3508 255.323 15.3165C256.127 15.3165 256.938 15.3165 257.899 15.3165C257.601 15.364 257.427 15.3956 257.253 15.4246ZM137.053 1.02109C137.235 0.796819 137.707 0.923467 138.055 0.931382C138.328 0.939298 138.635 1.02109 138.842 0.99207C139.72 0.875978 140.341 1.10816 141.103 1.15301C140.333 1.18732 139.579 1.19523 138.825 1.18732C138.304 1.18204 137.79 1.16621 137.277 1.13983C137.185 1.13719 137.127 1.06331 137.053 1.02109C136.804 1.02373 136.548 1.03164 136.299 1.02901C135.719 1.02109 135.131 1.0079 134.552 0.999986C134.369 0.997348 134.187 1.0079 134.013 1.01317C134.013 0.986791 134.005 0.960412 134.005 0.936665C134.949 0.899726 135.893 0.860143 136.838 0.823203C136.846 0.841672 136.854 0.860143 136.862 0.881251C136.763 0.912913 136.672 0.944575 136.531 0.98943C136.722 0.999984 136.887 1.01054 137.053 1.02109ZM269.146 14.6041C268.956 14.6252 268.683 14.6278 268.6 14.6727C268.335 14.8099 267.788 14.8336 267.391 14.707C267.482 14.6938 267.581 14.6832 267.714 14.6648C266.902 14.6463 266.148 14.6278 265.395 14.6093C265.403 14.5935 265.403 14.575 265.411 14.5592C265.701 14.5144 265.999 14.4669 266.422 14.4009C266.032 14.3376 265.842 14.3086 265.569 14.2663C266.43 14.203 266.405 14.2057 266.695 14.4616C266.753 14.5117 267.01 14.5355 267.184 14.5698C267.192 14.5724 267.242 14.5513 267.275 14.5407C267.192 14.5038 267.109 14.4642 266.919 14.3798C267.738 14.3798 268.409 14.3798 269.088 14.3798C269.088 14.3956 269.097 14.4088 269.097 14.4247C268.567 14.4431 268.037 14.4589 267.515 14.4774C267.515 14.5012 267.523 14.5223 267.523 14.546C268.07 14.546 268.608 14.546 269.155 14.546C269.345 14.5196 269.544 14.4933 269.726 14.4669C269.66 14.4247 269.602 14.3851 269.478 14.3059C270.173 14.3006 270.579 14.4748 271.283 14.4352C272.186 14.3824 273.196 14.5328 274.157 14.6041C274.29 14.6146 274.397 14.6727 274.513 14.7096C274.488 14.7254 274.464 14.7413 274.431 14.7571C273.445 14.699 272.459 14.6384 271.35 14.5724C271.631 14.6568 271.805 14.707 271.971 14.7571C271.523 14.889 271.076 14.9075 270.488 14.7571C270.886 14.7492 271.151 14.7439 271.416 14.7386C271.424 14.7149 271.424 14.6911 271.432 14.6674C271.209 14.6568 270.977 14.6278 270.761 14.641C270.306 14.67 269.867 14.7228 269.42 14.765C269.403 14.7465 269.387 14.7307 269.37 14.7122C269.436 14.6991 269.511 14.6859 269.602 14.67C269.445 14.6463 269.296 14.6252 269.146 14.6041ZM278.654 4.11341C278.141 4.0923 277.627 4.06856 277.114 4.04745C277.106 4.058 277.106 4.0712 277.097 4.08175C277.429 4.11341 277.76 4.14244 278.091 4.1741C278.091 4.18729 278.091 4.20312 278.091 4.21632C277.81 4.23742 277.52 4.25853 277.238 4.277C277.238 4.29019 277.238 4.30339 277.246 4.31658C277.984 4.34824 278.721 4.3799 279.458 4.40892C279.45 4.42475 279.441 4.44322 279.441 4.45905C279.193 4.47752 278.953 4.496 278.53 4.52766C278.878 4.56724 279.044 4.58571 279.209 4.60418C279.201 4.61473 279.193 4.62528 279.185 4.6332C278.232 4.60417 277.271 4.57515 276.319 4.54613C276.319 4.53558 276.319 4.52502 276.327 4.51447C276.75 4.50391 277.164 4.49336 277.801 4.47753C276.841 4.28755 276.095 4.11342 275.101 4.22423C275.714 4.11869 276.311 4.02634 276.907 3.93927C277.255 3.89442 278.439 4.01579 278.654 4.11341C279.185 3.90497 279.648 4.16882 280.145 4.1398C280.12 4.1741 280.104 4.21104 280.096 4.22687C279.831 4.20577 279.632 4.1873 279.425 4.16883C279.4 4.18993 279.383 4.21368 279.358 4.23479C279.623 4.26645 279.889 4.29811 280.154 4.32977C280.145 4.3456 280.129 4.36143 280.12 4.37726C279.499 4.34296 278.878 4.30866 278.257 4.27436C278.257 4.2559 278.257 4.23479 278.257 4.21632C278.522 4.2084 278.787 4.20312 279.052 4.19521C279.06 4.17937 279.06 4.16618 279.069 4.15035C278.928 4.13716 278.787 4.1266 278.654 4.11341ZM271.83 6.30073C272.103 6.32975 272.385 6.35613 272.633 6.38252C272.542 6.32711 272.451 6.27434 272.368 6.22949C272.898 6.26379 273.337 6.29017 273.785 6.3192C273.801 6.29281 273.818 6.26906 273.834 6.24268C273.346 6.18727 272.857 6.12923 272.352 6.07118C272.973 6.07118 273.528 6.04479 274.041 6.07909C274.497 6.11076 274.911 6.20838 275.35 6.27698C275.325 6.29809 275.3 6.31656 275.275 6.33767C274.903 6.30864 274.522 6.27961 274.033 6.24004C274.414 6.58304 275.11 6.36141 275.598 6.44321C274.339 6.52236 273.122 6.74135 271.797 6.53027C271.813 6.4432 271.83 6.36669 271.846 6.29017C271.474 6.29017 271.101 6.29017 270.728 6.29017C270.728 6.306 270.728 6.32183 270.728 6.33503C270.894 6.34822 271.06 6.36405 271.225 6.37724C270.008 6.54347 269.469 6.06326 268.36 6.11339C268.376 6.08701 268.393 6.06062 268.418 6.03424C268.815 6.05007 269.213 6.0659 269.677 6.08173C269.362 5.89968 269.668 5.88648 270 5.89704C270.538 5.91023 271.076 5.93133 271.615 5.95244C271.772 5.95772 271.929 5.98147 272.078 5.99466C272.07 6.00785 272.062 6.02368 272.054 6.03688C271.623 6.05007 271.184 6.06062 270.67 6.07645C271.134 6.17144 271.482 6.23476 271.83 6.30073ZM269.03 2.86013C269.022 2.91026 269.014 2.96039 269.006 3.01052C268.915 3.00525 268.765 3.00789 268.749 2.99469C268.5 2.74667 267.912 2.75723 267.316 2.75723C267.084 2.75723 266.861 2.74931 266.629 2.74667C266.43 2.74403 266.239 2.74667 266.041 2.74667C267.101 2.63322 268.119 2.62266 269.039 2.86804C269.395 2.85221 269.751 2.81264 270.107 2.82055C271.01 2.83902 271.913 2.8786 272.815 2.91026C272.824 2.89707 272.824 2.88123 272.832 2.86804C271.772 2.80999 270.712 2.74931 269.494 2.68335C269.776 2.64905 269.975 2.6042 270.165 2.60948C271.358 2.6385 272.55 2.67544 273.743 2.71501C273.892 2.72029 274.033 2.75459 274.182 2.77306C274.124 2.79417 274.066 2.81527 274.008 2.83638C273.727 2.86013 273.445 2.88651 273.155 2.91026C273.155 2.92081 273.163 2.93137 273.163 2.94192C273.404 2.95511 273.644 2.97094 273.892 2.98414C273.9 3.00524 273.9 3.02372 273.909 3.04483C273.727 3.05538 273.536 3.0844 273.362 3.07649C271.921 3.01052 270.48 2.93664 269.03 2.86013ZM257.386 3.4749C255.82 3.4749 254.263 3.4749 252.698 3.4749C252.698 3.45115 252.69 3.43004 252.69 3.4063C253.245 3.38255 253.808 3.34298 254.363 3.34298C255.058 3.34034 255.754 3.35881 256.441 3.38519C256.764 3.39838 257.071 3.44851 257.386 3.48017C257.684 3.41685 257.982 3.35353 258.338 3.27701C256.102 3.27701 253.899 3.27701 251.712 3.27701C251.687 3.19258 251.663 3.10815 251.621 2.97622C252.922 3.06065 254.296 2.85749 255.464 3.04746C256.003 3.03163 256.417 3.01843 256.839 3.00788C256.847 3.02635 256.856 3.04483 256.856 3.0633C256.69 3.0844 256.524 3.10551 256.359 3.12662C257.883 3.06329 259.183 3.50392 260.715 3.32978C260.144 3.31395 259.572 3.29812 258.992 3.28229C259.001 3.23743 259.017 3.18994 259.026 3.14509C260.616 3.18467 262.206 3.22424 263.796 3.26118C263.796 3.28229 263.788 3.30076 263.788 3.32186C263.564 3.32978 263.341 3.34033 263.125 3.34825C263.117 3.37727 263.109 3.4063 263.1 3.43268C263.564 3.44851 264.028 3.46434 264.492 3.48017C264.492 3.49864 264.484 3.51448 264.484 3.53295C264.086 3.53295 263.688 3.53295 263.299 3.53295C263.291 3.55669 263.291 3.58044 263.283 3.60683C264.467 3.63849 265.643 3.67015 266.827 3.70181C266.827 3.72291 266.819 3.74139 266.819 3.7625C266.62 3.76777 266.422 3.7836 266.223 3.77833C266.041 3.77305 265.858 3.7493 265.676 3.73347C265.668 3.74402 265.651 3.75458 265.643 3.76777C265.834 3.80999 266.032 3.85221 266.256 3.90498C265.991 3.9683 265.792 4.01843 265.726 4.03426C265.436 3.97885 265.254 3.93399 265.055 3.90761C264.426 3.82845 263.763 3.90497 263.125 3.87331C262.794 3.85748 262.454 3.83373 262.098 3.80999C261.949 3.83637 261.701 3.88387 261.369 3.94455C261.403 3.85484 261.411 3.82318 261.411 3.81526C261.104 3.84428 260.815 3.90233 260.574 3.88386C260.301 3.86539 260.061 3.77833 259.812 3.72292C259.779 3.73875 259.754 3.75458 259.721 3.77041C259.812 3.81263 259.912 3.8522 259.995 3.88914C259.075 3.84956 258.197 3.80999 257.319 3.77041C257.344 3.65959 257.369 3.56725 257.386 3.4749ZM262.612 15.0078C262.984 15.0605 262.976 15.0605 263.051 15.2267C263.067 15.2584 263.175 15.2901 263.266 15.3059C263.307 15.3138 263.423 15.2954 263.473 15.2795C263.771 15.1819 264.881 15.137 265.27 15.174C265.618 15.2083 266.007 15.1951 266.372 15.203C266.372 15.1819 266.372 15.1608 266.38 15.1397C266.281 15.1291 266.173 15.1186 265.9 15.0869C267.465 15.1291 268.857 15.1687 270.24 15.2083C270.273 15.2268 270.298 15.2452 270.331 15.2637C270.016 15.3138 269.701 15.3639 269.329 15.4246C269.552 15.4695 269.743 15.5064 269.975 15.5539C269.544 15.5777 269.204 15.5961 268.707 15.6225C269.006 15.7017 269.155 15.7413 269.32 15.7835C268.368 16.0236 262.396 16.0632 260.119 15.8468C260.425 15.8019 260.69 15.7624 260.964 15.7202C260.881 15.5856 260.434 15.364 260.019 15.2901C260.342 15.298 260.541 15.3033 260.748 15.3085C260.781 15.2848 260.815 15.261 260.856 15.2373C260.549 15.174 260.243 15.108 260.036 15.0658C260.359 15.0078 260.69 14.9471 261.022 14.8864C261.013 14.8679 261.005 14.8494 260.988 14.831C259.398 14.8046 257.816 14.7782 256.226 14.7518C256.218 14.7782 256.201 14.802 256.193 14.8283C257.328 14.8679 258.454 14.9075 259.589 14.9444C259.589 14.9655 259.58 14.9893 259.58 15.0104C258.032 14.984 256.483 14.9576 254.942 14.9312C254.942 14.9075 254.951 14.8837 254.951 14.86C255.597 14.8653 255.588 14.8626 256.052 14.6911C256.118 14.6647 256.251 14.6436 256.35 14.6463C257.319 14.6595 258.28 14.6779 259.249 14.6938C260.682 14.7149 262.115 14.7307 263.548 14.7545C263.655 14.7571 263.755 14.794 263.862 14.8151C263.846 14.8389 263.838 14.8653 263.821 14.889C263.365 14.8811 262.91 14.8626 262.463 14.8679C262.007 14.8732 261.485 14.8363 261.08 14.9998C262.181 15.1133 262.512 15.2611 262.305 15.5223C262.537 15.5223 262.769 15.5223 262.885 15.5223C262.811 15.4405 262.719 15.3666 262.678 15.2874C262.62 15.1951 262.628 15.0975 262.612 15.0078ZM73.5529 1.11871C73.0228 1.12926 72.559 1.13983 72.1035 1.15038C71.2173 1.17149 70.3394 1.18731 69.4532 1.2137C69.0722 1.22425 68.6333 1.30605 68.3268 1.26383C67.6725 1.17149 67.0348 1.20315 66.3805 1.20843C65.5523 1.21634 64.724 1.21106 63.8875 1.21106C64.2354 1.0976 64.6661 0.984153 65.1382 0.960407C65.8173 0.926107 66.5379 0.989425 67.217 0.955126C68.7078 0.878609 70.182 1.04747 71.6646 0.965681C71.8385 0.955128 72.029 1.02637 72.2278 1.0422C72.4017 1.05539 72.5922 1.05011 72.7744 1.04483C73.1471 1.03164 73.5281 0.997345 73.9008 0.999983C74.3149 1.00262 74.7456 1.07386 75.1348 1.05012C75.7063 1.01581 76.0376 1.08705 76.3855 1.248C75.4081 1.248 74.5054 1.248 73.5612 1.248C73.5529 1.24273 73.5529 1.18995 73.5529 1.11871ZM268.442 3.60418C269.619 3.91553 269.884 3.91289 271.225 3.62793C271.432 3.58308 271.855 3.56461 272.012 3.60683C272.377 3.70709 272.749 3.74139 273.205 3.71236C273.188 3.7836 273.172 3.83637 273.172 3.82846C273.702 3.83901 274.165 3.84956 274.638 3.86012C274.638 3.87859 274.638 3.89706 274.638 3.91552C274.447 3.95246 274.248 3.99205 273.975 4.04482C274.281 4.05537 274.488 4.06329 274.704 4.06856C273.942 4.11869 273.18 4.13452 272.418 4.16354C271.076 4.21631 269.867 3.88123 268.5 3.99996C268.484 3.99996 268.459 3.97885 268.401 3.95247C268.55 3.92344 268.691 3.89706 268.931 3.85484C268.65 3.83638 268.459 3.82582 268.277 3.81263C268.343 3.73347 268.393 3.67015 268.442 3.60418ZM97.7371 20.2346C97.7454 20.2663 97.7454 20.2953 97.7536 20.327C97.323 20.327 96.8923 20.3217 96.4616 20.327C95.5671 20.3375 94.6727 20.3533 93.7782 20.3639C92.7098 20.3797 91.6413 20.3982 90.5729 20.4061C89.0076 20.4167 87.4423 20.4061 85.8769 20.4272C85.1067 20.4378 83.9223 20.3718 83.4751 20.2241C84.8499 20.2241 86.1668 20.2109 87.4837 20.2293C88.4361 20.2399 89.3803 20.3111 90.3245 20.3164C91.5088 20.3217 92.6849 20.2821 93.8693 20.2715C94.6809 20.2636 95.4926 20.2689 96.3043 20.2636C96.7763 20.261 97.2567 20.2452 97.7371 20.2346ZM128.762 1.04748C129.483 0.667533 129.748 0.633231 130.775 0.722939C130.874 0.730855 130.999 0.736134 131.098 0.725581C132.117 0.627955 133.069 0.730857 133.98 0.799458C133.665 1.12399 133.011 1.05803 132.332 1.00526C131.81 0.965682 131.264 0.928746 130.734 0.934024C130.146 0.944577 129.549 0.999983 128.762 1.04748ZM280.452 4.50391C280.973 4.62001 281.421 4.72291 281.876 4.82581C281.901 4.80734 281.934 4.78887 281.959 4.76776C281.893 4.71499 281.835 4.65958 281.769 4.60681C281.802 4.5857 281.843 4.56195 281.876 4.54085C282.423 4.59889 282.97 4.65694 283.69 4.73082C283.309 4.76248 283.11 4.78095 283.011 4.78887C283.326 4.89441 283.649 5.00523 284.005 5.12396C283.674 5.19784 283.582 5.37989 282.912 5.21367C282.531 5.11868 281.885 5.13979 281.752 4.91024C281.752 4.9076 281.711 4.90496 281.686 4.90496C281.172 4.8733 280.659 4.839 280.154 4.80734C280.261 4.7018 280.344 4.61737 280.452 4.50391ZM226.336 1.13983C226.336 1.15302 226.336 1.16621 226.336 1.17941C225.159 1.20843 223.983 1.25856 222.799 1.25856C221.656 1.25856 220.521 1.20843 219.378 1.17941C219.378 1.17149 219.37 1.16622 219.37 1.1583C220.389 1.13455 221.408 1.11344 222.534 1.0897C222.244 1.0211 222.054 0.976241 221.863 0.931386C221.88 0.912917 221.888 0.894446 221.905 0.87334C223.205 0.87334 224.505 0.87334 225.805 0.87334C225.805 0.894446 225.814 0.915561 225.814 0.936669C225.126 0.936669 224.431 0.936669 223.743 0.936669C223.735 0.963054 223.727 0.989438 223.718 1.01846C224.596 1.05804 225.466 1.09761 226.336 1.13983ZM228.298 0.989434C228.307 1.00527 228.323 1.01846 228.332 1.03429C229.325 1.03429 230.319 1.03429 231.313 1.03429C231.247 1.12136 231.114 1.18996 230.965 1.19524C230.137 1.22426 229.301 1.24273 228.464 1.25328C227.975 1.25856 227.553 1.07651 227.677 0.902368C227.81 0.728227 228.149 0.857515 228.414 0.86279C228.597 0.868068 228.787 0.846957 228.969 0.84432C229.781 0.833766 230.593 0.823211 231.413 0.817933C231.512 0.817933 231.611 0.849595 231.711 0.868066C231.711 0.881257 231.702 0.89709 231.702 0.910282C230.568 0.939306 229.433 0.965688 228.298 0.989434ZM72.8738 19.4431C72.8738 19.4642 72.8738 19.4879 72.8738 19.509C69.8507 19.509 66.8277 19.509 63.8047 19.509C66.8195 19.3428 69.8425 19.3956 72.8738 19.4431ZM245.724 13.5249C245.053 13.5592 244.383 13.5962 243.67 13.6331C243.803 13.67 243.902 13.6991 244.018 13.7307C243.347 13.8495 241.152 13.7888 240.879 13.6568C242.436 13.3481 244.109 13.5355 245.724 13.5249ZM111.361 20.0948C111.345 20.1264 111.328 20.1555 111.312 20.1871C109.051 20.1607 106.79 20.137 104.529 20.1106C104.529 20.0868 104.529 20.0631 104.537 20.0367C104.628 20.0314 104.719 20.0235 104.81 20.0235C106.491 20.013 108.173 19.9971 109.846 19.9998C110.351 20.0024 110.856 20.0631 111.361 20.0948ZM260.964 5.31393C260.955 5.29018 260.939 5.26644 260.93 5.24533C260.69 5.23213 260.442 5.21894 260.202 5.20575C261.56 5.02106 262.819 5.03161 263.1 5.17936C262.827 5.1952 262.529 5.21103 262.239 5.22686C262.247 5.24533 262.256 5.2638 262.264 5.28227C262.521 5.29546 262.769 5.30865 263.026 5.32448C263.018 5.34559 263.009 5.3667 263.009 5.39044C261.999 5.40627 260.98 5.42474 259.97 5.44057C259.961 5.41683 259.961 5.39572 259.953 5.37198C260.293 5.34823 260.624 5.3324 260.964 5.31393ZM155.986 0.84695C156.698 0.84695 157.328 0.84695 157.966 0.846951C157.974 0.873335 157.982 0.897083 157.982 0.923468C157.701 0.944576 157.419 0.981512 157.137 0.98679C156.384 1.00262 155.622 1.01054 154.868 1.00263C154.769 1.00263 154.62 0.88917 154.611 0.825846C154.611 0.778353 154.81 0.683367 154.901 0.686004C155.357 0.701835 155.812 0.741415 156.359 0.778355C156.185 0.812654 156.119 0.823204 155.986 0.84695ZM139.819 1.48811C138.345 1.5356 136.854 1.63322 135.512 1.30341C136.978 1.24536 138.37 1.45381 139.819 1.48811ZM276.145 4.69124C276.509 4.69916 276.965 4.75984 277.213 4.70707C277.917 4.55668 278.456 4.72818 279.044 4.77568C279.367 4.79942 279.657 4.87066 279.938 4.91816C278.944 5.06855 277.859 5.03952 276.145 4.69124ZM142.055 1.29022C142.055 1.28231 142.055 1.27439 142.055 1.26648C144.234 1.26648 146.412 1.26648 148.598 1.26648C148.466 1.35619 148.391 1.40895 148.308 1.46964C146.263 1.41159 144.159 1.35091 142.055 1.29022ZM268.318 17.9154C268.31 17.9418 268.31 17.9655 268.302 17.9919C266.157 17.9919 264.011 17.9919 261.866 17.9919C261.866 17.9655 261.866 17.9418 261.866 17.9154C264.02 17.9154 266.173 17.9154 268.318 17.9154ZM249.758 17.137C249.749 17.0974 249.733 17.0579 249.725 17.0183C250.718 17.1819 251.489 16.9101 252.4 16.9233C252.458 16.9233 252.507 16.9523 252.557 16.9682C252.599 16.984 252.64 16.9998 252.681 17.0209C252.557 17.05 252.458 17.0737 252.276 17.1133C252.499 17.1529 252.673 17.1845 252.847 17.2135C252.797 17.2452 252.739 17.2769 252.69 17.3085C251.712 17.2478 250.735 17.1924 249.758 17.137ZM285.587 5.2506C285.951 5.32976 286.299 5.40892 286.655 5.48807C286.647 5.50654 286.639 5.52501 286.63 5.54348C285.893 5.52765 285.164 5.51182 284.427 5.49599C284.435 5.47488 284.435 5.45377 284.444 5.43266C284.643 5.39044 284.841 5.34823 285.098 5.2981C284.841 5.25589 284.676 5.2295 284.328 5.17145C284.99 5.13979 285.471 4.97884 285.802 5.23214C285.728 5.24005 285.645 5.24796 285.587 5.2506ZM281.62 8.35083C281.62 8.33236 281.62 8.31654 281.628 8.29807C282.174 8.32181 282.721 8.34556 283.268 8.36666C283.748 8.38513 284.154 8.44846 284.154 8.6358C284.154 8.73078 283.939 8.82313 283.823 8.91812C283.616 8.63052 283.11 8.62788 282.489 8.65427C282.224 8.66482 281.926 8.60677 281.653 8.58039C281.661 8.56456 281.669 8.54872 281.677 8.53289C282.39 8.55136 283.102 8.56719 283.814 8.58566C283.823 8.56192 283.839 8.53817 283.847 8.51443C283.102 8.45902 282.357 8.4036 281.62 8.35083ZM10.9308 13.6779C10.9391 13.6542 10.9391 13.6331 10.9474 13.6093C12.8937 13.6516 14.8318 13.6938 16.7781 13.7386C16.7698 13.7729 16.7616 13.8046 16.7533 13.8389C14.8069 13.7835 12.8689 13.7307 10.9308 13.6779ZM232.199 1.37465C232.199 1.39576 232.199 1.41687 232.191 1.43798C230.816 1.43798 229.441 1.43798 228.067 1.43798C229.433 1.29814 230.808 1.26911 232.199 1.37465ZM194.49 20.1212C194.499 20.1053 194.507 20.0895 194.515 20.0737C195.633 20.0737 196.751 20.0842 197.869 20.0684C198.408 20.0605 198.54 20.1528 198.673 20.261C197.248 20.2135 195.873 20.1686 194.49 20.1212ZM184.088 20.3349C182.928 20.3745 181.76 20.4114 180.601 20.451C180.593 20.414 180.584 20.3744 180.568 20.3375C181.744 20.29 182.92 20.2425 184.088 20.195C184.088 20.2874 184.088 20.3322 184.088 20.3349ZM165.983 20.261C165.585 20.3481 165.378 20.3929 165.171 20.4404C165.179 20.451 165.196 20.4615 165.204 20.4721C165.395 20.4562 165.585 20.443 165.776 20.4272C165.908 20.4905 166.032 20.5486 166.256 20.6568C165.536 20.5987 164.981 20.5539 164.55 20.5196C164.434 20.4219 164.359 20.3533 164.252 20.2636C164.774 20.261 165.287 20.261 165.983 20.261ZM164.028 20.2847C163.598 20.5222 162.587 20.5776 161.867 20.4536C162.165 20.4351 162.388 20.4193 162.612 20.4035C162.612 20.3929 162.604 20.3797 162.604 20.3692C162.421 20.3639 162.231 20.3586 162.049 20.3533C162.049 20.3296 162.057 20.3085 162.057 20.2847C162.653 20.2847 163.258 20.2847 164.028 20.2847ZM261.063 2.29021C261.055 2.26646 261.055 2.24272 261.046 2.21897C262.165 2.21897 263.283 2.21897 264.401 2.21897C264.401 2.24272 264.401 2.26647 264.401 2.29021C263.291 2.29021 262.173 2.29021 261.063 2.29021ZM89.0987 20.0367C88.1876 19.9919 87.3677 19.9523 86.6306 19.9153C87.7818 19.9153 89.0159 19.9153 90.2416 19.9153C90.2416 19.9338 90.2417 19.9523 90.2334 19.9708C89.8193 19.9945 89.3886 20.0182 89.0987 20.0367ZM268.161 5.60416C267.507 5.65429 267.068 5.69124 266.62 5.72554C266.794 5.65957 267.01 5.6411 267.192 5.60153C267.341 5.56986 267.457 5.51446 267.672 5.43794C267.101 5.42211 266.612 5.40627 266.123 5.39308C266.132 5.36934 266.132 5.34559 266.14 5.32185C266.852 5.33768 267.565 5.35351 268.451 5.37198C268.136 5.4353 267.962 5.4696 267.747 5.51445C267.871 5.54347 267.962 5.56194 268.161 5.60416ZM246.627 3.28756C246.188 3.25854 245.948 3.25327 245.724 3.22688C245.567 3.20841 245.443 3.16092 245.302 3.12662C245.476 3.11342 245.658 3.0844 245.832 3.08967C246.089 3.09759 246.345 3.12925 246.594 3.15036C246.602 3.13453 246.61 3.1187 246.627 3.10023C246.536 3.0844 246.445 3.07121 246.354 3.05538C246.387 3.03427 246.428 3.01316 246.461 2.99205C246.768 3.05801 247.074 3.12662 247.389 3.19522C247.016 3.24007 246.726 3.27701 246.627 3.28756ZM30.9904 2.153C30.9822 2.17939 30.9739 2.20841 30.9656 2.23479C30.0463 2.18466 29.0938 2.26646 28.1828 2.18203C28.191 2.14773 28.1993 2.11607 28.2076 2.08177C29.1352 2.10815 30.0629 2.12926 30.9904 2.153ZM200.536 20.2346C200.528 20.2135 200.52 20.195 200.511 20.1739C201.87 20.1739 203.236 20.1739 204.595 20.1739C204.595 20.195 204.595 20.2135 204.595 20.2346C203.245 20.2346 201.895 20.2346 200.536 20.2346ZM282.671 5.69123C282.994 5.76247 283.425 5.85746 283.798 5.93925C283.508 5.98675 283.359 6.03424 283.193 6.03688C282.978 6.04215 282.738 6.02105 282.531 5.9973C282.456 5.98939 282.365 5.9287 282.39 5.89968C282.431 5.83899 282.539 5.78358 282.671 5.69123ZM275.888 4.54876C275.101 4.51182 274.223 4.47225 273.263 4.42739C274.397 4.26381 275.308 4.32185 275.888 4.54876ZM284.808 9.30597C284.253 9.37194 283.756 9.43262 283.259 9.49331C283.243 9.48011 283.226 9.46956 283.21 9.45636C283.309 9.42998 283.408 9.40359 283.491 9.38249C283.334 9.30333 283.193 9.22682 283.027 9.14502C283.591 9.19515 284.096 9.24001 284.808 9.30597ZM82.5972 19.5882C82.5972 19.604 82.5972 19.6198 82.5972 19.633C81.5867 19.633 80.568 19.633 79.5576 19.633C79.5576 19.6172 79.5576 19.6014 79.5576 19.5882C80.568 19.5882 81.5867 19.5882 82.5972 19.5882ZM253.717 12.8706C253.725 12.8416 253.733 12.8099 253.741 12.7809C255.067 12.8046 256.4 12.831 257.725 12.8547C257.725 12.86 257.725 12.8653 257.717 12.8706C256.392 12.8706 255.05 12.8706 253.717 12.8706ZM254.719 3.59627C255.497 3.59627 256.193 3.59627 256.905 3.59627C256.591 3.78096 255.522 3.7836 254.719 3.59627ZM180.767 20.2214C180.444 20.4193 180.054 20.4774 179.524 20.414C179.408 20.4008 179.301 20.3507 179.259 20.3085C179.243 20.29 179.408 20.2293 179.499 20.2267C179.897 20.2161 180.295 20.2214 180.767 20.2214ZM59.9038 19.4114C60.997 19.4114 61.8915 19.4114 62.786 19.4114C62.7777 19.4378 62.7694 19.4668 62.7611 19.4932C61.8501 19.48 60.9142 19.5644 59.9038 19.4114ZM273.188 15.8574C273.18 15.889 273.172 15.9207 273.155 15.9523C272.227 15.918 271.308 15.8811 270.381 15.8468C270.389 15.8204 270.397 15.794 270.405 15.7703C271.333 15.7993 272.261 15.8283 273.188 15.8574ZM162.628 20.1132C162.62 20.1343 162.62 20.1528 162.612 20.1739C161.618 20.1686 160.608 20.2135 159.639 20.1132C160.641 20.1132 161.635 20.1132 162.628 20.1132ZM261.179 13.488C261.179 13.5038 261.179 13.5196 261.179 13.5355C260.235 13.5355 259.291 13.5355 258.355 13.5355C258.355 13.5196 258.355 13.5038 258.363 13.488C259.299 13.488 260.235 13.488 261.179 13.488ZM150.735 20.5934C151.539 20.5433 152.309 20.3401 153.154 20.509C152.35 20.538 151.547 20.5644 150.735 20.5934ZM102.905 1.63586C102.905 1.61476 102.905 1.59364 102.897 1.57253C103.891 1.57253 104.876 1.57253 105.87 1.57253C105.87 1.59364 105.87 1.61476 105.87 1.63586C104.885 1.63586 103.899 1.63586 102.905 1.63586ZM281.528 5.25852C281.504 5.29018 281.47 5.32449 281.446 5.35615C280.708 5.27699 279.971 5.1952 279.234 5.11604C279.259 5.08966 279.284 5.06064 279.309 5.03425C280.046 5.10813 280.791 5.18464 281.528 5.25852ZM191.095 1.21635C192.13 1.10817 192.37 1.14247 192.478 1.38521C192.047 1.38521 191.625 1.38521 191.061 1.38521C191.31 1.35091 191.418 1.33508 191.616 1.30605C191.401 1.26911 191.277 1.24801 191.095 1.21635ZM262.165 17.6278C263.026 17.6146 263.846 17.6014 264.666 17.5882C264.376 17.736 263.051 17.7571 262.165 17.6278ZM271.391 13.926C271.407 13.9524 271.416 13.9814 271.432 14.0078C270.646 14.0816 269.867 13.984 269.08 13.926C269.842 13.926 270.621 13.926 271.391 13.926ZM284.237 8.16086C284.634 8.16086 284.999 8.16086 285.363 8.16086C285.388 8.18461 285.413 8.21099 285.429 8.23474C285.098 8.29542 284.767 8.35611 284.386 8.42471C284.32 8.29542 284.278 8.23474 284.237 8.16086ZM200.536 1.37465C201.224 1.36146 201.911 1.34563 202.715 1.3298C201.977 1.60157 201.232 1.38257 200.536 1.37465ZM112.041 1.58573C112.049 1.60156 112.049 1.61739 112.057 1.63322C111.088 1.63322 110.111 1.63322 109.142 1.63322C109.142 1.61739 109.142 1.60156 109.15 1.58573C110.102 1.58573 111.072 1.58573 112.041 1.58573ZM104.23 20.0288C104.23 20.0473 104.23 20.0657 104.222 20.0816C103.17 20.0816 102.127 20.0816 101.075 20.0816C101.075 20.0631 101.075 20.0446 101.075 20.0288C102.135 20.0288 103.179 20.0288 104.23 20.0288ZM270.795 4.34033C270.795 4.29811 270.795 4.25325 270.795 4.21103C271.424 4.2295 272.045 4.24534 272.675 4.26381C272.675 4.29019 272.666 4.31658 272.666 4.34033C272.037 4.34033 271.416 4.34033 270.795 4.34033ZM15.66 15.3112C16.3806 15.1713 17.4738 15.2004 17.9873 15.3534C17.2336 15.3402 16.5131 15.327 15.66 15.3112ZM158.098 1.35619C158.098 1.37729 158.098 1.3984 158.098 1.41951C157.369 1.41951 156.64 1.41951 155.903 1.41951C155.903 1.3984 155.903 1.37729 155.903 1.35619C156.64 1.35619 157.369 1.35619 158.098 1.35619ZM71.5238 1.49338C71.9876 1.43006 72.4182 1.18468 73.114 1.44325C72.4762 1.46436 71.9958 1.47755 71.5238 1.49338ZM258.901 14.0342C258.901 14.0605 258.893 14.0896 258.893 14.1159C258.098 14.0948 257.311 14.0737 256.516 14.0553C256.524 14.0315 256.524 14.0078 256.533 13.9867C257.319 14.0025 258.106 14.0183 258.901 14.0342ZM158.595 20.4219C158.595 20.4114 158.595 20.4008 158.595 20.3903C159.142 20.3613 159.688 20.3349 160.21 20.3085C160.218 20.3586 160.235 20.4246 160.251 20.4932C159.688 20.4668 159.142 20.4431 158.595 20.4219ZM158.197 1.55143C158.197 1.56726 158.197 1.58309 158.197 1.59892C157.469 1.59892 156.74 1.59892 156.019 1.59892C156.019 1.58309 156.019 1.56726 156.019 1.55143C156.74 1.55143 157.469 1.55143 158.197 1.55143ZM265.022 12.7571C265.022 12.7782 265.022 12.7967 265.022 12.8178C264.467 12.8178 263.912 12.8178 263.349 12.8178C263.349 12.7967 263.349 12.7782 263.349 12.7571C263.904 12.7571 264.467 12.7571 265.022 12.7571ZM267.175 14.1186C267.175 14.1344 267.175 14.1502 267.184 14.1661C266.637 14.1476 266.09 14.1265 265.444 14.1054C265.817 14.0315 266.057 13.9814 266.165 13.9603C266.554 14.021 266.861 14.0711 267.175 14.1186ZM184.055 20.0578C184.933 20.0578 185.645 20.0578 186.506 20.0578C186.216 20.1475 186.067 20.195 185.877 20.2557C185.521 19.9259 184.726 20.1686 184.055 20.0578ZM65.0885 1.9815C65.0885 1.9604 65.0885 1.93929 65.0885 1.91818C65.8421 1.91818 66.6041 1.91818 67.3578 1.91818C67.3578 1.9261 67.3578 1.93401 67.3578 1.94193C66.6041 1.95512 65.8421 1.96831 65.0885 1.9815ZM133.55 20.3058C132.821 20.3929 132.1 20.4325 131.28 20.2425C132.166 20.2663 132.854 20.2847 133.55 20.3058ZM285.28 4.74137C285.255 4.76248 285.231 4.78623 285.206 4.80734C284.684 4.74401 284.03 4.78623 283.731 4.54085C284.245 4.60681 284.758 4.67541 285.28 4.74137ZM256.599 15.1661C256.599 15.1502 256.599 15.1344 256.607 15.1212C257.361 15.1212 258.123 15.1212 258.876 15.1212C258.876 15.137 258.868 15.1529 258.868 15.1661C258.106 15.1661 257.353 15.1661 256.599 15.1661ZM275.557 15.05C275.549 15.021 275.549 14.9919 275.54 14.9603C276.087 14.9497 276.634 14.9392 277.18 14.9286C277.189 14.9524 277.189 14.9761 277.197 14.9998C276.65 15.0183 276.104 15.0341 275.557 15.05ZM270.265 2.43005C269.064 2.60947 268.84 2.60683 268.459 2.43005C269.014 2.43005 269.602 2.43005 270.265 2.43005ZM269.42 12.4933C269.42 12.5249 269.42 12.554 269.42 12.5856C268.823 12.5592 268.227 12.5328 267.631 12.5065C267.639 12.4801 267.656 12.4511 267.664 12.4247C268.252 12.4458 268.832 12.4695 269.42 12.4933ZM163.308 20.1555C163.308 20.1396 163.316 20.1238 163.316 20.108C164.02 20.108 164.716 20.108 165.42 20.108C165.42 20.1238 165.42 20.1396 165.411 20.1555C164.707 20.1555 164.003 20.1555 163.308 20.1555ZM278.025 13.9999C278.025 14.0315 278.017 14.0605 278.017 14.0922C277.503 14.0764 276.998 14.0605 276.485 14.0447C276.493 14.0078 276.509 13.9682 276.518 13.9313C277.015 13.955 277.52 13.9761 278.025 13.9999ZM213.821 1.02109C213.606 1.24273 213.125 1.15566 212.645 1.15039C212.877 0.902367 213.44 1.06595 213.821 1.02109ZM260.773 2.16884C260.765 2.19787 260.765 2.22953 260.757 2.25855C260.276 2.25855 259.796 2.25855 259.315 2.25855C259.315 2.23744 259.324 2.21634 259.324 2.19523C259.812 2.18731 260.293 2.1794 260.773 2.16884ZM275.217 9.68064C275.192 9.71757 275.159 9.75188 275.135 9.78881C274.654 9.75979 274.165 9.72813 273.685 9.69911C273.702 9.67008 273.718 9.6437 273.743 9.61467C274.232 9.63578 274.72 9.65953 275.217 9.68064ZM150.975 1.54087C150.967 1.50394 150.951 1.46963 150.942 1.4327C151.365 1.42214 151.787 1.41159 152.209 1.40368C152.218 1.44061 152.226 1.47755 152.226 1.51449C151.812 1.5224 151.389 1.53296 150.975 1.54087ZM180.725 1.27967C180.733 1.25592 180.733 1.23481 180.742 1.21106C181.512 1.22426 182.282 1.24009 183.044 1.25328C183.036 1.2612 183.036 1.26911 183.028 1.27967C182.266 1.27967 181.495 1.27967 180.725 1.27967ZM271.822 13.7123C271.822 13.7413 271.83 13.7703 271.83 13.7993C271.076 13.7993 270.314 13.7993 269.561 13.7993C269.561 13.7888 269.561 13.7782 269.561 13.765C270.306 13.7466 271.06 13.7281 271.822 13.7123ZM141.302 1.54879C141.31 1.58045 141.318 1.61212 141.327 1.64378C140.846 1.64378 140.366 1.64378 139.885 1.64378C139.877 1.62531 139.877 1.60948 139.869 1.59101C140.341 1.57781 140.821 1.56198 141.302 1.54879ZM80.6342 1.14774C80.6259 1.12927 80.626 1.10816 80.6177 1.08969C81.2223 1.08969 81.8352 1.08969 82.4398 1.08969C82.4398 1.10816 82.4398 1.12927 82.4398 1.14774C81.8352 1.14774 81.2388 1.14774 80.6342 1.14774Z" fill="url(#paint0_linear_6288_9511)"/>
<defs>
<linearGradient id="paint0_linear_6288_9511" x1="283.834" y1="21.0027" x2="95.8689" y2="-121.652" gradientUnits="userSpaceOnUse">
<stop stop-color="#FDD925"/>
<stop offset="0.294518" stop-color="#FF9559"/>
<stop offset="0.682384" stop-color="#7C91FF"/>
<stop offset="1" stop-color="#7E33FF"/>
</linearGradient>
</defs>
</svg>
