<svg width="162" height="26" viewBox="0 0 162 26" fill="none" xmlns="http://www.w3.org/2000/svg">
<path d="M147.795 11.6727C147.496 11.5951 147.193 11.5236 146.895 11.4428C146.47 11.3247 145.923 11.4117 145.688 10.9643C145.661 10.9954 145.634 11.0233 145.606 11.0544C145.647 11.1134 145.688 11.1756 145.738 11.2439C145.213 11.1849 144.707 11.129 144.2 11.0699C144.187 11.0917 144.178 11.1103 144.164 11.1321C144.381 11.2098 144.598 11.2906 144.77 11.3527C144.653 11.3527 144.395 11.4086 144.313 11.3434C143.78 10.9053 142.957 10.9985 142.315 10.7717C142.329 10.7344 142.342 10.7002 142.351 10.6629C142.767 10.7002 143.179 10.7344 143.595 10.7717C143.599 10.7623 143.604 10.753 143.608 10.7437C143.463 10.7002 143.323 10.6567 143.179 10.6132C143.183 10.5914 143.188 10.5697 143.188 10.5479C143.549 10.5821 143.911 10.6163 144.273 10.6505C144.282 10.638 144.291 10.6256 144.3 10.6163C144.219 10.5821 144.142 10.5448 144.06 10.5107C144.056 10.4858 144.056 10.464 144.051 10.4392C144.368 10.4112 144.68 10.3833 144.996 10.3553C144.992 10.3304 144.992 10.3056 144.987 10.2807C144.63 10.3615 144.304 10.1751 143.907 10.3149C143.685 10.3926 143.332 10.2683 143.052 10.1782C143.256 10.1564 143.459 10.1347 143.662 10.1129C143.662 10.0974 143.658 10.0819 143.653 10.0663C143.346 10.0663 143.039 10.0663 142.668 10.0663C142.776 10.1626 142.853 10.2279 142.998 10.3553C142.478 10.3025 142.053 10.2465 141.623 10.2217C141.058 10.1906 140.489 10.1937 139.923 10.1626C139.792 10.1564 139.666 10.0819 139.544 9.97622C140.995 9.95447 142.451 9.93272 143.902 9.91407C143.902 9.88611 143.907 9.85504 143.907 9.82707C143.545 9.77114 143.179 9.71211 142.817 9.65618C142.817 9.64064 142.817 9.62821 142.822 9.61268C143.323 9.61268 143.83 9.61268 144.332 9.61268C144.336 9.57539 144.341 9.53811 144.35 9.50082C144.241 9.50082 144.128 9.49771 144.02 9.50082C143.843 9.50393 143.667 9.52257 143.491 9.51635C143.332 9.51014 143.17 9.47907 142.98 9.45732C143.029 9.38275 143.061 9.32992 143.088 9.28953C142.763 9.23982 142.446 9.1901 142.125 9.14039C142.13 9.12174 142.13 9.09999 142.134 9.08135C142.473 9.10931 142.817 9.13728 143.156 9.16524C143.156 9.13728 143.156 9.11242 143.156 9.08446C143.278 9.09067 143.4 9.09378 143.518 9.09999C143.518 9.08446 143.522 9.06581 143.522 9.05028C142.704 8.96017 141.886 8.87006 140.941 8.76442C141.343 8.71781 141.651 8.68363 141.953 8.64945C141.953 8.62149 141.958 8.59352 141.958 8.56556C141.782 8.57177 141.61 8.5842 141.434 8.5842C141.207 8.5842 140.972 8.59352 140.751 8.55934C140.552 8.52827 140.371 8.43816 140.195 8.30766C140.647 8.30766 141.094 8.30766 141.547 8.30766C140.995 7.98141 140.367 8.24241 139.792 8.13987C139.792 8.11191 139.792 8.08394 139.792 8.05287C140.082 8.05287 140.376 8.06841 140.665 8.04976C141.198 8.01869 141.732 8.07462 142.27 7.91926C142.65 7.81051 143.133 7.87887 143.567 7.8913C143.902 7.90062 144.237 7.94412 144.585 7.97209C144.44 7.98762 144.3 8.00316 144.164 8.01869C144.173 8.05287 144.178 8.08705 144.187 8.12123C144.494 8.07152 144.811 8.04355 145.1 7.96276C145.335 7.89441 145.525 7.72662 145.76 7.66758C145.991 7.61165 146.262 7.64894 146.511 7.6303C146.696 7.61476 146.881 7.55262 147.067 7.54951C147.334 7.54329 147.6 7.57437 147.872 7.5868C148.061 7.59612 148.251 7.59922 148.446 7.60544C148.45 7.57747 148.455 7.54951 148.455 7.52154C148.251 7.51222 148.048 7.5029 147.844 7.49358C147.844 7.47804 147.844 7.46561 147.849 7.45008C148.22 7.42833 148.59 7.40658 148.961 7.38794C148.961 7.3724 148.961 7.35997 148.961 7.34444C147.207 7.34444 145.448 7.34444 143.694 7.34444C143.694 7.32579 143.694 7.30715 143.694 7.2854C144.332 7.23258 144.974 7.15179 145.611 7.13936C146.258 7.12693 146.909 7.19529 147.56 7.1984C148.441 7.20151 149.327 7.22325 150.2 7.14868C151.005 7.08033 151.791 6.90011 152.592 6.72921C151.787 6.71678 150.982 6.70746 150.182 6.68882C149.495 6.67328 148.785 6.71057 148.125 6.60182C147.166 6.44335 146.212 6.48064 145.249 6.44957C144.372 6.4216 143.5 6.34081 142.627 6.33149C142.238 6.32839 141.849 6.44957 141.456 6.49928C141.361 6.51171 141.253 6.46821 141.045 6.43092C141.302 6.38431 141.461 6.35635 141.687 6.31906C141.244 6.06117 140.773 6.1171 140.33 6.04253C140.629 6.04253 140.923 6.04253 141.239 6.04253C141.076 5.99592 140.936 5.95552 140.792 5.91513C140.801 5.89027 140.805 5.86231 140.814 5.83745C141.135 5.86541 141.456 5.89338 141.777 5.91824C141.782 5.89959 141.786 5.88406 141.791 5.86542C141.736 5.84056 141.682 5.8157 141.628 5.78774C141.732 5.68209 141.922 5.73181 142.586 6.04253C142.469 6.07049 142.369 6.09535 142.274 6.1171C142.297 6.12642 142.32 6.13885 142.338 6.14817C143.052 6.14817 143.766 6.14817 144.481 6.14817C144.485 6.1202 144.485 6.09224 144.49 6.06738C143.775 5.97106 143.057 5.87474 142.342 5.77841C142.338 5.76288 142.333 5.74424 142.329 5.7287C143.473 5.69141 144.621 5.65413 145.765 5.61373C145.769 5.58266 145.769 5.5547 145.774 5.52363C145.661 5.48634 145.548 5.44595 145.349 5.38069C145.611 5.39623 145.778 5.40555 145.946 5.41487C145.95 5.40245 145.955 5.39312 145.959 5.38069C145.833 5.3403 145.701 5.2968 145.53 5.24087C145.62 5.18494 145.679 5.15076 145.656 5.1663C144.775 5.11348 143.839 5.05755 142.903 5.00473C142.568 4.98609 142.229 4.98298 141.89 4.96123C141.402 4.93016 140.918 4.88665 140.434 4.84937C140.434 4.82451 140.439 4.79655 140.439 4.77169C142.297 4.77169 144.151 4.77169 146.009 4.77169C146.013 4.74994 146.013 4.72508 146.018 4.70333C145.561 4.67847 145.1 4.63186 144.644 4.62876C143.4 4.62254 142.157 4.65362 140.909 4.63808C140.272 4.63187 139.639 4.55108 139.001 4.52311C138.847 4.5169 138.685 4.59458 138.526 4.63186C138.445 4.65051 138.359 4.68469 138.278 4.67847C137.903 4.6474 137.527 4.59147 137.152 4.57283C136.564 4.54176 135.977 4.52622 135.389 4.51379C134.968 4.50447 134.543 4.51068 134.118 4.51068C134.132 4.49204 134.173 4.44233 134.231 4.37086C133.802 4.346 133.39 4.33357 132.979 4.29629C132.324 4.24036 131.672 4.172 131.021 4.09743C130.248 4.00732 129.48 3.88303 128.702 3.82089C128.386 3.79603 128.056 3.9141 127.726 3.94207C127.513 3.96071 127.292 3.95139 127.084 3.92032C126.505 3.83021 125.935 3.71835 125.361 3.61582C125.036 3.86439 124.47 3.59717 124.158 3.92032C124.113 3.96692 123.901 3.92653 123.765 3.92653C123.788 3.8271 123.806 3.72457 123.828 3.63446C123.412 3.7836 123.236 3.43249 122.92 3.35792C122.685 3.30199 122.445 3.25849 122.205 3.2181C122.033 3.19013 121.857 3.18392 121.685 3.16527C121.649 3.16216 121.613 3.14663 121.577 3.14663C121.211 3.1342 120.844 3.12488 120.451 3.11245C120.388 3.14042 120.266 3.24917 120.144 3.24917C119.673 3.24606 119.203 3.21188 118.733 3.18081C118.299 3.15285 117.865 3.11556 117.431 3.08449C116.875 3.0472 116.319 3.01613 115.731 3.03788C115.993 3.09692 116.26 3.15906 116.522 3.2181C116.509 3.24917 116.495 3.27713 116.482 3.3082C115.971 3.18392 115.46 3.05963 114.949 2.93534C114.958 2.89806 114.962 2.86077 114.972 2.82038C115.695 2.82038 116.418 2.82038 117.169 2.82038C117.133 2.70541 116.726 2.71473 117.101 2.50655C116.129 2.42266 115.252 2.34808 114.293 2.2673C114.42 2.34498 114.492 2.39159 114.574 2.4413C113.864 2.50655 113.168 2.5718 112.44 2.64016C113.344 2.82038 114.226 2.99749 115.112 3.1746C115.103 3.2212 115.094 3.26781 115.085 3.31131C113.941 3.26781 112.797 3.2212 111.658 3.1777C111.658 3.1342 111.658 3.09381 111.658 3.05031C111.956 3.05031 112.254 3.05031 112.643 3.05031C112.177 2.82348 111.793 2.94155 111.404 2.97573C111.052 3.00681 110.695 3.01613 110.337 3.01924C110.256 3.01924 110.179 2.92913 110.089 2.9167C109.931 2.89495 109.768 2.90116 109.61 2.89805C109.451 2.89495 109.289 2.89805 109.09 2.89805C109.194 2.95398 109.279 2.99749 109.374 3.0472C109.099 3.06895 108.841 3.10624 108.583 3.10313C108.479 3.10313 108.375 3.01924 108.294 2.9167C108.109 2.93534 107.923 2.95398 107.733 2.97263C107.729 2.94156 107.72 2.91048 107.715 2.88252C108.488 2.69609 109.329 2.85145 110.111 2.66502C110.044 2.63084 109.958 2.59044 109.876 2.54694C109.885 2.5283 109.894 2.50966 109.903 2.49101C110.179 2.55626 110.459 2.62151 110.758 2.68987C110.704 2.73959 110.654 2.78309 110.518 2.90738C110.916 2.89184 111.219 2.87941 111.54 2.87009C111.513 2.77377 111.495 2.72095 111.468 2.63084C111.762 2.67745 112.024 2.71784 112.291 2.75823C112.295 2.72716 112.304 2.6992 112.309 2.66812C111.359 2.32633 110.261 2.56248 109.275 2.32012C109.42 2.37605 109.56 2.43508 109.704 2.49101C109.7 2.50966 109.695 2.52519 109.686 2.54384C109.09 2.42887 108.493 2.3108 107.896 2.19583C107.882 2.22069 107.873 2.24244 107.86 2.2673C108.145 2.36051 108.434 2.45373 108.769 2.56248C108.683 2.59977 108.615 2.65259 108.552 2.64948C107.684 2.62462 106.815 2.59666 105.943 2.56248C105.852 2.55937 105.771 2.49723 105.685 2.46305C105.667 2.4848 105.654 2.50966 105.635 2.53141C105.73 2.57491 105.816 2.62773 105.916 2.6588C106.029 2.69609 106.151 2.71162 106.386 2.76445C106.192 2.84212 106.11 2.8732 106.011 2.91048C106.119 2.96641 106.205 3.01302 106.314 3.07206C105.934 3.32374 105.477 3.19635 105.075 3.2616C104.442 3.36103 103.809 3.29888 103.176 3.31131C102.882 3.31752 102.557 3.45735 102.312 3.39831C101.603 3.2212 100.875 3.35792 100.192 3.2616C99.7354 3.19635 99.2607 3.2647 98.8177 3.11556C98.9081 3.11556 99.003 3.11556 99.0934 3.11556C99.098 3.10002 99.098 3.08449 99.1025 3.06895C98.9623 3.05341 98.8222 3.03788 98.682 3.02234C98.6097 3.08138 98.5328 3.18702 98.4605 3.18702C98.2751 3.18392 98.0943 3.12488 97.9089 3.10624C97.4026 3.05341 96.8962 3.01302 96.3943 2.96331C96.2994 2.95398 96.209 2.9198 96.114 2.89805C96.4848 2.8328 96.851 2.82037 97.2127 2.83591C97.4432 2.84523 97.6693 2.88873 97.8908 2.92913C98.0039 2.95088 98.1033 3.00059 98.2073 3.03788C98.2028 3.06895 98.1983 3.10313 98.1937 3.1342C98.3565 3.09691 98.5193 3.05963 98.682 3.01924C98.8312 2.96331 98.994 2.84523 99.1251 2.86388C99.4868 2.91359 99.8078 2.9167 100.156 2.79552C100.364 2.72405 100.635 2.74891 100.879 2.73337C100.888 2.70852 100.893 2.68366 100.902 2.6588C100.631 2.59666 100.359 2.53451 100.088 2.47237C100.188 2.43819 100.301 2.40091 100.409 2.36362C100.405 2.33876 100.4 2.3139 100.396 2.28905C99.5908 2.50033 98.786 2.46305 97.9812 2.3108C97.9767 2.33876 97.9677 2.36362 97.9632 2.39158C98.0807 2.41955 98.2028 2.44441 98.3203 2.47237C98.3203 2.48791 98.3203 2.50344 98.3203 2.51898C98.1078 2.50966 97.8908 2.50344 97.6783 2.48169C97.6377 2.47859 97.5743 2.41644 97.5743 2.38226C97.5743 2.34808 97.6331 2.29216 97.6783 2.28283C97.7868 2.26419 97.8999 2.2673 98.0129 2.24555C97.4975 2.24555 96.9866 2.24555 96.4034 2.24555C96.7289 2.3543 97.0137 2.45062 97.4026 2.58112C96.3175 2.71162 95.3274 2.55005 94.2378 2.56248C94.5362 2.63705 94.7261 2.68366 94.9159 2.73027C94.9114 2.76445 94.9069 2.79552 94.9024 2.8297C94.6989 2.81416 94.491 2.81416 94.3011 2.77066C94.2061 2.74891 94.1474 2.64637 94.0705 2.58112C94.0931 2.55005 94.1112 2.52209 94.1338 2.49101C93.4737 2.43819 92.8091 2.38537 92.149 2.33255C92.149 2.29215 92.1536 2.25176 92.1536 2.20826C92.8362 2.14922 93.5234 2.09019 94.2061 2.03426C94.2061 2.02494 94.2061 2.01561 94.2016 2.00629C93.4692 2.00629 92.7413 2.00629 91.9998 2.00629C92.2214 1.96279 92.4474 1.91929 92.6735 1.87579C92.669 1.85715 92.6644 1.84161 92.6554 1.82297C91.8959 1.89133 91.1363 1.96279 90.3858 2.03115C90.856 2.15544 91.3217 2.27973 91.8597 2.41955C91.0956 2.49723 90.4265 2.56248 89.7574 2.63084C89.7574 2.65259 89.7574 2.67434 89.7574 2.69609C89.9608 2.70541 90.1643 2.71473 90.4129 2.72405C90.223 2.92602 90.3089 2.98816 90.5938 3.01924C91.1273 3.08138 91.6562 3.18081 92.1852 3.26781C92.1942 3.23363 92.2033 3.20256 92.2123 3.16838C91.7512 3.09691 91.29 3.02856 90.743 2.94466C90.9057 2.90116 90.9871 2.87941 91.177 2.82659C90.8922 2.79552 90.7068 2.77687 90.5214 2.75512C90.526 2.73959 90.526 2.72095 90.5305 2.70541C90.9871 2.70541 91.4437 2.70541 91.9049 2.70541C91.9049 2.72716 91.9094 2.7458 91.9094 2.76755C91.8099 2.7893 91.715 2.81105 91.6155 2.8297C91.9004 2.89184 92.1762 3.07516 92.452 2.81105C92.5062 2.75823 92.7729 2.81416 92.9357 2.84523C93.1708 2.88873 93.3923 2.99748 93.6274 3.00681C94.3915 3.03166 95.1601 3.01613 95.9241 3.03166C96.0643 3.03477 96.2045 3.10313 96.3446 3.14352C96.3356 3.17148 96.3265 3.19945 96.3175 3.22742C95.8744 3.22742 95.4268 3.22742 94.9838 3.22742C94.7894 3.22742 94.5995 3.22742 94.4051 3.22742C94.2242 3.23052 94.0479 3.23674 93.8671 3.23674C93.6726 3.23674 93.5189 3.19635 93.3064 3.32685C93.1346 3.43249 92.7323 3.32995 92.4339 3.32995C92.1219 3.32995 91.8054 3.33617 91.4935 3.35792C91.1634 3.37967 90.8289 3.51949 90.5395 3.27402C90.5124 3.25227 90.4401 3.24295 90.3948 3.25227C89.884 3.34549 89.3957 3.32684 88.921 3.10934C88.9481 3.14974 88.9752 3.19013 88.9978 3.22742C88.8532 3.25227 88.7085 3.27402 88.5774 3.29578C88.6271 3.14042 88.6587 3.03788 88.6994 2.89805C88.9843 2.95087 89.2962 3.0037 89.6037 3.05963C89.2148 2.76444 88.713 2.76444 88.2292 2.72094C87.9218 2.69298 87.6189 2.65569 87.3115 2.64326C87.0402 2.63084 86.7689 2.6588 86.4977 2.64948C86.1993 2.63705 85.9009 2.60909 85.607 2.56869C85.1232 2.50344 84.6395 2.42266 84.1467 2.37915C84.6666 2.6588 85.4036 2.52208 85.9777 2.88873C84.8022 2.89495 83.7262 2.88252 82.6005 2.7458C82.7271 2.60287 82.7949 2.5283 82.8717 2.43819C83.0074 2.47548 83.1566 2.51587 83.3374 2.56558C83.1837 2.38848 83.1882 2.37605 82.4603 2.25797C82.1438 2.20515 81.8093 2.21137 81.4838 2.12437C81.8952 2.0964 82.3066 2.06844 82.7135 2.03737C81.4566 1.86647 80.1772 2.19583 78.9248 1.9255C79.6753 1.78258 80.4575 2.11505 81.1989 1.81986C80.896 1.84161 80.5886 1.86647 80.2766 1.88822C80.3444 1.80743 80.4032 1.73907 80.462 1.66761L80.471 1.67382C79.6572 1.69868 78.8434 1.73907 78.0296 1.7484C77.4419 1.75461 76.8542 1.72354 76.2709 1.69247C75.9545 1.67382 75.638 1.62721 75.3305 1.5775C75.2492 1.56507 75.1859 1.49361 75.0728 1.42214C75.109 1.52468 75.1316 1.59614 75.1587 1.67693C74.9056 1.74218 74.5484 1.76082 74.467 2.04669C74.0782 2.02493 73.6803 2.0094 73.287 1.97522C73.0429 1.95347 72.7445 2.06222 72.5682 1.82608C72.5501 1.80122 72.4235 1.81054 72.3466 1.81676C71.777 1.85093 71.2118 1.88201 70.6422 1.9255C70.5608 1.93172 70.4839 1.99697 70.4071 2.08708C71.4695 1.72665 72.4235 2.22379 73.4407 2.24865C72.8394 2.34808 72.2336 2.43819 71.6097 2.34808C71.3203 2.30769 71.0265 2.28283 70.7326 2.25176C70.5563 2.23312 70.3619 2.24865 70.2081 2.19583C70.0589 2.14301 69.9504 2.02183 69.8058 1.91929C69.9911 1.87268 70.1268 1.8385 70.2624 1.80432C69.9098 1.78879 69.5571 1.77015 69.209 1.75461C69.5797 1.62721 69.9459 1.52778 70.2579 1.81054C70.5337 1.79189 70.8094 1.75772 71.0852 1.75461C71.6956 1.74529 72.3105 1.7515 72.9751 1.7515C72.8892 1.795 72.8485 1.81365 72.8078 1.8354C72.8123 1.85715 72.8213 1.87579 72.8259 1.89754C73.1378 1.84472 73.4452 1.77636 73.7617 1.73907C74.0375 1.708 74.3223 1.71422 74.6072 1.70179C74.6027 1.6645 74.5936 1.62721 74.5891 1.58993C73.4498 1.58993 72.315 1.58993 71.1757 1.58993C71.1711 1.56507 71.1666 1.54021 71.1621 1.51225C71.3475 1.47496 71.5283 1.44078 71.7137 1.4035C71.6278 1.33203 71.5509 1.26678 71.4062 1.1425C71.4198 1.273 71.4288 1.33203 71.4379 1.41593C70.9406 1.41593 70.4432 1.41593 69.8645 1.41593C69.9504 1.39107 70.0137 1.37243 70.1087 1.34446C69.7786 1.25125 69.4983 1.17357 69.2045 1.09278C69.4712 1.0586 69.7244 1.02753 69.9821 0.993351C69.9821 0.980922 69.9776 0.971599 69.9776 0.959171C69.6385 0.959171 69.2949 0.959171 68.9196 0.959171C68.8925 1.13628 68.8699 1.31339 68.8383 1.52779C68.35 1.4905 67.8572 1.42214 67.3689 1.42214C66.9394 1.42214 66.5144 1.50604 66.0849 1.54332C65.9176 1.55575 65.7458 1.53711 65.574 1.53089L65.5831 1.54021C65.1671 1.2761 64.706 1.39418 64.3443 1.55886C64.1453 1.64897 64.0504 1.64586 63.865 1.60857C63.7158 1.5775 63.5395 1.60857 63.3813 1.59304C63.2592 1.58061 63.1417 1.54021 63.0241 1.51225C62.78 1.51225 62.5358 1.51225 62.2917 1.51225C62.4409 1.4066 62.5901 1.33514 62.7393 1.34136C62.8342 1.34446 62.9247 1.45632 63.0151 1.51846C63.3587 1.42214 63.6978 1.31028 64.0459 1.2295C64.1906 1.19532 64.3624 1.22328 64.5884 1.22328C64.2086 0.98092 63.8289 1.04617 63.4808 1.08657C62.9925 1.1456 62.5178 1.25746 62.025 1.34757C62.0611 1.37864 62.1199 1.43768 62.1832 1.49671C62.1741 1.52157 62.1606 1.54954 62.1515 1.57439C61.93 1.55575 61.7085 1.53711 61.4463 1.51536C61.1479 1.65829 60.7274 1.56197 60.3386 1.56197C59.9362 1.56197 59.5338 1.51536 59.1179 1.4905C59.1043 1.447 59.0862 1.38485 59.0772 1.36C59.2716 1.29475 59.466 1.2295 59.683 1.15493C59.4705 0.946744 59.032 1.17978 59.0094 0.878383C59.457 0.813132 59.8593 0.754096 60.2572 0.69506C60.2572 0.670203 60.2572 0.642238 60.2572 0.617381C59.8277 0.617381 59.3982 0.617381 58.9144 0.617381C58.7924 0.810027 57.0382 1.26367 56.2786 1.22328C56.3374 1.28232 56.3781 1.32271 56.4324 1.36932C56.0028 1.36932 55.5824 1.36932 55.1619 1.36932C55.0986 1.36932 55.0173 1.33825 54.9766 1.35689C54.5018 1.59304 54.0588 1.26678 53.6202 1.37864C53.6474 1.23571 53.6654 1.1425 53.6835 1.05239L53.6971 1.06171C53.2992 1.2326 52.716 1.31339 52.707 1.1891C52.7884 1.17667 52.8697 1.16425 52.9511 1.15493C52.9014 1.10521 52.8562 1.0586 52.811 1.01199C51.9248 1.24192 50.5278 1.3165 49.9084 1.21707C49.9762 1.29164 50.0124 1.37243 50.0621 1.37864C50.3334 1.40039 50.6092 1.41593 50.885 1.40971C51.6445 1.39107 52.4041 1.35378 53.1681 1.34136C53.2585 1.33825 53.349 1.43146 53.4394 1.48118C53.349 1.53089 53.2721 1.61168 53.1726 1.62722C52.4854 1.74839 51.8208 1.56507 51.1427 1.53089C50.9121 1.51846 50.677 1.60547 50.4374 1.621C50.2656 1.63032 50.0847 1.59614 49.9084 1.58371C49.7683 1.57439 49.6281 1.56507 49.488 1.55575C49.4789 1.58061 49.4744 1.60547 49.4653 1.63032C49.5919 1.66139 49.723 1.68936 49.9627 1.74529C49.4201 1.94725 48.9273 1.78257 48.4797 1.86957C48.4978 1.79811 48.5069 1.75772 48.5159 1.71421C48.7284 1.69868 48.9725 1.68004 49.2122 1.6645C49.2122 1.63965 49.2076 1.61789 49.2076 1.59304C48.9138 1.59304 48.6244 1.59304 48.3306 1.59304C48.326 1.57439 48.326 1.55575 48.3215 1.54021C48.439 1.52157 48.5611 1.49982 48.751 1.46875C48.1361 1.31339 47.5574 1.75461 47.0059 1.44389C46.6216 1.47185 46.2011 1.50603 45.7761 1.52468C45.7173 1.52778 45.6495 1.43457 45.541 1.35068C45.1522 1.35068 44.682 1.35068 44.1259 1.35068C44.2751 1.29785 44.3565 1.273 44.4334 1.24503C44.4243 1.21707 44.4153 1.1891 44.4062 1.16114C43.5608 1.39107 42.6566 1.24503 41.8021 1.49982C42.2316 1.49982 42.6566 1.49982 43.0861 1.49982C41.2189 1.6645 39.3607 1.93172 37.4664 1.80743C37.5387 1.79811 37.6065 1.7919 37.6788 1.78257C37.9546 1.74218 38.2349 1.7515 38.5152 1.71421C39.2522 1.61168 40.0208 1.64275 40.7758 1.60236C41.0425 1.58993 41.3048 1.53089 41.5715 1.49361C41.567 1.46875 41.5579 1.447 41.5534 1.42214C40.9928 1.447 40.4322 1.48118 39.8716 1.4936C38.8453 1.51536 37.819 1.52778 36.7927 1.52778C36.2818 1.52778 35.7664 1.45632 35.2601 1.48118C34.8441 1.50293 34.4417 1.63032 34.0303 1.69868C33.8043 1.73597 33.5646 1.77636 33.3341 1.76393C32.6016 1.73286 31.8737 1.67693 31.1413 1.63343C31.1368 1.66139 31.1278 1.68936 31.1232 1.71732C31.2589 1.73597 31.39 1.7515 31.5256 1.77014C31.5301 1.79189 31.5301 1.81364 31.5347 1.8354C30.9695 1.88511 30.4044 1.93793 29.8392 1.98765C29.8347 1.97522 29.8302 1.95968 29.8257 1.94725C29.9885 1.90997 30.1512 1.86957 30.314 1.83229C29.6539 1.9224 29.0526 1.621 28.388 1.70489C27.7053 1.79189 27 1.80122 26.3038 1.84161C26.2947 1.87268 26.2811 1.90065 26.2721 1.93172C26.4123 1.99697 26.5524 2.06222 26.7739 2.16786C26.4936 2.17718 26.2721 2.18651 26.0461 2.19583C26.0415 2.17719 26.037 2.15854 26.0325 2.1399C26.0822 2.11815 26.132 2.09329 26.1862 2.07154C26.1681 2.05911 26.1546 2.03736 26.1365 2.03425C25.8833 1.99386 25.6256 1.95968 25.3724 1.9224C25.3091 1.91307 25.2187 1.88511 25.1916 1.90375C24.7982 2.15544 24.423 1.86336 24.0296 1.88822C23.6318 1.91307 23.2249 1.85093 22.8225 1.82918C22.818 1.795 22.8089 1.76082 22.8044 1.72975C23.139 1.67693 23.4735 1.58371 23.8126 1.57439C25.0424 1.54021 26.2766 1.54021 27.5064 1.51225C28.076 1.49982 28.6412 1.44078 29.2108 1.41903C29.3826 1.41282 29.5544 1.46564 29.7307 1.46564C30.2778 1.46564 30.8249 1.45632 31.3719 1.447C31.399 1.447 31.4262 1.41593 31.4488 1.37242C31.0374 1.447 30.6757 1.23571 30.2281 1.34135C29.8754 1.42214 29.4504 1.30407 29.0526 1.30096C28.4829 1.29164 27.9087 1.31339 27.3391 1.30717C27.1356 1.30407 26.9277 1.22328 26.7287 1.2295C26.4077 1.23882 26.0913 1.30096 25.7748 1.32892C24.7078 1.41593 23.6408 1.53711 22.5693 1.56507C21.5747 1.59304 20.5529 1.60236 19.5854 1.45943C18.8575 1.35067 18.2607 1.47807 17.6278 1.63653C17.5328 1.66139 17.4695 1.75772 17.3655 1.84161C16.8637 1.80743 16.2941 1.76704 15.7515 1.72975C16.1629 1.33203 16.823 1.621 17.3339 1.41282C16.7009 1.41282 16.068 1.41282 15.3356 1.41282C15.5255 1.46253 15.6385 1.4936 15.851 1.54953C15.6385 1.59925 15.5164 1.64897 15.3943 1.65207C14.5263 1.67693 13.6628 1.68004 12.7947 1.71732C11.348 1.77636 9.90122 1.85093 8.45445 1.92861C7.30158 1.99386 6.1487 2.08086 4.99129 2.14611C4.80141 2.15543 4.607 2.09951 4.4126 2.07154C4.4126 2.04668 4.41712 2.01872 4.41712 1.99386C5.28969 1.85714 6.15323 1.69246 7.03484 1.59614C7.96619 1.49361 8.91109 1.45632 9.85147 1.39107C9.84696 1.36 9.84696 1.32892 9.84244 1.30096C9.18236 1.34135 8.5268 1.37242 7.86672 1.42214C7.21568 1.47185 6.56012 1.52778 5.90907 1.59303C5.23996 1.66139 4.57536 1.74218 3.90624 1.81986C3.24164 1.89443 2.57704 1.969 1.8627 2.0529C1.85365 1.94415 1.8627 1.85093 1.83106 1.76704C1.79941 1.68314 1.74062 1.56507 1.65473 1.54332C1.55978 1.51846 1.34276 1.56196 1.31564 1.61478C1.06246 2.07154 0.474717 2.31079 9.58005e-07 2.71162C0.22606 2.73958 0.370744 2.7458 0.506379 2.77687C0.655564 2.81105 0.800248 2.87009 0.9404 2.92291C1.00821 2.94776 1.06697 2.98505 1.13028 3.01923C1.15288 2.9633 1.15741 2.90116 1.19811 2.85766C1.30208 2.74269 1.39702 2.6153 1.54169 2.53762C1.60951 2.50033 1.78133 2.56869 1.93051 2.59044C1.64569 2.78619 1.42415 2.94155 1.12123 3.14973C1.3925 3.19013 1.5417 3.19945 1.67734 3.23363C1.83557 3.27713 1.98477 3.34238 2.13849 3.3952C2.2063 3.42006 2.27864 3.45734 2.34194 3.45424C2.37811 3.45113 2.43688 3.36724 2.42784 3.32684C2.36907 3.02855 2.6765 3.03166 2.97488 2.89805C2.89351 3.04098 2.8483 3.10313 2.82568 3.17148C2.70361 3.55056 2.72171 3.5661 3.25519 3.58163C3.38179 3.58474 3.50385 3.60649 3.63043 3.62202C3.74347 3.63445 3.85199 3.64999 3.96501 3.66242C3.86554 4.01353 3.87911 4.01974 4.3719 4.0446C4.63413 4.05703 4.89183 4.09742 5.14954 4.1751C5.0139 4.1751 4.86923 4.19064 4.73811 4.172C4.29956 4.11296 3.95145 4.06635 3.57619 4.40193C3.3411 4.61322 2.73528 4.60078 2.28769 4.67536C2.15657 4.69711 2.01189 4.67847 1.77228 4.67847C2.08423 4.89908 2.3374 5.0824 2.54538 5.22844C2.44591 5.57955 2.38261 5.87473 2.26508 6.15748C2.21082 6.28799 2.04353 6.39052 1.926 6.50549C1.85817 6.57074 1.74063 6.63288 1.72707 6.70124C1.64568 7.23568 1.70445 7.76079 1.94408 8.27037C1.95764 8.30144 2.0164 8.32319 2.09326 8.37291C1.926 8.47855 1.77228 8.57798 1.61403 8.68052C1.84914 8.93841 1.55978 9.11552 1.32921 9.30195C1.92146 9.55053 2.29672 9.85814 2.1656 10.3988C2.14301 10.4827 2.38261 10.6008 2.4866 10.6878C2.2289 10.7934 1.98024 10.8928 1.65472 11.0264C1.85817 11.0886 1.95764 11.1197 2.07971 11.1569C1.97121 11.2253 1.86722 11.2874 1.72707 11.3744C1.89887 11.4552 2.03902 11.5236 2.22438 11.6137C2.11136 11.71 2.00737 11.797 1.91695 11.8747C1.99834 12.0114 2.21986 12.2258 2.15657 12.2973C2.00285 12.4651 1.7135 12.5676 1.43771 12.7167C1.51457 13.0399 2.06615 12.9933 2.39619 13.2015C2.19727 13.2947 2.0119 13.3786 1.83106 13.4625C1.87174 13.4687 1.91243 13.4749 1.95311 13.4811C1.98476 13.5961 2.08423 13.7297 2.03449 13.8198C1.88982 14.0777 1.69542 14.3232 1.49649 14.5624C1.39703 14.6836 1.3699 14.7488 1.51909 14.8762C1.74966 15.072 1.99832 15.2988 1.68637 15.5878C1.62308 15.6468 1.58238 15.7649 1.61856 15.8301C1.84462 16.2403 1.38797 16.5355 1.32921 16.9052C1.3925 16.9612 1.47388 17.0295 1.58238 17.1227C1.40605 17.1414 1.284 17.1538 1.26138 17.1538C1.35181 17.275 1.47841 17.4117 1.55075 17.5608C1.65472 17.769 1.62308 18.0145 1.97121 18.1388C2.05258 18.1667 2.09326 18.3252 2.07971 18.4215C2.0571 18.6359 2.13397 18.7851 2.42784 18.8503C2.50922 18.869 2.58608 18.9063 2.66745 18.9373C2.64937 18.9684 2.62677 19.0026 2.60867 19.0336C2.3781 19.0958 2.14752 19.161 1.91695 19.2232C1.91695 19.2418 1.91243 19.2574 1.91243 19.276C2.12944 19.2853 2.3555 19.276 2.56346 19.3102C2.70361 19.3319 2.85735 19.4003 2.94777 19.4811C3.07436 19.5992 3.1467 19.7483 3.24616 19.8819C3.45865 20.1647 3.40439 20.2703 2.98845 20.3946C2.88899 20.4257 2.79404 20.463 2.6991 20.5002C2.70813 20.5251 2.71266 20.5468 2.72171 20.5717C3.02463 20.5717 3.32301 20.5717 3.6395 20.5717C3.77965 20.7861 3.95145 21.0129 4.07352 21.2553C4.15941 21.4324 4.10968 21.5971 3.96501 21.7897C3.68922 22.1564 3.9017 22.3645 4.53465 22.4112C4.41258 22.4857 4.30409 22.551 4.2001 22.6131C4.21367 22.6349 4.22723 22.6566 4.24078 22.6753C4.44876 22.6318 4.65674 22.5883 4.9054 22.5354C5.00938 22.6628 5.04555 22.8959 5.40271 22.9021C5.44792 22.9021 5.48409 23.0295 5.53835 23.0916C5.60164 23.1631 5.66042 23.2656 5.75084 23.2936C6.07184 23.3837 6.13513 23.5795 6.17583 23.7907L6.16678 23.7845C6.48326 23.6447 6.48326 23.6447 7.11169 23.8156C6.87207 24.0486 6.83589 24.0549 6.56915 23.8902C6.59175 23.9554 6.59628 24.0331 6.64601 24.0921C6.68219 24.1387 6.82234 24.2009 6.83139 24.1947C7.16142 23.943 7.5186 24.145 7.86671 24.1481C8.05208 24.1512 8.23744 24.1201 8.42734 24.1077C8.4635 24.1387 8.49966 24.1698 8.53583 24.204C8.31882 24.2941 8.10181 24.3811 7.88931 24.4712C7.93452 24.5178 7.97974 24.5644 8.02495 24.6141C8.49062 24.524 8.95178 24.4091 9.42648 24.35C9.83339 24.2972 10.2584 24.3003 10.6743 24.2941C11.2395 24.2848 11.8091 24.3003 12.3743 24.291C12.8897 24.2817 13.4051 24.2568 13.9205 24.2258C14.2867 24.204 14.6529 24.145 15.0191 24.1419C15.3265 24.1387 15.634 24.1978 15.9414 24.2289L15.9278 24.2195C16.3302 24.1854 16.7371 24.1481 17.1395 24.1139C17.2028 24.1077 17.3022 24.1015 17.3248 24.1263C17.6639 24.4743 18.1703 24.2879 18.6721 24.3563C18.5049 24.4992 18.3647 24.6204 18.2246 24.7384C18.2336 24.7571 18.2426 24.7788 18.2517 24.7975C18.7128 24.7043 19.1694 24.5862 19.6396 24.5271C20.0239 24.4805 20.4263 24.4992 20.8197 24.4961C21.6244 24.493 22.4292 24.5085 23.2294 24.4868C24.2105 24.4588 25.187 24.4029 26.1681 24.3594C26.2811 24.3531 26.3942 24.3687 26.5524 24.3749C26.471 24.4464 26.4213 24.4899 26.2992 24.5986C26.887 24.5644 27.3888 24.726 27.8907 24.4743C28.0715 24.3842 28.3428 24.4029 28.5779 24.3314C29.0255 24.1978 29.5454 24.1978 30.0382 24.145C30.0517 24.1698 30.0698 24.1947 30.0834 24.2164C29.9387 24.3345 29.7986 24.4526 29.6539 24.5738C29.6675 24.5955 29.6855 24.6173 29.6991 24.639C30.1783 24.5365 30.653 24.406 31.1459 24.3407C31.494 24.2941 31.8602 24.3314 32.2173 24.3283C33.0447 24.3252 33.8766 24.3438 34.704 24.3159C35.364 24.2941 36.0196 24.1916 36.6797 24.176C37.0594 24.1667 37.4437 24.2661 37.828 24.2941C38.2982 24.3283 38.7549 24.406 39.2341 24.2102C39.5054 24.1015 39.8987 24.1543 40.2378 24.1419C40.4005 24.1356 40.5633 24.1543 40.7622 24.1605C40.717 24.0921 40.6944 24.0486 40.6628 24.0051C40.8662 24.0051 41.0561 24.0051 41.3002 24.0051C41.1917 24.1232 41.1104 24.2164 40.9566 24.3811C41.5127 24.2661 41.9648 24.1388 42.435 24.0828C42.8193 24.0362 43.2262 24.0424 43.6196 24.0642C44.7905 24.1294 45.957 24.2195 47.1279 24.0611C47.363 24.03 47.6117 24.0642 47.8558 24.0735C48.1587 24.0828 48.4662 24.0921 48.7691 24.1077C48.9409 24.117 49.1986 24.0051 49.2031 24.2724C49.2031 24.291 49.289 24.3221 49.3342 24.3221C49.7411 24.3221 50.1752 24.3811 50.5414 24.2941C51.1608 24.1419 51.7621 24.2475 52.3679 24.2537C52.5804 24.2568 52.7974 24.2661 53.0099 24.2755C53.8644 24.3034 54.7189 24.3345 55.5733 24.3594C55.8717 24.3687 56.1747 24.3594 56.3871 24.3594C56.1114 24.5178 55.7858 24.7074 55.388 24.9373C56.2515 25.0771 56.9568 24.9249 57.7344 24.7757C57.2823 24.6701 56.9161 24.5831 56.5228 24.4899C56.9116 24.2599 57.3456 24.263 57.7751 24.2661C57.8249 24.2661 57.9017 24.2724 57.9153 24.2972C58.1775 24.6856 58.6477 24.5489 59.0636 24.5551C59.0998 24.5551 59.1405 24.5613 59.249 24.5738C59.0727 24.7198 58.919 24.8472 58.7698 24.9715C58.7788 24.9901 58.7878 25.0119 58.7969 25.0305C59.2716 24.9404 59.7373 24.8285 60.221 24.7664C60.6053 24.7167 61.0032 24.7229 61.3965 24.7198C62.1741 24.7136 62.9473 24.7415 63.7249 24.7136C64.4754 24.6887 65.2214 24.5924 65.9764 24.5644C66.7811 24.5334 67.5859 24.5427 68.3907 24.5365C68.8699 24.5334 69.3491 24.5365 69.8962 24.5365C69.8962 24.3998 69.8962 24.2599 69.8962 24.0921C71.153 24.058 72.4506 24.0362 73.7482 23.9865C74.5891 23.9554 75.4255 23.8622 76.2619 23.8374C76.8722 23.8187 77.4871 23.8653 78.102 23.8871C78.3959 23.8964 78.6897 23.9212 78.9836 23.9368C80.2766 24.0051 81.5697 24.0766 82.8672 24.1388C83.5499 24.1698 84.2326 24.1885 84.9198 24.2071C85.9958 24.2351 87.0718 24.2506 88.1479 24.2879C89.4183 24.3314 90.6932 24.3966 91.9637 24.4433C93.1527 24.4868 94.3418 24.4868 95.5263 24.5613C96.6611 24.6328 97.7688 24.5085 98.89 24.4588C99.4099 24.437 99.9298 24.4557 100.45 24.4464C101.449 24.4308 102.448 24.4246 103.447 24.3811C104.261 24.3469 105.07 24.2599 105.884 24.2133C106.671 24.1667 107.457 24.1543 108.24 24.1015C109.072 24.0455 109.903 23.9523 110.735 23.8933C111.083 23.8684 111.441 23.9057 111.789 23.8995C112.562 23.8902 113.339 23.8902 114.108 23.8498C114.89 23.8063 115.672 23.7162 116.45 23.6509C117.219 23.5857 117.992 23.4987 118.76 23.4707C119.719 23.4334 120.682 23.4521 121.645 23.4396C121.984 23.4334 122.318 23.3992 122.657 23.3837C123.408 23.3495 124.163 23.3216 124.913 23.2874C125.343 23.2656 125.772 23.2284 126.206 23.2066C126.433 23.1973 126.663 23.2159 126.889 23.2128C127.581 23.2035 128.277 23.188 128.969 23.1786C129.281 23.1755 129.597 23.1724 129.909 23.1848C130.343 23.2035 130.746 23.2346 131.193 23.0916C131.568 22.9736 132.061 23.073 132.504 23.0668C132.699 23.0637 132.889 23.0295 133.083 23.0108C133.083 22.986 133.083 22.9611 133.083 22.9363C132.586 22.8959 132.088 22.8524 131.591 22.812C131.596 22.7902 131.6 22.7685 131.6 22.7498C132.197 22.7498 132.789 22.7498 133.458 22.7498C133.377 22.6784 133.341 22.6473 133.287 22.5976C134.191 22.3801 135.104 22.5976 136.035 22.5386C135.981 22.4702 135.945 22.4205 135.886 22.349C136.632 22.349 137.355 22.349 138.083 22.349C138.083 22.3366 138.083 22.3211 138.083 22.3086C137.844 22.2682 137.6 22.2247 137.36 22.1843C137.365 22.1471 137.369 22.1129 137.374 22.0756C138.472 22.0445 139.571 22.0134 140.674 21.9855C140.679 21.973 140.683 21.9637 140.688 21.9513C140.136 21.8736 139.58 21.7959 139.028 21.7183C139.033 21.6779 139.037 21.6406 139.046 21.6002C139.173 21.594 139.322 21.5536 139.422 21.5909C139.761 21.7152 140.082 21.681 140.443 21.6468C141.072 21.5878 141.709 21.594 142.374 21.5722C142.306 21.2708 142.473 21.246 142.84 21.2739C143.775 21.3423 144.72 21.3516 145.661 21.3827C145.665 21.3516 145.674 21.3205 145.679 21.2895C145.584 21.2739 145.493 21.2522 145.399 21.2429C145.29 21.2335 145.177 21.2335 144.992 21.2273C145.141 21.1434 145.236 21.0937 145.331 21.0409C145.236 21.0098 145.123 20.9756 144.915 20.9073C145.087 20.8855 145.182 20.8731 145.272 20.8607L145.263 20.8669C144.992 20.8451 144.72 20.811 144.449 20.8047C143.893 20.7892 143.337 20.7861 142.781 20.783C142.238 20.783 141.696 20.7985 141.153 20.7923C140.936 20.7892 140.719 20.7426 140.502 20.7146C140.507 20.6898 140.511 20.6618 140.511 20.637C141.289 20.6183 142.071 20.609 142.849 20.5717C143.599 20.5375 144.39 20.8327 145.209 20.3977C144.974 20.3511 144.829 20.2983 144.68 20.2952C143.567 20.2672 142.455 20.233 141.343 20.2392C140.62 20.2423 139.901 20.3076 139.177 20.3449C139.128 20.348 139.078 20.3387 139.024 20.289C139.318 20.2703 139.616 20.2548 139.91 20.2361C139.914 20.2206 139.919 20.202 139.923 20.1864C139.747 20.1647 139.566 20.1181 139.39 20.1243C138.766 20.1429 138.115 20.2765 137.527 20.1802C136.836 20.0652 136.212 20.3262 135.556 20.233C135.448 20.2175 135.353 20.1616 135.199 20.1056C135.601 20.0777 135.909 20.059 136.221 20.0373C136.216 20.0093 136.216 19.9813 136.212 19.9534C135.814 19.9534 135.416 19.9534 135.018 19.9534C135.018 19.9378 135.018 19.9223 135.018 19.9068C135.769 19.8788 136.519 19.8477 137.27 19.8198C137.27 19.798 137.27 19.7732 137.27 19.7514C135.705 19.7514 134.146 19.7514 132.581 19.7514C132.577 19.7421 132.577 19.7328 132.572 19.7234C132.979 19.6644 133.386 19.5867 133.797 19.5526C134.81 19.4656 135.818 19.3754 136.836 19.3319C137.826 19.2884 138.816 19.3133 139.806 19.2916C140.339 19.2791 140.873 19.2325 141.406 19.1983C141.696 19.1797 141.981 19.1517 142.27 19.0834C141.655 19.0834 141.04 19.0834 140.425 19.0834C140.421 19.074 140.421 19.0647 140.421 19.0585C140.538 19.0368 140.656 19.0119 140.773 18.9902C140.389 18.8876 139.937 19.13 139.53 18.782C140.936 18.639 142.283 18.5023 143.635 18.3687C143.644 18.3874 143.649 18.4029 143.658 18.4215C143.595 18.3998 143.531 18.3811 143.454 18.3563C143.5 18.3283 143.518 18.3066 143.536 18.3066C143.649 18.3035 143.762 18.3035 143.879 18.3035C143.952 18.5148 144.671 18.5241 145.765 18.3004C145.475 18.319 145.186 18.3345 144.897 18.3532C144.897 18.3345 144.892 18.3159 144.892 18.2941C146.737 18.1357 148.577 17.9741 150.421 17.8156C150.421 17.7877 150.417 17.7566 150.417 17.7286C150.345 17.7224 150.268 17.7162 150.195 17.7162C149.825 17.7162 149.373 17.6199 149.101 17.7442C148.798 17.884 148.5 17.8374 148.215 17.8871C147.718 17.9772 147.193 17.9741 146.678 18.0052C146.167 18.0362 145.656 18.0704 145.145 18.0766C144.313 18.086 143.482 18.0673 142.65 18.0735C141.949 18.0766 141.253 18.0953 140.552 18.1077C140.448 18.1108 140.348 18.117 140.226 18.1233C140.584 17.9524 140.584 17.971 141.027 17.999C141.212 18.0114 141.402 17.9151 141.596 17.9026C141.967 17.8747 142.338 17.8747 142.708 17.8498C142.858 17.8405 143.016 17.8654 143.129 17.7038C143.192 17.6106 143.486 17.6044 143.676 17.5608C143.685 17.5857 143.699 17.6137 143.708 17.6385C143.567 17.6851 143.427 17.7286 143.287 17.7752C143.292 17.7939 143.292 17.8094 143.296 17.8281C143.653 17.8281 144.006 17.8343 144.363 17.8281C144.888 17.8187 145.412 17.8063 145.937 17.7877C146.253 17.7784 146.615 17.8187 146.881 17.7224C147.51 17.5018 148.134 17.6945 148.753 17.6541C149.463 17.6106 150.177 17.5795 150.892 17.5515C151.299 17.536 151.701 17.5329 152.108 17.5236C152.356 17.5174 152.605 17.5236 152.849 17.5049C153.048 17.4894 153.243 17.508 153.433 17.3589C153.568 17.2501 153.916 17.2905 154.174 17.2657C154.518 17.2346 154.861 17.2066 155.2 17.1196C151.85 17.4521 148.482 17.4272 145.118 17.4366C145.114 17.4086 145.114 17.3775 145.109 17.3496C145.647 17.3092 146.19 17.2688 146.728 17.2284C146.737 17.2128 146.746 17.1973 146.755 17.1787C146.47 17.0886 146.19 17.0016 145.905 16.9114C145.909 16.8897 145.909 16.8711 145.914 16.8493C146.461 16.8493 147.008 16.8493 147.641 16.8493C147.392 16.7499 147.216 16.6784 147.035 16.6069C146.316 16.7561 145.616 16.7996 144.983 16.4578C144.987 16.4236 144.996 16.3894 145.001 16.3553C145.679 16.4392 146.352 16.5262 147.031 16.6101C147.089 16.6101 147.153 16.6101 147.306 16.6101C147.175 16.5355 147.112 16.4982 147.049 16.464C147.058 16.4423 147.067 16.4174 147.076 16.3957C147.383 16.4516 147.691 16.5106 147.998 16.5666C148.003 16.5324 148.012 16.4951 148.016 16.4609C147.456 16.4112 146.89 16.3646 146.303 16.3118C146.411 16.2807 146.511 16.2558 146.61 16.2279C146.569 16.1875 146.538 16.1564 146.542 16.1595C147.094 16.0943 147.641 16.0259 148.188 15.9607C148.193 15.9762 148.197 15.9917 148.202 16.0104C148.089 16.0352 147.976 16.0632 147.867 16.088C148.943 16.1688 150.006 16.2341 151.131 16.0321C150.702 15.9575 150.372 15.8985 150.037 15.8395C150.051 15.7991 150.064 15.7587 150.073 15.7183C150.48 15.6965 150.878 15.7059 151.217 15.9203C151.412 16.0414 151.497 16.0383 151.782 15.914C151.841 15.8861 151.95 15.9172 152.035 15.9203C152.158 15.9265 152.28 15.9358 152.402 15.942C152.406 15.9078 152.415 15.8737 152.42 15.8364C151.782 15.7525 151.14 15.6717 150.503 15.5878C150.503 15.5691 150.507 15.5505 150.507 15.5319C150.851 15.5536 151.199 15.6158 151.534 15.5847C151.882 15.5536 152.216 15.4355 152.542 15.2926C151.534 15.2615 150.539 15.5101 149.544 15.2522C150.458 15.1776 151.375 15.1 152.243 15.0285C152.537 14.9757 152.795 14.9322 153.053 14.8856C153.053 14.8731 153.053 14.8607 153.053 14.8483C152.085 14.8856 151.122 14.9229 150.155 14.957C150.15 14.9104 150.146 14.8638 150.141 14.8141C152.583 14.6712 155.028 14.5251 157.479 14.3791C157.086 14.2393 156.692 14.2113 156.24 14.2703C155.883 14.317 155.494 14.2517 155.06 14.2331C155.178 14.1896 155.245 14.1647 155.34 14.1305C155.227 14.0901 155.132 14.0591 155.006 14.0156C155.508 13.9689 155.973 13.9254 156.444 13.8851C156.444 13.8695 156.444 13.854 156.439 13.8384C156.136 13.8384 155.833 13.8384 155.53 13.8384C155.53 13.8074 155.53 13.7763 155.53 13.7483C156.204 13.7483 156.882 13.7514 157.556 13.7483C157.931 13.7452 158.311 13.7204 158.686 13.7266C158.921 13.7297 159.161 13.8012 159.396 13.7949C159.907 13.7794 160.413 13.7297 160.924 13.6955L160.915 13.7017C160.716 13.6738 160.522 13.6489 160.323 13.6209C160.255 13.6116 160.183 13.6023 160.124 13.5277C160.748 13.4967 161.372 13.4625 161.995 13.4314C161.995 13.4003 162 13.3693 162 13.3382C160.255 13.1518 158.492 13.1362 156.719 13.1487C156.85 13.1673 156.982 13.189 157.117 13.2077C157.122 13.2232 157.122 13.2388 157.126 13.2512C157.027 13.2574 156.932 13.2636 156.832 13.2667C156.168 13.2854 155.503 13.2978 154.839 13.3258C154.581 13.3382 154.328 13.3972 154.07 13.4065C153.799 13.419 153.731 13.2978 153.835 13.0617C153.496 13.1269 153.197 13.1828 152.967 13.2263C153.161 13.2574 153.414 13.2947 153.668 13.3351C153.663 13.3662 153.659 13.3972 153.654 13.4283C152.375 13.4687 151.095 13.5091 149.82 13.5495C149.816 13.5308 149.816 13.5122 149.811 13.4935C150.449 13.4469 151.086 13.3972 151.724 13.3506C151.724 13.3195 151.724 13.2885 151.724 13.2574C150.72 13.2357 149.716 13.2139 148.717 13.1922C148.722 13.1797 148.722 13.1642 148.726 13.1518C149.395 13.0896 150.064 13.0088 150.733 12.9684C151.077 12.9467 151.43 13.0088 151.773 12.9933C152.397 12.9622 153.021 12.8814 153.65 12.8597C154.292 12.8379 154.938 12.8628 155.585 12.869C155.806 12.869 156.028 12.869 156.371 12.869C156.208 12.7882 156.15 12.7603 156.086 12.7292C156.086 12.7074 156.086 12.6857 156.086 12.6639C156.932 12.6639 157.773 12.6639 158.618 12.6639C158.618 12.6235 158.618 12.5831 158.623 12.5459C157.542 12.4806 156.462 12.4154 155.304 12.3439C155.612 12.2849 155.833 12.2196 156.064 12.201C156.335 12.1792 156.593 12.1947 156.882 12.2569C157.262 12.3377 157.719 12.2414 158.139 12.2041C158.41 12.1823 158.682 12.1077 158.953 12.1015C159.432 12.0922 159.911 12.1077 160.39 12.1295C160.662 12.1419 160.929 12.1792 161.209 12.1481C161.132 12.1295 161.051 12.1077 160.974 12.0891C160.974 12.0705 160.974 12.0549 160.969 12.0363C161.254 12.0052 161.543 11.9741 161.828 11.9431C161.833 11.9182 161.833 11.8934 161.837 11.8685C161.028 11.8063 160.223 11.7287 159.414 11.6914C159.016 11.6727 158.609 11.7597 158.207 11.7628C157.425 11.766 156.642 11.7411 155.86 11.7318C155.761 11.7318 155.661 11.7784 155.566 11.7753C155.444 11.7753 155.327 11.7473 155.268 11.738C154.947 11.7753 154.649 11.8592 154.382 11.825C153.821 11.7535 153.324 11.9431 152.791 11.971C152.614 11.9804 152.397 12.0425 152.266 11.9897C151.62 11.7287 150.91 11.8157 150.227 11.7628C149.694 11.7225 149.147 11.7504 148.609 11.738C148.328 11.7318 148.052 11.7007 147.772 11.6821C147.6 11.7038 147.433 11.7411 147.261 11.7442C146.922 11.7504 146.583 11.7318 146.248 11.738C145.24 11.7535 144.237 11.7815 143.228 11.7846C142.84 11.7846 142.437 11.7691 142.085 11.5112C142.397 11.5236 142.659 11.5298 142.971 11.5422C142.885 11.4583 142.849 11.418 142.736 11.303C143.45 11.4117 144.051 11.5018 144.702 11.6013C144.693 11.6075 144.757 11.536 144.829 11.5329C145.132 11.5112 145.439 11.4863 145.742 11.5081C146.434 11.536 147.112 11.6106 147.795 11.6727ZM86.0908 3.26781C86.1721 3.34549 86.249 3.42627 86.3575 3.53192C85.9823 3.49463 85.6522 3.46045 85.277 3.42317C85.5934 3.36413 85.8421 3.31752 86.0908 3.26781C86.136 3.26159 86.1767 3.25227 86.3033 3.22742C86.0184 3.18081 85.815 3.14663 85.6115 3.11245C85.8331 3.07206 86.0636 3.10002 86.2535 3.04409C86.5881 2.94155 86.778 3.11245 87.0176 3.20567C87.108 3.24295 87.2075 3.27402 87.2979 3.3082C87.2256 3.23052 87.1577 3.15284 87.0809 3.07206C87.108 3.05341 87.1397 3.03788 87.1668 3.01924C87.4878 2.81727 87.7048 2.85145 87.9715 3.10002C88.0665 3.19013 88.2383 3.23674 88.3649 3.30199C88.0258 3.30199 87.6596 3.30199 87.2888 3.30199C87.2256 3.48531 86.9362 3.58163 86.7734 3.42938C86.561 3.23052 86.3123 3.31442 86.0908 3.26781ZM139.933 9.55675C139.657 9.83018 139.349 9.60025 139.042 9.56918C139.069 9.62821 139.083 9.6655 139.101 9.70279C139.042 9.69968 138.979 9.70279 138.929 9.68725C138.802 9.64686 138.68 9.56296 138.554 9.56296C138.065 9.55675 137.577 9.5785 137.089 9.5816C137.021 9.5816 136.953 9.54743 136.885 9.52878C137.292 9.46975 137.713 9.51946 138.065 9.42935C138.576 9.29885 139.037 9.46353 139.526 9.4511C139.675 9.448 139.829 9.51325 139.978 9.54743C140.367 9.56296 140.755 9.5785 141.144 9.59093C141.144 9.61579 141.14 9.64064 141.14 9.6655C140.796 9.6655 140.457 9.67171 140.113 9.65928C140.055 9.65618 139.991 9.59093 139.933 9.55675ZM56.9839 1.9659C56.8392 1.99075 56.6901 2.0094 56.5544 2.04979C56.4911 2.06843 56.455 2.13369 56.3555 2.21758C55.9802 2.18651 55.5191 2.14612 55.0534 2.10883C55.0579 2.09019 55.0579 2.06843 55.0625 2.04979C55.3789 2.04979 55.6954 2.04979 56.1114 2.04979C55.9576 2.0094 55.8989 1.99386 55.8175 1.969C56.2289 1.78879 56.6042 1.91308 56.9839 1.9659C57.2009 1.90375 57.4134 1.8385 57.6802 1.75772C56.4685 1.75772 55.3292 1.75772 54.1899 1.75772C54.1899 1.72975 54.1899 1.70179 54.1899 1.67072C55.6547 1.67072 57.1196 1.67072 58.5844 1.67072C58.5844 1.68936 58.5889 1.708 58.5889 1.72665C58.3131 1.74218 58.0328 1.76083 57.757 1.77636C57.757 1.79811 57.757 1.81986 57.757 1.84472C57.9062 1.86336 58.0554 1.882 58.2091 1.90065C58.2046 1.9224 58.2046 1.94415 58.2001 1.9659C57.7932 1.9659 57.3863 1.9659 56.9839 1.9659ZM40.7667 1.98765C40.7577 1.95657 40.7532 1.92551 40.7441 1.89443C40.8617 1.87268 40.9792 1.8354 41.1013 1.82607C41.8563 1.76393 42.6159 1.70179 43.3709 1.65207C43.7507 1.62721 44.1304 1.61789 44.5102 1.62721C45.2562 1.64586 46.0022 1.68625 46.7436 1.71421C46.9742 1.72354 47.2003 1.71421 47.4308 1.71421C47.0285 1.76082 46.6306 1.78879 46.2328 1.82918C45.9705 1.85404 45.636 1.8354 45.4642 1.94725C45.2562 2.08397 45.0844 2.04668 44.881 2.04668C44.7182 2.04668 44.5554 2.04047 44.3882 2.04047C43.9134 2.04047 43.4387 2.05601 42.9685 2.04047C42.8691 2.03736 42.7786 1.93172 42.6611 1.85404C42.105 2.16165 41.4223 1.91929 40.7667 1.98765ZM122.101 3.75253C122.083 3.76496 122.16 3.67485 122.21 3.68417C122.549 3.73389 122.947 3.74321 123.204 3.88614C123.616 4.11296 123.987 4.16579 124.362 4.01043C124.529 4.09743 124.66 4.16579 124.828 4.25279C124.868 4.14093 124.891 4.07257 124.9 4.05393C125.849 4.05393 126.767 4.05393 127.717 4.05393C128.042 4.25589 128.499 4.25279 128.942 4.27454C129.064 4.28075 129.186 4.27454 129.308 4.27454C129.308 4.2994 129.308 4.32115 129.308 4.346C129.145 4.36154 128.987 4.39572 128.824 4.3895C128.2 4.36775 127.581 4.32736 126.961 4.31182C126.238 4.29318 125.515 4.31183 124.796 4.28386C124.073 4.25279 123.354 4.18443 122.63 4.12539C122.562 4.11918 122.481 4.09743 122.436 4.06325C122.336 3.98246 122.251 3.89235 122.101 3.75253ZM35.251 2.17719C33.4923 2.17719 31.7698 2.17718 30.0472 2.17718C30.0472 2.13368 30.0427 2.09018 30.0427 2.04668C30.8475 2.0125 31.6477 1.96279 32.4524 1.94725C33.0221 1.93482 33.5918 1.99697 34.1569 1.969C34.5457 1.95347 34.9119 1.90686 35.251 2.17719ZM8.73929 2.12747C8.73477 2.09951 8.73026 2.06843 8.73026 2.04047C9.28183 1.98765 9.82887 1.91307 10.385 1.89132C10.8461 1.87268 11.3163 1.9255 11.782 1.92861C12.1482 1.92861 12.5099 1.90064 12.7721 1.88822C12.9168 2.00629 13.0027 2.07465 13.0705 2.12747C12.4918 2.29837 11.886 2.02804 11.253 2.23622C10.8506 2.36672 10.2945 2.23311 9.80626 2.22068C9.80626 2.18651 9.80174 2.15233 9.80174 2.11504C10.0821 2.08708 10.3624 2.056 10.6698 2.02493C9.98259 1.86025 9.3858 2.27351 8.73929 2.12747ZM141.845 11.3993C141.827 11.4304 141.809 11.4615 141.791 11.4925C141.619 11.418 141.452 11.303 141.266 11.2812C141.058 11.2564 140.837 11.3216 140.606 11.3465C140.547 11.2874 140.475 11.2098 140.398 11.1321C140.394 11.1601 140.389 11.1911 140.385 11.2191C140.14 11.2595 139.896 11.3154 139.648 11.3341C139.471 11.3496 139.218 11.2564 139.114 11.3185C138.784 11.5112 138.545 11.3372 138.269 11.2533C138.441 11.2377 138.617 11.2222 138.875 11.2004C138.734 11.1507 138.68 11.1321 138.522 11.0762C139.354 11.0762 140.068 11.0762 140.787 11.0762C140.9 11.0762 141.022 11.0793 141.131 11.0575C141.415 11.0016 141.646 11.0389 141.822 11.2533C141.759 11.2781 141.696 11.2999 141.619 11.3278C141.7 11.3527 141.773 11.3745 141.845 11.3993ZM42.2723 3.23363C42.4893 3.19323 42.6656 3.1373 42.8465 3.13109C43.4613 3.11555 44.0717 2.85766 44.7001 3.10002C44.7453 3.11866 44.8719 3.10623 44.8764 3.0907C44.9488 2.89184 45.1658 2.98505 45.3104 2.97884C45.5908 2.96641 45.8756 2.96952 46.1514 2.99748C46.3006 3.01302 46.4407 3.0938 46.5854 3.14352C46.5673 3.17459 46.5492 3.20256 46.5357 3.23363C45.1296 3.23363 43.7235 3.23363 42.2723 3.23363ZM13.1338 1.94414C14.2189 1.94414 15.322 1.94414 16.4206 1.94414C16.4206 1.98454 16.4252 2.02804 16.4252 2.06843C16.2805 2.08086 16.1403 2.0964 15.9957 2.10261C15.8103 2.11193 15.6249 2.10883 15.4396 2.11815C15.2361 2.13058 15.0327 2.15854 14.8247 2.16786C14.5218 2.1834 14.2143 2.19272 13.9114 2.19583C13.595 2.19894 13.2966 2.143 13.1338 1.94414ZM78.6671 2.79241C78.6671 2.81105 78.6671 2.8328 78.6671 2.85145C78.5541 2.88252 78.4185 2.89495 78.3371 2.95088C78.1969 3.05031 78.215 3.05963 78.1065 2.95398C78.0703 2.9198 77.9754 2.87941 77.9437 2.89184C77.3876 3.12177 76.8361 2.87941 76.2981 2.85145C75.9635 2.8328 75.5973 2.75202 75.2356 2.73027C75.1 2.72095 74.9689 2.69609 74.8332 2.67744C74.8377 2.6588 74.8423 2.64016 74.8468 2.62462C75.5792 2.62462 76.3071 2.62462 77.044 2.62462C77.035 2.65569 77.0214 2.72094 77.0079 2.7893C77.5821 2.79241 78.1246 2.79241 78.6671 2.79241ZM36.0693 3.27713C36.0784 3.31131 36.0874 3.34238 36.0919 3.37656C35.0792 3.5257 34.0484 3.54435 32.9995 3.48531C33.2753 3.38588 33.5601 3.31752 33.8495 3.2647C33.9263 3.25227 34.0529 3.2647 34.0981 3.30198C34.288 3.46667 34.4463 3.42006 34.6226 3.29888C34.6723 3.2647 34.7492 3.23052 34.8125 3.23363C35.2329 3.24295 35.6489 3.26159 36.0693 3.27713ZM11.2349 3.57231C11.2395 3.57852 11.2395 3.58474 11.244 3.59406C10.0504 3.70592 8.86136 3.81467 7.66779 3.92653C7.74918 3.81156 7.86672 3.72767 7.99332 3.71524C8.55844 3.6562 9.1281 3.60338 9.69775 3.57852C10.2041 3.55677 10.7195 3.57231 11.2349 3.57231ZM139.092 10.5883C139.096 10.5635 139.101 10.5417 139.105 10.5169C139.318 10.5013 139.544 10.4485 139.747 10.4765C140.005 10.5107 140.281 10.4796 140.516 10.6536C140.651 10.753 140.968 10.7561 141.198 10.7437C141.483 10.7313 141.542 10.7282 141.7 10.9767C140.896 10.8866 140.131 10.8027 139.372 10.7188C139.372 10.7064 139.372 10.6971 139.376 10.6847C139.63 10.6847 139.883 10.6847 140.136 10.6847C140.136 10.6722 140.136 10.6567 140.14 10.6443C139.788 10.6256 139.44 10.607 139.092 10.5883ZM9.36321 3.47599C9.35869 3.45113 9.34964 3.42627 9.34511 3.40141C10.0549 3.33616 10.7602 3.27091 11.4881 3.20255C11.4474 3.55056 11.8362 3.37034 12.0578 3.47599C11.1264 3.47599 10.2448 3.47599 9.36321 3.47599ZM59.5881 2.03426C59.6016 2.05601 59.6152 2.08086 59.6333 2.10261C59.4072 2.12436 59.1812 2.14612 58.9777 2.16476C59.1857 1.69247 59.7508 1.80743 60.1758 1.78257C60.6415 1.75461 61.175 1.60236 61.5955 1.93793C61.4734 1.95968 61.3423 1.969 61.2338 1.93793C60.741 1.78257 60.2436 1.89443 59.7463 1.90686C59.6875 1.90997 59.6378 1.99075 59.5881 2.03426ZM16.398 2.33254C15.5888 2.45372 14.7749 2.64637 14.0154 2.35119C14.7749 2.3574 15.5842 2.16475 16.398 2.33254ZM139.051 10.607C139.064 10.6287 139.078 10.6505 139.087 10.6753C139.037 10.7064 138.992 10.7344 138.933 10.7717C139.006 10.7872 139.074 10.8027 139.087 10.8058C139.046 10.8649 139.001 10.927 138.947 11.0047C138.495 10.9115 137.984 10.8089 137.455 10.7002C137.979 10.4454 138.535 10.7748 139.051 10.607ZM50.1345 2.32012C50.1345 2.29526 50.1299 2.26729 50.1299 2.24244C50.3289 2.24244 50.5323 2.24865 50.7312 2.24244C51.1517 2.2238 51.5857 2.2269 51.9926 2.16476C52.282 2.12126 52.3272 2.09951 52.4131 2.34187C51.6536 2.36362 50.8895 2.44441 50.1345 2.32012ZM68.0199 2.22379C67.5543 2.19583 67.179 2.17408 66.8128 2.15233C66.8128 2.09951 66.8128 2.04669 66.8128 1.99697C67.0524 2.02183 67.2649 2.04047 67.5904 2.07465C67.4412 2.00629 67.3915 1.98143 67.3146 1.94726C67.9792 1.91929 68.6032 1.89443 69.2271 1.86647C69.2271 1.88511 69.2316 1.90686 69.2316 1.9255C68.7569 1.98454 68.2822 2.04047 67.7622 2.10572C67.8527 2.14922 67.8979 2.16787 68.0199 2.22379ZM27.321 2.10883C27.3165 2.07776 27.312 2.04668 27.3075 2.0125C28.0082 1.97522 28.7135 1.93483 29.4143 1.89754C29.4188 1.92861 29.4233 1.95657 29.4278 1.98765C28.7497 2.20515 28.0218 2.04979 27.321 2.10883ZM80.3625 2.53762C80.8508 2.41644 81.312 2.23622 81.8048 2.49101C81.7143 2.68055 81.4702 2.69298 81.2487 2.67434C80.9593 2.65259 80.6745 2.59044 80.3625 2.53762ZM140.254 6.34081C140.154 6.56764 138.879 6.55832 138.215 6.34081C138.902 6.34081 139.562 6.34081 140.254 6.34081ZM78.6264 2.62462C79.1464 2.56869 79.6844 2.50344 80.1998 2.69298C79.6618 2.74891 79.1147 2.96952 78.6264 2.62462ZM142.464 7.05857C142.008 7.22636 141.673 7.03682 141.33 6.84418C141.501 6.83175 141.669 6.87214 141.836 6.88457C141.908 6.88768 141.981 6.82553 142.062 6.80689C142.175 6.77893 142.297 6.76029 142.415 6.74475C142.437 6.74164 142.469 6.77582 142.519 6.80378C142.442 6.85661 142.374 6.90321 142.302 6.94982C142.369 6.99332 142.419 7.0275 142.464 7.05857ZM46.2554 2.4009C46.2373 2.36983 46.2237 2.33565 46.2056 2.30458C45.7716 2.2269 45.3059 2.32322 44.8719 2.23311C45.4596 2.19272 46.0429 2.15233 46.6306 2.11194C46.6487 2.14301 46.6668 2.17719 46.6849 2.20826C46.5447 2.27351 46.4 2.33876 46.2554 2.4009ZM38.7729 2.25176C38.7729 2.23933 38.7729 2.22379 38.7684 2.21136C39.0306 2.19583 39.2929 2.17097 39.5551 2.16165C39.8173 2.15233 40.0841 2.15854 40.3463 2.15854C40.3282 2.16476 40.2649 2.18029 40.1655 2.20826C40.3192 2.27351 40.4051 2.31079 40.5588 2.37604C39.9032 2.33254 39.3381 2.29215 38.7729 2.25176ZM47.8875 3.02234C47.4128 3.21498 46.9561 3.19013 46.8115 3.02234C47.1731 3.02234 47.5303 3.02234 47.8875 3.02234ZM153.527 13.9814C154.305 13.8198 154.766 13.8416 154.893 14.0715C154.432 14.0435 153.984 14.0124 153.527 13.9814ZM136.415 11.4335C136.411 11.477 136.406 11.5205 136.402 11.5609C135.877 11.5081 135.353 11.4552 134.828 11.4024C135.023 11.3527 135.217 11.3434 135.407 11.3558C135.597 11.3682 135.782 11.4024 135.968 11.418C136.117 11.4335 136.266 11.4304 136.415 11.4335ZM19.7843 2.54694C19.7798 2.57801 19.7798 2.60598 19.7753 2.63705C19.3684 2.77376 19.0338 2.58112 18.6631 2.5283C18.6721 2.49412 18.6767 2.45994 18.6857 2.42265C19.0564 2.46304 19.4181 2.50344 19.7843 2.54694ZM106.49 3.05963C106.874 3.05963 107.259 3.05963 107.751 3.05963C107.304 3.23674 107.304 3.23674 106.49 3.05963ZM33.0085 2.4444C33.4878 2.24554 33.7093 2.26418 34.0213 2.5314C33.6777 2.50033 33.3657 2.47547 33.0085 2.4444ZM140.231 9.16835C140.57 9.16835 140.877 9.16835 141.198 9.16835C141.09 9.40139 140.71 9.40139 140.231 9.16835ZM16.5065 2.056C16.9496 2.03115 17.2842 2.0125 17.6685 1.99075C17.3113 2.31701 16.9632 2.17408 16.5065 2.056ZM139.399 19.043C139.399 19.0616 139.399 19.0803 139.399 19.0958C139.074 19.0958 138.743 19.0958 138.413 19.0958C138.427 19.074 138.45 19.0243 138.468 18.987C138.784 19.0057 139.092 19.0243 139.399 19.043ZM49.185 2.01872C49.1941 2.04358 49.2031 2.06843 49.2122 2.09329C48.742 2.1399 48.2763 2.18651 47.8061 2.23622C47.8016 2.21758 47.8016 2.19894 47.7971 2.18029C48.2582 2.12747 48.7194 2.07465 49.185 2.01872ZM141.402 7.07411C140.95 7.07411 140.538 7.07411 140.041 7.07411C140.538 6.98089 140.95 6.90943 141.402 7.07411ZM47.6976 3.37345C47.3721 3.46045 47.1325 3.52881 46.8838 3.58163C46.8522 3.58785 46.7843 3.50706 46.7301 3.46667C46.7843 3.4356 46.8341 3.37966 46.8928 3.37656C47.1189 3.36724 47.3449 3.37345 47.6976 3.37345ZM121.545 3.53503C121.532 3.55367 121.523 3.57542 121.509 3.59406C121.238 3.55056 120.967 3.50706 120.74 3.47289C120.786 3.40142 120.822 3.34238 120.876 3.2616C121.08 3.34238 121.315 3.43871 121.545 3.53503Z" fill="url(#paint0_linear_6288_9080)"/>
<defs>
<linearGradient id="paint0_linear_6288_9080" x1="158.835" y1="25.0337" x2="12.3768" y2="-28.5699" gradientUnits="userSpaceOnUse">
<stop stop-color="#533CA3"/>
<stop offset="0.294518" stop-color="#BF5AB8"/>
<stop offset="0.682384" stop-color="#ED641F"/>
<stop offset="1" stop-color="#FFE322"/>
</linearGradient>
</defs>
</svg>
