<svg width="101" height="16" viewBox="0 0 101 16" fill="none" xmlns="http://www.w3.org/2000/svg">
<path id="Underline_1" d="M92.1436 7.50989C91.9576 7.46146 91.7687 7.41691 91.5827 7.36654C91.3177 7.29293 90.9767 7.34717 90.8301 7.06821C90.8132 7.08758 90.7963 7.10502 90.7794 7.12439C90.8047 7.1612 90.8301 7.19994 90.8611 7.24256C90.5341 7.20575 90.2184 7.17088 89.9027 7.13408C89.8943 7.14764 89.8886 7.15926 89.8802 7.17282C90.0155 7.22125 90.1508 7.27162 90.2579 7.31036C90.1846 7.31036 90.0239 7.34523 89.9732 7.30455C89.6406 7.03141 89.1276 7.08952 88.7273 6.94811C88.7358 6.92486 88.7443 6.90355 88.7499 6.88031C89.0092 6.90355 89.2657 6.92486 89.525 6.94811C89.5279 6.9423 89.5307 6.93648 89.5335 6.93067C89.4433 6.90355 89.3559 6.87643 89.2657 6.84931C89.2685 6.83575 89.2713 6.82219 89.2713 6.80863C89.4968 6.82994 89.7223 6.85125 89.9478 6.87256C89.9535 6.86481 89.9591 6.85706 89.9648 6.85125C89.914 6.82994 89.8661 6.80669 89.8154 6.78538C89.8125 6.76989 89.8125 6.75633 89.8097 6.74083C90.007 6.72339 90.2015 6.70596 90.3988 6.68852C90.396 6.67303 90.396 6.65753 90.3932 6.64203C90.1705 6.6924 89.9676 6.57617 89.7195 6.66334C89.5814 6.71177 89.3615 6.63428 89.1868 6.5781C89.3136 6.56454 89.4405 6.55098 89.5673 6.53742C89.5673 6.52774 89.5645 6.51805 89.5617 6.50836C89.37 6.50836 89.1783 6.50836 88.9472 6.50836C89.0148 6.56842 89.0628 6.6091 89.153 6.68852C88.8288 6.65559 88.5639 6.62072 88.2961 6.60522C87.9437 6.58585 87.5886 6.58779 87.2362 6.56842C87.1545 6.56454 87.0756 6.51805 86.9995 6.45219C87.9043 6.43863 88.8119 6.42506 89.7167 6.41344C89.7167 6.39601 89.7195 6.37664 89.7195 6.3592C89.494 6.32433 89.2657 6.28752 89.0402 6.25265C89.0402 6.24297 89.0402 6.23522 89.043 6.22553C89.3559 6.22553 89.6716 6.22553 89.9845 6.22553C89.9873 6.20229 89.9901 6.17904 89.9958 6.1558C89.9281 6.1558 89.8576 6.15386 89.79 6.1558C89.6801 6.15773 89.5701 6.16936 89.4602 6.16548C89.3615 6.16161 89.2601 6.14224 89.1417 6.12867C89.1727 6.08218 89.1924 6.04925 89.2093 6.02407C89.0064 5.99307 88.8091 5.96208 88.609 5.93108C88.6118 5.91946 88.6118 5.9059 88.6146 5.89427C88.826 5.91171 89.0402 5.92914 89.2516 5.94658C89.2516 5.92914 89.2516 5.91365 89.2516 5.89621C89.3277 5.90009 89.4038 5.90202 89.4771 5.9059C89.4771 5.89621 89.4799 5.88459 89.4799 5.8749C88.9697 5.81872 88.4596 5.76255 87.8705 5.69668C88.1213 5.66762 88.313 5.64631 88.5018 5.625C88.5018 5.60757 88.5047 5.59013 88.5047 5.5727C88.3947 5.57657 88.2876 5.58432 88.1777 5.58432C88.0368 5.58432 87.8902 5.59013 87.7521 5.56883C87.628 5.54945 87.5153 5.49328 87.4054 5.41191C87.6872 5.41191 87.9663 5.41191 88.2482 5.41191C87.9043 5.20851 87.5125 5.37123 87.1545 5.3073C87.1545 5.28987 87.1545 5.27243 87.1545 5.25306C87.3349 5.25306 87.5181 5.26275 87.6985 5.25113C88.0311 5.23175 88.3637 5.26662 88.6992 5.16976C88.9359 5.10196 89.2375 5.14458 89.5081 5.15233C89.7167 5.15814 89.9253 5.18526 90.1423 5.2027C90.0521 5.21238 89.9648 5.22207 89.8802 5.23175C89.8858 5.25306 89.8886 5.27437 89.8943 5.29568C90.086 5.26469 90.2833 5.24725 90.4637 5.19688C90.6102 5.15427 90.7286 5.04966 90.8752 5.01285C91.0189 4.97798 91.1881 5.00123 91.3431 4.9896C91.4587 4.97992 91.5742 4.94118 91.6898 4.93924C91.8561 4.93536 92.0224 4.95474 92.1915 4.96248C92.3099 4.9683 92.4283 4.97023 92.5495 4.97411C92.5523 4.95667 92.5551 4.93924 92.5551 4.9218C92.4283 4.91599 92.3015 4.91018 92.1746 4.90437C92.1746 4.89468 92.1746 4.88693 92.1774 4.87725C92.4086 4.86369 92.6397 4.85013 92.8708 4.8385C92.8708 4.82882 92.8708 4.82107 92.8708 4.81138C91.7772 4.81138 90.6807 4.81138 89.587 4.81138C89.587 4.79976 89.587 4.78814 89.587 4.77458C89.9845 4.74164 90.3847 4.69128 90.7822 4.68353C91.1853 4.67578 91.5911 4.7184 91.997 4.72033C92.5467 4.72227 93.0992 4.73583 93.6432 4.68934C94.1449 4.64672 94.6354 4.53436 95.1343 4.42782C94.6325 4.42007 94.1308 4.41426 93.6319 4.40264C93.2034 4.39295 92.7609 4.41619 92.3494 4.34839C91.7518 4.2496 91.1571 4.27284 90.5567 4.25347C90.0099 4.23604 89.4658 4.18567 88.9218 4.17986C88.6794 4.17792 88.437 4.25347 88.1918 4.28447C88.1326 4.29221 88.0649 4.26509 87.9353 4.24185C88.0959 4.21279 88.1946 4.19535 88.3355 4.17211C88.0593 4.01132 87.7662 4.04619 87.4899 3.9997C87.676 3.9997 87.8592 3.9997 88.0565 3.9997C87.955 3.97064 87.8676 3.94546 87.7774 3.92027C87.7831 3.90478 87.7859 3.88734 87.7915 3.87184C87.9917 3.88928 88.1918 3.90671 88.3919 3.92221C88.3947 3.91059 88.3976 3.9009 88.4004 3.88928C88.3665 3.87378 88.3327 3.85828 88.2989 3.84085C88.3637 3.77498 88.4821 3.80598 88.8965 3.9997C88.8232 4.01713 88.7612 4.03263 88.702 4.04619C88.7161 4.052 88.7302 4.05975 88.7414 4.06556C89.1868 4.06556 89.6321 4.06556 90.0775 4.06556C90.0803 4.04813 90.0803 4.03069 90.0831 4.0152C89.6378 3.95514 89.1896 3.89509 88.7442 3.83504C88.7414 3.82535 88.7386 3.81373 88.7358 3.80404C89.4489 3.7808 90.1649 3.75755 90.878 3.73237C90.8808 3.71299 90.8808 3.69556 90.8837 3.67619C90.8132 3.65294 90.7427 3.62776 90.6187 3.58708C90.7822 3.59676 90.8865 3.60257 90.9908 3.60838C90.9936 3.60064 90.9964 3.59482 90.9992 3.58708C90.9203 3.56189 90.8386 3.53477 90.7314 3.4999C90.7878 3.46503 90.8245 3.44372 90.8104 3.45341C90.2607 3.42048 89.6772 3.38561 89.0938 3.35268C88.8852 3.34105 88.6738 3.33912 88.4624 3.32556C88.158 3.30618 87.8564 3.27906 87.5548 3.25582C87.5548 3.24032 87.5576 3.22288 87.5576 3.20739C88.7161 3.20739 89.8717 3.20739 91.0302 3.20739C91.033 3.19383 91.033 3.17833 91.0359 3.16477C90.7512 3.14927 90.4637 3.12021 90.179 3.11827C89.4038 3.1144 88.6287 3.13377 87.8507 3.12409C87.4533 3.12021 87.0587 3.06985 86.6612 3.05241C86.5654 3.04854 86.4639 3.09697 86.3653 3.12021C86.3145 3.13184 86.261 3.15314 86.2102 3.14927C85.9763 3.1299 85.7423 3.09503 85.5084 3.08341C85.1419 3.06403 84.7755 3.05435 84.4091 3.0466C84.1469 3.04079 83.882 3.04466 83.617 3.04466C83.6255 3.03304 83.6508 3.00204 83.6875 2.95749C83.4197 2.94199 83.1632 2.93424 82.9067 2.91099C82.498 2.87612 82.0921 2.83351 81.6862 2.78701C81.2042 2.73084 80.725 2.65335 80.2402 2.6146C80.0429 2.59911 79.8371 2.67272 79.6314 2.69015C79.4989 2.70178 79.3608 2.69597 79.2311 2.67659C78.8703 2.62042 78.5152 2.55068 78.1572 2.48675C77.9542 2.64173 77.6019 2.47513 77.4074 2.67659C77.3792 2.70565 77.2467 2.68047 77.1622 2.68047C77.1763 2.61848 77.1875 2.55455 77.2016 2.49837C76.9423 2.59136 76.8324 2.37245 76.6351 2.32596C76.4885 2.29109 76.3391 2.26397 76.1897 2.23879C76.0826 2.22135 75.9727 2.21748 75.8656 2.20586C75.843 2.20392 75.8205 2.19423 75.7979 2.19423C75.5696 2.18648 75.3413 2.18067 75.0961 2.17292C75.0566 2.19036 74.9805 2.25816 74.9044 2.25816C74.6112 2.25622 74.3181 2.23491 74.0249 2.21554C73.7544 2.19811 73.4838 2.17486 73.2132 2.15549C72.8665 2.13224 72.5198 2.11287 72.1533 2.12643C72.3168 2.16324 72.4831 2.20198 72.6466 2.23879C72.6381 2.25816 72.6297 2.27559 72.6212 2.29497C72.3027 2.21748 71.9842 2.13999 71.6657 2.0625C71.6713 2.03926 71.6741 2.01601 71.6798 1.99083C72.1308 1.99083 72.5818 1.99083 73.0497 1.99083C73.0271 1.91915 72.7734 1.92496 73.0074 1.79517C72.4014 1.74287 71.8545 1.69637 71.257 1.64601C71.3359 1.69444 71.381 1.7235 71.4317 1.75449C70.9892 1.79517 70.5551 1.83585 70.1013 1.87847C70.665 1.99083 71.2147 2.10125 71.7672 2.21167C71.7615 2.24073 71.7559 2.26978 71.7503 2.2969C71.0371 2.26978 70.324 2.24073 69.6137 2.2136C69.6137 2.18648 69.6137 2.1613 69.6137 2.13418C69.7997 2.13418 69.9857 2.13418 70.2281 2.13418C69.9378 1.99276 69.6982 2.06638 69.4558 2.08769C69.236 2.10706 69.0133 2.11287 68.7906 2.11481C68.7399 2.11481 68.692 2.05863 68.6356 2.05088C68.5369 2.03732 68.4354 2.04119 68.3368 2.03926C68.2381 2.03732 68.1367 2.03926 68.0126 2.03926C68.0775 2.07413 68.131 2.10125 68.1902 2.13224C68.0183 2.1458 67.8576 2.16905 67.6969 2.16711C67.6321 2.16711 67.5673 2.11481 67.5165 2.05088C67.401 2.0625 67.2854 2.07413 67.167 2.08575C67.1642 2.06638 67.1586 2.04701 67.1558 2.02957C67.6378 1.91334 68.162 2.0102 68.6497 1.89397C68.6074 1.87266 68.5538 1.84747 68.5031 1.82035C68.5087 1.80873 68.5144 1.79711 68.52 1.78548C68.6919 1.82617 68.8667 1.86685 69.0527 1.90947C69.0189 1.94046 68.9879 1.96758 68.9034 2.04507C69.1514 2.03538 69.3403 2.02763 69.5404 2.02182C69.5235 1.96177 69.5122 1.92884 69.4953 1.87266C69.6785 1.90172 69.842 1.9269 70.0083 1.95208C70.0111 1.93271 70.0167 1.91528 70.0196 1.89591C69.4276 1.68281 68.7427 1.83004 68.1282 1.67894C68.2184 1.71381 68.3058 1.75062 68.396 1.78548C68.3932 1.79711 68.3904 1.80679 68.3847 1.81842C68.0126 1.74674 67.6406 1.67313 67.2685 1.60145C67.26 1.61695 67.2544 1.63051 67.2459 1.64601C67.4235 1.70412 67.6039 1.76224 67.8125 1.83004C67.759 1.85329 67.7167 1.88622 67.6772 1.88428C67.136 1.86878 66.5948 1.85135 66.0508 1.83004C65.9944 1.8281 65.9437 1.78936 65.8902 1.76805C65.8789 1.78161 65.8704 1.79711 65.8591 1.81067C65.9183 1.83779 65.9719 1.87072 66.0339 1.89009C66.1044 1.91334 66.1805 1.92302 66.3271 1.95596C66.2058 2.00439 66.1551 2.02376 66.0931 2.04701C66.1607 2.08188 66.2143 2.11093 66.282 2.14774C66.0452 2.30465 65.7605 2.22523 65.5096 2.26591C65.115 2.3279 64.7204 2.28915 64.3258 2.2969C64.1426 2.30078 63.9396 2.38795 63.7874 2.35115C63.3449 2.24072 62.891 2.32596 62.4654 2.26591C62.1807 2.22523 61.8848 2.26785 61.6085 2.17486C61.6649 2.17486 61.7241 2.17486 61.7805 2.17486C61.7833 2.16517 61.7833 2.15549 61.7861 2.1458C61.6987 2.13612 61.6114 2.12643 61.524 2.11674C61.4789 2.15355 61.431 2.21942 61.3859 2.21942C61.2703 2.21748 61.1575 2.18067 61.042 2.16905C60.7263 2.13612 60.4106 2.11093 60.0977 2.07994C60.0385 2.07413 59.9821 2.05282 59.9229 2.03926C60.1541 1.99858 60.3824 1.99083 60.6079 2.00051C60.7516 2.00632 60.8926 2.03345 61.0307 2.05863C61.1012 2.07219 61.1632 2.10318 61.228 2.12643C61.2252 2.1458 61.2224 2.16711 61.2196 2.18648C61.321 2.16324 61.4225 2.13999 61.524 2.11481C61.617 2.07994 61.7185 2.00632 61.8002 2.01795C62.0257 2.04894 62.2258 2.05088 62.4429 1.97533C62.5725 1.93077 62.7417 1.94627 62.8939 1.93659C62.8995 1.92109 62.9023 1.90559 62.908 1.89009C62.7388 1.85135 62.5697 1.81261 62.4006 1.77386C62.4626 1.75255 62.5331 1.72931 62.6007 1.70606C62.5979 1.69056 62.5951 1.67506 62.5923 1.65957C62.0905 1.7913 61.5888 1.76805 61.0871 1.67313C61.0843 1.69056 61.0786 1.70606 61.0758 1.72349C61.1491 1.74093 61.2252 1.75643 61.2985 1.77386C61.2985 1.78355 61.2985 1.79323 61.2985 1.80292C61.166 1.79711 61.0307 1.79323 60.8982 1.77967C60.8729 1.77774 60.8334 1.73899 60.8334 1.71768C60.8334 1.69637 60.87 1.6615 60.8982 1.65569C60.9659 1.64407 61.0363 1.64601 61.1068 1.63245C60.7855 1.63245 60.467 1.63245 60.1033 1.63245C60.3063 1.70025 60.4839 1.7603 60.7263 1.84166C60.0498 1.92303 59.4325 1.82229 58.7532 1.83004C58.9392 1.87653 59.0576 1.90559 59.176 1.93465C59.1732 1.95596 59.1704 1.97533 59.1675 1.99664C59.0407 1.98695 58.911 1.98695 58.7926 1.95983C58.7335 1.94627 58.6968 1.88234 58.6489 1.84166C58.663 1.82229 58.6743 1.80486 58.6884 1.78548C58.2768 1.75255 57.8625 1.71962 57.4509 1.68669C57.4509 1.6615 57.4538 1.63632 57.4538 1.6092C57.8794 1.57239 58.3078 1.53559 58.7335 1.50072C58.7335 1.4949 58.7335 1.48909 58.7306 1.48328C58.274 1.48328 57.8202 1.48328 57.3579 1.48328C57.496 1.45616 57.637 1.42904 57.7779 1.40192C57.7751 1.3903 57.7723 1.38061 57.7666 1.36899C57.2931 1.41161 56.8195 1.45616 56.3516 1.49878C56.6448 1.57627 56.9351 1.65376 57.2705 1.74093C56.7942 1.78936 56.377 1.83004 55.9598 1.87266C55.9598 1.88622 55.9598 1.89978 55.9598 1.91334C56.0867 1.91915 56.2135 1.92496 56.3686 1.93077C56.2502 2.05669 56.3037 2.09544 56.4813 2.11481C56.8139 2.15355 57.1437 2.21554 57.4735 2.26978C57.4791 2.24847 57.4848 2.2291 57.4904 2.20779C57.2029 2.16324 56.9154 2.12062 56.5743 2.06831C56.6758 2.04119 56.7265 2.02763 56.8449 1.9947C56.6673 1.97533 56.5518 1.96371 56.4362 1.95015C56.439 1.94046 56.439 1.92884 56.4418 1.91915C56.7265 1.91915 57.0112 1.91915 57.2987 1.91915C57.2987 1.93271 57.3015 1.94433 57.3015 1.95789C57.2395 1.97145 57.1803 1.98502 57.1183 1.99664C57.2959 2.03538 57.4679 2.14968 57.6398 1.98501C57.6736 1.95208 57.8399 1.98695 57.9414 2.00632C58.088 2.03345 58.2261 2.10125 58.3727 2.10706C58.849 2.12256 59.3282 2.11287 59.8046 2.12256C59.8919 2.12449 59.9793 2.16711 60.0667 2.1923C60.0611 2.20973 60.0554 2.22717 60.0498 2.2446C59.7736 2.2446 59.4945 2.2446 59.2183 2.2446C59.0971 2.2446 58.9787 2.2446 58.8575 2.2446C58.7447 2.24654 58.6348 2.25041 58.522 2.25041C58.4008 2.25041 58.305 2.22523 58.1725 2.30659C58.0654 2.37245 57.8146 2.30853 57.6285 2.30853C57.434 2.30853 57.2367 2.3124 57.0422 2.32596C56.8365 2.33952 56.6279 2.4267 56.4475 2.27366C56.4306 2.2601 56.3855 2.25429 56.3573 2.2601C56.0388 2.31821 55.7343 2.30659 55.4384 2.17099C55.4553 2.19617 55.4722 2.22135 55.4863 2.2446C55.3961 2.2601 55.3059 2.27366 55.2242 2.28722C55.2552 2.19036 55.2749 2.12643 55.3003 2.03926C55.4778 2.07219 55.6723 2.10512 55.864 2.13999C55.6216 1.95596 55.3087 1.95596 55.0071 1.92884C54.8154 1.9114 54.6266 1.88815 54.4349 1.88041C54.2658 1.87266 54.0967 1.89009 53.9276 1.88428C53.7415 1.87653 53.5555 1.8591 53.3723 1.83391C53.0707 1.79323 52.7691 1.74287 52.4618 1.71574C52.786 1.89009 53.2454 1.80486 53.6034 2.03344C52.8705 2.03732 52.1997 2.02957 51.4978 1.94433C51.5767 1.85522 51.619 1.80873 51.6669 1.75255C51.7515 1.7758 51.8445 1.80098 51.9573 1.83198C51.8614 1.72156 51.8643 1.71381 51.4104 1.64019C51.2131 1.60726 51.0045 1.61114 50.8016 1.55689C51.0581 1.53946 51.3146 1.52203 51.5683 1.50265C50.7847 1.39611 49.987 1.60145 49.2062 1.43291C49.6741 1.3438 50.1618 1.55108 50.624 1.36705C50.4352 1.38061 50.2435 1.39611 50.049 1.40967C50.0913 1.3593 50.1279 1.31668 50.1646 1.27213L50.1702 1.276C49.6628 1.2915 49.1555 1.31668 48.6481 1.3225C48.2817 1.32637 47.9152 1.307 47.5516 1.28762C47.3543 1.276 47.157 1.24694 46.9653 1.21595C46.9146 1.2082 46.8751 1.16364 46.8047 1.11909C46.8272 1.18302 46.8413 1.22757 46.8582 1.27794C46.7004 1.31862 46.4777 1.33024 46.427 1.50847C46.1846 1.4949 45.9365 1.48522 45.6913 1.46391C45.5391 1.45035 45.353 1.51815 45.2431 1.37092C45.2318 1.35543 45.1529 1.36124 45.105 1.36511C44.7498 1.38642 44.3975 1.40579 44.0423 1.43291C43.9916 1.43679 43.9437 1.47747 43.8958 1.53365C44.5582 1.30893 45.1529 1.61889 45.7871 1.63438C45.4122 1.69637 45.0345 1.75255 44.6455 1.69637C44.4651 1.67119 44.2819 1.65569 44.0987 1.63632C43.9888 1.6247 43.8676 1.63438 43.7717 1.60145C43.6787 1.56852 43.6111 1.49297 43.5209 1.42904C43.6364 1.39998 43.721 1.37867 43.8056 1.35736C43.5857 1.34768 43.3658 1.33605 43.1488 1.32637C43.3799 1.24694 43.6083 1.18495 43.8027 1.36124C43.9747 1.34961 44.1466 1.32831 44.3186 1.32637C44.6991 1.32056 45.0824 1.32443 45.4968 1.32443C45.4432 1.35155 45.4179 1.36317 45.3925 1.37674C45.3953 1.3903 45.401 1.40192 45.4038 1.41548C45.5983 1.38255 45.7899 1.33993 45.9872 1.31668C46.1592 1.29731 46.3368 1.30119 46.5143 1.29344C46.5115 1.27019 46.5059 1.24694 46.5031 1.2237C45.7928 1.2237 45.0853 1.2237 44.3749 1.2237C44.3721 1.2082 44.3693 1.1927 44.3665 1.17527C44.4821 1.15202 44.5948 1.13071 44.7104 1.10747C44.6568 1.06291 44.6089 1.02223 44.5187 0.944743C44.5272 1.0261 44.5328 1.06291 44.5384 1.11521C44.2284 1.11521 43.9183 1.11521 43.5575 1.11521C43.6111 1.09972 43.6505 1.08809 43.7097 1.07066C43.504 1.01254 43.3292 0.964114 43.146 0.913746C43.3123 0.892437 43.4701 0.873065 43.6308 0.851756C43.6308 0.844008 43.628 0.838196 43.628 0.830447C43.4166 0.830447 43.2024 0.830447 42.9684 0.830447C42.9515 0.940867 42.9374 1.05129 42.9177 1.18495C42.6133 1.16171 42.306 1.11909 42.0016 1.11909C41.7338 1.11909 41.4689 1.17139 41.2011 1.19464C41.0968 1.20239 40.9897 1.19077 40.8826 1.18689L40.8882 1.1927C40.6289 1.02804 40.3414 1.10165 40.1159 1.20432C39.9918 1.2605 39.9327 1.25857 39.8171 1.23532C39.7241 1.21595 39.6141 1.23532 39.5155 1.22563C39.4394 1.21789 39.3661 1.1927 39.2928 1.17527C39.1406 1.17527 38.9884 1.17527 38.8362 1.17527C38.9292 1.1094 39.0222 1.06485 39.1152 1.06872C39.1744 1.07066 39.2308 1.1404 39.2872 1.17914C39.5014 1.11909 39.7128 1.04935 39.9298 0.998984C40.02 0.977674 40.1272 0.995108 40.2681 0.995108C40.0313 0.844007 39.7945 0.884689 39.5775 0.909872C39.2731 0.946679 38.9771 1.01642 38.6699 1.0726C38.6924 1.09197 38.7291 1.12877 38.7685 1.16558C38.7629 1.18108 38.7544 1.19851 38.7488 1.21401C38.6107 1.20239 38.4726 1.19076 38.3091 1.1772C38.123 1.26632 37.8609 1.20626 37.6185 1.20626C37.3676 1.20626 37.1168 1.1772 36.8574 1.16171C36.849 1.13459 36.8377 1.09584 36.8321 1.08035C36.9533 1.03966 37.0745 0.998983 37.2098 0.952491C37.0773 0.822699 36.8039 0.967987 36.7898 0.780079C37.0689 0.739398 37.3197 0.702592 37.5678 0.665786C37.5678 0.650288 37.5678 0.632854 37.5678 0.617355C37.3 0.617355 37.0322 0.617355 36.7306 0.617355C36.6545 0.737462 35.5608 1.02029 35.0873 0.995108C35.1239 1.03191 35.1493 1.0571 35.1831 1.08616C34.9154 1.08616 34.6532 1.08616 34.3911 1.08616C34.3516 1.08616 34.3009 1.06678 34.2755 1.07841C33.9795 1.22563 33.7033 1.02223 33.4299 1.09197C33.4468 1.00286 33.4581 0.944741 33.4694 0.888563L33.4778 0.894374C33.2298 1.00092 32.8662 1.05129 32.8605 0.973799C32.9113 0.96605 32.962 0.958302 33.0127 0.952491C32.9817 0.921495 32.9535 0.892436 32.9253 0.863378C32.3729 1.00673 31.5019 1.05322 31.1157 0.991234C31.158 1.03773 31.1806 1.08809 31.2116 1.09197C31.3807 1.10553 31.5526 1.11522 31.7246 1.11134C32.1981 1.09972 32.6717 1.07647 33.148 1.06872C33.2044 1.06678 33.2608 1.1249 33.3171 1.1559C33.2608 1.18689 33.2129 1.23726 33.1508 1.24694C32.7224 1.32249 32.308 1.2082 31.8852 1.18689C31.7415 1.17914 31.5949 1.23338 31.4455 1.24307C31.3384 1.24888 31.2257 1.22757 31.1157 1.21982C31.0284 1.21401 30.941 1.2082 30.8536 1.20239C30.848 1.21788 30.8451 1.23338 30.8395 1.24888C30.9184 1.26825 31.0002 1.28569 31.1496 1.32056C30.8113 1.44647 30.5041 1.3438 30.225 1.39804C30.2363 1.35349 30.2419 1.3283 30.2476 1.30118C30.3801 1.2915 30.5323 1.27988 30.6816 1.27019C30.6816 1.25469 30.6788 1.24113 30.6788 1.22563C30.4956 1.22563 30.3152 1.22563 30.132 1.22563C30.1292 1.21401 30.1292 1.20239 30.1264 1.1927C30.1997 1.18108 30.2758 1.16752 30.3941 1.14815C30.0108 1.05129 29.65 1.32637 29.3061 1.13265C29.0665 1.15008 28.8044 1.17139 28.5394 1.18302C28.5028 1.18495 28.4605 1.12684 28.3929 1.07453C28.1505 1.07453 27.8573 1.07453 27.5106 1.07453C27.6036 1.0416 27.6544 1.0261 27.7023 1.00867C27.6966 0.991232 27.691 0.973799 27.6854 0.956364C27.1583 1.09972 26.5945 1.00867 26.0618 1.16752C26.3296 1.16752 26.5945 1.16752 26.8623 1.16752C25.6982 1.27019 24.5397 1.43679 23.3587 1.3593C23.4037 1.35349 23.446 1.34961 23.4911 1.3438C23.6631 1.31862 23.8378 1.32443 24.0126 1.30118C24.472 1.23726 24.9512 1.25663 25.4219 1.23144C25.5882 1.2237 25.7517 1.18689 25.918 1.16364C25.9152 1.14815 25.9096 1.13458 25.9068 1.11909C25.5572 1.13458 25.2077 1.15589 24.8582 1.16364C24.2183 1.1772 23.5785 1.18495 22.9387 1.18495C22.6201 1.18495 22.2988 1.1404 21.9831 1.15589C21.7238 1.16945 21.4729 1.24888 21.2164 1.2915C21.0755 1.31475 20.9261 1.33993 20.7823 1.33218C20.3257 1.31281 19.8719 1.27794 19.4153 1.25082C19.4125 1.26825 19.4068 1.28569 19.404 1.30312C19.4886 1.31475 19.5703 1.32443 19.6549 1.33605C19.6577 1.34961 19.6577 1.36317 19.6605 1.37673C19.3082 1.40773 18.9558 1.44066 18.6035 1.47166C18.6007 1.46391 18.5978 1.45422 18.595 1.44647C18.6965 1.42323 18.798 1.39804 18.8994 1.3748C18.4879 1.43098 18.113 1.24307 17.6987 1.29537C17.273 1.34961 16.8333 1.35543 16.3993 1.38061C16.3936 1.39998 16.3852 1.41742 16.3795 1.43679C16.4669 1.47747 16.5543 1.51815 16.6924 1.58401C16.5176 1.58983 16.3795 1.59564 16.2386 1.60145C16.2358 1.58983 16.2329 1.5782 16.2301 1.56658C16.2611 1.55302 16.2921 1.53752 16.326 1.52396C16.3147 1.51621 16.3062 1.50265 16.295 1.50071C16.1371 1.47553 15.9764 1.45422 15.8186 1.43098C15.7791 1.42516 15.7228 1.40773 15.7058 1.41935C15.4606 1.57627 15.2267 1.39417 14.9814 1.40967C14.7334 1.42516 14.4797 1.38642 14.2288 1.37286C14.226 1.35155 14.2204 1.33024 14.2176 1.31087C14.4262 1.27794 14.6347 1.21982 14.8461 1.21401C15.6128 1.1927 16.3823 1.1927 17.149 1.17527C17.5042 1.16752 17.8565 1.13071 18.2117 1.11715C18.3188 1.11328 18.4259 1.14621 18.5358 1.14621C18.8769 1.14621 19.218 1.1404 19.559 1.13459C19.5759 1.13459 19.5929 1.11521 19.6069 1.08809C19.3504 1.13459 19.1249 1.00286 18.8459 1.06872C18.626 1.11909 18.3611 1.04547 18.113 1.04354C17.7579 1.03773 17.3999 1.05129 17.0447 1.04741C16.9179 1.04548 16.7882 0.995108 16.6642 0.998982C16.4641 1.00479 16.2668 1.04354 16.0695 1.06097C15.4042 1.11521 14.739 1.19076 14.071 1.2082C13.4509 1.22563 12.8139 1.23145 12.2106 1.14233C11.7568 1.07453 11.3848 1.15396 10.9902 1.25275C10.931 1.26825 10.8915 1.32831 10.8267 1.38061C10.5138 1.3593 10.1586 1.33412 9.82039 1.31087C10.0769 1.06291 10.4884 1.24307 10.8069 1.11328C10.4123 1.11328 10.0177 1.11328 9.56107 1.11328C9.67945 1.14427 9.74992 1.16364 9.8824 1.19851C9.74992 1.22951 9.67381 1.2605 9.59771 1.26244C9.05651 1.27794 8.51814 1.27987 7.97695 1.30312C7.07496 1.33993 6.17297 1.38642 5.27099 1.43485C4.55222 1.47553 3.83344 1.52977 3.11186 1.57045C2.99347 1.57626 2.87226 1.5414 2.75106 1.52396C2.75106 1.50846 2.75388 1.49103 2.75388 1.47553C3.29789 1.39029 3.83627 1.28762 4.38592 1.22757C4.96657 1.16364 5.55567 1.1404 6.14197 1.09971C6.13915 1.08034 6.13915 1.06097 6.13633 1.04354C5.7248 1.06872 5.31609 1.08809 4.90456 1.11909C4.49867 1.15008 4.08994 1.18495 3.68405 1.22563C3.26688 1.26825 2.85253 1.31862 2.43536 1.36705C2.02101 1.41354 1.60667 1.46003 1.16131 1.51234C1.15567 1.44454 1.16131 1.38642 1.14158 1.33412C1.12185 1.28181 1.0852 1.2082 1.03165 1.19464C0.972451 1.17914 0.837151 1.20626 0.820244 1.23919C0.662392 1.52396 0.29596 1.67312 -7.03212e-06 1.92302C0.140931 1.94046 0.231141 1.94433 0.315697 1.9637C0.408715 1.98501 0.49891 2.02182 0.586289 2.05475C0.628571 2.07025 0.665207 2.0935 0.704674 2.11481C0.718766 2.07994 0.721589 2.04119 0.746964 2.01407C0.811791 1.94239 0.87098 1.86297 0.961175 1.81454C1.00346 1.79129 1.11057 1.83391 1.20359 1.84747C1.02601 1.96952 0.887894 2.06638 0.699036 2.19617C0.868165 2.22135 0.961182 2.22716 1.04575 2.24847C1.14439 2.27559 1.23741 2.31627 1.33324 2.34921C1.37553 2.3647 1.42063 2.38795 1.46009 2.38601C1.48264 2.38407 1.51929 2.33177 1.51365 2.30659C1.47701 2.12062 1.66868 2.12255 1.85471 2.03925C1.80397 2.12836 1.77578 2.16711 1.76169 2.20973C1.68559 2.44607 1.69686 2.45575 2.02947 2.46544C2.10839 2.46737 2.18449 2.48093 2.26342 2.49062C2.33389 2.49837 2.40154 2.50806 2.47201 2.5158C2.41 2.73471 2.41845 2.73858 2.72569 2.75408C2.88918 2.76183 3.04984 2.78701 3.21051 2.83544C3.12595 2.83544 3.03575 2.84513 2.954 2.8335C2.68059 2.7967 2.46355 2.76764 2.2296 2.97686C2.08302 3.10859 1.70532 3.10084 1.42627 3.14733C1.34453 3.16089 1.25433 3.14927 1.10494 3.14927C1.29942 3.28681 1.45727 3.4011 1.58693 3.49215C1.52492 3.71105 1.48546 3.89509 1.41217 4.07137C1.37835 4.15273 1.27406 4.21666 1.20077 4.28834C1.15849 4.32902 1.0852 4.36776 1.07674 4.41038C1.02601 4.74358 1.06265 5.07096 1.21204 5.38866C1.22051 5.40803 1.25714 5.42159 1.30506 5.45259C1.20077 5.51845 1.10494 5.58044 1.00628 5.64437C1.15285 5.80516 0.972451 5.91558 0.828698 6.03181C1.19795 6.18679 1.4319 6.37857 1.35016 6.71564C1.33607 6.76794 1.48546 6.84156 1.55029 6.8958C1.38962 6.96166 1.23459 7.02365 1.03165 7.10695C1.15849 7.1457 1.2205 7.16507 1.2966 7.18832C1.22895 7.23093 1.16412 7.26968 1.07674 7.32392C1.18385 7.37429 1.27124 7.4169 1.3868 7.47308C1.31634 7.53314 1.25151 7.58738 1.19514 7.63581C1.24587 7.72104 1.38399 7.85471 1.34453 7.89927C1.24869 8.00387 1.06829 8.0678 0.896355 8.16079C0.944268 8.36225 1.28815 8.3332 1.49392 8.46299C1.3699 8.52111 1.25433 8.57341 1.14158 8.62571C1.16695 8.62959 1.19231 8.63346 1.21768 8.63734C1.23741 8.70901 1.29942 8.79231 1.26842 8.84849C1.17822 9.00928 1.05702 9.16232 0.932999 9.31148C0.870987 9.38703 0.854065 9.42771 0.947083 9.50714C1.09084 9.62918 1.24587 9.77059 1.05138 9.95075C1.01192 9.98756 0.98655 10.0612 1.00909 10.1019C1.15003 10.3576 0.865341 10.5416 0.828697 10.7721C0.868157 10.807 0.918892 10.8496 0.986542 10.9077C0.876618 10.9194 0.800514 10.9271 0.786415 10.9271C0.842789 11.0027 0.921723 11.0879 0.96682 11.1809C1.03165 11.3107 1.01192 11.4637 1.22896 11.5412C1.27969 11.5586 1.30506 11.6574 1.2966 11.7175C1.28251 11.8511 1.33044 11.9441 1.51365 11.9848C1.56438 11.9964 1.6123 12.0197 1.66304 12.039C1.65176 12.0584 1.63767 12.0797 1.6264 12.0991C1.48264 12.1378 1.33889 12.1785 1.19514 12.2173C1.19514 12.2289 1.19231 12.2386 1.19231 12.2502C1.32761 12.256 1.46854 12.2502 1.59821 12.2715C1.68559 12.2851 1.78143 12.3277 1.8378 12.3781C1.91673 12.4517 1.96182 12.5447 2.02383 12.628C2.15631 12.8042 2.12249 12.8701 1.86317 12.9476C1.80116 12.967 1.74196 12.9902 1.68276 13.0135C1.6884 13.029 1.69122 13.0425 1.69686 13.058C1.88572 13.058 2.07175 13.058 2.26906 13.058C2.35645 13.1917 2.46355 13.3331 2.53966 13.4842C2.59321 13.5946 2.56221 13.6973 2.47201 13.8174C2.30006 14.046 2.43254 14.1758 2.82716 14.2048C2.75105 14.2513 2.68341 14.292 2.61858 14.3307C2.62704 14.3443 2.63549 14.3579 2.64394 14.3695C2.77361 14.3424 2.90327 14.3153 3.0583 14.2823C3.12313 14.3617 3.14568 14.507 3.36835 14.5109C3.39655 14.5109 3.41909 14.5903 3.45291 14.6291C3.49238 14.6736 3.52902 14.7376 3.5854 14.755C3.78552 14.8112 3.82498 14.9332 3.85036 15.0649L3.84472 15.0611C4.04203 14.9739 4.04203 14.9739 4.43383 15.0804C4.28444 15.2257 4.26189 15.2296 4.09558 15.1269C4.10967 15.1676 4.1125 15.216 4.1435 15.2529C4.16605 15.2819 4.25343 15.3207 4.25907 15.3168C4.46484 15.1599 4.68752 15.2858 4.90456 15.2877C5.02013 15.2897 5.13569 15.2703 5.25407 15.2625C5.27663 15.2819 5.29917 15.3013 5.32172 15.3226C5.18642 15.3788 5.05112 15.433 4.91865 15.4892C4.94683 15.5182 4.97502 15.5473 5.0032 15.5783C5.29353 15.5221 5.58104 15.4504 5.87701 15.4136C6.13069 15.3807 6.39565 15.3826 6.65498 15.3788C7.00731 15.373 7.36247 15.3826 7.71481 15.3768C8.03614 15.371 8.35748 15.3555 8.6788 15.3362C8.90712 15.3226 9.13544 15.2858 9.36375 15.2838C9.55542 15.2819 9.74709 15.3187 9.93877 15.3381L9.93031 15.3323C10.1812 15.311 10.4349 15.2877 10.6857 15.2664C10.7252 15.2625 10.7872 15.2587 10.8013 15.2742C11.0127 15.4911 11.3284 15.3749 11.6413 15.4175C11.537 15.5066 11.4496 15.5822 11.3622 15.6558C11.3679 15.6674 11.3735 15.681 11.3791 15.6926C11.6666 15.6345 11.9513 15.5609 12.2445 15.5241C12.4841 15.495 12.7349 15.5066 12.9802 15.5047C13.4819 15.5028 13.9836 15.5124 14.4825 15.4989C15.0942 15.4814 15.703 15.4466 16.3147 15.4195C16.3852 15.4156 16.4556 15.4253 16.5543 15.4291C16.5035 15.4737 16.4725 15.5008 16.3964 15.5686C16.7629 15.5473 17.0757 15.648 17.3886 15.4911C17.5014 15.435 17.6705 15.4466 17.8171 15.402C18.0961 15.3187 18.4203 15.3187 18.7275 15.2858C18.736 15.3013 18.7472 15.3168 18.7557 15.3303C18.6655 15.404 18.5781 15.4776 18.4879 15.5531C18.4964 15.5667 18.5076 15.5802 18.5161 15.5938C18.8149 15.5299 19.1108 15.4485 19.4181 15.4078C19.6351 15.3788 19.8634 15.402 20.0861 15.4001C20.6019 15.3981 21.1206 15.4098 21.6364 15.3923C22.0479 15.3788 22.4567 15.3148 22.8682 15.3052C23.105 15.2993 23.3446 15.3613 23.5841 15.3788C23.8773 15.4001 24.162 15.4485 24.4608 15.3265C24.6299 15.2587 24.8751 15.2916 25.0865 15.2838C25.188 15.28 25.2895 15.2916 25.4135 15.2955C25.3853 15.2529 25.3712 15.2257 25.3515 15.1986C25.4783 15.1986 25.5967 15.1986 25.7489 15.1986C25.6813 15.2722 25.6305 15.3303 25.5347 15.433C25.8814 15.3613 26.1633 15.2819 26.4564 15.247C26.696 15.218 26.9497 15.2219 27.1949 15.2354C27.925 15.2761 28.6522 15.3323 29.3822 15.2335C29.5288 15.2141 29.6838 15.2354 29.836 15.2412C30.0249 15.247 30.2166 15.2529 30.4054 15.2625C30.5125 15.2684 30.6732 15.1986 30.676 15.3652C30.676 15.3768 30.7296 15.3962 30.7578 15.3962C31.0114 15.3962 31.282 15.433 31.5104 15.3788C31.8965 15.2839 32.2714 15.3497 32.6491 15.3536C32.7816 15.3555 32.9169 15.3613 33.0494 15.3671C33.5821 15.3846 34.1148 15.404 34.6476 15.4195C34.8336 15.4253 35.0225 15.4195 35.1549 15.4195C34.983 15.5183 34.7801 15.6364 34.532 15.7798C35.0704 15.8669 35.5101 15.772 35.9949 15.679C35.7131 15.6132 35.4847 15.5589 35.2395 15.5008C35.4819 15.3575 35.7525 15.3594 36.0203 15.3613C36.0513 15.3613 36.0992 15.3652 36.1077 15.3807C36.2711 15.6229 36.5643 15.5376 36.8236 15.5415C36.8462 15.5415 36.8715 15.5454 36.9392 15.5531C36.8293 15.6442 36.7334 15.7236 36.6404 15.8011C36.646 15.8127 36.6517 15.8263 36.6573 15.8379C36.9533 15.7817 37.2436 15.712 37.5452 15.6732C37.7848 15.6422 38.0328 15.6461 38.2781 15.6442C38.7629 15.6403 39.2449 15.6577 39.7297 15.6403C40.1976 15.6248 40.6627 15.5647 41.1334 15.5473C41.6352 15.5279 42.1369 15.5337 42.6386 15.5299C42.9374 15.5279 43.2362 15.5299 43.5772 15.5299C43.5772 15.4446 43.5772 15.3575 43.5772 15.2529C44.3608 15.2315 45.1698 15.218 45.9788 15.187C46.5031 15.1676 47.0245 15.1095 47.546 15.094C47.9265 15.0824 48.3099 15.1114 48.6932 15.125C48.8764 15.1308 49.0596 15.1463 49.2429 15.156C50.049 15.1986 50.8552 15.2432 51.6641 15.2819C52.0898 15.3013 52.5154 15.3129 52.9438 15.3245C53.6147 15.342 54.2855 15.3517 54.9564 15.3749C55.7484 15.402 56.5433 15.4427 57.3354 15.4718C58.0767 15.4989 58.818 15.4989 59.5565 15.5454C60.264 15.5899 60.9546 15.5124 61.6536 15.4814C61.9778 15.4679 62.3019 15.4795 62.6261 15.4737C63.249 15.464 63.872 15.4601 64.4949 15.433C65.0023 15.4117 65.5068 15.3575 66.0142 15.3284C66.5046 15.2993 66.9951 15.2916 67.4827 15.2587C68.0014 15.2238 68.52 15.1657 69.0387 15.1289C69.2557 15.1134 69.4784 15.1366 69.6954 15.1328C70.1774 15.1269 70.6622 15.1269 71.1414 15.1018C71.629 15.0746 72.1167 15.0185 72.6015 14.9778C73.0807 14.9371 73.5627 14.8829 74.0419 14.8654C74.6394 14.8422 75.2398 14.8538 75.8402 14.846C76.0516 14.8422 76.2602 14.8209 76.4716 14.8112C76.9395 14.7899 77.4102 14.7724 77.8781 14.7511C78.1459 14.7376 78.4137 14.7143 78.6843 14.7008C78.8252 14.6949 78.969 14.7066 79.1099 14.7046C79.5412 14.6988 79.9752 14.6891 80.4065 14.6833C80.601 14.6814 80.7983 14.6794 80.9928 14.6872C81.2634 14.6988 81.5143 14.7182 81.7933 14.6291C82.0273 14.5555 82.3345 14.6175 82.6107 14.6136C82.7319 14.6116 82.8503 14.5903 82.9715 14.5787C82.9715 14.5632 82.9715 14.5477 82.9715 14.5322C82.6615 14.507 82.3514 14.4799 82.0414 14.4547C82.0442 14.4412 82.047 14.4276 82.047 14.416C82.4191 14.416 82.7883 14.416 83.2055 14.416C83.1547 14.3714 83.1322 14.3521 83.0984 14.3211C83.6621 14.1855 84.2315 14.3211 84.8122 14.2843C84.7783 14.2416 84.7558 14.2106 84.7191 14.1661C85.1842 14.1661 85.6352 14.1661 86.089 14.1661C86.089 14.1583 86.089 14.1487 86.089 14.1409C85.9396 14.1157 85.7874 14.0886 85.638 14.0634C85.6409 14.0402 85.6437 14.0189 85.6465 13.9956C86.3314 13.9762 87.0164 13.9569 87.7041 13.9394C87.707 13.9317 87.7098 13.9259 87.7126 13.9181C87.3687 13.8697 87.022 13.8213 86.6781 13.7728C86.681 13.7477 86.6838 13.7244 86.6894 13.6992C86.7683 13.6954 86.8614 13.6702 86.9234 13.6934C87.1348 13.7709 87.3349 13.7496 87.5604 13.7283C87.9522 13.6915 88.3496 13.6954 88.764 13.6818C88.7217 13.4939 88.826 13.4784 89.0543 13.4958C89.6378 13.5384 90.2269 13.5443 90.8132 13.5636C90.816 13.5443 90.8216 13.5249 90.8245 13.5055C90.7653 13.4958 90.7089 13.4823 90.6497 13.4765C90.582 13.4706 90.5116 13.4706 90.396 13.4668C90.489 13.4145 90.5482 13.3835 90.6074 13.3505C90.5482 13.3312 90.4778 13.3099 90.3481 13.2672C90.4552 13.2537 90.5144 13.2459 90.5708 13.2382L90.5651 13.2421C90.396 13.2285 90.2269 13.2072 90.0578 13.2033C89.7111 13.1936 89.3644 13.1917 89.0177 13.1897C88.6794 13.1897 88.3412 13.1994 88.0029 13.1956C87.8676 13.1936 87.7323 13.1646 87.597 13.1471C87.5999 13.1316 87.6027 13.1142 87.6027 13.0987C88.0875 13.0871 88.5751 13.0813 89.0599 13.058C89.5279 13.0367 90.0211 13.2207 90.5313 12.9495C90.3847 12.9205 90.2945 12.8875 90.2015 12.8856C89.5081 12.8682 88.8147 12.8469 88.1213 12.8507C87.6703 12.8527 87.2221 12.8934 86.7712 12.9166C86.7401 12.9185 86.7091 12.9127 86.6753 12.8817C86.8585 12.8701 87.0446 12.8604 87.2278 12.8488C87.2306 12.8391 87.2334 12.8275 87.2362 12.8178C87.1263 12.8042 87.0136 12.7752 86.9036 12.7791C86.5147 12.7907 86.1088 12.874 85.7423 12.8139C85.3111 12.7423 84.9221 12.905 84.5134 12.8469C84.4457 12.8372 84.3865 12.8023 84.2907 12.7674C84.5416 12.75 84.7332 12.7384 84.9277 12.7248C84.9249 12.7074 84.9249 12.6899 84.9221 12.6725C84.674 12.6725 84.426 12.6725 84.1779 12.6725C84.1779 12.6628 84.1779 12.6531 84.1779 12.6435C84.6458 12.626 85.1138 12.6067 85.5817 12.5892C85.5817 12.5757 85.5817 12.5602 85.5817 12.5466C84.6064 12.5466 83.6339 12.5466 82.6587 12.5466C82.6558 12.5408 82.6558 12.535 82.653 12.5292C82.9067 12.4924 83.1604 12.4439 83.4169 12.4226C84.0483 12.3684 84.6769 12.3122 85.3111 12.2851C85.9284 12.258 86.5457 12.2735 87.163 12.2599C87.4956 12.2521 87.8282 12.2231 88.1608 12.2018C88.3412 12.1902 88.5188 12.1727 88.6992 12.1301C88.3158 12.1301 87.9325 12.1301 87.5491 12.1301C87.5463 12.1243 87.5463 12.1185 87.5463 12.1146C87.6196 12.101 87.6929 12.0855 87.7662 12.072C87.5266 12.0081 87.2447 12.1592 86.991 11.9422C87.8676 11.8531 88.7076 11.7678 89.5504 11.6845C89.556 11.6962 89.5589 11.7059 89.5645 11.7175C89.525 11.7039 89.4856 11.6923 89.4377 11.6768C89.4658 11.6594 89.4771 11.6458 89.4884 11.6458C89.5589 11.6439 89.6293 11.6439 89.7026 11.6439C89.7477 11.7756 90.1959 11.7814 90.878 11.6419C90.6976 11.6536 90.5172 11.6632 90.3368 11.6749C90.3368 11.6632 90.334 11.6516 90.334 11.6381C91.484 11.5393 92.6313 11.4385 93.7813 11.3397C93.7813 11.3223 93.7785 11.3029 93.7785 11.2855C93.7334 11.2816 93.6854 11.2777 93.6403 11.2777C93.4092 11.2777 93.1273 11.2177 92.9582 11.2952C92.7694 11.3823 92.5833 11.3533 92.4058 11.3843C92.0957 11.4405 91.7687 11.4385 91.4474 11.4579C91.1289 11.4773 90.8104 11.4986 90.4919 11.5025C89.9732 11.5083 89.4546 11.4966 88.9359 11.5005C88.499 11.5025 88.0649 11.5141 87.628 11.5218C87.5632 11.5238 87.5012 11.5276 87.4251 11.5315C87.6478 11.425 87.6478 11.4366 87.924 11.454C88.0396 11.4618 88.158 11.4017 88.2792 11.394C88.5103 11.3765 88.7414 11.3765 88.9726 11.361C89.0656 11.3552 89.1642 11.3707 89.2347 11.27C89.2742 11.2119 89.4574 11.208 89.5758 11.1809C89.5814 11.1964 89.5899 11.2138 89.5955 11.2293C89.5081 11.2584 89.4207 11.2855 89.3334 11.3145C89.3362 11.3262 89.3362 11.3359 89.339 11.3475C89.5617 11.3475 89.7815 11.3513 90.0042 11.3475C90.3312 11.3417 90.6582 11.3339 90.9851 11.3223C91.1824 11.3165 91.4079 11.3417 91.5742 11.2816C91.966 11.1441 92.355 11.2642 92.7412 11.239C93.1837 11.2119 93.6291 11.1925 94.0744 11.1751C94.3281 11.1654 94.579 11.1634 94.8327 11.1576C94.9877 11.1538 95.1427 11.1576 95.2949 11.146C95.419 11.1363 95.5402 11.1479 95.6585 11.055C95.7431 10.9872 95.9601 11.0123 96.1208 10.9968C96.335 10.9775 96.5493 10.96 96.7607 10.9058C94.672 11.1131 92.5721 11.0976 90.4749 11.1034C90.4721 11.086 90.4721 11.0666 90.4693 11.0491C90.8047 11.024 91.143 10.9988 91.4784 10.9736C91.484 10.9639 91.4897 10.9542 91.4953 10.9426C91.3177 10.8864 91.143 10.8322 90.9654 10.776C90.9682 10.7624 90.9682 10.7508 90.971 10.7373C91.3121 10.7373 91.6532 10.7373 92.0478 10.7373C91.8927 10.6753 91.7828 10.6307 91.6701 10.5862C91.2219 10.6791 90.785 10.7063 90.3904 10.4932C90.3932 10.4719 90.3988 10.4506 90.4017 10.4292C90.8245 10.4815 91.2444 10.5358 91.6673 10.5881C91.7039 10.5881 91.7434 10.5881 91.8392 10.5881C91.7575 10.5416 91.718 10.5184 91.6785 10.497C91.6842 10.4835 91.6898 10.468 91.6954 10.4544C91.8871 10.4893 92.0788 10.5261 92.2705 10.561C92.2733 10.5397 92.2789 10.5164 92.2817 10.4951C91.9322 10.4641 91.5799 10.4351 91.2134 10.4021C91.2811 10.3828 91.3431 10.3673 91.4051 10.3498C91.3797 10.3246 91.36 10.3053 91.3628 10.3072C91.7067 10.2665 92.0478 10.2239 92.3888 10.1832C92.3917 10.1929 92.3945 10.2026 92.3973 10.2142C92.3268 10.2297 92.2564 10.2471 92.1887 10.2626C92.8596 10.313 93.522 10.3537 94.2238 10.2278C93.956 10.1813 93.7503 10.1445 93.5417 10.1077C93.5502 10.0825 93.5586 10.0573 93.5642 10.0321C93.8179 10.0186 94.066 10.0244 94.2774 10.158C94.3986 10.2336 94.4521 10.2317 94.6297 10.1542C94.6664 10.1367 94.734 10.1561 94.7876 10.158C94.8637 10.1619 94.9398 10.1677 95.0159 10.1716C95.0187 10.1503 95.0243 10.129 95.0272 10.1057C94.6297 10.0534 94.2295 10.0031 93.832 9.95076C93.832 9.93914 93.8348 9.92751 93.8348 9.91589C94.0491 9.92945 94.2661 9.96819 94.4747 9.94882C94.6917 9.92945 94.9003 9.85584 95.1033 9.76672C94.4747 9.74735 93.8546 9.90233 93.2345 9.74154C93.8038 9.69505 94.376 9.64662 94.9172 9.60206C95.1004 9.56913 95.2611 9.54201 95.4218 9.51295C95.4218 9.5052 95.4218 9.49745 95.4218 9.48971C94.8186 9.51295 94.2182 9.5362 93.615 9.55751C93.6122 9.52845 93.6093 9.49939 93.6065 9.4684C95.1286 9.37929 96.6535 9.28824 98.1813 9.19719C97.9361 9.11002 97.6908 9.09258 97.409 9.12939C97.1863 9.15845 96.9439 9.11776 96.6733 9.10614C96.7466 9.07902 96.7888 9.06352 96.848 9.04221C96.7776 9.01703 96.7184 8.99766 96.6395 8.97054C96.9523 8.94148 97.2427 8.91436 97.5358 8.88918C97.5358 8.87949 97.5358 8.8698 97.533 8.86012C97.3441 8.86012 97.1553 8.86012 96.9664 8.86012C96.9664 8.84075 96.9664 8.82137 96.9664 8.80394C97.3864 8.80394 97.8092 8.80588 98.2292 8.80394C98.4632 8.802 98.6999 8.7865 98.9339 8.79038C99.0805 8.79232 99.2299 8.83687 99.3764 8.833C99.6949 8.82331 100.011 8.79232 100.329 8.77101L100.324 8.77488C100.199 8.75745 100.078 8.74195 99.9543 8.72451C99.912 8.7187 99.8669 8.71289 99.8302 8.6664C100.219 8.64703 100.608 8.62572 100.997 8.60635C100.997 8.58697 101 8.5676 101 8.54823C99.912 8.432 98.8127 8.42231 97.7077 8.43006C97.7895 8.44168 97.8712 8.45524 97.9558 8.46687C97.9586 8.47655 97.9586 8.48624 97.9614 8.49399C97.8994 8.49786 97.8402 8.50174 97.7782 8.50367C97.3639 8.5153 96.9495 8.52305 96.5352 8.54048C96.3745 8.54823 96.2167 8.58504 96.056 8.59085C95.8869 8.5986 95.8446 8.52305 95.9094 8.37582C95.698 8.4165 95.512 8.45137 95.3682 8.47849C95.4894 8.49786 95.6473 8.52111 95.8051 8.54629C95.8023 8.56566 95.7995 8.58504 95.7967 8.60441C94.999 8.62959 94.2013 8.65478 93.4064 8.67996C93.4036 8.66834 93.4036 8.65671 93.4008 8.64509C93.7982 8.61603 94.1956 8.58504 94.5931 8.55598C94.5931 8.53661 94.5931 8.51723 94.5931 8.49786C93.9673 8.4843 93.3416 8.47074 92.7186 8.45718C92.7215 8.44943 92.7215 8.43975 92.7243 8.432C93.1414 8.39325 93.5586 8.34289 93.9758 8.3177C94.19 8.30414 94.4099 8.34289 94.6241 8.3332C95.0131 8.31383 95.402 8.26346 95.7938 8.2499C96.1941 8.23634 96.5972 8.25184 97.0003 8.25571C97.1384 8.25571 97.2765 8.25571 97.4907 8.25571C97.3892 8.20535 97.3526 8.18791 97.3131 8.16854C97.3131 8.15498 97.3131 8.14142 97.3131 8.12786C97.8402 8.12786 98.3645 8.12786 98.8916 8.12786C98.8916 8.10268 98.8916 8.07749 98.8944 8.05425C98.2208 8.01356 97.5471 7.97288 96.8255 7.92833C97.0172 7.89152 97.1553 7.85084 97.299 7.83922C97.4682 7.82566 97.6288 7.83534 97.8092 7.87409C98.046 7.92445 98.3307 7.8644 98.5928 7.84115C98.7619 7.82759 98.9311 7.7811 99.1002 7.77723C99.399 7.77141 99.6978 7.7811 99.9965 7.79466C100.166 7.80241 100.332 7.82566 100.507 7.80628C100.459 7.79466 100.408 7.7811 100.36 7.76948C100.36 7.75785 100.36 7.74817 100.357 7.73655C100.535 7.71717 100.715 7.6978 100.893 7.67843C100.896 7.66293 100.896 7.64744 100.899 7.63194C100.394 7.59319 99.8922 7.54476 99.3877 7.52152C99.1397 7.50989 98.886 7.56414 98.6351 7.56607C98.1475 7.56801 97.6598 7.55251 97.1722 7.5467C97.1102 7.5467 97.0482 7.57576 96.989 7.57382C96.9129 7.57382 96.8396 7.55639 96.8029 7.55058C96.6028 7.57382 96.4168 7.62613 96.2505 7.60482C95.901 7.56026 95.5909 7.67843 95.2583 7.69586C95.1484 7.70168 95.0131 7.74042 94.9313 7.70749C94.5282 7.54476 94.0857 7.599 93.6601 7.56607C93.3275 7.54089 92.9864 7.55832 92.651 7.55057C92.4762 7.5467 92.3043 7.52733 92.1295 7.51571C92.0224 7.52927 91.9181 7.55251 91.811 7.55445C91.5996 7.55832 91.3882 7.5467 91.1796 7.55057C90.551 7.56026 89.9253 7.5777 89.2967 7.57963C89.0543 7.57963 88.8034 7.56995 88.5836 7.40916C88.7781 7.41691 88.9416 7.42078 89.1361 7.42853C89.0825 7.37623 89.0599 7.35104 88.9895 7.27937C89.4348 7.34717 89.8097 7.40335 90.2156 7.46534C90.21 7.46921 90.2494 7.42466 90.2945 7.42272C90.4834 7.40916 90.6751 7.39366 90.8639 7.40722C91.2952 7.42466 91.718 7.47115 92.1436 7.50989ZM53.6739 2.26978C53.7246 2.31821 53.7725 2.36858 53.8402 2.43444C53.6062 2.4112 53.4005 2.38989 53.1665 2.36664C53.3638 2.32984 53.5188 2.30078 53.6739 2.26978C53.7021 2.26591 53.7274 2.2601 53.8063 2.2446C53.6288 2.21554 53.5019 2.19423 53.3751 2.17292C53.5132 2.14774 53.657 2.16517 53.7753 2.1303C53.9839 2.06638 54.1023 2.17292 54.2517 2.23104C54.3081 2.25429 54.3701 2.27366 54.4265 2.29497C54.3814 2.24654 54.3391 2.19811 54.2912 2.14774C54.3081 2.13612 54.3278 2.12643 54.3447 2.11481C54.5448 1.98889 54.6801 2.0102 54.8465 2.16517C54.9056 2.22135 55.0128 2.25041 55.0917 2.29109C54.8803 2.29109 54.652 2.29109 54.4208 2.29109C54.3814 2.40539 54.201 2.46544 54.0995 2.37052C53.967 2.24654 53.812 2.29884 53.6739 2.26978ZM87.2419 6.19066C87.0699 6.36114 86.8783 6.21779 86.6866 6.19841C86.7035 6.23522 86.712 6.25847 86.7232 6.28171C86.6866 6.27977 86.6471 6.28171 86.6161 6.27203C86.5372 6.24684 86.4611 6.19454 86.3822 6.19454C86.0778 6.19066 85.7733 6.20422 85.4689 6.20616C85.4266 6.20616 85.3843 6.18485 85.3421 6.17323C85.5958 6.13642 85.8579 6.16742 86.0778 6.11124C86.3963 6.02988 86.6838 6.13255 86.9882 6.1248C87.0812 6.12286 87.177 6.16354 87.2701 6.18485C87.5125 6.19454 87.7549 6.20422 87.9973 6.21197C87.9973 6.22747 87.9945 6.24297 87.9945 6.25847C87.7803 6.25847 87.5688 6.26234 87.3546 6.25459C87.318 6.25265 87.2785 6.21197 87.2419 6.19066ZM35.527 1.4581C35.4368 1.47359 35.3438 1.48522 35.2592 1.5104C35.2198 1.52203 35.1972 1.56271 35.1352 1.61501C34.9013 1.59564 34.6138 1.57046 34.3234 1.54721C34.3262 1.53559 34.3262 1.52203 34.3291 1.5104C34.5264 1.5104 34.7237 1.5104 34.983 1.5104C34.8872 1.48522 34.8505 1.47553 34.7998 1.46003C35.0563 1.34768 35.2902 1.42517 35.527 1.4581C35.6623 1.41935 35.7948 1.37867 35.9611 1.32831C35.2057 1.32831 34.4954 1.32831 33.7851 1.32831C33.7851 1.31087 33.7851 1.29344 33.7851 1.27406C34.6983 1.27406 35.6116 1.27406 36.5248 1.27406C36.5248 1.28569 36.5277 1.29731 36.5277 1.30893C36.3557 1.31862 36.181 1.33024 36.009 1.33993C36.009 1.35349 36.009 1.36705 36.009 1.38255C36.102 1.39417 36.1951 1.40579 36.2909 1.41742C36.2881 1.43098 36.2881 1.44454 36.2852 1.4581C36.0316 1.4581 35.7779 1.4581 35.527 1.4581ZM25.4163 1.47166C25.4107 1.45229 25.4079 1.43291 25.4022 1.41354C25.4755 1.39998 25.5488 1.37674 25.6249 1.37092C26.0956 1.33218 26.5692 1.29344 27.0399 1.26244C27.2767 1.24694 27.5134 1.24113 27.7502 1.24694C28.2153 1.25857 28.6804 1.28375 29.1426 1.30118C29.2864 1.307 29.4273 1.30118 29.5711 1.30118C29.3202 1.33024 29.0722 1.34768 28.8241 1.37286C28.6606 1.38836 28.4521 1.37674 28.3449 1.44647C28.2153 1.53171 28.1082 1.50846 27.9813 1.50846C27.8799 1.50846 27.7784 1.50459 27.6741 1.50459C27.3781 1.50459 27.0822 1.51428 26.789 1.50459C26.727 1.50265 26.6706 1.43679 26.5973 1.38836C26.2506 1.58014 25.825 1.42904 25.4163 1.47166ZM76.1249 2.57199C76.1136 2.57973 76.1615 2.52356 76.1925 2.52937C76.4039 2.56036 76.652 2.56617 76.8127 2.65528C77.0692 2.7967 77.3003 2.82963 77.5342 2.73277C77.6385 2.78701 77.7203 2.82963 77.8246 2.88387C77.8499 2.81413 77.864 2.77152 77.8697 2.75989C78.4616 2.75989 79.0338 2.75989 79.6257 2.75989C79.8287 2.88581 80.1134 2.88387 80.3896 2.89743C80.4657 2.90131 80.5418 2.89743 80.6179 2.89743C80.6179 2.91293 80.6179 2.92649 80.6179 2.94199C80.5164 2.95168 80.4178 2.97299 80.3163 2.96911C79.9273 2.95555 79.5412 2.93037 79.155 2.92068C78.704 2.90906 78.253 2.92068 77.8048 2.90325C77.3538 2.88387 76.9057 2.84126 76.4547 2.80445C76.4124 2.80058 76.3617 2.78701 76.3335 2.7657C76.2715 2.71534 76.2179 2.65916 76.1249 2.57199ZM21.9775 1.58983C20.881 1.58983 19.8071 1.58983 18.7331 1.58983C18.7331 1.56271 18.7303 1.53558 18.7303 1.50846C19.2321 1.48715 19.731 1.45616 20.2327 1.44647C20.5879 1.43872 20.943 1.47747 21.2953 1.46003C21.5378 1.45035 21.7661 1.42129 21.9775 1.58983ZM5.44856 1.55883C5.44575 1.5414 5.44293 1.52202 5.44293 1.50459C5.78681 1.47166 6.12787 1.42516 6.47457 1.4116C6.76208 1.39998 7.05524 1.43291 7.34556 1.43485C7.57388 1.43485 7.79936 1.41741 7.96285 1.40967C8.05305 1.48328 8.10661 1.5259 8.14889 1.55883C7.78809 1.66538 7.41039 1.49684 7.01577 1.62663C6.7649 1.70799 6.4182 1.62469 6.11378 1.61695C6.11378 1.59564 6.11096 1.57433 6.11096 1.55108C6.28572 1.53365 6.46048 1.51428 6.65215 1.4949C6.22371 1.39223 5.85164 1.64988 5.44856 1.55883ZM88.4342 7.33942C88.4229 7.35879 88.4116 7.37816 88.4004 7.39754C88.2933 7.35104 88.189 7.27937 88.0734 7.26581C87.9437 7.25031 87.8056 7.29099 87.6619 7.30649C87.6252 7.26968 87.5801 7.22125 87.5322 7.17282C87.5294 7.19026 87.5266 7.20963 87.5238 7.22706C87.3715 7.25225 87.2193 7.28712 87.0643 7.29874C86.9544 7.30843 86.7965 7.25031 86.7317 7.28905C86.5259 7.40916 86.3765 7.30068 86.2046 7.24837C86.3117 7.23869 86.4216 7.229 86.5823 7.21544C86.4949 7.18445 86.4611 7.17282 86.3624 7.13795C86.8811 7.13795 87.3264 7.13795 87.7746 7.13795C87.8451 7.13795 87.9212 7.13989 87.9888 7.12633C88.1664 7.09146 88.3102 7.11471 88.4201 7.24837C88.3806 7.26387 88.3412 7.27743 88.2933 7.29487C88.344 7.31036 88.3891 7.32392 88.4342 7.33942ZM26.3549 2.24847C26.4902 2.22329 26.6002 2.18842 26.7129 2.18454C27.0963 2.17486 27.4768 2.01407 27.8686 2.16517C27.8968 2.1768 27.9757 2.16905 27.9785 2.15936C28.0236 2.03538 28.1589 2.0935 28.2491 2.08962C28.4239 2.08187 28.6014 2.08381 28.7734 2.10124C28.8664 2.11093 28.9538 2.1613 29.044 2.19229C29.0327 2.21166 29.0214 2.2291 29.013 2.24847C28.1364 2.24847 27.2597 2.24847 26.3549 2.24847ZM8.18836 1.44454C8.86485 1.44454 9.55261 1.44454 10.2375 1.44454C10.2375 1.46972 10.2404 1.49684 10.2404 1.52202C10.1502 1.52977 10.0628 1.53946 9.97259 1.54333C9.85703 1.54914 9.74146 1.54721 9.62589 1.55302C9.49905 1.56077 9.37221 1.5782 9.24255 1.58401C9.0537 1.5937 8.86202 1.59951 8.67317 1.60145C8.47586 1.60339 8.28983 1.56852 8.18836 1.44454ZM49.0455 1.97339C49.0455 1.98502 49.0455 1.99858 49.0455 2.0102C48.9751 2.02957 48.8905 2.03732 48.8398 2.07219C48.7524 2.13418 48.7637 2.13999 48.696 2.07412C48.6735 2.05282 48.6143 2.02763 48.5946 2.03538C48.2478 2.17873 47.904 2.02763 47.5685 2.0102C47.36 1.99858 47.1316 1.94821 46.9061 1.93465C46.8216 1.92884 46.7398 1.91334 46.6553 1.90171C46.6581 1.89009 46.6609 1.87847 46.6637 1.86878C47.1204 1.86878 47.5742 1.86878 48.0336 1.86878C48.028 1.88816 48.0195 1.92884 48.0111 1.97145C48.3691 1.97339 48.7073 1.97339 49.0455 1.97339ZM22.4877 2.27559C22.4933 2.2969 22.4989 2.31627 22.5018 2.33758C21.8704 2.43057 21.2277 2.44219 20.5738 2.40539C20.7457 2.3434 20.9233 2.30078 21.1037 2.26784C21.1516 2.26009 21.2305 2.26784 21.2587 2.29109C21.3771 2.39376 21.4757 2.3647 21.5857 2.28915C21.6167 2.26784 21.6646 2.24653 21.7041 2.24847C21.9662 2.25428 22.2255 2.26591 22.4877 2.27559ZM7.00449 2.45963C7.00731 2.4635 7.00732 2.46737 7.01013 2.47319C6.26599 2.54293 5.52467 2.61073 4.78053 2.68047C4.83127 2.60879 4.90456 2.55649 4.98348 2.54874C5.33582 2.51193 5.69097 2.479 6.04613 2.4635C6.36182 2.44994 6.68316 2.45963 7.00449 2.45963ZM86.7176 6.83381C86.7204 6.81832 86.7232 6.80476 86.7261 6.78926C86.8585 6.77957 86.9995 6.74664 87.1263 6.76407C87.287 6.78538 87.4589 6.76601 87.6055 6.87449C87.6901 6.93648 87.8874 6.93842 88.0311 6.93067C88.2087 6.92292 88.2453 6.92099 88.344 7.07596C87.8423 7.01978 87.3659 6.96748 86.8924 6.91517C86.8924 6.90743 86.8924 6.90162 86.8952 6.89387C87.053 6.89387 87.2109 6.89387 87.3687 6.89387C87.3687 6.88612 87.3687 6.87643 87.3715 6.86868C87.1517 6.85706 86.9346 6.84544 86.7176 6.83381ZM5.83755 2.39957C5.83473 2.38407 5.82909 2.36858 5.82627 2.35308C6.26881 2.3124 6.70853 2.27172 7.16234 2.2291C7.13697 2.44607 7.37938 2.33371 7.51749 2.39957C6.93684 2.39957 6.3872 2.39957 5.83755 2.39957ZM37.1506 1.50072C37.1591 1.51428 37.1675 1.52977 37.1788 1.54333C37.0378 1.55689 36.8969 1.57046 36.7701 1.58208C36.8997 1.28763 37.2521 1.3593 37.517 1.3438C37.8074 1.32637 38.14 1.23145 38.4021 1.44066C38.326 1.45422 38.2443 1.46004 38.1766 1.44066C37.8694 1.3438 37.5593 1.41354 37.2492 1.42129C37.2126 1.42323 37.1816 1.47359 37.1506 1.50072ZM10.2235 1.68668C9.71891 1.76224 9.21154 1.88234 8.73799 1.69831C9.21154 1.70218 9.7161 1.58208 10.2235 1.68668ZM86.6922 6.84544C86.7007 6.859 86.7091 6.87256 86.7148 6.88805C86.6838 6.90743 86.6556 6.92486 86.6189 6.94811C86.664 6.95779 86.7063 6.96748 86.7148 6.96942C86.6894 7.00622 86.6612 7.04497 86.6274 7.0934C86.3455 7.03528 86.027 6.97135 85.6972 6.90355C86.0242 6.7447 86.3709 6.95004 86.6922 6.84544ZM31.2567 1.67894C31.2567 1.66344 31.2538 1.64601 31.2538 1.63051C31.3779 1.63051 31.5047 1.63438 31.6287 1.63051C31.8909 1.61888 32.1615 1.62082 32.4152 1.58208C32.5956 1.55496 32.6237 1.5414 32.6773 1.6925C32.2038 1.70606 31.7274 1.75643 31.2567 1.67894ZM42.4075 1.61888C42.1172 1.60145 41.8832 1.58789 41.6549 1.57433C41.6549 1.5414 41.6549 1.50847 41.6549 1.47747C41.8043 1.49297 41.9368 1.50459 42.1397 1.5259C42.0467 1.48328 42.0157 1.46778 41.9678 1.44647C42.3821 1.42904 42.7711 1.41354 43.1601 1.39611C43.1601 1.40773 43.1629 1.42129 43.1629 1.43291C42.8669 1.46972 42.571 1.50459 42.2468 1.54527C42.3032 1.57239 42.3314 1.58402 42.4075 1.61888ZM17.0335 1.54721C17.0306 1.52784 17.0278 1.50846 17.025 1.48715C17.4619 1.46391 17.9016 1.43873 18.3385 1.41548C18.3413 1.43485 18.3442 1.45228 18.347 1.47166C17.9242 1.60726 17.4704 1.5104 17.0335 1.54721ZM50.1026 1.81454C50.407 1.73899 50.6945 1.62663 51.0017 1.78548C50.9454 1.90365 50.7931 1.9114 50.655 1.89978C50.4746 1.88622 50.2971 1.84747 50.1026 1.81454ZM87.442 4.18567C87.38 4.32708 86.5851 4.32127 86.1708 4.18567C86.5992 4.18567 87.0107 4.18567 87.442 4.18567ZM49.0202 1.86878C49.3443 1.83391 49.6798 1.79323 50.0011 1.9114C49.6657 1.94627 49.3246 2.08381 49.0202 1.86878ZM88.8204 4.63316C88.5357 4.73777 88.3271 4.6196 88.1129 4.49949C88.22 4.49175 88.3243 4.51693 88.4286 4.52468C88.4737 4.52661 88.5188 4.48787 88.5695 4.47625C88.64 4.45881 88.7161 4.44719 88.7894 4.4375C88.8034 4.43557 88.8232 4.45688 88.8542 4.47431C88.8063 4.50724 88.764 4.5363 88.7189 4.56536C88.7612 4.59248 88.7922 4.61379 88.8204 4.63316ZM28.8382 1.7293C28.8269 1.70993 28.8185 1.68862 28.8072 1.66925C28.5366 1.62082 28.2463 1.68087 27.9757 1.6247C28.3421 1.59951 28.7057 1.57433 29.0722 1.54915C29.0834 1.56852 29.0947 1.58983 29.106 1.6092C29.0186 1.64988 28.9284 1.69056 28.8382 1.7293ZM24.1732 1.63632C24.1732 1.62857 24.1732 1.61888 24.1704 1.61113C24.3339 1.60145 24.4974 1.58595 24.6609 1.58014C24.8244 1.57433 24.9907 1.5782 25.1542 1.5782C25.1429 1.58208 25.1034 1.59176 25.0414 1.6092C25.1373 1.64988 25.1908 1.67312 25.2866 1.71381C24.8779 1.68669 24.5256 1.6615 24.1732 1.63632ZM29.8558 2.11674C29.5598 2.23685 29.2751 2.22135 29.1849 2.11674C29.4104 2.11674 29.6331 2.11674 29.8558 2.11674ZM95.7177 8.94923C96.2026 8.84849 96.4901 8.86206 96.569 9.00541C96.2815 8.98797 96.0024 8.9686 95.7177 8.94923ZM85.0489 7.36073C85.0461 7.38785 85.0433 7.41497 85.0405 7.44015C84.7135 7.40722 84.3865 7.37429 84.0596 7.34136C84.1808 7.31036 84.302 7.30455 84.4204 7.3123C84.5387 7.32005 84.6543 7.34136 84.7699 7.35104C84.8629 7.36073 84.9559 7.35879 85.0489 7.36073ZM12.3347 1.82035C12.3319 1.83972 12.3319 1.85716 12.329 1.87653C12.0754 1.96177 11.8668 1.84166 11.6356 1.80873C11.6413 1.78742 11.6441 1.76611 11.6497 1.74286C11.8809 1.76805 12.1064 1.79323 12.3347 1.82035ZM66.3919 2.13999C66.6315 2.13999 66.8711 2.13999 67.1783 2.13999C66.8993 2.25041 66.8993 2.25041 66.3919 2.13999ZM20.5794 1.75642C20.8782 1.63244 21.0163 1.64407 21.2108 1.81067C20.9966 1.79129 20.8021 1.7758 20.5794 1.75642ZM87.4279 5.94852C87.6393 5.94852 87.831 5.94852 88.0311 5.94852C87.9635 6.0938 87.7267 6.0938 87.4279 5.94852ZM10.2911 1.51427C10.5673 1.49878 10.7759 1.48715 11.0155 1.47359C10.7928 1.677 10.5758 1.58789 10.2911 1.51427ZM86.9093 12.1049C86.9093 12.1165 86.9093 12.1282 86.9093 12.1378C86.7063 12.1378 86.5006 12.1378 86.2948 12.1378C86.3032 12.1243 86.3173 12.0933 86.3286 12.07C86.5259 12.0817 86.7176 12.0933 86.9093 12.1049ZM30.6647 1.49103C30.6704 1.50653 30.676 1.52202 30.6816 1.53752C30.3885 1.56658 30.0982 1.59564 29.805 1.62663C29.8022 1.61501 29.8022 1.60339 29.7994 1.59176C30.0869 1.55883 30.3744 1.5259 30.6647 1.49103ZM88.158 4.64285C87.8761 4.64285 87.6196 4.64285 87.3095 4.64285C87.6196 4.58473 87.8761 4.54017 88.158 4.64285ZM29.7374 2.33565C29.5344 2.38989 29.385 2.43251 29.23 2.46544C29.2103 2.46931 29.168 2.41894 29.1342 2.39376C29.168 2.37439 29.199 2.33952 29.2356 2.33758C29.3766 2.33177 29.5175 2.33565 29.7374 2.33565ZM75.7782 2.43638C75.7697 2.44801 75.7641 2.46157 75.7556 2.47319C75.5865 2.44607 75.4174 2.41895 75.2765 2.39764C75.3046 2.35308 75.3272 2.31628 75.361 2.26591C75.4879 2.31628 75.6344 2.37633 75.7782 2.43638Z" fill="url(#paint0_linear_6398_569)"/>
<defs>
<linearGradient id="paint0_linear_6398_569" x1="99.0266" y1="15.8399" x2="7.71642" y2="-17.5796" gradientUnits="userSpaceOnUse">
<stop stop-color="#533CA3"/>
<stop offset="0.294518" stop-color="#BF5AB8"/>
<stop offset="0.682384" stop-color="#ED641F"/>
<stop offset="1" stop-color="#FFE322"/>
</linearGradient>
</defs>
</svg>
